<svg width="1024" height="1024" viewBox="0 0 1024 1024" fill="none" xmlns="http://www.w3.org/2000/svg">
<g filter="url(#filter0_d_2227_142)">
<circle cx="441" cy="490" r="5" fill="#E1F3FF"/>
</g>
<g filter="url(#filter1_d_2227_142)">
<circle cx="639" cy="548" r="5" fill="#E1F3FF"/>
</g>
<g filter="url(#filter2_d_2227_142)">
<circle cx="580" cy="586" r="5" fill="#E1F3FF"/>
</g>
<g filter="url(#filter3_d_2227_142)">
<circle cx="590" cy="485" r="5" fill="#E1F3FF"/>
</g>
<g filter="url(#filter4_d_2227_142)">
<circle cx="720" cy="521" r="5" fill="#E1F3FF"/>
</g>
<g filter="url(#filter5_d_2227_142)">
<circle cx="772" cy="536" r="6" fill="#E1F3FF"/>
</g>
<g filter="url(#filter6_d_2227_142)">
<circle cx="823" cy="559" r="6" fill="#E1F3FF"/>
</g>
<g filter="url(#filter7_d_2227_142)">
<circle cx="149" cy="570" r="7" fill="#E1F3FF"/>
</g>
<g filter="url(#filter8_d_2227_142)">
<circle cx="366" cy="579" r="6" fill="#E1F3FF"/>
</g>
<g filter="url(#filter9_d_2227_142)">
<circle cx="675" cy="579" r="6" fill="#E1F3FF"/>
</g>
<g filter="url(#filter10_d_2227_142)">
<circle cx="391" cy="549" r="6" fill="#E1F3FF"/>
</g>
<g filter="url(#filter11_d_2227_142)">
<circle cx="745" cy="581" r="6" fill="#E1F3FF"/>
</g>
<g filter="url(#filter12_d_2227_142)">
<circle cx="247" cy="579" r="6" fill="#E1F3FF"/>
</g>
<g filter="url(#filter13_d_2227_142)">
<circle cx="273" cy="525" r="5" fill="#E1F3FF"/>
</g>
<g filter="url(#filter14_d_2227_142)">
<circle cx="348" cy="521" r="5" fill="#E1F3FF"/>
</g>
<g filter="url(#filter15_d_2227_142)">
<circle cx="525" cy="808" r="10" fill="#E1F3FF"/>
</g>
<g filter="url(#filter16_d_2227_142)">
<circle cx="415" cy="748" r="10" fill="#E1F3FF"/>
</g>
<g filter="url(#filter17_d_2227_142)">
<circle cx="625" cy="748" r="9" fill="#E1F3FF"/>
</g>
<g filter="url(#filter18_d_2227_142)">
<circle cx="344" cy="657" r="9" fill="#E1F3FF"/>
</g>
<g filter="url(#filter19_d_2227_142)">
<circle cx="250" cy="639" r="9" fill="#E1F3FF"/>
</g>
<g filter="url(#filter20_d_2227_142)">
<circle cx="698" cy="700" r="9" fill="#E1F3FF"/>
</g>
<g filter="url(#filter21_d_2227_142)">
<circle cx="701" cy="638" r="8" fill="#E1F3FF"/>
</g>
<g filter="url(#filter22_d_2227_142)">
<circle cx="781" cy="642" r="9" fill="#E1F3FF"/>
</g>
<g filter="url(#filter23_d_2227_142)">
<circle cx="472" cy="626" r="7" fill="#E1F3FF"/>
</g>
<g filter="url(#filter24_d_2227_142)">
<circle cx="836" cy="607" r="7" fill="#E1F3FF"/>
</g>
<g filter="url(#filter25_d_2227_142)">
<circle cx="882" cy="572" r="7" fill="#E1F3FF"/>
</g>
<g filter="url(#filter26_d_2227_142)">
<circle cx="192" cy="594" r="7" fill="#E1F3FF"/>
</g>
<g filter="url(#filter27_d_2227_142)">
<circle cx="410" cy="655" r="8" fill="#E1F3FF"/>
</g>
<g filter="url(#filter28_d_2227_142)">
<circle cx="517" cy="708" r="8" fill="#E1F3FF"/>
</g>
<g filter="url(#filter29_d_2227_142)">
<circle cx="603" cy="640" r="8" fill="#E1F3FF"/>
</g>
<g filter="url(#filter30_dd_2227_142)">
<path fill-rule="evenodd" clip-rule="evenodd" d="M442.47 130.117C441.502 129.15 441.502 127.582 442.47 126.614L512.807 56.3059C514.549 54.5647 517.374 54.5647 519.116 56.3059L589.453 126.614C590.421 127.582 590.421 129.15 589.453 130.117C588.485 131.085 586.916 131.085 585.949 130.117L518.456 62.6531L518.456 87.3256L675.964 244.896C677.704 246.637 677.704 249.46 675.963 251.201L518.451 408.776L518.456 433.111L585.949 365.646C586.916 364.679 588.485 364.679 589.453 365.646C590.421 366.613 590.421 368.182 589.453 369.149L519.116 439.457C518.634 439.938 518.071 440.286 517.47 440.502C517.056 440.814 516.54 441 515.981 441C515.437 441 514.934 440.824 514.525 440.527C513.897 440.314 513.308 439.958 512.807 439.457L442.47 369.149C441.502 368.182 441.502 366.613 442.47 365.646C443.438 364.679 445.007 364.679 445.974 365.646L513.504 433.147L513.499 408.776L355.991 251.206C354.251 249.465 354.251 246.642 355.991 244.901L513.504 87.3257L513.505 62.6151L445.974 130.117C445.007 131.085 443.438 131.085 442.47 130.117ZM362.547 245.348L515.98 91.8545L669.413 245.348H643.841L586.974 188.443L592.924 183.252C593.956 182.352 594.063 180.785 593.163 179.753C592.264 178.72 590.698 178.613 589.666 179.513L583.316 185.053C581.368 186.752 581.266 189.747 583.093 191.575L639.309 247.828L515.944 371.274L461.614 316.908C459.869 315.162 457.039 315.165 455.298 316.915L449.769 322.47C448.803 323.441 448.806 325.012 449.776 325.978C450.746 326.945 452.315 326.942 453.281 325.971L458.46 320.768L512.79 375.133C514.532 376.876 517.357 376.876 519.099 375.133L643.841 250.309H669.852L515.975 404.247L362.098 250.309H388.048L446.792 309.092C447.76 310.06 449.329 310.06 450.297 309.092C451.265 308.123 451.265 306.553 450.297 305.584L392.58 247.828L515.944 124.382L573.662 182.138C574.63 183.107 576.199 183.107 577.167 182.138C578.135 181.169 578.135 179.599 577.167 178.63L519.099 120.524C517.357 118.78 514.532 118.78 512.79 120.524L388.048 245.348H362.547ZM324.307 244.728C322.564 246.47 322.564 249.293 324.307 251.035L418.576 345.265C419.544 346.233 421.113 346.233 422.081 345.265C423.049 344.298 423.049 342.729 422.081 341.761L328.162 247.882L422.081 154.002C423.049 153.034 423.049 151.466 422.081 150.498C421.113 149.531 419.544 149.531 418.576 150.498L324.307 244.728ZM613.424 150.498C612.456 149.531 610.887 149.531 609.919 150.498C608.951 151.466 608.951 153.034 609.919 154.002L703.838 247.882L609.919 341.761C608.951 342.729 608.951 344.298 609.919 345.265C610.887 346.233 612.456 346.233 613.424 345.265L707.693 251.035C709.436 249.293 709.436 246.47 707.693 244.728L613.424 150.498Z" fill="#D2F7FF"/>
</g>
<g filter="url(#filter31_ddd_2227_142)">
<path fill-rule="evenodd" clip-rule="evenodd" d="M458.052 193.711C459.032 192.735 460.621 192.735 461.601 193.711L468.943 201.02C470.708 202.777 470.708 205.625 468.944 207.382L424.227 251.911L516.5 343.795L561.217 299.267C562.981 297.51 565.841 297.51 567.605 299.267L574.027 305.663C575.007 306.639 575.007 308.222 574.027 309.197C573.047 310.173 571.458 310.173 570.478 309.197L564.411 303.154L519.694 347.683C517.93 349.439 515.07 349.439 513.306 347.683L420.323 255.091C418.559 253.335 418.559 250.486 420.323 248.73L465.04 204.201L458.053 197.245C457.073 196.269 457.072 194.687 458.052 193.711ZM516.499 144C517.885 144 519.008 145.119 519.008 146.499L519.009 155.457L612.677 248.73C614.441 250.487 614.441 253.335 612.677 255.091L573.672 293.932C572.692 294.908 571.103 294.908 570.123 293.932C569.143 292.956 569.143 291.374 570.123 290.398L608.773 251.911L516.5 160.026L477.85 198.514C476.87 199.49 475.281 199.49 474.301 198.514C473.321 197.538 473.321 195.956 474.301 194.98L513.99 155.457L513.989 146.499C513.989 145.119 515.113 144 516.499 144ZM438.25 251.628C438.25 250.248 439.373 249.129 440.759 249.129H447.767L513.186 183.986C514.95 182.229 517.81 182.229 519.574 183.986L546.078 210.377L550.551 206.572C551.605 205.675 553.189 205.799 554.089 206.848C554.989 207.898 554.865 209.475 553.811 210.371L548.985 214.477C547.193 216.002 544.524 215.898 542.857 214.238L516.38 187.873L452.356 251.628L516.38 315.383L580.405 251.628L551.56 222.905C550.58 221.929 550.58 220.347 551.56 219.371C552.54 218.395 554.129 218.395 555.109 219.371L584.993 249.129H592.33C593.716 249.129 594.84 250.248 594.84 251.628C594.84 253.008 593.716 254.127 592.33 254.127L584.993 254.127L518.89 319.953V328.92C518.89 330.3 517.766 331.419 516.38 331.419C514.994 331.419 513.871 330.3 513.871 328.92V319.953L447.767 254.127H440.759C439.373 254.127 438.25 253.008 438.25 251.628ZM519.516 205.473C519.517 204.093 518.393 202.974 517.007 202.974C515.621 202.974 514.498 204.093 514.497 205.473L514.497 210.43L476.937 247.833C475.173 249.589 475.173 252.437 476.937 254.194L491.651 268.847C492.631 269.823 494.22 269.823 495.2 268.847C496.18 267.871 496.18 266.289 495.2 265.313L480.84 251.013L517.007 214.999L553.173 251.013L517.007 287.028L503.888 273.964C502.246 272.329 499.603 272.267 497.885 273.823L494.276 277.093C493.251 278.022 493.177 279.603 494.109 280.624C495.042 281.644 496.629 281.719 497.654 280.79L500.791 277.948L514.497 291.597L514.497 297.357C514.497 298.738 515.621 299.856 517.007 299.856C518.393 299.856 519.516 298.738 519.516 297.358L519.516 291.597L557.077 254.194C558.841 252.438 558.841 249.589 557.077 247.833L519.516 210.43L519.516 205.473Z" fill="#D2F7FF"/>
</g>
<defs>
<filter id="filter0_d_2227_142" x="430" y="479" width="22" height="22" filterUnits="userSpaceOnUse" color-interpolation-filters="sRGB">
<feFlood flood-opacity="0" result="BackgroundImageFix"/>
<feColorMatrix in="SourceAlpha" type="matrix" values="0 0 0 0 0 0 0 0 0 0 0 0 0 0 0 0 0 0 127 0" result="hardAlpha"/>
<feMorphology radius="3" operator="dilate" in="SourceAlpha" result="effect1_dropShadow_2227_142"/>
<feOffset/>
<feGaussianBlur stdDeviation="1.5"/>
<feComposite in2="hardAlpha" operator="out"/>
<feColorMatrix type="matrix" values="0 0 0 0 1 0 0 0 0 1 0 0 0 0 1 0 0 0 0.6 0"/>
<feBlend mode="normal" in2="BackgroundImageFix" result="effect1_dropShadow_2227_142"/>
<feBlend mode="normal" in="SourceGraphic" in2="effect1_dropShadow_2227_142" result="shape"/>
</filter>
<filter id="filter1_d_2227_142" x="628" y="537" width="22" height="22" filterUnits="userSpaceOnUse" color-interpolation-filters="sRGB">
<feFlood flood-opacity="0" result="BackgroundImageFix"/>
<feColorMatrix in="SourceAlpha" type="matrix" values="0 0 0 0 0 0 0 0 0 0 0 0 0 0 0 0 0 0 127 0" result="hardAlpha"/>
<feMorphology radius="3" operator="dilate" in="SourceAlpha" result="effect1_dropShadow_2227_142"/>
<feOffset/>
<feGaussianBlur stdDeviation="1.5"/>
<feComposite in2="hardAlpha" operator="out"/>
<feColorMatrix type="matrix" values="0 0 0 0 1 0 0 0 0 1 0 0 0 0 1 0 0 0 0.6 0"/>
<feBlend mode="normal" in2="BackgroundImageFix" result="effect1_dropShadow_2227_142"/>
<feBlend mode="normal" in="SourceGraphic" in2="effect1_dropShadow_2227_142" result="shape"/>
</filter>
<filter id="filter2_d_2227_142" x="569" y="575" width="22" height="22" filterUnits="userSpaceOnUse" color-interpolation-filters="sRGB">
<feFlood flood-opacity="0" result="BackgroundImageFix"/>
<feColorMatrix in="SourceAlpha" type="matrix" values="0 0 0 0 0 0 0 0 0 0 0 0 0 0 0 0 0 0 127 0" result="hardAlpha"/>
<feMorphology radius="3" operator="dilate" in="SourceAlpha" result="effect1_dropShadow_2227_142"/>
<feOffset/>
<feGaussianBlur stdDeviation="1.5"/>
<feComposite in2="hardAlpha" operator="out"/>
<feColorMatrix type="matrix" values="0 0 0 0 1 0 0 0 0 1 0 0 0 0 1 0 0 0 0.6 0"/>
<feBlend mode="normal" in2="BackgroundImageFix" result="effect1_dropShadow_2227_142"/>
<feBlend mode="normal" in="SourceGraphic" in2="effect1_dropShadow_2227_142" result="shape"/>
</filter>
<filter id="filter3_d_2227_142" x="579" y="474" width="22" height="22" filterUnits="userSpaceOnUse" color-interpolation-filters="sRGB">
<feFlood flood-opacity="0" result="BackgroundImageFix"/>
<feColorMatrix in="SourceAlpha" type="matrix" values="0 0 0 0 0 0 0 0 0 0 0 0 0 0 0 0 0 0 127 0" result="hardAlpha"/>
<feMorphology radius="3" operator="dilate" in="SourceAlpha" result="effect1_dropShadow_2227_142"/>
<feOffset/>
<feGaussianBlur stdDeviation="1.5"/>
<feComposite in2="hardAlpha" operator="out"/>
<feColorMatrix type="matrix" values="0 0 0 0 1 0 0 0 0 1 0 0 0 0 1 0 0 0 0.6 0"/>
<feBlend mode="normal" in2="BackgroundImageFix" result="effect1_dropShadow_2227_142"/>
<feBlend mode="normal" in="SourceGraphic" in2="effect1_dropShadow_2227_142" result="shape"/>
</filter>
<filter id="filter4_d_2227_142" x="709" y="510" width="22" height="22" filterUnits="userSpaceOnUse" color-interpolation-filters="sRGB">
<feFlood flood-opacity="0" result="BackgroundImageFix"/>
<feColorMatrix in="SourceAlpha" type="matrix" values="0 0 0 0 0 0 0 0 0 0 0 0 0 0 0 0 0 0 127 0" result="hardAlpha"/>
<feMorphology radius="3" operator="dilate" in="SourceAlpha" result="effect1_dropShadow_2227_142"/>
<feOffset/>
<feGaussianBlur stdDeviation="1.5"/>
<feComposite in2="hardAlpha" operator="out"/>
<feColorMatrix type="matrix" values="0 0 0 0 1 0 0 0 0 1 0 0 0 0 1 0 0 0 0.6 0"/>
<feBlend mode="normal" in2="BackgroundImageFix" result="effect1_dropShadow_2227_142"/>
<feBlend mode="normal" in="SourceGraphic" in2="effect1_dropShadow_2227_142" result="shape"/>
</filter>
<filter id="filter5_d_2227_142" x="760" y="524" width="24" height="24" filterUnits="userSpaceOnUse" color-interpolation-filters="sRGB">
<feFlood flood-opacity="0" result="BackgroundImageFix"/>
<feColorMatrix in="SourceAlpha" type="matrix" values="0 0 0 0 0 0 0 0 0 0 0 0 0 0 0 0 0 0 127 0" result="hardAlpha"/>
<feMorphology radius="3" operator="dilate" in="SourceAlpha" result="effect1_dropShadow_2227_142"/>
<feOffset/>
<feGaussianBlur stdDeviation="1.5"/>
<feComposite in2="hardAlpha" operator="out"/>
<feColorMatrix type="matrix" values="0 0 0 0 1 0 0 0 0 1 0 0 0 0 1 0 0 0 0.6 0"/>
<feBlend mode="normal" in2="BackgroundImageFix" result="effect1_dropShadow_2227_142"/>
<feBlend mode="normal" in="SourceGraphic" in2="effect1_dropShadow_2227_142" result="shape"/>
</filter>
<filter id="filter6_d_2227_142" x="811" y="547" width="24" height="24" filterUnits="userSpaceOnUse" color-interpolation-filters="sRGB">
<feFlood flood-opacity="0" result="BackgroundImageFix"/>
<feColorMatrix in="SourceAlpha" type="matrix" values="0 0 0 0 0 0 0 0 0 0 0 0 0 0 0 0 0 0 127 0" result="hardAlpha"/>
<feMorphology radius="3" operator="dilate" in="SourceAlpha" result="effect1_dropShadow_2227_142"/>
<feOffset/>
<feGaussianBlur stdDeviation="1.5"/>
<feComposite in2="hardAlpha" operator="out"/>
<feColorMatrix type="matrix" values="0 0 0 0 1 0 0 0 0 1 0 0 0 0 1 0 0 0 0.6 0"/>
<feBlend mode="normal" in2="BackgroundImageFix" result="effect1_dropShadow_2227_142"/>
<feBlend mode="normal" in="SourceGraphic" in2="effect1_dropShadow_2227_142" result="shape"/>
</filter>
<filter id="filter7_d_2227_142" x="136" y="557" width="26" height="26" filterUnits="userSpaceOnUse" color-interpolation-filters="sRGB">
<feFlood flood-opacity="0" result="BackgroundImageFix"/>
<feColorMatrix in="SourceAlpha" type="matrix" values="0 0 0 0 0 0 0 0 0 0 0 0 0 0 0 0 0 0 127 0" result="hardAlpha"/>
<feMorphology radius="3" operator="dilate" in="SourceAlpha" result="effect1_dropShadow_2227_142"/>
<feOffset/>
<feGaussianBlur stdDeviation="1.5"/>
<feComposite in2="hardAlpha" operator="out"/>
<feColorMatrix type="matrix" values="0 0 0 0 1 0 0 0 0 1 0 0 0 0 1 0 0 0 0.6 0"/>
<feBlend mode="normal" in2="BackgroundImageFix" result="effect1_dropShadow_2227_142"/>
<feBlend mode="normal" in="SourceGraphic" in2="effect1_dropShadow_2227_142" result="shape"/>
</filter>
<filter id="filter8_d_2227_142" x="354" y="567" width="24" height="24" filterUnits="userSpaceOnUse" color-interpolation-filters="sRGB">
<feFlood flood-opacity="0" result="BackgroundImageFix"/>
<feColorMatrix in="SourceAlpha" type="matrix" values="0 0 0 0 0 0 0 0 0 0 0 0 0 0 0 0 0 0 127 0" result="hardAlpha"/>
<feMorphology radius="3" operator="dilate" in="SourceAlpha" result="effect1_dropShadow_2227_142"/>
<feOffset/>
<feGaussianBlur stdDeviation="1.5"/>
<feComposite in2="hardAlpha" operator="out"/>
<feColorMatrix type="matrix" values="0 0 0 0 1 0 0 0 0 1 0 0 0 0 1 0 0 0 0.6 0"/>
<feBlend mode="normal" in2="BackgroundImageFix" result="effect1_dropShadow_2227_142"/>
<feBlend mode="normal" in="SourceGraphic" in2="effect1_dropShadow_2227_142" result="shape"/>
</filter>
<filter id="filter9_d_2227_142" x="663" y="567" width="24" height="24" filterUnits="userSpaceOnUse" color-interpolation-filters="sRGB">
<feFlood flood-opacity="0" result="BackgroundImageFix"/>
<feColorMatrix in="SourceAlpha" type="matrix" values="0 0 0 0 0 0 0 0 0 0 0 0 0 0 0 0 0 0 127 0" result="hardAlpha"/>
<feMorphology radius="3" operator="dilate" in="SourceAlpha" result="effect1_dropShadow_2227_142"/>
<feOffset/>
<feGaussianBlur stdDeviation="1.5"/>
<feComposite in2="hardAlpha" operator="out"/>
<feColorMatrix type="matrix" values="0 0 0 0 1 0 0 0 0 1 0 0 0 0 1 0 0 0 0.6 0"/>
<feBlend mode="normal" in2="BackgroundImageFix" result="effect1_dropShadow_2227_142"/>
<feBlend mode="normal" in="SourceGraphic" in2="effect1_dropShadow_2227_142" result="shape"/>
</filter>
<filter id="filter10_d_2227_142" x="379" y="537" width="24" height="24" filterUnits="userSpaceOnUse" color-interpolation-filters="sRGB">
<feFlood flood-opacity="0" result="BackgroundImageFix"/>
<feColorMatrix in="SourceAlpha" type="matrix" values="0 0 0 0 0 0 0 0 0 0 0 0 0 0 0 0 0 0 127 0" result="hardAlpha"/>
<feMorphology radius="3" operator="dilate" in="SourceAlpha" result="effect1_dropShadow_2227_142"/>
<feOffset/>
<feGaussianBlur stdDeviation="1.5"/>
<feComposite in2="hardAlpha" operator="out"/>
<feColorMatrix type="matrix" values="0 0 0 0 1 0 0 0 0 1 0 0 0 0 1 0 0 0 0.6 0"/>
<feBlend mode="normal" in2="BackgroundImageFix" result="effect1_dropShadow_2227_142"/>
<feBlend mode="normal" in="SourceGraphic" in2="effect1_dropShadow_2227_142" result="shape"/>
</filter>
<filter id="filter11_d_2227_142" x="733" y="569" width="24" height="24" filterUnits="userSpaceOnUse" color-interpolation-filters="sRGB">
<feFlood flood-opacity="0" result="BackgroundImageFix"/>
<feColorMatrix in="SourceAlpha" type="matrix" values="0 0 0 0 0 0 0 0 0 0 0 0 0 0 0 0 0 0 127 0" result="hardAlpha"/>
<feMorphology radius="3" operator="dilate" in="SourceAlpha" result="effect1_dropShadow_2227_142"/>
<feOffset/>
<feGaussianBlur stdDeviation="1.5"/>
<feComposite in2="hardAlpha" operator="out"/>
<feColorMatrix type="matrix" values="0 0 0 0 1 0 0 0 0 1 0 0 0 0 1 0 0 0 0.6 0"/>
<feBlend mode="normal" in2="BackgroundImageFix" result="effect1_dropShadow_2227_142"/>
<feBlend mode="normal" in="SourceGraphic" in2="effect1_dropShadow_2227_142" result="shape"/>
</filter>
<filter id="filter12_d_2227_142" x="235" y="567" width="24" height="24" filterUnits="userSpaceOnUse" color-interpolation-filters="sRGB">
<feFlood flood-opacity="0" result="BackgroundImageFix"/>
<feColorMatrix in="SourceAlpha" type="matrix" values="0 0 0 0 0 0 0 0 0 0 0 0 0 0 0 0 0 0 127 0" result="hardAlpha"/>
<feMorphology radius="3" operator="dilate" in="SourceAlpha" result="effect1_dropShadow_2227_142"/>
<feOffset/>
<feGaussianBlur stdDeviation="1.5"/>
<feComposite in2="hardAlpha" operator="out"/>
<feColorMatrix type="matrix" values="0 0 0 0 1 0 0 0 0 1 0 0 0 0 1 0 0 0 0.6 0"/>
<feBlend mode="normal" in2="BackgroundImageFix" result="effect1_dropShadow_2227_142"/>
<feBlend mode="normal" in="SourceGraphic" in2="effect1_dropShadow_2227_142" result="shape"/>
</filter>
<filter id="filter13_d_2227_142" x="262" y="514" width="22" height="22" filterUnits="userSpaceOnUse" color-interpolation-filters="sRGB">
<feFlood flood-opacity="0" result="BackgroundImageFix"/>
<feColorMatrix in="SourceAlpha" type="matrix" values="0 0 0 0 0 0 0 0 0 0 0 0 0 0 0 0 0 0 127 0" result="hardAlpha"/>
<feMorphology radius="3" operator="dilate" in="SourceAlpha" result="effect1_dropShadow_2227_142"/>
<feOffset/>
<feGaussianBlur stdDeviation="1.5"/>
<feComposite in2="hardAlpha" operator="out"/>
<feColorMatrix type="matrix" values="0 0 0 0 1 0 0 0 0 1 0 0 0 0 1 0 0 0 0.6 0"/>
<feBlend mode="normal" in2="BackgroundImageFix" result="effect1_dropShadow_2227_142"/>
<feBlend mode="normal" in="SourceGraphic" in2="effect1_dropShadow_2227_142" result="shape"/>
</filter>
<filter id="filter14_d_2227_142" x="337" y="510" width="22" height="22" filterUnits="userSpaceOnUse" color-interpolation-filters="sRGB">
<feFlood flood-opacity="0" result="BackgroundImageFix"/>
<feColorMatrix in="SourceAlpha" type="matrix" values="0 0 0 0 0 0 0 0 0 0 0 0 0 0 0 0 0 0 127 0" result="hardAlpha"/>
<feMorphology radius="3" operator="dilate" in="SourceAlpha" result="effect1_dropShadow_2227_142"/>
<feOffset/>
<feGaussianBlur stdDeviation="1.5"/>
<feComposite in2="hardAlpha" operator="out"/>
<feColorMatrix type="matrix" values="0 0 0 0 1 0 0 0 0 1 0 0 0 0 1 0 0 0 0.6 0"/>
<feBlend mode="normal" in2="BackgroundImageFix" result="effect1_dropShadow_2227_142"/>
<feBlend mode="normal" in="SourceGraphic" in2="effect1_dropShadow_2227_142" result="shape"/>
</filter>
<filter id="filter15_d_2227_142" x="509" y="792" width="32" height="32" filterUnits="userSpaceOnUse" color-interpolation-filters="sRGB">
<feFlood flood-opacity="0" result="BackgroundImageFix"/>
<feColorMatrix in="SourceAlpha" type="matrix" values="0 0 0 0 0 0 0 0 0 0 0 0 0 0 0 0 0 0 127 0" result="hardAlpha"/>
<feMorphology radius="3" operator="dilate" in="SourceAlpha" result="effect1_dropShadow_2227_142"/>
<feOffset/>
<feGaussianBlur stdDeviation="1.5"/>
<feComposite in2="hardAlpha" operator="out"/>
<feColorMatrix type="matrix" values="0 0 0 0 1 0 0 0 0 1 0 0 0 0 1 0 0 0 0.6 0"/>
<feBlend mode="normal" in2="BackgroundImageFix" result="effect1_dropShadow_2227_142"/>
<feBlend mode="normal" in="SourceGraphic" in2="effect1_dropShadow_2227_142" result="shape"/>
</filter>
<filter id="filter16_d_2227_142" x="399" y="732" width="32" height="32" filterUnits="userSpaceOnUse" color-interpolation-filters="sRGB">
<feFlood flood-opacity="0" result="BackgroundImageFix"/>
<feColorMatrix in="SourceAlpha" type="matrix" values="0 0 0 0 0 0 0 0 0 0 0 0 0 0 0 0 0 0 127 0" result="hardAlpha"/>
<feMorphology radius="3" operator="dilate" in="SourceAlpha" result="effect1_dropShadow_2227_142"/>
<feOffset/>
<feGaussianBlur stdDeviation="1.5"/>
<feComposite in2="hardAlpha" operator="out"/>
<feColorMatrix type="matrix" values="0 0 0 0 1 0 0 0 0 1 0 0 0 0 1 0 0 0 0.6 0"/>
<feBlend mode="normal" in2="BackgroundImageFix" result="effect1_dropShadow_2227_142"/>
<feBlend mode="normal" in="SourceGraphic" in2="effect1_dropShadow_2227_142" result="shape"/>
</filter>
<filter id="filter17_d_2227_142" x="610" y="733" width="30" height="30" filterUnits="userSpaceOnUse" color-interpolation-filters="sRGB">
<feFlood flood-opacity="0" result="BackgroundImageFix"/>
<feColorMatrix in="SourceAlpha" type="matrix" values="0 0 0 0 0 0 0 0 0 0 0 0 0 0 0 0 0 0 127 0" result="hardAlpha"/>
<feMorphology radius="3" operator="dilate" in="SourceAlpha" result="effect1_dropShadow_2227_142"/>
<feOffset/>
<feGaussianBlur stdDeviation="1.5"/>
<feComposite in2="hardAlpha" operator="out"/>
<feColorMatrix type="matrix" values="0 0 0 0 1 0 0 0 0 1 0 0 0 0 1 0 0 0 0.6 0"/>
<feBlend mode="normal" in2="BackgroundImageFix" result="effect1_dropShadow_2227_142"/>
<feBlend mode="normal" in="SourceGraphic" in2="effect1_dropShadow_2227_142" result="shape"/>
</filter>
<filter id="filter18_d_2227_142" x="329" y="642" width="30" height="30" filterUnits="userSpaceOnUse" color-interpolation-filters="sRGB">
<feFlood flood-opacity="0" result="BackgroundImageFix"/>
<feColorMatrix in="SourceAlpha" type="matrix" values="0 0 0 0 0 0 0 0 0 0 0 0 0 0 0 0 0 0 127 0" result="hardAlpha"/>
<feMorphology radius="3" operator="dilate" in="SourceAlpha" result="effect1_dropShadow_2227_142"/>
<feOffset/>
<feGaussianBlur stdDeviation="1.5"/>
<feComposite in2="hardAlpha" operator="out"/>
<feColorMatrix type="matrix" values="0 0 0 0 1 0 0 0 0 1 0 0 0 0 1 0 0 0 0.6 0"/>
<feBlend mode="normal" in2="BackgroundImageFix" result="effect1_dropShadow_2227_142"/>
<feBlend mode="normal" in="SourceGraphic" in2="effect1_dropShadow_2227_142" result="shape"/>
</filter>
<filter id="filter19_d_2227_142" x="235" y="624" width="30" height="30" filterUnits="userSpaceOnUse" color-interpolation-filters="sRGB">
<feFlood flood-opacity="0" result="BackgroundImageFix"/>
<feColorMatrix in="SourceAlpha" type="matrix" values="0 0 0 0 0 0 0 0 0 0 0 0 0 0 0 0 0 0 127 0" result="hardAlpha"/>
<feMorphology radius="3" operator="dilate" in="SourceAlpha" result="effect1_dropShadow_2227_142"/>
<feOffset/>
<feGaussianBlur stdDeviation="1.5"/>
<feComposite in2="hardAlpha" operator="out"/>
<feColorMatrix type="matrix" values="0 0 0 0 1 0 0 0 0 1 0 0 0 0 1 0 0 0 0.6 0"/>
<feBlend mode="normal" in2="BackgroundImageFix" result="effect1_dropShadow_2227_142"/>
<feBlend mode="normal" in="SourceGraphic" in2="effect1_dropShadow_2227_142" result="shape"/>
</filter>
<filter id="filter20_d_2227_142" x="683" y="685" width="30" height="30" filterUnits="userSpaceOnUse" color-interpolation-filters="sRGB">
<feFlood flood-opacity="0" result="BackgroundImageFix"/>
<feColorMatrix in="SourceAlpha" type="matrix" values="0 0 0 0 0 0 0 0 0 0 0 0 0 0 0 0 0 0 127 0" result="hardAlpha"/>
<feMorphology radius="3" operator="dilate" in="SourceAlpha" result="effect1_dropShadow_2227_142"/>
<feOffset/>
<feGaussianBlur stdDeviation="1.5"/>
<feComposite in2="hardAlpha" operator="out"/>
<feColorMatrix type="matrix" values="0 0 0 0 1 0 0 0 0 1 0 0 0 0 1 0 0 0 0.6 0"/>
<feBlend mode="normal" in2="BackgroundImageFix" result="effect1_dropShadow_2227_142"/>
<feBlend mode="normal" in="SourceGraphic" in2="effect1_dropShadow_2227_142" result="shape"/>
</filter>
<filter id="filter21_d_2227_142" x="687" y="624" width="28" height="28" filterUnits="userSpaceOnUse" color-interpolation-filters="sRGB">
<feFlood flood-opacity="0" result="BackgroundImageFix"/>
<feColorMatrix in="SourceAlpha" type="matrix" values="0 0 0 0 0 0 0 0 0 0 0 0 0 0 0 0 0 0 127 0" result="hardAlpha"/>
<feMorphology radius="3" operator="dilate" in="SourceAlpha" result="effect1_dropShadow_2227_142"/>
<feOffset/>
<feGaussianBlur stdDeviation="1.5"/>
<feComposite in2="hardAlpha" operator="out"/>
<feColorMatrix type="matrix" values="0 0 0 0 1 0 0 0 0 1 0 0 0 0 1 0 0 0 0.6 0"/>
<feBlend mode="normal" in2="BackgroundImageFix" result="effect1_dropShadow_2227_142"/>
<feBlend mode="normal" in="SourceGraphic" in2="effect1_dropShadow_2227_142" result="shape"/>
</filter>
<filter id="filter22_d_2227_142" x="766" y="627" width="30" height="30" filterUnits="userSpaceOnUse" color-interpolation-filters="sRGB">
<feFlood flood-opacity="0" result="BackgroundImageFix"/>
<feColorMatrix in="SourceAlpha" type="matrix" values="0 0 0 0 0 0 0 0 0 0 0 0 0 0 0 0 0 0 127 0" result="hardAlpha"/>
<feMorphology radius="3" operator="dilate" in="SourceAlpha" result="effect1_dropShadow_2227_142"/>
<feOffset/>
<feGaussianBlur stdDeviation="1.5"/>
<feComposite in2="hardAlpha" operator="out"/>
<feColorMatrix type="matrix" values="0 0 0 0 1 0 0 0 0 1 0 0 0 0 1 0 0 0 0.6 0"/>
<feBlend mode="normal" in2="BackgroundImageFix" result="effect1_dropShadow_2227_142"/>
<feBlend mode="normal" in="SourceGraphic" in2="effect1_dropShadow_2227_142" result="shape"/>
</filter>
<filter id="filter23_d_2227_142" x="459" y="613" width="26" height="26" filterUnits="userSpaceOnUse" color-interpolation-filters="sRGB">
<feFlood flood-opacity="0" result="BackgroundImageFix"/>
<feColorMatrix in="SourceAlpha" type="matrix" values="0 0 0 0 0 0 0 0 0 0 0 0 0 0 0 0 0 0 127 0" result="hardAlpha"/>
<feMorphology radius="3" operator="dilate" in="SourceAlpha" result="effect1_dropShadow_2227_142"/>
<feOffset/>
<feGaussianBlur stdDeviation="1.5"/>
<feComposite in2="hardAlpha" operator="out"/>
<feColorMatrix type="matrix" values="0 0 0 0 1 0 0 0 0 1 0 0 0 0 1 0 0 0 0.6 0"/>
<feBlend mode="normal" in2="BackgroundImageFix" result="effect1_dropShadow_2227_142"/>
<feBlend mode="normal" in="SourceGraphic" in2="effect1_dropShadow_2227_142" result="shape"/>
</filter>
<filter id="filter24_d_2227_142" x="823" y="594" width="26" height="26" filterUnits="userSpaceOnUse" color-interpolation-filters="sRGB">
<feFlood flood-opacity="0" result="BackgroundImageFix"/>
<feColorMatrix in="SourceAlpha" type="matrix" values="0 0 0 0 0 0 0 0 0 0 0 0 0 0 0 0 0 0 127 0" result="hardAlpha"/>
<feMorphology radius="3" operator="dilate" in="SourceAlpha" result="effect1_dropShadow_2227_142"/>
<feOffset/>
<feGaussianBlur stdDeviation="1.5"/>
<feComposite in2="hardAlpha" operator="out"/>
<feColorMatrix type="matrix" values="0 0 0 0 1 0 0 0 0 1 0 0 0 0 1 0 0 0 0.6 0"/>
<feBlend mode="normal" in2="BackgroundImageFix" result="effect1_dropShadow_2227_142"/>
<feBlend mode="normal" in="SourceGraphic" in2="effect1_dropShadow_2227_142" result="shape"/>
</filter>
<filter id="filter25_d_2227_142" x="869" y="559" width="26" height="26" filterUnits="userSpaceOnUse" color-interpolation-filters="sRGB">
<feFlood flood-opacity="0" result="BackgroundImageFix"/>
<feColorMatrix in="SourceAlpha" type="matrix" values="0 0 0 0 0 0 0 0 0 0 0 0 0 0 0 0 0 0 127 0" result="hardAlpha"/>
<feMorphology radius="3" operator="dilate" in="SourceAlpha" result="effect1_dropShadow_2227_142"/>
<feOffset/>
<feGaussianBlur stdDeviation="1.5"/>
<feComposite in2="hardAlpha" operator="out"/>
<feColorMatrix type="matrix" values="0 0 0 0 1 0 0 0 0 1 0 0 0 0 1 0 0 0 0.6 0"/>
<feBlend mode="normal" in2="BackgroundImageFix" result="effect1_dropShadow_2227_142"/>
<feBlend mode="normal" in="SourceGraphic" in2="effect1_dropShadow_2227_142" result="shape"/>
</filter>
<filter id="filter26_d_2227_142" x="179" y="581" width="26" height="26" filterUnits="userSpaceOnUse" color-interpolation-filters="sRGB">
<feFlood flood-opacity="0" result="BackgroundImageFix"/>
<feColorMatrix in="SourceAlpha" type="matrix" values="0 0 0 0 0 0 0 0 0 0 0 0 0 0 0 0 0 0 127 0" result="hardAlpha"/>
<feMorphology radius="3" operator="dilate" in="SourceAlpha" result="effect1_dropShadow_2227_142"/>
<feOffset/>
<feGaussianBlur stdDeviation="1.5"/>
<feComposite in2="hardAlpha" operator="out"/>
<feColorMatrix type="matrix" values="0 0 0 0 1 0 0 0 0 1 0 0 0 0 1 0 0 0 0.6 0"/>
<feBlend mode="normal" in2="BackgroundImageFix" result="effect1_dropShadow_2227_142"/>
<feBlend mode="normal" in="SourceGraphic" in2="effect1_dropShadow_2227_142" result="shape"/>
</filter>
<filter id="filter27_d_2227_142" x="396" y="641" width="28" height="28" filterUnits="userSpaceOnUse" color-interpolation-filters="sRGB">
<feFlood flood-opacity="0" result="BackgroundImageFix"/>
<feColorMatrix in="SourceAlpha" type="matrix" values="0 0 0 0 0 0 0 0 0 0 0 0 0 0 0 0 0 0 127 0" result="hardAlpha"/>
<feMorphology radius="3" operator="dilate" in="SourceAlpha" result="effect1_dropShadow_2227_142"/>
<feOffset/>
<feGaussianBlur stdDeviation="1.5"/>
<feComposite in2="hardAlpha" operator="out"/>
<feColorMatrix type="matrix" values="0 0 0 0 1 0 0 0 0 1 0 0 0 0 1 0 0 0 0.6 0"/>
<feBlend mode="normal" in2="BackgroundImageFix" result="effect1_dropShadow_2227_142"/>
<feBlend mode="normal" in="SourceGraphic" in2="effect1_dropShadow_2227_142" result="shape"/>
</filter>
<filter id="filter28_d_2227_142" x="503" y="694" width="28" height="28" filterUnits="userSpaceOnUse" color-interpolation-filters="sRGB">
<feFlood flood-opacity="0" result="BackgroundImageFix"/>
<feColorMatrix in="SourceAlpha" type="matrix" values="0 0 0 0 0 0 0 0 0 0 0 0 0 0 0 0 0 0 127 0" result="hardAlpha"/>
<feMorphology radius="3" operator="dilate" in="SourceAlpha" result="effect1_dropShadow_2227_142"/>
<feOffset/>
<feGaussianBlur stdDeviation="1.5"/>
<feComposite in2="hardAlpha" operator="out"/>
<feColorMatrix type="matrix" values="0 0 0 0 1 0 0 0 0 1 0 0 0 0 1 0 0 0 0.6 0"/>
<feBlend mode="normal" in2="BackgroundImageFix" result="effect1_dropShadow_2227_142"/>
<feBlend mode="normal" in="SourceGraphic" in2="effect1_dropShadow_2227_142" result="shape"/>
</filter>
<filter id="filter29_d_2227_142" x="589" y="626" width="28" height="28" filterUnits="userSpaceOnUse" color-interpolation-filters="sRGB">
<feFlood flood-opacity="0" result="BackgroundImageFix"/>
<feColorMatrix in="SourceAlpha" type="matrix" values="0 0 0 0 0 0 0 0 0 0 0 0 0 0 0 0 0 0 127 0" result="hardAlpha"/>
<feMorphology radius="3" operator="dilate" in="SourceAlpha" result="effect1_dropShadow_2227_142"/>
<feOffset/>
<feGaussianBlur stdDeviation="1.5"/>
<feComposite in2="hardAlpha" operator="out"/>
<feColorMatrix type="matrix" values="0 0 0 0 1 0 0 0 0 1 0 0 0 0 1 0 0 0 0.6 0"/>
<feBlend mode="normal" in2="BackgroundImageFix" result="effect1_dropShadow_2227_142"/>
<feBlend mode="normal" in="SourceGraphic" in2="effect1_dropShadow_2227_142" result="shape"/>
</filter>
<filter id="filter30_dd_2227_142" x="293" y="25" width="446" height="446" filterUnits="userSpaceOnUse" color-interpolation-filters="sRGB">
<feFlood flood-opacity="0" result="BackgroundImageFix"/>
<feColorMatrix in="SourceAlpha" type="matrix" values="0 0 0 0 0 0 0 0 0 0 0 0 0 0 0 0 0 0 127 0" result="hardAlpha"/>
<feOffset/>
<feGaussianBlur stdDeviation="15"/>
<feComposite in2="hardAlpha" operator="out"/>
<feColorMatrix type="matrix" values="0 0 0 0 0.176471 0 0 0 0 0.764706 0 0 0 0 1 0 0 0 1 0"/>
<feBlend mode="normal" in2="BackgroundImageFix" result="effect1_dropShadow_2227_142"/>
<feColorMatrix in="SourceAlpha" type="matrix" values="0 0 0 0 0 0 0 0 0 0 0 0 0 0 0 0 0 0 127 0" result="hardAlpha"/>
<feOffset dy="4"/>
<feGaussianBlur stdDeviation="3"/>
<feComposite in2="hardAlpha" operator="out"/>
<feColorMatrix type="matrix" values="0 0 0 0 0.113725 0 0 0 0 0.160784 0 0 0 0 0.254902 0 0 0 0.25 0"/>
<feBlend mode="normal" in2="effect1_dropShadow_2227_142" result="effect2_dropShadow_2227_142"/>
<feBlend mode="normal" in="SourceGraphic" in2="effect2_dropShadow_2227_142" result="shape"/>
</filter>
<filter id="filter31_ddd_2227_142" x="359" y="84" width="315" height="325" filterUnits="userSpaceOnUse" color-interpolation-filters="sRGB">
<feFlood flood-opacity="0" result="BackgroundImageFix"/>
<feColorMatrix in="SourceAlpha" type="matrix" values="0 0 0 0 0 0 0 0 0 0 0 0 0 0 0 0 0 0 127 0" result="hardAlpha"/>
<feOffset/>
<feGaussianBlur stdDeviation="15"/>
<feComposite in2="hardAlpha" operator="out"/>
<feColorMatrix type="matrix" values="0 0 0 0 0.0807129 0 0 0 0 0.678249 0 0 0 0 1 0 0 0 1 0"/>
<feBlend mode="normal" in2="BackgroundImageFix" result="effect1_dropShadow_2227_142"/>
<feColorMatrix in="SourceAlpha" type="matrix" values="0 0 0 0 0 0 0 0 0 0 0 0 0 0 0 0 0 0 127 0" result="hardAlpha"/>
<feOffset dy="4"/>
<feGaussianBlur stdDeviation="3"/>
<feComposite in2="hardAlpha" operator="out"/>
<feColorMatrix type="matrix" values="0 0 0 0 0.113725 0 0 0 0 0.160784 0 0 0 0 0.254902 0 0 0 0.25 0"/>
<feBlend mode="normal" in2="effect1_dropShadow_2227_142" result="effect2_dropShadow_2227_142"/>
<feColorMatrix in="SourceAlpha" type="matrix" values="0 0 0 0 0 0 0 0 0 0 0 0 0 0 0 0 0 0 127 0" result="hardAlpha"/>
<feOffset/>
<feGaussianBlur stdDeviation="30"/>
<feComposite in2="hardAlpha" operator="out"/>
<feColorMatrix type="matrix" values="0 0 0 0 0.176025 0 0 0 0 0.766541 0 0 0 0 1 0 0 0 1 0"/>
<feBlend mode="normal" in2="effect2_dropShadow_2227_142" result="effect3_dropShadow_2227_142"/>
<feBlend mode="normal" in="SourceGraphic" in2="effect3_dropShadow_2227_142" result="shape"/>
</filter>
</defs>
</svg>
