<svg width="1024" height="1024" viewBox="0 0 1024 1024" fill="none" xmlns="http://www.w3.org/2000/svg">
<g clip-path="url(#clip0_1812_524)">
<g filter="url(#filter0_d_1812_524)">
<circle cx="423" cy="517" r="5" fill="#FFF6CA"/>
</g>
<g filter="url(#filter1_d_1812_524)">
<circle cx="512" cy="542" r="5" fill="#FFF6CA"/>
</g>
<g filter="url(#filter2_d_1812_524)">
<circle cx="437" cy="577" r="5" fill="#FFF6CA"/>
</g>
<g filter="url(#filter3_d_1812_524)">
<circle cx="624" cy="530" r="5" fill="#FFF6CA"/>
</g>
<g filter="url(#filter4_d_1812_524)">
<circle cx="773" cy="554" r="5" fill="#FFF6CA"/>
</g>
<g filter="url(#filter5_d_1812_524)">
<circle cx="760" cy="605" r="6" fill="#FFF6CA"/>
</g>
<g filter="url(#filter6_d_1812_524)">
<circle cx="819" cy="597" r="6" fill="#FFF6CA"/>
</g>
<g filter="url(#filter7_d_1812_524)">
<circle cx="538" cy="635" r="7" fill="#FFF6CA"/>
</g>
<g filter="url(#filter8_d_1812_524)">
<circle cx="585" cy="578" r="6" fill="#FFF6CA"/>
</g>
<g filter="url(#filter9_d_1812_524)">
<circle cx="473" cy="616" r="6" fill="#FFF6CA"/>
</g>
<g filter="url(#filter10_d_1812_524)">
<circle cx="366" cy="611" r="6" fill="#FFF6CA"/>
</g>
<g filter="url(#filter11_d_1812_524)">
<circle cx="693" cy="588" r="6" fill="#FFF6CA"/>
</g>
<g filter="url(#filter12_d_1812_524)">
<circle cx="283" cy="611" r="6" fill="#FFF6CA"/>
</g>
<g filter="url(#filter13_d_1812_524)">
<circle cx="187" cy="567" r="5" fill="#FFF6CA"/>
</g>
<g filter="url(#filter14_d_1812_524)">
<circle cx="247" cy="577" r="5" fill="#FFF6CA"/>
</g>
<g filter="url(#filter15_d_1812_524)">
<circle cx="575" cy="808" r="10" fill="#FFF6CA"/>
</g>
<g filter="url(#filter16_d_1812_524)">
<circle cx="370" cy="786" r="10" fill="#FFF6CA"/>
</g>
<g filter="url(#filter17_d_1812_524)">
<circle cx="433" cy="766" r="9" fill="#FFF6CA"/>
</g>
<g filter="url(#filter18_d_1812_524)">
<circle cx="261" cy="698" r="9" fill="#FFF6CA"/>
</g>
<g filter="url(#filter19_d_1812_524)">
<circle cx="214" cy="742" r="9" fill="#FFF6CA"/>
</g>
<g filter="url(#filter20_d_1812_524)">
<circle cx="733" cy="724" r="9" fill="#FFF6CA"/>
</g>
<g filter="url(#filter21_d_1812_524)">
<circle cx="650" cy="724" r="8" fill="#FFF6CA"/>
</g>
<g filter="url(#filter22_d_1812_524)">
<circle cx="864" cy="728" r="9" fill="#FFF6CA"/>
</g>
<g filter="url(#filter23_d_1812_524)">
<circle cx="670" cy="642" r="7" fill="#FFF6CA"/>
</g>
<g filter="url(#filter24_d_1812_524)">
<circle cx="784" cy="673" r="7" fill="#FFF6CA"/>
</g>
<g filter="url(#filter25_d_1812_524)">
<circle cx="838" cy="661" r="7" fill="#FFF6CA"/>
</g>
<g filter="url(#filter26_d_1812_524)">
<circle cx="180" cy="656" r="7" fill="#FFF6CA"/>
</g>
<g filter="url(#filter27_d_1812_524)">
<circle cx="364" cy="711" r="8" fill="#FFF6CA"/>
</g>
<g filter="url(#filter28_d_1812_524)">
<circle cx="428" cy="663" r="8" fill="#FFF6CA"/>
</g>
<g filter="url(#filter29_d_1812_524)">
<circle cx="514" cy="735" r="8" fill="#FFF6CA"/>
</g>
<g filter="url(#filter30_ddd_1812_524)">
<path fill-rule="evenodd" clip-rule="evenodd" d="M522.821 102.419C522.241 102.31 521.644 102.33 521.073 102.479C520.412 102.651 519.838 103.035 519.382 103.34C519.339 103.369 519.297 103.397 519.256 103.424L421.395 168.313C420.475 168.924 420.223 170.165 420.834 171.085C421.444 172.006 422.685 172.257 423.606 171.647L448.899 154.876V163.112L373.929 210.33L373.826 210.395L373.815 210.402C373.393 210.666 372.862 210.998 372.457 211.473C372.107 211.883 371.843 212.361 371.682 212.876C371.496 213.472 371.499 214.097 371.5 214.595C371.5 214.641 371.501 214.687 371.501 214.73V357.911C371.501 359.016 372.396 359.911 373.501 359.911C374.605 359.911 375.501 359.016 375.501 357.911V214.73C375.501 214.386 375.501 214.21 375.509 214.083L375.509 214.073L375.518 214.067C375.622 213.993 375.77 213.899 376.061 213.715L448.899 167.84V175.412L396.795 209.57C395.871 210.176 395.613 211.415 396.219 212.339C396.824 213.263 398.064 213.521 398.988 212.915L448.899 180.195V195.277L398.782 228.132L398.673 228.203C398.27 228.465 397.764 228.795 397.376 229.258C397.04 229.658 396.786 230.121 396.628 230.619C396.446 231.195 396.44 231.799 396.435 232.28L396.433 232.41L394.891 345.89C394.876 346.995 395.76 347.902 396.864 347.917C397.969 347.932 398.876 347.049 398.891 345.945L399.065 333.16L405.402 336.742V366.231L405.402 366.36C405.401 366.834 405.399 367.43 405.569 368.002C405.716 368.497 405.958 368.959 406.281 369.361C406.654 369.827 407.146 370.165 407.536 370.433L407.642 370.506L432.501 387.719V405.396L408.52 389.241C407.604 388.624 406.361 388.866 405.744 389.782C405.127 390.698 405.369 391.941 406.285 392.558L432.501 410.22V419.448L386.935 388.709C386.655 388.52 386.513 388.423 386.414 388.348L386.406 388.342L386.405 388.332C386.4 388.207 386.402 388.036 386.406 387.698L388.5 227.985C388.515 226.88 387.631 225.973 386.527 225.959C385.422 225.944 384.515 226.828 384.501 227.932L382.406 387.646L382.404 387.778C382.396 388.266 382.386 388.879 382.558 389.467C382.706 389.976 382.954 390.45 383.288 390.862C383.673 391.338 384.182 391.68 384.588 391.951L384.698 392.025L432.501 424.273V443.38C432.501 444.485 433.396 445.38 434.501 445.38C435.605 445.38 436.501 444.485 436.501 443.38V426.971L466.386 447.132L465.957 489.346C465.946 490.45 466.832 491.355 467.937 491.366C469.041 491.377 469.946 490.491 469.957 489.386L470.359 449.812L480.957 456.962V499.36C480.957 500.464 481.853 501.36 482.957 501.36C484.062 501.36 484.957 500.464 484.957 499.36V459.66L490.457 463.371V489.366C490.457 490.471 491.353 491.366 492.457 491.366C493.562 491.366 494.457 490.471 494.457 489.366V466.069L509.018 475.892C509.056 475.917 509.095 475.944 509.134 475.971L509.146 475.979C509.614 476.297 510.201 476.696 510.879 476.873C511.465 477.025 512.078 477.042 512.671 476.923C513.358 476.786 513.967 476.42 514.452 476.13L514.525 476.085L514.585 476.05L515.46 475.529V492.862C515.46 493.967 516.356 494.862 517.46 494.862C518.565 494.862 519.46 493.967 519.46 492.862V473.149L529.457 467.202V476.871C529.457 477.975 530.353 478.871 531.457 478.871C532.562 478.871 533.457 477.975 533.457 476.871V464.822L550.902 454.443V526.35C550.902 527.455 551.798 528.35 552.902 528.35C554.007 528.35 554.902 527.455 554.902 526.35V452.064L562.659 447.449V458.375C562.659 459.479 563.554 460.375 564.659 460.375C565.763 460.375 566.659 459.479 566.659 458.375V445.069L598.891 425.893V435.144L591.46 439.674C590.517 440.249 590.218 441.479 590.793 442.422C591.368 443.366 592.598 443.664 593.542 443.089L598.891 439.828V492.362C598.891 493.467 599.787 494.362 600.891 494.362C601.996 494.362 602.891 493.467 602.891 492.362V437.39L674.007 394.043L674.125 393.971C674.557 393.71 675.102 393.38 675.517 392.903C675.877 392.49 676.148 392.007 676.314 391.485C676.505 390.882 676.503 390.246 676.501 389.74C676.501 389.693 676.501 389.647 676.501 389.602V325.423C676.501 324.319 675.605 323.423 674.501 323.423C673.396 323.423 672.501 324.319 672.501 325.423V389.602C672.501 389.953 672.5 390.131 672.492 390.26L672.492 390.271L672.483 390.277C672.376 390.351 672.224 390.445 671.925 390.627L602.891 432.706V423.513L655.777 392.049L655.836 392.015L655.897 391.978C656.338 391.718 656.892 391.392 657.315 390.912C657.682 390.497 657.959 390.011 658.128 389.484C658.323 388.875 658.321 388.231 658.319 387.72L658.319 387.639L658.318 387.581V262.946C658.318 261.841 657.423 260.946 656.318 260.946C655.214 260.946 654.318 261.841 654.318 262.946V387.581C654.318 387.935 654.318 388.116 654.31 388.247L654.309 388.258L654.3 388.264C654.192 388.337 654.037 388.431 653.732 388.612L602.891 418.859V408.444L647.897 382.638C648.856 382.089 649.187 380.866 648.637 379.908C648.088 378.95 646.866 378.619 645.908 379.168L602.891 403.833V367.192L607.402 364.689V373.406C607.402 374.51 608.298 375.406 609.402 375.406C610.507 375.406 611.402 374.51 611.402 373.406V362.47L621.62 356.801C622.437 356.348 622.929 356.078 623.296 355.916C623.318 355.906 623.338 355.898 623.357 355.89L623.36 355.915L623.364 355.956C623.4 356.356 623.402 356.917 623.402 357.851V367.908C623.402 369.012 624.298 369.908 625.402 369.908C626.507 369.908 627.402 369.012 627.402 367.908V357.766C627.403 356.945 627.403 356.195 627.347 355.591C627.29 354.974 627.156 354.181 626.651 353.478C625.994 352.565 624.985 351.971 623.868 351.84C623.008 351.739 622.25 352.006 621.683 352.256C621.127 352.501 620.472 352.864 619.754 353.262L611.402 357.896V315.707L624.41 309.607C624.456 309.585 624.503 309.563 624.551 309.541C625.065 309.303 625.711 309.003 626.21 308.51C626.642 308.084 626.972 307.566 627.174 306.994C627.408 306.332 627.405 305.621 627.403 305.054C627.403 305.001 627.402 304.949 627.402 304.899V256.127L660.739 239.798L660.74 239.798C661.531 239.41 662.245 239.06 662.791 238.728C663.292 238.423 663.909 237.986 664.326 237.301V342.418C664.326 343.522 665.222 344.418 666.326 344.418C667.431 344.418 668.326 343.522 668.326 342.418V217.783L668.327 217.643C668.328 217.132 668.331 216.489 668.135 215.879C667.966 215.352 667.69 214.866 667.323 214.451C666.899 213.972 666.345 213.645 665.905 213.385L665.785 213.314L633.899 194.344V169.873L660.903 185.214C661.864 185.76 663.085 185.424 663.63 184.463C664.176 183.503 663.84 182.282 662.879 181.736L524.699 103.236C524.656 103.212 524.612 103.187 524.568 103.162C524.091 102.889 523.492 102.545 522.821 102.419ZM629.899 167.601L522.723 106.714C522.391 106.526 522.221 106.43 522.093 106.368L522.082 106.362L522.071 106.368C521.948 106.439 521.785 106.547 521.467 106.758L452.779 152.303C452.857 152.516 452.899 152.746 452.899 152.986V160.593L458.935 156.792C459.869 156.203 461.104 156.483 461.693 157.418C462.282 158.353 462.001 159.588 461.067 160.176L452.899 165.32V172.79L519.058 129.418C519.099 129.391 519.142 129.363 519.185 129.334C519.65 129.026 520.235 128.64 520.907 128.472C521.487 128.327 522.093 128.313 522.679 128.433C523.357 128.572 523.958 128.932 524.436 129.219L524.515 129.267L524.567 129.298L602.233 175.504C602.736 175.588 603.176 175.86 603.478 176.245L629.899 191.964V167.601ZM436.501 422.146L466.435 442.34L466.528 433.144L436.501 412.914V422.146ZM470.408 445.02L480.957 452.137V401.37L470.923 394.308L470.759 410.386C470.759 410.405 470.759 410.424 470.759 410.443L470.55 431.03L477.517 435.724C478.433 436.341 478.675 437.584 478.058 438.5C477.441 439.416 476.198 439.658 475.282 439.041L470.501 435.82L470.408 445.02ZM484.957 454.835L490.457 458.546V408.056L484.957 404.185V454.835ZM494.457 461.244L511.255 472.576C511.58 472.795 511.748 472.908 511.875 472.982L511.886 472.988L511.897 472.982C512.028 472.916 512.202 472.813 512.54 472.612L515.46 470.875V373.448L515.46 373.423C515.46 373.404 515.46 373.385 515.46 373.367V300.935C515.46 299.83 516.356 298.935 517.46 298.935C518.565 298.935 519.46 299.83 519.46 300.935V370.131L529.457 364.998V304.933C529.457 303.829 530.353 302.933 531.457 302.933C532.562 302.933 533.457 303.829 533.457 304.933V362.944L550.902 353.987V310.429C550.902 309.324 551.798 308.429 552.902 308.429C554.007 308.429 554.902 309.324 554.902 310.429V351.933L562.659 347.951V335.464C562.658 335.435 562.658 335.406 562.659 335.378V264.161C562.659 263.826 562.658 263.656 562.651 263.533L562.65 263.523L562.642 263.517C562.544 263.443 562.403 263.348 562.125 263.162L518.126 233.809C517.784 233.58 517.606 233.463 517.472 233.386L517.46 233.379L517.448 233.386C517.314 233.463 517.136 233.58 516.794 233.809L472.779 263.174C472.503 263.357 472.364 263.451 472.267 263.524L472.259 263.53L472.258 263.54C472.25 263.662 472.248 263.829 472.245 264.16L471.531 334.373L480.957 340.833V326.423C480.957 325.318 481.853 324.423 482.957 324.423C484.062 324.423 484.957 325.318 484.957 326.423V343.575L490.457 347.345V308.432C490.457 307.327 491.353 306.432 492.457 306.432C493.562 306.432 494.457 307.327 494.457 308.432V350.086L510.03 360.76C510.941 361.385 511.173 362.629 510.549 363.54C509.924 364.452 508.679 364.684 507.768 364.059L494.457 354.936V405.98L506.899 414.736V408.393C506.899 407.288 507.795 406.393 508.899 406.393C510.004 406.393 510.899 407.288 510.899 408.393V453.876C510.899 454.981 510.004 455.876 508.899 455.876C507.795 455.876 506.899 454.981 506.899 453.876V419.618C506.851 419.59 506.803 419.559 506.756 419.526L494.457 410.871V461.244ZM519.46 468.495L529.457 462.547V407.93L525.471 410.142C524.505 410.678 523.288 410.329 522.752 409.363C522.216 408.397 522.565 407.18 523.53 406.644L529.457 403.356V369.494L519.46 374.627V468.495ZM533.457 460.168L550.902 449.789V438.254L549.397 439.117C548.439 439.667 547.217 439.335 546.667 438.377C546.118 437.419 546.449 436.197 547.408 435.647L550.902 433.643V396.033L533.457 405.711V460.168ZM554.902 447.409L562.659 442.795V431.513L554.902 435.961V447.409ZM566.659 440.415L598.891 421.239V410.738L566.659 429.22V440.415ZM522.522 132.736L599.902 178.772V193.861L525.147 148.814C525.104 148.788 525.06 148.762 525.015 148.734C524.536 148.443 523.934 148.077 523.253 147.935C522.664 147.812 522.055 147.824 521.472 147.969C520.796 148.137 520.209 148.525 519.741 148.834C519.697 148.863 519.654 148.892 519.612 148.919L511.107 154.495C511.04 154.488 510.971 154.485 510.902 154.485C510.009 154.485 509.253 155.07 508.996 155.879L452.899 192.654V177.573L521.251 132.763C521.574 132.551 521.741 132.443 521.867 132.371L521.878 132.365L521.889 132.371C522.018 132.437 522.189 132.538 522.522 132.736ZM603.902 196.272V181.152L629.899 196.618V211.937L603.902 196.272ZM633.899 198.998L663.74 216.752C664.044 216.933 664.199 217.026 664.308 217.099L664.317 217.106L664.318 217.117C664.326 217.248 664.326 217.428 664.326 217.783V233.266C663.972 232.702 663.489 232.3 663.083 232.002C662.568 231.623 661.887 231.212 661.131 230.757L633.899 214.347V198.998ZM599.902 198.531L523.082 152.24C522.749 152.039 522.577 151.936 522.448 151.869L522.436 151.864L522.425 151.87C522.299 151.942 522.131 152.051 521.805 152.264L512.902 158.101V182.384L518.085 178.94L518.17 178.883L518.215 178.854C518.686 178.537 519.279 178.14 519.962 177.969C520.552 177.821 521.168 177.809 521.763 177.935C522.452 178.08 523.059 178.455 523.543 178.753L523.617 178.799L523.676 178.835L614.404 234.314L614.441 234.336L614.522 234.385C614.953 234.647 615.496 234.976 615.911 235.453C616.269 235.866 616.54 236.348 616.705 236.87C616.896 237.473 616.893 238.108 616.892 238.612C616.891 238.659 616.891 238.705 616.891 238.75V256.822L623.402 253.633V232.957C623.402 231.852 624.298 230.957 625.402 230.957C626.507 230.957 627.402 231.852 627.402 232.957V251.673L658.901 236.244C659.796 235.806 660.341 235.537 660.711 235.311C660.734 235.297 660.756 235.283 660.776 235.271C660.757 235.256 660.737 235.241 660.715 235.225C660.365 234.968 659.846 234.653 658.993 234.139L633.899 219.017V241.954C633.899 243.058 633.004 243.954 631.899 243.954C630.795 243.954 629.899 243.058 629.899 241.954V216.607L603.902 200.942V223.46C603.902 224.565 603.007 225.46 601.902 225.46C600.798 225.46 599.902 224.565 599.902 223.46V198.531ZM623.402 258.087L615.935 261.745C615.62 261.899 615.284 261.963 614.956 261.946C614.935 261.947 614.913 261.947 614.891 261.947C613.787 261.947 612.891 261.052 612.891 259.947V238.75C612.891 238.4 612.891 238.222 612.883 238.093L612.882 238.082L612.874 238.076C612.767 238.002 612.616 237.909 612.317 237.726L521.589 182.247C521.252 182.042 521.078 181.936 520.948 181.867L520.936 181.861L520.925 181.868C520.797 181.942 520.627 182.053 520.299 182.272L512.902 187.187V195.345L518.068 191.946L518.135 191.901L518.2 191.858C518.683 191.538 519.288 191.136 519.984 190.969C520.585 190.824 521.212 190.821 521.814 190.959C522.512 191.12 523.122 191.515 523.607 191.83C523.653 191.86 523.697 191.889 523.741 191.917L600.506 241.326L600.618 241.398C601.033 241.663 601.555 241.997 601.953 242.47C602.297 242.879 602.555 243.352 602.713 243.863C602.895 244.453 602.893 245.073 602.892 245.565L602.891 245.699V315.281L607.402 313.165V262.449C607.402 261.344 608.298 260.449 609.402 260.449C610.507 260.449 611.402 261.344 611.402 262.449V311.289L622.712 305.985C623.068 305.818 623.251 305.731 623.38 305.661L623.391 305.654L623.392 305.642C623.402 305.495 623.402 305.292 623.402 304.899V258.087ZM508.902 160.723L452.899 197.437V222.26L508.902 185.043V160.723ZM448.899 200.06L400.975 231.477C400.697 231.659 400.556 231.753 400.458 231.825L400.45 231.831L400.449 231.841C400.441 231.963 400.438 232.132 400.433 232.464L399.127 328.601L405.402 332.148V237.455C405.402 236.351 406.298 235.455 407.402 235.455C408.507 235.455 409.402 236.351 409.402 237.455V334.408L421.623 341.315L422.934 244.892L422.935 244.762C422.94 244.285 422.946 243.685 423.126 243.113C423.282 242.618 423.533 242.157 423.865 241.758C424.248 241.296 424.749 240.966 425.147 240.703L425.255 240.632L448.899 224.919V200.06ZM448.899 243.953V229.721L427.469 243.963C427.194 244.146 427.055 244.239 426.958 244.312L426.95 244.318L426.949 244.327C426.941 244.449 426.938 244.616 426.933 244.946L425.593 343.559L432.501 347.463V271.443C432.501 270.338 433.396 269.443 434.501 269.443C435.605 269.443 436.501 270.338 436.501 271.443V349.724L438.71 350.973C439.529 351.435 440.023 351.713 440.393 351.879C440.415 351.889 440.436 351.898 440.455 351.906C440.457 351.885 440.459 351.863 440.462 351.838C440.499 351.435 440.501 350.868 440.501 349.928V335.42C440.501 334.315 441.396 333.42 442.501 333.42C443.605 333.42 444.501 334.315 444.501 335.42L444.501 350.012C444.501 350.841 444.501 351.595 444.445 352.204C444.388 352.824 444.253 353.621 443.743 354.327C443.082 355.242 442.066 355.835 440.944 355.96C440.079 356.056 439.318 355.782 438.751 355.526C438.194 355.275 437.537 354.904 436.816 354.497L436.501 354.318V365.192L467 386.657L467.194 367.573L450.978 355.477L450.879 355.403C450.513 355.132 450.053 354.791 449.705 354.335C449.404 353.939 449.179 353.491 449.042 353.012C448.884 352.46 448.885 351.887 448.887 351.432L448.887 351.309L448.884 256.755C448.884 256.71 448.883 256.663 448.883 256.616C448.881 256.108 448.879 255.47 449.072 254.864C449.239 254.34 449.512 253.856 449.874 253.443C450.293 252.964 450.84 252.636 451.276 252.375L451.282 252.371C451.32 252.348 451.358 252.326 451.394 252.304L465.957 243.504V231.028L462.006 233.628C461.084 234.235 459.843 233.979 459.236 233.057C458.629 232.134 458.885 230.894 459.807 230.287L465.957 226.239V218.385L452.899 227.063V243.953C452.899 245.057 452.004 245.953 450.899 245.953C449.795 245.953 448.899 245.057 448.899 243.953ZM409.402 339.003L421.561 345.875L421.414 356.696L421.412 356.826C421.404 357.303 421.394 357.903 421.559 358.481C421.701 358.98 421.94 359.447 422.261 359.856C422.632 360.328 423.124 360.672 423.515 360.945L423.621 361.02L432.501 367.268V382.854L409.919 367.218C409.65 367.031 409.513 366.936 409.418 366.862L409.41 366.856L409.41 366.846C409.403 366.725 409.402 366.559 409.402 366.231V339.003ZM425.923 357.748L432.501 362.377V352.058L425.531 348.119L425.414 356.751C425.41 357.081 425.408 357.248 425.413 357.37L425.414 357.38L425.421 357.386C425.517 357.461 425.653 357.558 425.923 357.748ZM436.501 385.623V370.083L466.951 391.513L466.798 406.601L436.501 385.623ZM480.957 396.479L470.972 389.452L471.164 370.535L480.957 377.84V396.479ZM490.457 403.164L484.957 399.294V380.824L485.203 381.007C486.089 381.668 487.342 381.486 488.002 380.6C488.663 379.715 488.48 378.462 487.595 377.801L484.957 375.833V348.424L490.457 352.194V403.164ZM469.957 223.607V215.727L508.902 189.845V197.977L469.957 223.607ZM469.957 241.087L515.155 213.776C515.197 213.75 515.24 213.724 515.284 213.697C515.756 213.41 516.349 213.048 517.021 212.904C517.601 212.78 518.201 212.786 518.779 212.923C519.447 213.081 520.032 213.454 520.498 213.752C520.542 213.78 520.584 213.807 520.626 213.833L581.4 252.317L581.514 252.389C581.934 252.653 582.463 252.985 582.866 253.46C583.215 253.87 583.477 254.347 583.637 254.861C583.822 255.455 583.82 256.079 583.818 256.575L583.818 256.71V324.225L598.891 317.156V245.699C598.891 245.358 598.891 245.185 598.883 245.059L598.883 245.049L598.874 245.043C598.773 244.969 598.627 244.874 598.341 244.69L521.576 195.281C521.238 195.063 521.062 194.951 520.931 194.878L520.919 194.872L520.908 194.878C520.777 194.953 520.602 195.066 520.267 195.287L512.902 200.134V210.465C512.902 211.57 512.007 212.465 510.902 212.465C509.798 212.465 508.902 211.57 508.902 210.465V202.766L469.957 228.396V241.087ZM579.818 326.101V256.71C579.818 256.367 579.817 256.192 579.81 256.065L579.809 256.055L579.801 256.049C579.698 255.975 579.55 255.88 579.26 255.697L518.486 217.213C518.162 217.007 517.995 216.903 517.87 216.834L517.859 216.828L517.848 216.834C517.721 216.9 517.552 217.001 517.223 217.199L453.463 255.727C453.162 255.909 453.009 256.003 452.901 256.076L452.893 256.083L452.892 256.093C452.884 256.223 452.884 256.403 452.884 256.754L452.887 351.309C452.887 351.624 452.888 351.783 452.894 351.898L452.894 351.907L452.901 351.913C452.99 351.987 453.117 352.083 453.37 352.271L467.244 362.621L468.245 264.119L468.246 263.99C468.249 263.512 468.253 262.911 468.432 262.337C468.586 261.84 468.837 261.378 469.168 260.977C469.551 260.514 470.052 260.182 470.45 259.918L470.559 259.846L514.574 230.481C514.618 230.452 514.663 230.422 514.71 230.39C515.201 230.06 515.817 229.645 516.528 229.475C517.141 229.328 517.78 229.328 518.393 229.475C519.103 229.645 519.72 230.06 520.211 230.39L520.313 230.459L564.344 259.835L564.454 259.908C564.857 260.174 565.364 260.51 565.749 260.98C566.083 261.386 566.333 261.854 566.486 262.357C566.663 262.938 566.66 263.546 566.659 264.029L566.659 264.161V332.273L579.818 326.101ZM471.214 365.582L480.957 372.85V345.683L471.483 339.189L471.214 365.582ZM579.818 330.519V354.516C579.818 354.884 579.817 355.073 579.809 355.21L579.808 355.221L579.798 355.228C579.682 355.3 579.517 355.392 579.194 355.569L566.659 362.429V350.393L571.914 347.695C572.897 347.19 573.284 345.985 572.78 345.002C572.275 344.02 571.07 343.632 570.087 344.137L566.659 345.897V336.691L579.818 330.519ZM566.659 366.989L581.114 359.078L581.163 359.051L581.242 359.008C581.709 358.755 582.296 358.436 582.747 357.951C583.137 357.531 583.433 357.033 583.614 356.489C583.823 355.861 583.82 355.193 583.818 354.661V354.651C583.818 354.605 583.818 354.56 583.818 354.516V328.643L598.891 321.574V364.836L566.659 382.718V366.989ZM562.659 364.618V352.447L554.902 356.429V368.863L562.659 364.618ZM554.902 373.423L562.659 369.178V384.937L554.902 389.24V373.423ZM550.902 371.052V358.483L533.457 367.44V380.599L550.902 371.052ZM533.457 385.159L550.902 375.612V391.459L533.457 401.137V385.159ZM602.891 319.699V362.617L607.402 360.115V317.583L602.891 319.699ZM566.659 387.292L598.891 369.411V406.127L566.659 424.609V387.292ZM466.749 411.433L436.501 390.488V408.091L466.577 428.354L466.749 411.433ZM554.902 393.814V431.35L562.659 426.903V389.511L554.902 393.814Z" fill="url(#paint0_linear_1812_524)"/>
<path d="M634.899 254.948C636.004 254.948 636.899 255.844 636.899 256.948V379.404C636.899 380.508 636.004 381.404 634.899 381.404C633.795 381.404 632.899 380.508 632.899 379.404V256.948C632.899 255.844 633.795 254.948 634.899 254.948Z" fill="url(#paint1_linear_1812_524)"/>
</g>
<g filter="url(#filter31_dddddd_1812_524)">
<path fill-rule="evenodd" clip-rule="evenodd" d="M517.915 656.888L514.837 630.113L527.726 653.809L517.23 629.593L516.428 628.157L541.192 646.447L516.216 626.237L552.798 633.341L525.005 625.043L548.062 624.836L521.09 623.874L518.227 623.019L520.449 622.502L553.515 611.411L518.971 621.297L515.637 622.246L515.283 622.14L515.318 620.978L529.672 594.966L515.397 618.294L516.297 587.71L512.684 614.391L509.362 593.574L511.164 618.733L497.945 595.068L510.308 621.016L509.619 620.891L488.598 603.832L507.195 620.452L476.179 614.83L505.163 623.296L480.773 622.392L507.201 624.647L488.951 629.842L510.158 624.9L510.855 624.959L511.248 625.074L510.928 625.596L494.608 652.179L511.292 627.742L509.908 660.738L513.656 634.246L517.915 656.888Z" fill="url(#paint2_radial_1812_524)"/>
</g>
<g style="mix-blend-mode:plus-darker">
<path fill-rule="evenodd" clip-rule="evenodd" d="M543.143 635.341L519.119 623.698L545.606 625.443L519.901 621.405L518.293 621.317L546.37 610.192L516.571 620.477L541.369 593.445L520.08 612.455L531.789 592.916L517.082 615.132L514.909 617.072L515.622 614.92L523.357 581.175L513.851 615.525L512.928 618.842L512.644 619.095L511.697 618.455L497.278 592.52L509.487 616.961L484.303 599.932L504.753 617.117L485.663 608.876L507.687 620.74L481.026 619.288L509.152 622.675L508.691 623.191L483.557 631.825L507.074 624.999L486.386 648.13L508.393 628.24L495.08 648.288L510.599 627.208L505.55 645.351L512.335 624.85L512.716 624.332L513.028 624.05L513.3 624.594L527.177 652.475L515.291 625.441L542.23 644.147L521.904 626.861L543.143 635.341Z" fill="url(#paint3_radial_1812_524)"/>
</g>
<g filter="url(#filter32_dddddd_1812_524)">
<path fill-rule="evenodd" clip-rule="evenodd" d="M526.181 274.155L523.242 276.139L524.452 273.697L539.367 234.837L522.527 273.491L517.924 235L517.917 273.953L506.453 244.248L516.822 275.15L489.774 251.029L511.216 274.652L489.858 261.869L514.029 279.372L482.592 273.51L515.449 281.897L514.816 282.435L483.475 288.782L512.588 284.33L484.074 308.576L513.631 288.366L494.392 310.114L516.391 287.523L507.322 308.259L518.551 285.604L524.225 330.78L523.515 295.146L531.837 320.067L523.415 290.133L523.354 287.096L551.146 312.514L529.95 288.879L553.707 302.212L527.118 284.659L558.324 290.846L528.449 282.06L526.54 281.705L561.815 272.854L524.644 280.438L558.708 252.195L530.197 271.444L547.417 250.08L526.181 274.155Z" fill="url(#paint4_radial_1812_524)"/>
</g>
<g style="mix-blend-mode:plus-darker">
<path fill-rule="evenodd" clip-rule="evenodd" d="M519.429 268.765L518.128 272L517.769 269.33L508.472 229.104L516.067 270.163L485.117 233.704L512.351 273.019L486.717 255.025L512.323 274.754L476.814 269.814L507.396 277.422L482.887 278.676L512.376 279.753L483.373 292.274L514.927 281.054L514.703 281.859L492.555 304.366L513.927 284.648L503.997 320.336L517.016 287.39L513.298 315.915L518.817 285.143L522.871 307.24L519.528 282.401L549.188 316.472L528.891 287.539L549.483 303.452L526.036 283.47L524.295 280.988L561.122 286.583L530.623 278.802L557.52 276.67L526.025 276.886L555.002 264.768L525.668 274.015L523.92 274.77L547.906 248.031L521.646 274.793L533.916 232.736L521.217 264.318L523.495 237.227L519.429 268.765Z" fill="url(#paint5_radial_1812_524)"/>
</g>
</g>
<defs>
<filter id="filter0_d_1812_524" x="412" y="506" width="22" height="22" filterUnits="userSpaceOnUse" color-interpolation-filters="sRGB">
<feFlood flood-opacity="0" result="BackgroundImageFix"/>
<feColorMatrix in="SourceAlpha" type="matrix" values="0 0 0 0 0 0 0 0 0 0 0 0 0 0 0 0 0 0 127 0" result="hardAlpha"/>
<feMorphology radius="3" operator="dilate" in="SourceAlpha" result="effect1_dropShadow_1812_524"/>
<feOffset/>
<feGaussianBlur stdDeviation="1.5"/>
<feComposite in2="hardAlpha" operator="out"/>
<feColorMatrix type="matrix" values="0 0 0 0 1 0 0 0 0 1 0 0 0 0 1 0 0 0 0.6 0"/>
<feBlend mode="normal" in2="BackgroundImageFix" result="effect1_dropShadow_1812_524"/>
<feBlend mode="normal" in="SourceGraphic" in2="effect1_dropShadow_1812_524" result="shape"/>
</filter>
<filter id="filter1_d_1812_524" x="501" y="531" width="22" height="22" filterUnits="userSpaceOnUse" color-interpolation-filters="sRGB">
<feFlood flood-opacity="0" result="BackgroundImageFix"/>
<feColorMatrix in="SourceAlpha" type="matrix" values="0 0 0 0 0 0 0 0 0 0 0 0 0 0 0 0 0 0 127 0" result="hardAlpha"/>
<feMorphology radius="3" operator="dilate" in="SourceAlpha" result="effect1_dropShadow_1812_524"/>
<feOffset/>
<feGaussianBlur stdDeviation="1.5"/>
<feComposite in2="hardAlpha" operator="out"/>
<feColorMatrix type="matrix" values="0 0 0 0 1 0 0 0 0 1 0 0 0 0 1 0 0 0 0.6 0"/>
<feBlend mode="normal" in2="BackgroundImageFix" result="effect1_dropShadow_1812_524"/>
<feBlend mode="normal" in="SourceGraphic" in2="effect1_dropShadow_1812_524" result="shape"/>
</filter>
<filter id="filter2_d_1812_524" x="426" y="566" width="22" height="22" filterUnits="userSpaceOnUse" color-interpolation-filters="sRGB">
<feFlood flood-opacity="0" result="BackgroundImageFix"/>
<feColorMatrix in="SourceAlpha" type="matrix" values="0 0 0 0 0 0 0 0 0 0 0 0 0 0 0 0 0 0 127 0" result="hardAlpha"/>
<feMorphology radius="3" operator="dilate" in="SourceAlpha" result="effect1_dropShadow_1812_524"/>
<feOffset/>
<feGaussianBlur stdDeviation="1.5"/>
<feComposite in2="hardAlpha" operator="out"/>
<feColorMatrix type="matrix" values="0 0 0 0 1 0 0 0 0 1 0 0 0 0 1 0 0 0 0.6 0"/>
<feBlend mode="normal" in2="BackgroundImageFix" result="effect1_dropShadow_1812_524"/>
<feBlend mode="normal" in="SourceGraphic" in2="effect1_dropShadow_1812_524" result="shape"/>
</filter>
<filter id="filter3_d_1812_524" x="613" y="519" width="22" height="22" filterUnits="userSpaceOnUse" color-interpolation-filters="sRGB">
<feFlood flood-opacity="0" result="BackgroundImageFix"/>
<feColorMatrix in="SourceAlpha" type="matrix" values="0 0 0 0 0 0 0 0 0 0 0 0 0 0 0 0 0 0 127 0" result="hardAlpha"/>
<feMorphology radius="3" operator="dilate" in="SourceAlpha" result="effect1_dropShadow_1812_524"/>
<feOffset/>
<feGaussianBlur stdDeviation="1.5"/>
<feComposite in2="hardAlpha" operator="out"/>
<feColorMatrix type="matrix" values="0 0 0 0 1 0 0 0 0 1 0 0 0 0 1 0 0 0 0.6 0"/>
<feBlend mode="normal" in2="BackgroundImageFix" result="effect1_dropShadow_1812_524"/>
<feBlend mode="normal" in="SourceGraphic" in2="effect1_dropShadow_1812_524" result="shape"/>
</filter>
<filter id="filter4_d_1812_524" x="762" y="543" width="22" height="22" filterUnits="userSpaceOnUse" color-interpolation-filters="sRGB">
<feFlood flood-opacity="0" result="BackgroundImageFix"/>
<feColorMatrix in="SourceAlpha" type="matrix" values="0 0 0 0 0 0 0 0 0 0 0 0 0 0 0 0 0 0 127 0" result="hardAlpha"/>
<feMorphology radius="3" operator="dilate" in="SourceAlpha" result="effect1_dropShadow_1812_524"/>
<feOffset/>
<feGaussianBlur stdDeviation="1.5"/>
<feComposite in2="hardAlpha" operator="out"/>
<feColorMatrix type="matrix" values="0 0 0 0 1 0 0 0 0 1 0 0 0 0 1 0 0 0 0.6 0"/>
<feBlend mode="normal" in2="BackgroundImageFix" result="effect1_dropShadow_1812_524"/>
<feBlend mode="normal" in="SourceGraphic" in2="effect1_dropShadow_1812_524" result="shape"/>
</filter>
<filter id="filter5_d_1812_524" x="748" y="593" width="24" height="24" filterUnits="userSpaceOnUse" color-interpolation-filters="sRGB">
<feFlood flood-opacity="0" result="BackgroundImageFix"/>
<feColorMatrix in="SourceAlpha" type="matrix" values="0 0 0 0 0 0 0 0 0 0 0 0 0 0 0 0 0 0 127 0" result="hardAlpha"/>
<feMorphology radius="3" operator="dilate" in="SourceAlpha" result="effect1_dropShadow_1812_524"/>
<feOffset/>
<feGaussianBlur stdDeviation="1.5"/>
<feComposite in2="hardAlpha" operator="out"/>
<feColorMatrix type="matrix" values="0 0 0 0 1 0 0 0 0 1 0 0 0 0 1 0 0 0 0.6 0"/>
<feBlend mode="normal" in2="BackgroundImageFix" result="effect1_dropShadow_1812_524"/>
<feBlend mode="normal" in="SourceGraphic" in2="effect1_dropShadow_1812_524" result="shape"/>
</filter>
<filter id="filter6_d_1812_524" x="807" y="585" width="24" height="24" filterUnits="userSpaceOnUse" color-interpolation-filters="sRGB">
<feFlood flood-opacity="0" result="BackgroundImageFix"/>
<feColorMatrix in="SourceAlpha" type="matrix" values="0 0 0 0 0 0 0 0 0 0 0 0 0 0 0 0 0 0 127 0" result="hardAlpha"/>
<feMorphology radius="3" operator="dilate" in="SourceAlpha" result="effect1_dropShadow_1812_524"/>
<feOffset/>
<feGaussianBlur stdDeviation="1.5"/>
<feComposite in2="hardAlpha" operator="out"/>
<feColorMatrix type="matrix" values="0 0 0 0 1 0 0 0 0 1 0 0 0 0 1 0 0 0 0.6 0"/>
<feBlend mode="normal" in2="BackgroundImageFix" result="effect1_dropShadow_1812_524"/>
<feBlend mode="normal" in="SourceGraphic" in2="effect1_dropShadow_1812_524" result="shape"/>
</filter>
<filter id="filter7_d_1812_524" x="525" y="622" width="26" height="26" filterUnits="userSpaceOnUse" color-interpolation-filters="sRGB">
<feFlood flood-opacity="0" result="BackgroundImageFix"/>
<feColorMatrix in="SourceAlpha" type="matrix" values="0 0 0 0 0 0 0 0 0 0 0 0 0 0 0 0 0 0 127 0" result="hardAlpha"/>
<feMorphology radius="3" operator="dilate" in="SourceAlpha" result="effect1_dropShadow_1812_524"/>
<feOffset/>
<feGaussianBlur stdDeviation="1.5"/>
<feComposite in2="hardAlpha" operator="out"/>
<feColorMatrix type="matrix" values="0 0 0 0 1 0 0 0 0 1 0 0 0 0 1 0 0 0 0.6 0"/>
<feBlend mode="normal" in2="BackgroundImageFix" result="effect1_dropShadow_1812_524"/>
<feBlend mode="normal" in="SourceGraphic" in2="effect1_dropShadow_1812_524" result="shape"/>
</filter>
<filter id="filter8_d_1812_524" x="573" y="566" width="24" height="24" filterUnits="userSpaceOnUse" color-interpolation-filters="sRGB">
<feFlood flood-opacity="0" result="BackgroundImageFix"/>
<feColorMatrix in="SourceAlpha" type="matrix" values="0 0 0 0 0 0 0 0 0 0 0 0 0 0 0 0 0 0 127 0" result="hardAlpha"/>
<feMorphology radius="3" operator="dilate" in="SourceAlpha" result="effect1_dropShadow_1812_524"/>
<feOffset/>
<feGaussianBlur stdDeviation="1.5"/>
<feComposite in2="hardAlpha" operator="out"/>
<feColorMatrix type="matrix" values="0 0 0 0 1 0 0 0 0 1 0 0 0 0 1 0 0 0 0.6 0"/>
<feBlend mode="normal" in2="BackgroundImageFix" result="effect1_dropShadow_1812_524"/>
<feBlend mode="normal" in="SourceGraphic" in2="effect1_dropShadow_1812_524" result="shape"/>
</filter>
<filter id="filter9_d_1812_524" x="461" y="604" width="24" height="24" filterUnits="userSpaceOnUse" color-interpolation-filters="sRGB">
<feFlood flood-opacity="0" result="BackgroundImageFix"/>
<feColorMatrix in="SourceAlpha" type="matrix" values="0 0 0 0 0 0 0 0 0 0 0 0 0 0 0 0 0 0 127 0" result="hardAlpha"/>
<feMorphology radius="3" operator="dilate" in="SourceAlpha" result="effect1_dropShadow_1812_524"/>
<feOffset/>
<feGaussianBlur stdDeviation="1.5"/>
<feComposite in2="hardAlpha" operator="out"/>
<feColorMatrix type="matrix" values="0 0 0 0 1 0 0 0 0 1 0 0 0 0 1 0 0 0 0.6 0"/>
<feBlend mode="normal" in2="BackgroundImageFix" result="effect1_dropShadow_1812_524"/>
<feBlend mode="normal" in="SourceGraphic" in2="effect1_dropShadow_1812_524" result="shape"/>
</filter>
<filter id="filter10_d_1812_524" x="354" y="599" width="24" height="24" filterUnits="userSpaceOnUse" color-interpolation-filters="sRGB">
<feFlood flood-opacity="0" result="BackgroundImageFix"/>
<feColorMatrix in="SourceAlpha" type="matrix" values="0 0 0 0 0 0 0 0 0 0 0 0 0 0 0 0 0 0 127 0" result="hardAlpha"/>
<feMorphology radius="3" operator="dilate" in="SourceAlpha" result="effect1_dropShadow_1812_524"/>
<feOffset/>
<feGaussianBlur stdDeviation="1.5"/>
<feComposite in2="hardAlpha" operator="out"/>
<feColorMatrix type="matrix" values="0 0 0 0 1 0 0 0 0 1 0 0 0 0 1 0 0 0 0.6 0"/>
<feBlend mode="normal" in2="BackgroundImageFix" result="effect1_dropShadow_1812_524"/>
<feBlend mode="normal" in="SourceGraphic" in2="effect1_dropShadow_1812_524" result="shape"/>
</filter>
<filter id="filter11_d_1812_524" x="681" y="576" width="24" height="24" filterUnits="userSpaceOnUse" color-interpolation-filters="sRGB">
<feFlood flood-opacity="0" result="BackgroundImageFix"/>
<feColorMatrix in="SourceAlpha" type="matrix" values="0 0 0 0 0 0 0 0 0 0 0 0 0 0 0 0 0 0 127 0" result="hardAlpha"/>
<feMorphology radius="3" operator="dilate" in="SourceAlpha" result="effect1_dropShadow_1812_524"/>
<feOffset/>
<feGaussianBlur stdDeviation="1.5"/>
<feComposite in2="hardAlpha" operator="out"/>
<feColorMatrix type="matrix" values="0 0 0 0 1 0 0 0 0 1 0 0 0 0 1 0 0 0 0.6 0"/>
<feBlend mode="normal" in2="BackgroundImageFix" result="effect1_dropShadow_1812_524"/>
<feBlend mode="normal" in="SourceGraphic" in2="effect1_dropShadow_1812_524" result="shape"/>
</filter>
<filter id="filter12_d_1812_524" x="271" y="599" width="24" height="24" filterUnits="userSpaceOnUse" color-interpolation-filters="sRGB">
<feFlood flood-opacity="0" result="BackgroundImageFix"/>
<feColorMatrix in="SourceAlpha" type="matrix" values="0 0 0 0 0 0 0 0 0 0 0 0 0 0 0 0 0 0 127 0" result="hardAlpha"/>
<feMorphology radius="3" operator="dilate" in="SourceAlpha" result="effect1_dropShadow_1812_524"/>
<feOffset/>
<feGaussianBlur stdDeviation="1.5"/>
<feComposite in2="hardAlpha" operator="out"/>
<feColorMatrix type="matrix" values="0 0 0 0 1 0 0 0 0 1 0 0 0 0 1 0 0 0 0.6 0"/>
<feBlend mode="normal" in2="BackgroundImageFix" result="effect1_dropShadow_1812_524"/>
<feBlend mode="normal" in="SourceGraphic" in2="effect1_dropShadow_1812_524" result="shape"/>
</filter>
<filter id="filter13_d_1812_524" x="176" y="556" width="22" height="22" filterUnits="userSpaceOnUse" color-interpolation-filters="sRGB">
<feFlood flood-opacity="0" result="BackgroundImageFix"/>
<feColorMatrix in="SourceAlpha" type="matrix" values="0 0 0 0 0 0 0 0 0 0 0 0 0 0 0 0 0 0 127 0" result="hardAlpha"/>
<feMorphology radius="3" operator="dilate" in="SourceAlpha" result="effect1_dropShadow_1812_524"/>
<feOffset/>
<feGaussianBlur stdDeviation="1.5"/>
<feComposite in2="hardAlpha" operator="out"/>
<feColorMatrix type="matrix" values="0 0 0 0 1 0 0 0 0 1 0 0 0 0 1 0 0 0 0.6 0"/>
<feBlend mode="normal" in2="BackgroundImageFix" result="effect1_dropShadow_1812_524"/>
<feBlend mode="normal" in="SourceGraphic" in2="effect1_dropShadow_1812_524" result="shape"/>
</filter>
<filter id="filter14_d_1812_524" x="236" y="566" width="22" height="22" filterUnits="userSpaceOnUse" color-interpolation-filters="sRGB">
<feFlood flood-opacity="0" result="BackgroundImageFix"/>
<feColorMatrix in="SourceAlpha" type="matrix" values="0 0 0 0 0 0 0 0 0 0 0 0 0 0 0 0 0 0 127 0" result="hardAlpha"/>
<feMorphology radius="3" operator="dilate" in="SourceAlpha" result="effect1_dropShadow_1812_524"/>
<feOffset/>
<feGaussianBlur stdDeviation="1.5"/>
<feComposite in2="hardAlpha" operator="out"/>
<feColorMatrix type="matrix" values="0 0 0 0 1 0 0 0 0 1 0 0 0 0 1 0 0 0 0.6 0"/>
<feBlend mode="normal" in2="BackgroundImageFix" result="effect1_dropShadow_1812_524"/>
<feBlend mode="normal" in="SourceGraphic" in2="effect1_dropShadow_1812_524" result="shape"/>
</filter>
<filter id="filter15_d_1812_524" x="559" y="792" width="32" height="32" filterUnits="userSpaceOnUse" color-interpolation-filters="sRGB">
<feFlood flood-opacity="0" result="BackgroundImageFix"/>
<feColorMatrix in="SourceAlpha" type="matrix" values="0 0 0 0 0 0 0 0 0 0 0 0 0 0 0 0 0 0 127 0" result="hardAlpha"/>
<feMorphology radius="3" operator="dilate" in="SourceAlpha" result="effect1_dropShadow_1812_524"/>
<feOffset/>
<feGaussianBlur stdDeviation="1.5"/>
<feComposite in2="hardAlpha" operator="out"/>
<feColorMatrix type="matrix" values="0 0 0 0 1 0 0 0 0 1 0 0 0 0 1 0 0 0 0.6 0"/>
<feBlend mode="normal" in2="BackgroundImageFix" result="effect1_dropShadow_1812_524"/>
<feBlend mode="normal" in="SourceGraphic" in2="effect1_dropShadow_1812_524" result="shape"/>
</filter>
<filter id="filter16_d_1812_524" x="354" y="770" width="32" height="32" filterUnits="userSpaceOnUse" color-interpolation-filters="sRGB">
<feFlood flood-opacity="0" result="BackgroundImageFix"/>
<feColorMatrix in="SourceAlpha" type="matrix" values="0 0 0 0 0 0 0 0 0 0 0 0 0 0 0 0 0 0 127 0" result="hardAlpha"/>
<feMorphology radius="3" operator="dilate" in="SourceAlpha" result="effect1_dropShadow_1812_524"/>
<feOffset/>
<feGaussianBlur stdDeviation="1.5"/>
<feComposite in2="hardAlpha" operator="out"/>
<feColorMatrix type="matrix" values="0 0 0 0 1 0 0 0 0 1 0 0 0 0 1 0 0 0 0.6 0"/>
<feBlend mode="normal" in2="BackgroundImageFix" result="effect1_dropShadow_1812_524"/>
<feBlend mode="normal" in="SourceGraphic" in2="effect1_dropShadow_1812_524" result="shape"/>
</filter>
<filter id="filter17_d_1812_524" x="418" y="751" width="30" height="30" filterUnits="userSpaceOnUse" color-interpolation-filters="sRGB">
<feFlood flood-opacity="0" result="BackgroundImageFix"/>
<feColorMatrix in="SourceAlpha" type="matrix" values="0 0 0 0 0 0 0 0 0 0 0 0 0 0 0 0 0 0 127 0" result="hardAlpha"/>
<feMorphology radius="3" operator="dilate" in="SourceAlpha" result="effect1_dropShadow_1812_524"/>
<feOffset/>
<feGaussianBlur stdDeviation="1.5"/>
<feComposite in2="hardAlpha" operator="out"/>
<feColorMatrix type="matrix" values="0 0 0 0 1 0 0 0 0 1 0 0 0 0 1 0 0 0 0.6 0"/>
<feBlend mode="normal" in2="BackgroundImageFix" result="effect1_dropShadow_1812_524"/>
<feBlend mode="normal" in="SourceGraphic" in2="effect1_dropShadow_1812_524" result="shape"/>
</filter>
<filter id="filter18_d_1812_524" x="246" y="683" width="30" height="30" filterUnits="userSpaceOnUse" color-interpolation-filters="sRGB">
<feFlood flood-opacity="0" result="BackgroundImageFix"/>
<feColorMatrix in="SourceAlpha" type="matrix" values="0 0 0 0 0 0 0 0 0 0 0 0 0 0 0 0 0 0 127 0" result="hardAlpha"/>
<feMorphology radius="3" operator="dilate" in="SourceAlpha" result="effect1_dropShadow_1812_524"/>
<feOffset/>
<feGaussianBlur stdDeviation="1.5"/>
<feComposite in2="hardAlpha" operator="out"/>
<feColorMatrix type="matrix" values="0 0 0 0 1 0 0 0 0 1 0 0 0 0 1 0 0 0 0.6 0"/>
<feBlend mode="normal" in2="BackgroundImageFix" result="effect1_dropShadow_1812_524"/>
<feBlend mode="normal" in="SourceGraphic" in2="effect1_dropShadow_1812_524" result="shape"/>
</filter>
<filter id="filter19_d_1812_524" x="199" y="727" width="30" height="30" filterUnits="userSpaceOnUse" color-interpolation-filters="sRGB">
<feFlood flood-opacity="0" result="BackgroundImageFix"/>
<feColorMatrix in="SourceAlpha" type="matrix" values="0 0 0 0 0 0 0 0 0 0 0 0 0 0 0 0 0 0 127 0" result="hardAlpha"/>
<feMorphology radius="3" operator="dilate" in="SourceAlpha" result="effect1_dropShadow_1812_524"/>
<feOffset/>
<feGaussianBlur stdDeviation="1.5"/>
<feComposite in2="hardAlpha" operator="out"/>
<feColorMatrix type="matrix" values="0 0 0 0 1 0 0 0 0 1 0 0 0 0 1 0 0 0 0.6 0"/>
<feBlend mode="normal" in2="BackgroundImageFix" result="effect1_dropShadow_1812_524"/>
<feBlend mode="normal" in="SourceGraphic" in2="effect1_dropShadow_1812_524" result="shape"/>
</filter>
<filter id="filter20_d_1812_524" x="718" y="709" width="30" height="30" filterUnits="userSpaceOnUse" color-interpolation-filters="sRGB">
<feFlood flood-opacity="0" result="BackgroundImageFix"/>
<feColorMatrix in="SourceAlpha" type="matrix" values="0 0 0 0 0 0 0 0 0 0 0 0 0 0 0 0 0 0 127 0" result="hardAlpha"/>
<feMorphology radius="3" operator="dilate" in="SourceAlpha" result="effect1_dropShadow_1812_524"/>
<feOffset/>
<feGaussianBlur stdDeviation="1.5"/>
<feComposite in2="hardAlpha" operator="out"/>
<feColorMatrix type="matrix" values="0 0 0 0 1 0 0 0 0 1 0 0 0 0 1 0 0 0 0.6 0"/>
<feBlend mode="normal" in2="BackgroundImageFix" result="effect1_dropShadow_1812_524"/>
<feBlend mode="normal" in="SourceGraphic" in2="effect1_dropShadow_1812_524" result="shape"/>
</filter>
<filter id="filter21_d_1812_524" x="636" y="710" width="28" height="28" filterUnits="userSpaceOnUse" color-interpolation-filters="sRGB">
<feFlood flood-opacity="0" result="BackgroundImageFix"/>
<feColorMatrix in="SourceAlpha" type="matrix" values="0 0 0 0 0 0 0 0 0 0 0 0 0 0 0 0 0 0 127 0" result="hardAlpha"/>
<feMorphology radius="3" operator="dilate" in="SourceAlpha" result="effect1_dropShadow_1812_524"/>
<feOffset/>
<feGaussianBlur stdDeviation="1.5"/>
<feComposite in2="hardAlpha" operator="out"/>
<feColorMatrix type="matrix" values="0 0 0 0 1 0 0 0 0 1 0 0 0 0 1 0 0 0 0.6 0"/>
<feBlend mode="normal" in2="BackgroundImageFix" result="effect1_dropShadow_1812_524"/>
<feBlend mode="normal" in="SourceGraphic" in2="effect1_dropShadow_1812_524" result="shape"/>
</filter>
<filter id="filter22_d_1812_524" x="849" y="713" width="30" height="30" filterUnits="userSpaceOnUse" color-interpolation-filters="sRGB">
<feFlood flood-opacity="0" result="BackgroundImageFix"/>
<feColorMatrix in="SourceAlpha" type="matrix" values="0 0 0 0 0 0 0 0 0 0 0 0 0 0 0 0 0 0 127 0" result="hardAlpha"/>
<feMorphology radius="3" operator="dilate" in="SourceAlpha" result="effect1_dropShadow_1812_524"/>
<feOffset/>
<feGaussianBlur stdDeviation="1.5"/>
<feComposite in2="hardAlpha" operator="out"/>
<feColorMatrix type="matrix" values="0 0 0 0 1 0 0 0 0 1 0 0 0 0 1 0 0 0 0.6 0"/>
<feBlend mode="normal" in2="BackgroundImageFix" result="effect1_dropShadow_1812_524"/>
<feBlend mode="normal" in="SourceGraphic" in2="effect1_dropShadow_1812_524" result="shape"/>
</filter>
<filter id="filter23_d_1812_524" x="657" y="629" width="26" height="26" filterUnits="userSpaceOnUse" color-interpolation-filters="sRGB">
<feFlood flood-opacity="0" result="BackgroundImageFix"/>
<feColorMatrix in="SourceAlpha" type="matrix" values="0 0 0 0 0 0 0 0 0 0 0 0 0 0 0 0 0 0 127 0" result="hardAlpha"/>
<feMorphology radius="3" operator="dilate" in="SourceAlpha" result="effect1_dropShadow_1812_524"/>
<feOffset/>
<feGaussianBlur stdDeviation="1.5"/>
<feComposite in2="hardAlpha" operator="out"/>
<feColorMatrix type="matrix" values="0 0 0 0 1 0 0 0 0 1 0 0 0 0 1 0 0 0 0.6 0"/>
<feBlend mode="normal" in2="BackgroundImageFix" result="effect1_dropShadow_1812_524"/>
<feBlend mode="normal" in="SourceGraphic" in2="effect1_dropShadow_1812_524" result="shape"/>
</filter>
<filter id="filter24_d_1812_524" x="771" y="660" width="26" height="26" filterUnits="userSpaceOnUse" color-interpolation-filters="sRGB">
<feFlood flood-opacity="0" result="BackgroundImageFix"/>
<feColorMatrix in="SourceAlpha" type="matrix" values="0 0 0 0 0 0 0 0 0 0 0 0 0 0 0 0 0 0 127 0" result="hardAlpha"/>
<feMorphology radius="3" operator="dilate" in="SourceAlpha" result="effect1_dropShadow_1812_524"/>
<feOffset/>
<feGaussianBlur stdDeviation="1.5"/>
<feComposite in2="hardAlpha" operator="out"/>
<feColorMatrix type="matrix" values="0 0 0 0 1 0 0 0 0 1 0 0 0 0 1 0 0 0 0.6 0"/>
<feBlend mode="normal" in2="BackgroundImageFix" result="effect1_dropShadow_1812_524"/>
<feBlend mode="normal" in="SourceGraphic" in2="effect1_dropShadow_1812_524" result="shape"/>
</filter>
<filter id="filter25_d_1812_524" x="825" y="648" width="26" height="26" filterUnits="userSpaceOnUse" color-interpolation-filters="sRGB">
<feFlood flood-opacity="0" result="BackgroundImageFix"/>
<feColorMatrix in="SourceAlpha" type="matrix" values="0 0 0 0 0 0 0 0 0 0 0 0 0 0 0 0 0 0 127 0" result="hardAlpha"/>
<feMorphology radius="3" operator="dilate" in="SourceAlpha" result="effect1_dropShadow_1812_524"/>
<feOffset/>
<feGaussianBlur stdDeviation="1.5"/>
<feComposite in2="hardAlpha" operator="out"/>
<feColorMatrix type="matrix" values="0 0 0 0 1 0 0 0 0 1 0 0 0 0 1 0 0 0 0.6 0"/>
<feBlend mode="normal" in2="BackgroundImageFix" result="effect1_dropShadow_1812_524"/>
<feBlend mode="normal" in="SourceGraphic" in2="effect1_dropShadow_1812_524" result="shape"/>
</filter>
<filter id="filter26_d_1812_524" x="167" y="643" width="26" height="26" filterUnits="userSpaceOnUse" color-interpolation-filters="sRGB">
<feFlood flood-opacity="0" result="BackgroundImageFix"/>
<feColorMatrix in="SourceAlpha" type="matrix" values="0 0 0 0 0 0 0 0 0 0 0 0 0 0 0 0 0 0 127 0" result="hardAlpha"/>
<feMorphology radius="3" operator="dilate" in="SourceAlpha" result="effect1_dropShadow_1812_524"/>
<feOffset/>
<feGaussianBlur stdDeviation="1.5"/>
<feComposite in2="hardAlpha" operator="out"/>
<feColorMatrix type="matrix" values="0 0 0 0 1 0 0 0 0 1 0 0 0 0 1 0 0 0 0.6 0"/>
<feBlend mode="normal" in2="BackgroundImageFix" result="effect1_dropShadow_1812_524"/>
<feBlend mode="normal" in="SourceGraphic" in2="effect1_dropShadow_1812_524" result="shape"/>
</filter>
<filter id="filter27_d_1812_524" x="350" y="697" width="28" height="28" filterUnits="userSpaceOnUse" color-interpolation-filters="sRGB">
<feFlood flood-opacity="0" result="BackgroundImageFix"/>
<feColorMatrix in="SourceAlpha" type="matrix" values="0 0 0 0 0 0 0 0 0 0 0 0 0 0 0 0 0 0 127 0" result="hardAlpha"/>
<feMorphology radius="3" operator="dilate" in="SourceAlpha" result="effect1_dropShadow_1812_524"/>
<feOffset/>
<feGaussianBlur stdDeviation="1.5"/>
<feComposite in2="hardAlpha" operator="out"/>
<feColorMatrix type="matrix" values="0 0 0 0 1 0 0 0 0 1 0 0 0 0 1 0 0 0 0.6 0"/>
<feBlend mode="normal" in2="BackgroundImageFix" result="effect1_dropShadow_1812_524"/>
<feBlend mode="normal" in="SourceGraphic" in2="effect1_dropShadow_1812_524" result="shape"/>
</filter>
<filter id="filter28_d_1812_524" x="414" y="649" width="28" height="28" filterUnits="userSpaceOnUse" color-interpolation-filters="sRGB">
<feFlood flood-opacity="0" result="BackgroundImageFix"/>
<feColorMatrix in="SourceAlpha" type="matrix" values="0 0 0 0 0 0 0 0 0 0 0 0 0 0 0 0 0 0 127 0" result="hardAlpha"/>
<feMorphology radius="3" operator="dilate" in="SourceAlpha" result="effect1_dropShadow_1812_524"/>
<feOffset/>
<feGaussianBlur stdDeviation="1.5"/>
<feComposite in2="hardAlpha" operator="out"/>
<feColorMatrix type="matrix" values="0 0 0 0 1 0 0 0 0 1 0 0 0 0 1 0 0 0 0.6 0"/>
<feBlend mode="normal" in2="BackgroundImageFix" result="effect1_dropShadow_1812_524"/>
<feBlend mode="normal" in="SourceGraphic" in2="effect1_dropShadow_1812_524" result="shape"/>
</filter>
<filter id="filter29_d_1812_524" x="500" y="721" width="28" height="28" filterUnits="userSpaceOnUse" color-interpolation-filters="sRGB">
<feFlood flood-opacity="0" result="BackgroundImageFix"/>
<feColorMatrix in="SourceAlpha" type="matrix" values="0 0 0 0 0 0 0 0 0 0 0 0 0 0 0 0 0 0 127 0" result="hardAlpha"/>
<feMorphology radius="3" operator="dilate" in="SourceAlpha" result="effect1_dropShadow_1812_524"/>
<feOffset/>
<feGaussianBlur stdDeviation="1.5"/>
<feComposite in2="hardAlpha" operator="out"/>
<feColorMatrix type="matrix" values="0 0 0 0 1 0 0 0 0 1 0 0 0 0 1 0 0 0 0.6 0"/>
<feBlend mode="normal" in2="BackgroundImageFix" result="effect1_dropShadow_1812_524"/>
<feBlend mode="normal" in="SourceGraphic" in2="effect1_dropShadow_1812_524" result="shape"/>
</filter>
<filter id="filter30_ddd_1812_524" x="121.5" y="-147.65" width="805" height="926" filterUnits="userSpaceOnUse" color-interpolation-filters="sRGB">
<feFlood flood-opacity="0" result="BackgroundImageFix"/>
<feColorMatrix in="SourceAlpha" type="matrix" values="0 0 0 0 0 0 0 0 0 0 0 0 0 0 0 0 0 0 127 0" result="hardAlpha"/>
<feOffset/>
<feGaussianBlur stdDeviation="19"/>
<feComposite in2="hardAlpha" operator="out"/>
<feColorMatrix type="matrix" values="0 0 0 0 0.654902 0 0 0 0 0.627451 0 0 0 0 0.447059 0 0 0 1 0"/>
<feBlend mode="normal" in2="BackgroundImageFix" result="effect1_dropShadow_1812_524"/>
<feColorMatrix in="SourceAlpha" type="matrix" values="0 0 0 0 0 0 0 0 0 0 0 0 0 0 0 0 0 0 127 0" result="hardAlpha"/>
<feOffset/>
<feGaussianBlur stdDeviation="38"/>
<feComposite in2="hardAlpha" operator="out"/>
<feColorMatrix type="matrix" values="0 0 0 0 0.654902 0 0 0 0 0.627451 0 0 0 0 0.447059 0 0 0 1 0"/>
<feBlend mode="normal" in2="effect1_dropShadow_1812_524" result="effect2_dropShadow_1812_524"/>
<feColorMatrix in="SourceAlpha" type="matrix" values="0 0 0 0 0 0 0 0 0 0 0 0 0 0 0 0 0 0 127 0" result="hardAlpha"/>
<feOffset/>
<feGaussianBlur stdDeviation="125"/>
<feComposite in2="hardAlpha" operator="out"/>
<feColorMatrix type="matrix" values="0 0 0 0 0.913725 0 0 0 0 0.886275 0 0 0 0 0.709804 0 0 0 1 0"/>
<feBlend mode="normal" in2="effect2_dropShadow_1812_524" result="effect3_dropShadow_1812_524"/>
<feBlend mode="normal" in="SourceGraphic" in2="effect3_dropShadow_1812_524" result="shape"/>
</filter>
<filter id="filter31_dddddd_1812_524" x="91.1905" y="202.72" width="847.314" height="843.007" filterUnits="userSpaceOnUse" color-interpolation-filters="sRGB">
<feFlood flood-opacity="0" result="BackgroundImageFix"/>
<feColorMatrix in="SourceAlpha" type="matrix" values="0 0 0 0 0 0 0 0 0 0 0 0 0 0 0 0 0 0 127 0" result="hardAlpha"/>
<feOffset/>
<feGaussianBlur stdDeviation="4.5832"/>
<feColorMatrix type="matrix" values="0 0 0 0 1 0 0 0 0 1 0 0 0 0 1 0 0 0 1 0"/>
<feBlend mode="normal" in2="BackgroundImageFix" result="effect1_dropShadow_1812_524"/>
<feColorMatrix in="SourceAlpha" type="matrix" values="0 0 0 0 0 0 0 0 0 0 0 0 0 0 0 0 0 0 127 0" result="hardAlpha"/>
<feOffset/>
<feGaussianBlur stdDeviation="9.16641"/>
<feColorMatrix type="matrix" values="0 0 0 0 1 0 0 0 0 1 0 0 0 0 1 0 0 0 1 0"/>
<feBlend mode="normal" in2="effect1_dropShadow_1812_524" result="effect2_dropShadow_1812_524"/>
<feColorMatrix in="SourceAlpha" type="matrix" values="0 0 0 0 0 0 0 0 0 0 0 0 0 0 0 0 0 0 127 0" result="hardAlpha"/>
<feOffset/>
<feGaussianBlur stdDeviation="32.0824"/>
<feColorMatrix type="matrix" values="0 0 0 0 1 0 0 0 0 1 0 0 0 0 1 0 0 0 1 0"/>
<feBlend mode="normal" in2="effect2_dropShadow_1812_524" result="effect3_dropShadow_1812_524"/>
<feColorMatrix in="SourceAlpha" type="matrix" values="0 0 0 0 0 0 0 0 0 0 0 0 0 0 0 0 0 0 127 0" result="hardAlpha"/>
<feOffset/>
<feGaussianBlur stdDeviation="64.1649"/>
<feColorMatrix type="matrix" values="0 0 0 0 1 0 0 0 0 1 0 0 0 0 1 0 0 0 1 0"/>
<feBlend mode="normal" in2="effect3_dropShadow_1812_524" result="effect4_dropShadow_1812_524"/>
<feColorMatrix in="SourceAlpha" type="matrix" values="0 0 0 0 0 0 0 0 0 0 0 0 0 0 0 0 0 0 127 0" result="hardAlpha"/>
<feOffset/>
<feGaussianBlur stdDeviation="109.997"/>
<feColorMatrix type="matrix" values="0 0 0 0 1 0 0 0 0 1 0 0 0 0 1 0 0 0 1 0"/>
<feBlend mode="normal" in2="effect4_dropShadow_1812_524" result="effect5_dropShadow_1812_524"/>
<feColorMatrix in="SourceAlpha" type="matrix" values="0 0 0 0 0 0 0 0 0 0 0 0 0 0 0 0 0 0 127 0" result="hardAlpha"/>
<feOffset/>
<feGaussianBlur stdDeviation="192.495"/>
<feColorMatrix type="matrix" values="0 0 0 0 1 0 0 0 0 1 0 0 0 0 1 0 0 0 1 0"/>
<feBlend mode="normal" in2="effect5_dropShadow_1812_524" result="effect6_dropShadow_1812_524"/>
<feBlend mode="normal" in="SourceGraphic" in2="effect6_dropShadow_1812_524" result="shape"/>
</filter>
<filter id="filter32_dddddd_1812_524" x="97.6045" y="-150.152" width="849.197" height="865.921" filterUnits="userSpaceOnUse" color-interpolation-filters="sRGB">
<feFlood flood-opacity="0" result="BackgroundImageFix"/>
<feColorMatrix in="SourceAlpha" type="matrix" values="0 0 0 0 0 0 0 0 0 0 0 0 0 0 0 0 0 0 127 0" result="hardAlpha"/>
<feOffset/>
<feGaussianBlur stdDeviation="4.5832"/>
<feColorMatrix type="matrix" values="0 0 0 0 1 0 0 0 0 1 0 0 0 0 1 0 0 0 1 0"/>
<feBlend mode="normal" in2="BackgroundImageFix" result="effect1_dropShadow_1812_524"/>
<feColorMatrix in="SourceAlpha" type="matrix" values="0 0 0 0 0 0 0 0 0 0 0 0 0 0 0 0 0 0 127 0" result="hardAlpha"/>
<feOffset/>
<feGaussianBlur stdDeviation="9.16641"/>
<feColorMatrix type="matrix" values="0 0 0 0 1 0 0 0 0 1 0 0 0 0 1 0 0 0 1 0"/>
<feBlend mode="normal" in2="effect1_dropShadow_1812_524" result="effect2_dropShadow_1812_524"/>
<feColorMatrix in="SourceAlpha" type="matrix" values="0 0 0 0 0 0 0 0 0 0 0 0 0 0 0 0 0 0 127 0" result="hardAlpha"/>
<feOffset/>
<feGaussianBlur stdDeviation="32.0824"/>
<feColorMatrix type="matrix" values="0 0 0 0 1 0 0 0 0 1 0 0 0 0 1 0 0 0 1 0"/>
<feBlend mode="normal" in2="effect2_dropShadow_1812_524" result="effect3_dropShadow_1812_524"/>
<feColorMatrix in="SourceAlpha" type="matrix" values="0 0 0 0 0 0 0 0 0 0 0 0 0 0 0 0 0 0 127 0" result="hardAlpha"/>
<feOffset/>
<feGaussianBlur stdDeviation="64.1649"/>
<feColorMatrix type="matrix" values="0 0 0 0 1 0 0 0 0 1 0 0 0 0 1 0 0 0 1 0"/>
<feBlend mode="normal" in2="effect3_dropShadow_1812_524" result="effect4_dropShadow_1812_524"/>
<feColorMatrix in="SourceAlpha" type="matrix" values="0 0 0 0 0 0 0 0 0 0 0 0 0 0 0 0 0 0 127 0" result="hardAlpha"/>
<feOffset/>
<feGaussianBlur stdDeviation="109.997"/>
<feColorMatrix type="matrix" values="0 0 0 0 1 0 0 0 0 1 0 0 0 0 1 0 0 0 1 0"/>
<feBlend mode="normal" in2="effect4_dropShadow_1812_524" result="effect5_dropShadow_1812_524"/>
<feColorMatrix in="SourceAlpha" type="matrix" values="0 0 0 0 0 0 0 0 0 0 0 0 0 0 0 0 0 0 127 0" result="hardAlpha"/>
<feOffset/>
<feGaussianBlur stdDeviation="192.495"/>
<feColorMatrix type="matrix" values="0 0 0 0 1 0 0 0 0 1 0 0 0 0 1 0 0 0 1 0"/>
<feBlend mode="normal" in2="effect5_dropShadow_1812_524" result="effect6_dropShadow_1812_524"/>
<feBlend mode="normal" in="SourceGraphic" in2="effect6_dropShadow_1812_524" result="shape"/>
</filter>
<linearGradient id="paint0_linear_1812_524" x1="524.001" y1="102.35" x2="524.001" y2="528.35" gradientUnits="userSpaceOnUse">
<stop stop-color="white"/>
<stop offset="0.74" stop-color="#FFD977"/>
<stop offset="1" stop-color="#FFFAEC"/>
</linearGradient>
<linearGradient id="paint1_linear_1812_524" x1="524.001" y1="102.35" x2="524.001" y2="528.35" gradientUnits="userSpaceOnUse">
<stop stop-color="white"/>
<stop offset="0.74" stop-color="#FFD977"/>
<stop offset="1" stop-color="#FFFAEC"/>
</linearGradient>
<radialGradient id="paint2_radial_1812_524" cx="0" cy="0" r="1" gradientUnits="userSpaceOnUse" gradientTransform="translate(514.097 624.636) rotate(125.412) scale(33.7412 36.5857)">
<stop stop-color="white"/>
<stop offset="1" stop-color="#FFEEC1"/>
</radialGradient>
<radialGradient id="paint3_radial_1812_524" cx="0" cy="0" r="1" gradientUnits="userSpaceOnUse" gradientTransform="translate(514.548 619.342) rotate(115.404) scale(38.1889 35.6469)">
<stop stop-color="white"/>
<stop offset="1" stop-color="#FFEEC1"/>
</radialGradient>
<radialGradient id="paint4_radial_1812_524" cx="0" cy="0" r="1" gradientUnits="userSpaceOnUse" gradientTransform="translate(521.982 282.649) rotate(75.3664) scale(47.0994 43.2282)">
<stop stop-color="white"/>
<stop offset="1" stop-color="#FFEEC1"/>
</radialGradient>
<radialGradient id="paint5_radial_1812_524" cx="0" cy="0" r="1" gradientUnits="userSpaceOnUse" gradientTransform="translate(518.927 274.633) rotate(89.3458) scale(45.6004 42.0557)">
<stop stop-color="white"/>
<stop offset="1" stop-color="#FFEEC1"/>
</radialGradient>
<clipPath id="clip0_1812_524">
<rect width="1024" height="1024" fill="white"/>
</clipPath>
</defs>
</svg>
