<svg width="1024" height="1024" viewBox="0 0 1024 1024" fill="none" xmlns="http://www.w3.org/2000/svg">
<g filter="url(#filter0_d_2226_98)">
<circle cx="402" cy="529" r="5" fill="#FFF9E1"/>
</g>
<g filter="url(#filter1_d_2226_98)">
<circle cx="507" cy="543" r="5" fill="#FFF9E1"/>
</g>
<g filter="url(#filter2_d_2226_98)">
<circle cx="658" cy="543" r="5" fill="#FFF9E1"/>
</g>
<g filter="url(#filter3_d_2226_98)">
<circle cx="633" cy="512" r="5" fill="#FFF9E1"/>
</g>
<g filter="url(#filter4_d_2226_98)">
<circle cx="747" cy="537" r="5" fill="#FFF9E1"/>
</g>
<g filter="url(#filter5_d_2226_98)">
<circle cx="800" cy="613" r="6" fill="#FFF9E1"/>
</g>
<g filter="url(#filter6_d_2226_98)">
<circle cx="821" cy="559" r="6" fill="#FFF9E1"/>
</g>
<g filter="url(#filter7_d_2226_98)">
<circle cx="205" cy="555" r="7" fill="#FFF9E1"/>
</g>
<g filter="url(#filter8_d_2226_98)">
<circle cx="587" cy="580" r="6" fill="#FFF9E1"/>
</g>
<g filter="url(#filter9_d_2226_98)">
<circle cx="734" cy="598" r="6" fill="#FFF9E1"/>
</g>
<g filter="url(#filter10_d_2226_98)">
<circle cx="364" cy="616" r="6" fill="#FFF9E1"/>
</g>
<g filter="url(#filter11_d_2226_98)">
<circle cx="685" cy="572" r="6" fill="#FFF9E1"/>
</g>
<g filter="url(#filter12_d_2226_98)">
<circle cx="290" cy="601" r="6" fill="#FFF9E1"/>
</g>
<g filter="url(#filter13_d_2226_98)">
<circle cx="246" cy="577" r="5" fill="#FFF9E1"/>
</g>
<g filter="url(#filter14_d_2226_98)">
<circle cx="319" cy="527" r="5" fill="#FFF9E1"/>
</g>
<g filter="url(#filter15_d_2226_98)">
<circle cx="603" cy="799" r="10" fill="#FFF9E1"/>
</g>
<g filter="url(#filter16_d_2226_98)">
<circle cx="358" cy="779" r="10" fill="#FFF9E1"/>
</g>
<g filter="url(#filter17_d_2226_98)">
<circle cx="435" cy="765" r="9" fill="#FFF9E1"/>
</g>
<g filter="url(#filter18_d_2226_98)">
<circle cx="305" cy="695" r="9" fill="#FFF9E1"/>
</g>
<g filter="url(#filter19_d_2226_98)">
<circle cx="221" cy="737" r="9" fill="#FFF9E1"/>
</g>
<g filter="url(#filter20_d_2226_98)">
<circle cx="743" cy="721" r="9" fill="#FFF9E1"/>
</g>
<g filter="url(#filter21_d_2226_98)">
<circle cx="650" cy="712" r="8" fill="#FFF9E1"/>
</g>
<g filter="url(#filter22_d_2226_98)">
<circle cx="806" cy="739" r="9" fill="#FFF9E1"/>
</g>
<g filter="url(#filter23_d_2226_98)">
<circle cx="685" cy="622" r="7" fill="#FFF9E1"/>
</g>
<g filter="url(#filter24_d_2226_98)">
<circle cx="781" cy="671" r="7" fill="#FFF9E1"/>
</g>
<g filter="url(#filter25_d_2226_98)">
<circle cx="867" cy="645" r="7" fill="#FFF9E1"/>
</g>
<g filter="url(#filter26_d_2226_98)">
<circle cx="177" cy="645" r="7" fill="#FFF9E1"/>
</g>
<g filter="url(#filter27_d_2226_98)">
<circle cx="394" cy="694" r="8" fill="#FFF9E1"/>
</g>
<g filter="url(#filter28_d_2226_98)">
<circle cx="487" cy="720" r="8" fill="#FFF9E1"/>
</g>
<g filter="url(#filter29_d_2226_98)">
<circle cx="595" cy="663" r="8" fill="#FFF9E1"/>
</g>
<g filter="url(#filter30_ddd_2226_98)">
<path fill-rule="evenodd" clip-rule="evenodd" d="M520.476 182.099C519.81 181.957 519.12 181.968 518.459 182.132C517.688 182.323 517.022 182.767 516.562 183.074C516.516 183.104 516.473 183.133 516.431 183.161L465.422 216.768C464.894 216.909 464.434 217.219 464.105 217.636L450.001 226.929V226.198V190.645C450.001 189.262 448.882 188.141 447.501 188.141C446.12 188.141 445.001 189.262 445.001 190.645V226.198V230.235L422.544 245.196C422.509 245.219 422.472 245.243 422.433 245.269C422.038 245.53 421.464 245.908 421.027 246.441C420.65 246.898 420.368 247.426 420.195 247.994C419.995 248.654 419.998 249.341 420 249.815C420.001 249.862 420.001 249.906 420.001 249.949V365.407C420.001 366.79 421.12 367.911 422.501 367.911C423.882 367.911 425.001 366.79 425.001 365.407V249.949C425.001 249.795 425.001 249.676 425.002 249.574C425.087 249.516 425.185 249.45 425.313 249.365L445.001 236.249V248.732C445.001 250.115 446.12 251.236 447.501 251.236C448.882 251.236 450.001 250.115 450.001 248.732V232.923L463.567 223.985V230.103L457.179 234.088C456.007 234.819 455.649 236.364 456.379 237.537C457.109 238.711 458.651 239.07 459.823 238.338L463.567 236.003V249.607L449.245 258.274C449.225 258.287 449.204 258.299 449.182 258.312C449.165 258.323 449.147 258.333 449.129 258.344L449.125 258.346C448.699 258.601 448.081 258.971 447.607 259.513C447.2 259.98 446.893 260.525 446.705 261.115C446.487 261.802 446.49 262.523 446.493 263.02C446.493 263.043 446.493 263.066 446.493 263.088C446.493 263.113 446.493 263.137 446.493 263.16L446.497 357.866L446.497 357.944L446.496 357.99C446.494 358.434 446.492 359.077 446.669 359.701C446.822 360.237 447.073 360.74 447.409 361.185C447.799 361.702 448.314 362.086 448.669 362.352L448.742 362.407L448.769 362.426L464.654 374.402L464.001 418.952C463.981 420.334 465.084 421.471 466.464 421.492C467.845 421.512 468.98 420.408 469.001 419.025L469.6 378.13L477.001 383.71V418.988C477.001 420.371 478.12 421.492 479.501 421.492C480.882 421.492 482.001 420.371 482.001 418.988V387.479L487.001 391.248V405.468C487.001 406.85 488.12 407.971 489.501 407.971C490.882 407.971 492.001 406.85 492.001 405.468V390.028C492.001 390.01 492.001 389.992 492.001 389.974V361.708L505.595 371.04C506.734 371.822 508.29 371.531 509.071 370.39C509.851 369.25 509.561 367.691 508.422 366.909L492.001 355.637V313.83C492.001 312.447 490.882 311.326 489.501 311.326C488.12 311.326 487.001 312.447 487.001 313.83V352.205L482.001 348.773V331.356C482.001 329.974 480.882 328.853 479.501 328.853C478.12 328.853 477.001 329.974 477.001 331.356V345.341L470.144 340.634L470.854 270.582C470.856 270.43 470.857 270.313 470.859 270.212C470.942 270.155 471.039 270.09 471.166 270.006L515.191 240.59C515.349 240.484 515.471 240.403 515.578 240.334C515.684 240.402 515.807 240.483 515.965 240.588L559.686 269.469C559.815 269.554 559.915 269.62 560 269.678C560.001 269.78 560.001 269.9 560.001 270.054V354.326L553.001 357.925V315.332C553.001 313.949 551.882 312.828 550.501 312.828C549.12 312.828 548.001 313.949 548.001 315.332V360.496L531.001 369.238V310.325C531.001 308.942 529.882 307.821 528.501 307.821C527.12 307.821 526.001 308.942 526.001 310.325V371.809L517.001 376.437V306.319C517.001 304.936 515.882 303.815 514.501 303.815C513.12 303.815 512.001 304.936 512.001 306.319V402.427C512.001 403.81 513.12 404.931 514.501 404.931C515.882 404.931 517.001 403.81 517.001 402.427V382.066L526.001 377.438V395.453C526.001 396.835 527.12 397.956 528.501 397.956C529.882 397.956 531.001 396.835 531.001 395.453V392.473C531.277 392.429 531.551 392.338 531.81 392.195L548.001 383.321V424.496C548.001 425.879 549.12 427 550.501 427C551.882 427 553.001 425.879 553.001 424.496V380.581L560.001 376.744V389.444C560.001 390.826 561.12 391.947 562.501 391.947C563.882 391.947 565.001 390.826 565.001 389.444V374.004L579.464 366.076C579.505 366.054 579.548 366.031 579.594 366.006C580.05 365.759 580.712 365.4 581.223 364.85C581.662 364.377 581.994 363.816 582.198 363.203C582.434 362.49 582.431 361.736 582.428 361.216C582.428 361.165 582.428 361.115 582.428 361.069V334.992L596.001 328.263V374.421C596.001 375.804 597.12 376.925 598.501 376.925C599.882 376.925 601.001 375.804 601.001 374.421V325.785L605.012 323.796V324.425V379.987C605.012 381.37 606.131 382.491 607.512 382.491C608.893 382.491 610.012 381.37 610.012 379.987V324.425V321.317L622.61 315.072C623.847 314.459 624.354 312.957 623.741 311.718C623.129 310.478 621.629 309.971 620.392 310.585L610.012 315.73V268.863C610.012 267.48 608.893 266.359 607.512 266.359C606.131 266.359 605.012 267.48 605.012 268.863V318.209L601.001 320.197V251.135L601.001 251.07L601.001 251C601.004 250.519 601.007 249.823 600.801 249.155C600.625 248.581 600.336 248.048 599.951 247.588C599.503 247.052 598.917 246.676 598.513 246.417L598.512 246.416C598.473 246.391 598.435 246.367 598.399 246.344L522.566 197.161C522.524 197.134 522.48 197.105 522.434 197.075C521.972 196.771 521.301 196.332 520.529 196.146C519.865 195.987 519.175 195.981 518.509 196.128C517.733 196.3 517.055 196.728 516.587 197.023C516.541 197.053 516.496 197.081 516.454 197.107L510.501 200.821V193.062L519.179 187.344C519.331 187.244 519.448 187.167 519.55 187.101C519.654 187.163 519.774 187.237 519.929 187.332L610.666 242.884C610.803 242.968 610.909 243.033 611 243.09C611.001 243.197 611.001 243.321 611.001 243.482V265.758C611.001 267.141 612.12 268.261 613.501 268.261C614.882 268.261 616.001 267.141 616.001 265.758V243.482C616.001 243.44 616.001 243.395 616.001 243.349L616.001 243.342C616.004 242.848 616.007 242.132 615.791 241.448C615.605 240.86 615.301 240.317 614.897 239.852C614.428 239.311 613.815 238.94 613.393 238.684C613.351 238.659 613.312 238.635 613.274 238.612L522.537 183.059C522.495 183.033 522.45 183.006 522.404 182.977L522.403 182.977C521.933 182.686 521.253 182.264 520.476 182.099ZM505.501 196.356L468.567 220.69V226.984L505.501 203.941V196.356ZM596.001 322.676L582.428 329.404V263.116L582.428 263.061L582.428 262.979C582.43 262.493 582.434 261.789 582.224 261.115C582.044 260.535 581.749 259.998 581.357 259.536C580.9 258.998 580.304 258.624 579.893 258.366L579.886 258.362C579.861 258.346 579.837 258.331 579.813 258.316L579.777 258.293L519.003 219.751C518.962 219.725 518.919 219.698 518.875 219.669L518.874 219.668C518.419 219.377 517.76 218.954 517.003 218.775C516.354 218.621 515.678 218.614 515.025 218.754C514.265 218.918 513.597 219.326 513.137 219.608L513.071 219.649L513.006 219.688L468.567 246.581V232.883L505.501 209.84V215.299C505.501 216.682 506.62 217.803 508.001 217.803C509.382 217.803 510.501 216.682 510.501 215.299V206.721L519.098 201.358C519.252 201.261 519.371 201.187 519.475 201.124C519.578 201.189 519.696 201.265 519.848 201.364L595.681 250.547C595.812 250.632 595.913 250.697 596 250.755C596.001 250.859 596.001 250.979 596.001 251.135V322.676ZM565.001 338.043L577.428 331.883V263.116C577.428 262.958 577.428 262.836 577.426 262.731C577.395 262.71 577.361 262.688 577.324 262.665C577.26 262.624 577.187 262.578 577.102 262.524L516.328 223.982C516.178 223.887 516.063 223.814 515.962 223.751C515.86 223.811 515.743 223.882 515.592 223.974L451.831 262.56C451.693 262.644 451.586 262.708 451.494 262.765C451.493 262.873 451.493 262.998 451.493 263.16L451.497 357.865C451.497 358.009 451.497 358.119 451.498 358.215C451.573 358.273 451.661 358.339 451.776 358.426L464.745 368.203L465.13 341.918L465.131 341.907L465.854 270.531C465.855 270.49 465.855 270.445 465.855 270.399C465.858 269.932 465.862 269.253 466.064 268.602C466.238 268.043 466.519 267.522 466.892 267.071C467.326 266.545 467.891 266.171 468.281 265.913L468.282 265.912L468.338 265.875L468.391 265.84L512.417 236.424C512.459 236.396 512.504 236.365 512.551 236.334L512.553 236.333C513.029 236.01 513.72 235.544 514.52 235.35C515.206 235.184 515.922 235.182 516.609 235.345C517.411 235.534 518.104 235.997 518.582 236.317L518.651 236.363L518.718 236.408L562.439 265.289C562.474 265.312 562.51 265.335 562.548 265.36L562.552 265.363C562.949 265.623 563.527 266 563.967 266.534C564.347 266.992 564.631 267.522 564.805 268.091C565.007 268.754 565.004 269.444 565.001 269.92L565.001 269.926C565.001 269.971 565.001 270.014 565.001 270.054V338.043ZM477.001 377.442L469.691 371.931L470.062 346.648L477.001 351.412V377.442ZM487.001 384.981L482.001 381.211V354.844L487.001 358.276V384.981ZM577.428 361.069V337.471L565.001 343.631V351.754L567.968 350.229C569.197 349.597 570.704 350.082 571.334 351.312C571.965 352.542 571.48 354.052 570.252 354.683L565.001 357.383V368.295L577.064 361.684C577.213 361.602 577.328 361.539 577.426 361.484C577.427 361.45 577.427 361.415 577.427 361.379L577.427 361.275L577.428 361.069ZM560.001 359.955V371.036L553.001 374.873V363.554L560.001 359.955ZM548.001 366.125V377.613L531.001 386.931V374.867L548.001 366.125ZM431.501 274.271C432.882 274.271 434.001 275.391 434.001 276.774V306.319V377.649C434.001 379.031 432.882 380.152 431.501 380.152C430.12 380.152 429.001 379.031 429.001 377.649V306.319V276.774C429.001 275.391 430.12 274.271 431.501 274.271ZM440.488 337.866C441.869 337.859 442.994 338.975 443.001 340.357L443.11 361.954C443.117 363.337 442.004 364.463 440.623 364.47C439.242 364.477 438.117 363.362 438.11 361.979L438.001 340.383C437.994 339 439.108 337.873 440.488 337.866Z" fill="#FFEFAF"/>
</g>
<g filter="url(#filter31_dd_2226_98)">
<path fill-rule="evenodd" clip-rule="evenodd" d="M518.742 112.091C518.644 112.154 518.532 112.228 518.386 112.325L449.986 157.554L450.001 168.705V168.708V176.858L516.626 134.14L516.679 134.106L516.755 134.057C517.206 133.764 517.861 133.339 518.614 133.156C519.261 132.999 519.935 132.987 520.587 133.122C521.346 133.279 522.015 133.681 522.477 133.958L522.478 133.959C522.524 133.986 522.567 134.012 522.608 134.036L600.276 180.124L627.501 196.279V173.176L519.114 112.298C518.962 112.213 518.844 112.147 518.742 112.091ZM445.001 168.712V180.064L392.152 213.95C390.99 214.695 390.651 216.243 391.396 217.406C392.141 218.57 393.687 218.909 394.85 218.163L519.323 138.353C519.472 138.258 519.587 138.184 519.687 138.122C519.789 138.181 519.906 138.25 520.058 138.341L596.501 183.701V198.176L522.507 153.588L522.426 153.539L522.381 153.511L522.377 153.509L522.374 153.507C521.908 153.223 521.233 152.811 520.464 152.65C519.804 152.512 519.122 152.524 518.467 152.685C517.705 152.873 517.044 153.308 516.588 153.608C516.543 153.638 516.499 153.666 516.458 153.693L506.657 160.075L506.638 160.088L393.636 232.208C393.6 232.231 393.561 232.255 393.521 232.281C393.112 232.539 392.519 232.913 392.065 233.45C391.675 233.912 391.382 234.447 391.203 235.024C390.995 235.695 390.998 236.397 391.001 236.881C391.001 236.929 391.001 236.974 391.001 237.017V334.341V385.381C391.001 386.763 392.12 387.883 393.501 387.883C394.882 387.883 396.001 386.763 396.001 385.381V338.703L403.001 342.802V370.745C403.001 370.785 403.001 370.827 403.001 370.871C402.999 371.322 402.996 371.975 403.179 372.607C403.336 373.151 403.594 373.66 403.94 374.108C404.342 374.629 404.871 375.012 405.235 375.276L405.291 375.316L405.338 375.35L429.001 392.657V409.753L404.879 393.802C403.727 393.04 402.176 393.358 401.415 394.51C400.654 395.663 400.971 397.215 402.123 397.977L429.001 415.75V423.464L384.309 393.221C384.183 393.135 384.085 393.069 384.002 393.012C384.001 392.91 384.001 392.793 384.001 392.64V234.761C384.001 233.379 382.882 232.259 381.501 232.259C380.12 232.259 379.001 233.379 379.001 234.761V392.64C379.001 392.682 379.001 392.726 379.001 392.773C378.998 393.242 378.995 393.923 379.193 394.578C379.362 395.141 379.64 395.666 380.011 396.122C380.443 396.652 381.009 397.031 381.398 397.292C381.437 397.318 381.474 397.343 381.508 397.366L429.001 429.504V448.432C429.001 449.813 430.12 450.934 431.501 450.934C432.882 450.934 434.001 449.813 434.001 448.432V432.888L463.534 452.872L463.001 494.436C462.983 495.818 464.088 496.953 465.469 496.97C466.85 496.988 467.983 495.882 468.001 494.501L468.491 456.227L477.001 461.985V504.476C477.001 505.858 478.12 506.978 479.501 506.978C480.882 506.978 482.001 505.858 482.001 504.476V465.369L487.035 468.775V494.468C487.035 495.85 488.154 496.97 489.535 496.97C490.916 496.97 492.035 495.85 492.035 494.468V472.159L506.404 481.882C506.445 481.91 506.489 481.94 506.535 481.971C506.994 482.286 507.66 482.742 508.435 482.942C509.099 483.114 509.794 483.132 510.466 482.993C511.046 482.874 511.573 482.612 512.001 482.366V498.472C512.001 499.853 513.12 500.974 514.501 500.974C515.882 500.974 517.001 499.853 517.001 498.472V479.339L526.001 473.888V481.458C526.001 482.84 527.12 483.96 528.501 483.96C529.882 483.96 531.001 482.84 531.001 481.458V470.859L548.001 460.562V531.498C548.001 532.88 549.12 534 550.501 534C551.882 534 553.001 532.88 553.001 531.498V457.534L560.001 453.294V463.944C560.001 465.326 561.12 466.446 562.501 466.446C563.882 466.446 565.001 465.326 565.001 463.944V450.265L596.001 431.488V443.025L588.197 447.798C587.019 448.518 586.648 450.058 587.368 451.238C588.088 452.417 589.626 452.788 590.805 452.068L596.001 448.89V497.471C596.001 498.853 597.12 499.973 598.501 499.973C599.882 499.973 601.001 498.853 601.001 497.471V445.829L673.281 401.462L673.325 401.435L673.4 401.389C673.821 401.134 674.432 400.763 674.901 400.222C675.303 399.757 675.606 399.215 675.792 398.629C676.007 397.946 676.004 397.231 676.001 396.738C676.001 396.69 676.001 396.643 676.001 396.599V330.838C676.001 329.456 674.882 328.336 673.501 328.336C672.12 328.336 671.001 329.456 671.001 330.838V396.599L671.001 396.747C671.001 396.787 671.001 396.825 671.001 396.86L671 396.914L671 396.991C670.909 397.047 670.804 397.112 670.667 397.196L601.001 439.959V428.46L652.252 397.416C652.285 397.396 652.32 397.375 652.356 397.353L652.372 397.344C652.798 397.089 653.415 396.719 653.888 396.177C654.295 395.712 654.602 395.167 654.789 394.578C655.007 393.892 655.004 393.172 655.001 392.676L655.001 392.626L655.001 392.536V266.286C655.001 264.904 653.882 263.784 652.501 263.784C651.12 263.784 650.001 264.904 650.001 266.286V392.536L650.001 392.653C650.001 392.76 650.001 392.85 650 392.93C649.947 392.963 649.889 392.998 649.823 393.038L649.663 393.135L601.001 422.61V412.858L643.736 388.557C644.936 387.875 645.357 386.347 644.675 385.146C643.993 383.945 642.466 383.524 641.266 384.207L601.001 407.103V371.048L618.964 361.161C619.394 360.924 619.726 360.742 619.995 360.6C620 360.904 620.001 361.283 620.001 361.775V373.872C620.001 375.254 621.12 376.374 622.501 376.374C623.882 376.374 625.001 375.254 625.001 373.872V361.775V361.677C625.001 360.87 625.001 360.102 624.944 359.475C624.885 358.832 624.74 357.932 624.158 357.119C623.422 356.092 622.29 355.422 621.036 355.272C620.044 355.153 619.186 355.46 618.595 355.718C618.019 355.97 617.346 356.34 616.64 356.729L616.554 356.776L597.34 367.352C597.312 367.367 597.284 367.383 597.256 367.399L561.296 387.192L561.287 387.197L561.278 387.202L531.001 404.201V393.646C531.001 392.264 529.882 391.144 528.501 391.144C527.12 391.144 526.001 392.264 526.001 393.646V407.008L520.278 410.221C519.074 410.897 518.645 412.422 519.321 413.627C519.996 414.832 521.52 415.261 522.724 414.585L526.001 412.745V468.039L517.001 473.49V400.393C517.001 399.011 515.882 397.891 514.501 397.891C513.12 397.891 512.001 399.011 512.001 400.393V476.519L509.959 477.756L509.823 477.838C509.729 477.895 509.648 477.943 509.576 477.986C509.527 477.954 509.475 477.919 509.418 477.881C509.354 477.838 509.284 477.791 509.204 477.737L492.035 466.118V417L503.001 424.711V459.44C503.001 460.822 504.12 461.942 505.501 461.942C506.882 461.942 508.001 460.822 508.001 459.44V423.412V408.4C508.001 407.018 506.882 405.898 505.501 405.898C504.12 405.898 503.001 407.018 503.001 408.4V418.596L492.035 410.884V404.396C492.035 403.015 490.916 401.894 489.535 401.894C488.154 401.894 487.035 403.015 487.035 404.396V407.367L432.938 369.323L432.913 369.305L432.888 369.288L423.888 363.284C422.739 362.517 421.187 362.828 420.421 363.977C419.655 365.127 419.965 366.681 421.114 367.447L429.001 372.709V386.459L408.288 371.31C408.17 371.224 408.08 371.158 408.002 371.1C408.001 371.003 408.001 370.891 408.001 370.745V345.73L439.238 364.022C440.43 364.72 441.961 364.319 442.659 363.126C443.356 361.933 442.955 360.401 441.763 359.703L408.001 339.933V242.267C408.001 240.885 406.882 239.765 405.501 239.765C404.12 239.765 403.001 240.885 403.001 242.267V337.005L396.001 332.906V237.017C396.001 236.86 396.001 236.739 396.002 236.634C396.09 236.577 396.192 236.511 396.325 236.427L445.001 205.36V225.754V248.772C445.001 250.154 446.12 251.274 447.501 251.274C448.882 251.274 450.001 250.154 450.001 248.772V225.754V203.236C450.001 202.9 449.935 202.58 449.815 202.288L505.501 166.748V180.064C505.501 181.446 506.62 182.566 508.001 182.566C509.382 182.566 510.501 181.446 510.501 180.064V163.542L519.185 157.888C519.335 157.79 519.451 157.714 519.552 157.65C519.655 157.711 519.774 157.782 519.928 157.875L596.501 204.017V223.752C596.501 225.134 597.62 226.254 599.001 226.254C600.382 226.254 601.501 225.134 601.501 223.752V207.03L627.501 222.698V246.771C627.501 248.152 628.62 249.273 630.001 249.273C631.382 249.273 632.501 248.152 632.501 246.771V225.711L655.39 239.504C655.827 239.767 656.164 239.971 656.432 240.139C656.156 240.293 655.809 240.481 655.36 240.721L625.001 257.009V237.763C625.001 236.382 623.882 235.261 622.501 235.261C621.12 235.261 620.001 236.382 620.001 237.763V259.657L612.365 263.557C611.135 264.185 610.647 265.692 611.274 266.923C611.902 268.154 613.407 268.642 614.637 268.014L620.001 265.275V320.329C620.001 321.711 621.12 322.831 622.501 322.831C623.882 322.831 625.001 321.711 625.001 320.329V262.687L657.722 245.132L657.809 245.085C658.546 244.69 659.243 244.316 659.781 243.96C660.149 243.717 660.607 243.381 661.001 242.907V348.352C661.001 349.734 662.12 350.854 663.501 350.854C664.882 350.854 666.001 349.734 666.001 348.352V222.374C666.001 222.329 666.001 222.281 666.001 222.232C666.004 221.731 666.007 221.004 665.786 220.313C665.595 219.719 665.283 219.171 664.869 218.703C664.388 218.16 663.762 217.792 663.33 217.539L663.328 217.538L663.267 217.502L663.208 217.467L632.501 199.246V176.095L661.729 193.38C662.918 194.083 664.451 193.689 665.153 192.499C665.856 191.309 665.461 189.775 664.273 189.072L631.273 169.557L631.249 169.542L631.225 169.529L521.561 107.935C521.52 107.911 521.476 107.886 521.43 107.86C520.966 107.597 520.295 107.215 519.539 107.075C518.89 106.955 518.223 106.979 517.585 107.146C516.841 107.34 516.199 107.77 515.756 108.066C515.712 108.095 515.669 108.124 515.63 108.15L446.149 154.093L415.195 173.08C414.017 173.802 413.648 175.343 414.369 176.521C415.091 177.699 416.63 178.069 417.807 177.347L444.99 160.673L445.001 168.708V168.712ZM657.969 235.217L632.501 219.87V205.063L660.658 221.771C660.798 221.855 660.907 221.919 661 221.975C661 222.04 661.001 222.11 661.001 222.191L661.001 222.374V237.435C660.661 237.027 660.281 236.72 659.968 236.49C659.448 236.107 658.771 235.7 658.056 235.269L657.969 235.217ZM627.501 216.857V202.096L601.501 186.668V201.189L627.501 216.857ZM434.62 176.056C435.353 177.227 434.998 178.771 433.828 179.504L373.329 217.426C373.195 217.51 373.091 217.575 373.002 217.632C373.001 217.738 373.001 217.86 373.001 218.019V363.364C373.001 364.746 371.882 365.866 370.501 365.866C369.12 365.866 368.001 364.746 368.001 363.364V218.019C368.001 217.976 368.001 217.93 368.001 217.881C367.998 217.393 367.995 216.685 368.206 216.009C368.388 215.427 368.686 214.889 369.082 214.426C369.543 213.887 370.144 213.515 370.558 213.258C370.599 213.232 370.638 213.208 370.675 213.185L431.174 175.264C432.344 174.53 433.887 174.885 434.62 176.056ZM463.61 446.883L434.001 426.847V419.08L463.713 438.903L463.61 446.883ZM477.001 455.945L468.568 450.238L468.671 442.211L472.114 444.509C473.263 445.275 474.815 444.964 475.581 443.815C476.347 442.665 476.037 441.112 474.888 440.345L468.747 436.248L468.979 418.112C468.98 418.071 468.981 418.027 468.981 417.982C468.989 417.519 469.001 416.848 468.817 416.199C468.659 415.64 468.395 415.118 468.038 414.66C467.624 414.128 467.077 413.74 466.699 413.473C466.662 413.446 466.626 413.421 466.593 413.397L434.001 390.099V376.186L487.035 413.483V462.735L482.001 459.328V415.571C482.001 414.189 480.882 413.069 479.501 413.069C478.12 413.069 477.001 414.189 477.001 415.571V455.945ZM434.001 413.065L463.789 432.94L463.98 418.048C463.982 417.898 463.983 417.782 463.983 417.682C463.903 417.624 463.809 417.556 463.687 417.469L434.001 396.248V413.065ZM548.001 454.713L531.001 465.01V409.938L560.001 393.657V430.86L553.001 434.923V422.411C553.001 421.029 551.882 419.909 550.501 419.909C549.12 419.909 548.001 421.029 548.001 422.411V437.756L543.337 440.213C542.115 440.856 541.646 442.369 542.289 443.592C542.932 444.815 544.443 445.284 545.665 444.641L548.001 443.411V454.713ZM553.001 440.708L560.001 436.645V447.445L553.001 451.685V440.708ZM565.001 444.416V433.742L596.001 415.746V425.639L565.001 444.416ZM596.001 409.961L565.001 427.957V390.864L596.001 373.8V409.961ZM635.001 265.285C635.001 263.904 633.882 262.783 632.501 262.783C631.12 262.783 630.001 263.904 630.001 265.285V382.379C630.001 383.761 631.12 384.881 632.501 384.881C633.882 384.881 635.001 383.761 635.001 382.379V265.285Z" fill="#FFEFAF"/>
</g>
<defs>
<filter id="filter0_d_2226_98" x="391" y="518" width="22" height="22" filterUnits="userSpaceOnUse" color-interpolation-filters="sRGB">
<feFlood flood-opacity="0" result="BackgroundImageFix"/>
<feColorMatrix in="SourceAlpha" type="matrix" values="0 0 0 0 0 0 0 0 0 0 0 0 0 0 0 0 0 0 127 0" result="hardAlpha"/>
<feMorphology radius="3" operator="dilate" in="SourceAlpha" result="effect1_dropShadow_2226_98"/>
<feOffset/>
<feGaussianBlur stdDeviation="1.5"/>
<feComposite in2="hardAlpha" operator="out"/>
<feColorMatrix type="matrix" values="0 0 0 0 1 0 0 0 0 1 0 0 0 0 1 0 0 0 0.6 0"/>
<feBlend mode="normal" in2="BackgroundImageFix" result="effect1_dropShadow_2226_98"/>
<feBlend mode="normal" in="SourceGraphic" in2="effect1_dropShadow_2226_98" result="shape"/>
</filter>
<filter id="filter1_d_2226_98" x="496" y="532" width="22" height="22" filterUnits="userSpaceOnUse" color-interpolation-filters="sRGB">
<feFlood flood-opacity="0" result="BackgroundImageFix"/>
<feColorMatrix in="SourceAlpha" type="matrix" values="0 0 0 0 0 0 0 0 0 0 0 0 0 0 0 0 0 0 127 0" result="hardAlpha"/>
<feMorphology radius="3" operator="dilate" in="SourceAlpha" result="effect1_dropShadow_2226_98"/>
<feOffset/>
<feGaussianBlur stdDeviation="1.5"/>
<feComposite in2="hardAlpha" operator="out"/>
<feColorMatrix type="matrix" values="0 0 0 0 1 0 0 0 0 1 0 0 0 0 1 0 0 0 0.6 0"/>
<feBlend mode="normal" in2="BackgroundImageFix" result="effect1_dropShadow_2226_98"/>
<feBlend mode="normal" in="SourceGraphic" in2="effect1_dropShadow_2226_98" result="shape"/>
</filter>
<filter id="filter2_d_2226_98" x="647" y="532" width="22" height="22" filterUnits="userSpaceOnUse" color-interpolation-filters="sRGB">
<feFlood flood-opacity="0" result="BackgroundImageFix"/>
<feColorMatrix in="SourceAlpha" type="matrix" values="0 0 0 0 0 0 0 0 0 0 0 0 0 0 0 0 0 0 127 0" result="hardAlpha"/>
<feMorphology radius="3" operator="dilate" in="SourceAlpha" result="effect1_dropShadow_2226_98"/>
<feOffset/>
<feGaussianBlur stdDeviation="1.5"/>
<feComposite in2="hardAlpha" operator="out"/>
<feColorMatrix type="matrix" values="0 0 0 0 1 0 0 0 0 1 0 0 0 0 1 0 0 0 0.6 0"/>
<feBlend mode="normal" in2="BackgroundImageFix" result="effect1_dropShadow_2226_98"/>
<feBlend mode="normal" in="SourceGraphic" in2="effect1_dropShadow_2226_98" result="shape"/>
</filter>
<filter id="filter3_d_2226_98" x="622" y="501" width="22" height="22" filterUnits="userSpaceOnUse" color-interpolation-filters="sRGB">
<feFlood flood-opacity="0" result="BackgroundImageFix"/>
<feColorMatrix in="SourceAlpha" type="matrix" values="0 0 0 0 0 0 0 0 0 0 0 0 0 0 0 0 0 0 127 0" result="hardAlpha"/>
<feMorphology radius="3" operator="dilate" in="SourceAlpha" result="effect1_dropShadow_2226_98"/>
<feOffset/>
<feGaussianBlur stdDeviation="1.5"/>
<feComposite in2="hardAlpha" operator="out"/>
<feColorMatrix type="matrix" values="0 0 0 0 1 0 0 0 0 1 0 0 0 0 1 0 0 0 0.6 0"/>
<feBlend mode="normal" in2="BackgroundImageFix" result="effect1_dropShadow_2226_98"/>
<feBlend mode="normal" in="SourceGraphic" in2="effect1_dropShadow_2226_98" result="shape"/>
</filter>
<filter id="filter4_d_2226_98" x="736" y="526" width="22" height="22" filterUnits="userSpaceOnUse" color-interpolation-filters="sRGB">
<feFlood flood-opacity="0" result="BackgroundImageFix"/>
<feColorMatrix in="SourceAlpha" type="matrix" values="0 0 0 0 0 0 0 0 0 0 0 0 0 0 0 0 0 0 127 0" result="hardAlpha"/>
<feMorphology radius="3" operator="dilate" in="SourceAlpha" result="effect1_dropShadow_2226_98"/>
<feOffset/>
<feGaussianBlur stdDeviation="1.5"/>
<feComposite in2="hardAlpha" operator="out"/>
<feColorMatrix type="matrix" values="0 0 0 0 1 0 0 0 0 1 0 0 0 0 1 0 0 0 0.6 0"/>
<feBlend mode="normal" in2="BackgroundImageFix" result="effect1_dropShadow_2226_98"/>
<feBlend mode="normal" in="SourceGraphic" in2="effect1_dropShadow_2226_98" result="shape"/>
</filter>
<filter id="filter5_d_2226_98" x="788" y="601" width="24" height="24" filterUnits="userSpaceOnUse" color-interpolation-filters="sRGB">
<feFlood flood-opacity="0" result="BackgroundImageFix"/>
<feColorMatrix in="SourceAlpha" type="matrix" values="0 0 0 0 0 0 0 0 0 0 0 0 0 0 0 0 0 0 127 0" result="hardAlpha"/>
<feMorphology radius="3" operator="dilate" in="SourceAlpha" result="effect1_dropShadow_2226_98"/>
<feOffset/>
<feGaussianBlur stdDeviation="1.5"/>
<feComposite in2="hardAlpha" operator="out"/>
<feColorMatrix type="matrix" values="0 0 0 0 1 0 0 0 0 1 0 0 0 0 1 0 0 0 0.6 0"/>
<feBlend mode="normal" in2="BackgroundImageFix" result="effect1_dropShadow_2226_98"/>
<feBlend mode="normal" in="SourceGraphic" in2="effect1_dropShadow_2226_98" result="shape"/>
</filter>
<filter id="filter6_d_2226_98" x="809" y="547" width="24" height="24" filterUnits="userSpaceOnUse" color-interpolation-filters="sRGB">
<feFlood flood-opacity="0" result="BackgroundImageFix"/>
<feColorMatrix in="SourceAlpha" type="matrix" values="0 0 0 0 0 0 0 0 0 0 0 0 0 0 0 0 0 0 127 0" result="hardAlpha"/>
<feMorphology radius="3" operator="dilate" in="SourceAlpha" result="effect1_dropShadow_2226_98"/>
<feOffset/>
<feGaussianBlur stdDeviation="1.5"/>
<feComposite in2="hardAlpha" operator="out"/>
<feColorMatrix type="matrix" values="0 0 0 0 1 0 0 0 0 1 0 0 0 0 1 0 0 0 0.6 0"/>
<feBlend mode="normal" in2="BackgroundImageFix" result="effect1_dropShadow_2226_98"/>
<feBlend mode="normal" in="SourceGraphic" in2="effect1_dropShadow_2226_98" result="shape"/>
</filter>
<filter id="filter7_d_2226_98" x="192" y="542" width="26" height="26" filterUnits="userSpaceOnUse" color-interpolation-filters="sRGB">
<feFlood flood-opacity="0" result="BackgroundImageFix"/>
<feColorMatrix in="SourceAlpha" type="matrix" values="0 0 0 0 0 0 0 0 0 0 0 0 0 0 0 0 0 0 127 0" result="hardAlpha"/>
<feMorphology radius="3" operator="dilate" in="SourceAlpha" result="effect1_dropShadow_2226_98"/>
<feOffset/>
<feGaussianBlur stdDeviation="1.5"/>
<feComposite in2="hardAlpha" operator="out"/>
<feColorMatrix type="matrix" values="0 0 0 0 1 0 0 0 0 1 0 0 0 0 1 0 0 0 0.6 0"/>
<feBlend mode="normal" in2="BackgroundImageFix" result="effect1_dropShadow_2226_98"/>
<feBlend mode="normal" in="SourceGraphic" in2="effect1_dropShadow_2226_98" result="shape"/>
</filter>
<filter id="filter8_d_2226_98" x="575" y="568" width="24" height="24" filterUnits="userSpaceOnUse" color-interpolation-filters="sRGB">
<feFlood flood-opacity="0" result="BackgroundImageFix"/>
<feColorMatrix in="SourceAlpha" type="matrix" values="0 0 0 0 0 0 0 0 0 0 0 0 0 0 0 0 0 0 127 0" result="hardAlpha"/>
<feMorphology radius="3" operator="dilate" in="SourceAlpha" result="effect1_dropShadow_2226_98"/>
<feOffset/>
<feGaussianBlur stdDeviation="1.5"/>
<feComposite in2="hardAlpha" operator="out"/>
<feColorMatrix type="matrix" values="0 0 0 0 1 0 0 0 0 1 0 0 0 0 1 0 0 0 0.6 0"/>
<feBlend mode="normal" in2="BackgroundImageFix" result="effect1_dropShadow_2226_98"/>
<feBlend mode="normal" in="SourceGraphic" in2="effect1_dropShadow_2226_98" result="shape"/>
</filter>
<filter id="filter9_d_2226_98" x="722" y="586" width="24" height="24" filterUnits="userSpaceOnUse" color-interpolation-filters="sRGB">
<feFlood flood-opacity="0" result="BackgroundImageFix"/>
<feColorMatrix in="SourceAlpha" type="matrix" values="0 0 0 0 0 0 0 0 0 0 0 0 0 0 0 0 0 0 127 0" result="hardAlpha"/>
<feMorphology radius="3" operator="dilate" in="SourceAlpha" result="effect1_dropShadow_2226_98"/>
<feOffset/>
<feGaussianBlur stdDeviation="1.5"/>
<feComposite in2="hardAlpha" operator="out"/>
<feColorMatrix type="matrix" values="0 0 0 0 1 0 0 0 0 1 0 0 0 0 1 0 0 0 0.6 0"/>
<feBlend mode="normal" in2="BackgroundImageFix" result="effect1_dropShadow_2226_98"/>
<feBlend mode="normal" in="SourceGraphic" in2="effect1_dropShadow_2226_98" result="shape"/>
</filter>
<filter id="filter10_d_2226_98" x="352" y="604" width="24" height="24" filterUnits="userSpaceOnUse" color-interpolation-filters="sRGB">
<feFlood flood-opacity="0" result="BackgroundImageFix"/>
<feColorMatrix in="SourceAlpha" type="matrix" values="0 0 0 0 0 0 0 0 0 0 0 0 0 0 0 0 0 0 127 0" result="hardAlpha"/>
<feMorphology radius="3" operator="dilate" in="SourceAlpha" result="effect1_dropShadow_2226_98"/>
<feOffset/>
<feGaussianBlur stdDeviation="1.5"/>
<feComposite in2="hardAlpha" operator="out"/>
<feColorMatrix type="matrix" values="0 0 0 0 1 0 0 0 0 1 0 0 0 0 1 0 0 0 0.6 0"/>
<feBlend mode="normal" in2="BackgroundImageFix" result="effect1_dropShadow_2226_98"/>
<feBlend mode="normal" in="SourceGraphic" in2="effect1_dropShadow_2226_98" result="shape"/>
</filter>
<filter id="filter11_d_2226_98" x="673" y="560" width="24" height="24" filterUnits="userSpaceOnUse" color-interpolation-filters="sRGB">
<feFlood flood-opacity="0" result="BackgroundImageFix"/>
<feColorMatrix in="SourceAlpha" type="matrix" values="0 0 0 0 0 0 0 0 0 0 0 0 0 0 0 0 0 0 127 0" result="hardAlpha"/>
<feMorphology radius="3" operator="dilate" in="SourceAlpha" result="effect1_dropShadow_2226_98"/>
<feOffset/>
<feGaussianBlur stdDeviation="1.5"/>
<feComposite in2="hardAlpha" operator="out"/>
<feColorMatrix type="matrix" values="0 0 0 0 1 0 0 0 0 1 0 0 0 0 1 0 0 0 0.6 0"/>
<feBlend mode="normal" in2="BackgroundImageFix" result="effect1_dropShadow_2226_98"/>
<feBlend mode="normal" in="SourceGraphic" in2="effect1_dropShadow_2226_98" result="shape"/>
</filter>
<filter id="filter12_d_2226_98" x="278" y="589" width="24" height="24" filterUnits="userSpaceOnUse" color-interpolation-filters="sRGB">
<feFlood flood-opacity="0" result="BackgroundImageFix"/>
<feColorMatrix in="SourceAlpha" type="matrix" values="0 0 0 0 0 0 0 0 0 0 0 0 0 0 0 0 0 0 127 0" result="hardAlpha"/>
<feMorphology radius="3" operator="dilate" in="SourceAlpha" result="effect1_dropShadow_2226_98"/>
<feOffset/>
<feGaussianBlur stdDeviation="1.5"/>
<feComposite in2="hardAlpha" operator="out"/>
<feColorMatrix type="matrix" values="0 0 0 0 1 0 0 0 0 1 0 0 0 0 1 0 0 0 0.6 0"/>
<feBlend mode="normal" in2="BackgroundImageFix" result="effect1_dropShadow_2226_98"/>
<feBlend mode="normal" in="SourceGraphic" in2="effect1_dropShadow_2226_98" result="shape"/>
</filter>
<filter id="filter13_d_2226_98" x="235" y="566" width="22" height="22" filterUnits="userSpaceOnUse" color-interpolation-filters="sRGB">
<feFlood flood-opacity="0" result="BackgroundImageFix"/>
<feColorMatrix in="SourceAlpha" type="matrix" values="0 0 0 0 0 0 0 0 0 0 0 0 0 0 0 0 0 0 127 0" result="hardAlpha"/>
<feMorphology radius="3" operator="dilate" in="SourceAlpha" result="effect1_dropShadow_2226_98"/>
<feOffset/>
<feGaussianBlur stdDeviation="1.5"/>
<feComposite in2="hardAlpha" operator="out"/>
<feColorMatrix type="matrix" values="0 0 0 0 1 0 0 0 0 1 0 0 0 0 1 0 0 0 0.6 0"/>
<feBlend mode="normal" in2="BackgroundImageFix" result="effect1_dropShadow_2226_98"/>
<feBlend mode="normal" in="SourceGraphic" in2="effect1_dropShadow_2226_98" result="shape"/>
</filter>
<filter id="filter14_d_2226_98" x="308" y="516" width="22" height="22" filterUnits="userSpaceOnUse" color-interpolation-filters="sRGB">
<feFlood flood-opacity="0" result="BackgroundImageFix"/>
<feColorMatrix in="SourceAlpha" type="matrix" values="0 0 0 0 0 0 0 0 0 0 0 0 0 0 0 0 0 0 127 0" result="hardAlpha"/>
<feMorphology radius="3" operator="dilate" in="SourceAlpha" result="effect1_dropShadow_2226_98"/>
<feOffset/>
<feGaussianBlur stdDeviation="1.5"/>
<feComposite in2="hardAlpha" operator="out"/>
<feColorMatrix type="matrix" values="0 0 0 0 1 0 0 0 0 1 0 0 0 0 1 0 0 0 0.6 0"/>
<feBlend mode="normal" in2="BackgroundImageFix" result="effect1_dropShadow_2226_98"/>
<feBlend mode="normal" in="SourceGraphic" in2="effect1_dropShadow_2226_98" result="shape"/>
</filter>
<filter id="filter15_d_2226_98" x="587" y="783" width="32" height="32" filterUnits="userSpaceOnUse" color-interpolation-filters="sRGB">
<feFlood flood-opacity="0" result="BackgroundImageFix"/>
<feColorMatrix in="SourceAlpha" type="matrix" values="0 0 0 0 0 0 0 0 0 0 0 0 0 0 0 0 0 0 127 0" result="hardAlpha"/>
<feMorphology radius="3" operator="dilate" in="SourceAlpha" result="effect1_dropShadow_2226_98"/>
<feOffset/>
<feGaussianBlur stdDeviation="1.5"/>
<feComposite in2="hardAlpha" operator="out"/>
<feColorMatrix type="matrix" values="0 0 0 0 1 0 0 0 0 1 0 0 0 0 1 0 0 0 0.6 0"/>
<feBlend mode="normal" in2="BackgroundImageFix" result="effect1_dropShadow_2226_98"/>
<feBlend mode="normal" in="SourceGraphic" in2="effect1_dropShadow_2226_98" result="shape"/>
</filter>
<filter id="filter16_d_2226_98" x="342" y="763" width="32" height="32" filterUnits="userSpaceOnUse" color-interpolation-filters="sRGB">
<feFlood flood-opacity="0" result="BackgroundImageFix"/>
<feColorMatrix in="SourceAlpha" type="matrix" values="0 0 0 0 0 0 0 0 0 0 0 0 0 0 0 0 0 0 127 0" result="hardAlpha"/>
<feMorphology radius="3" operator="dilate" in="SourceAlpha" result="effect1_dropShadow_2226_98"/>
<feOffset/>
<feGaussianBlur stdDeviation="1.5"/>
<feComposite in2="hardAlpha" operator="out"/>
<feColorMatrix type="matrix" values="0 0 0 0 1 0 0 0 0 1 0 0 0 0 1 0 0 0 0.6 0"/>
<feBlend mode="normal" in2="BackgroundImageFix" result="effect1_dropShadow_2226_98"/>
<feBlend mode="normal" in="SourceGraphic" in2="effect1_dropShadow_2226_98" result="shape"/>
</filter>
<filter id="filter17_d_2226_98" x="420" y="750" width="30" height="30" filterUnits="userSpaceOnUse" color-interpolation-filters="sRGB">
<feFlood flood-opacity="0" result="BackgroundImageFix"/>
<feColorMatrix in="SourceAlpha" type="matrix" values="0 0 0 0 0 0 0 0 0 0 0 0 0 0 0 0 0 0 127 0" result="hardAlpha"/>
<feMorphology radius="3" operator="dilate" in="SourceAlpha" result="effect1_dropShadow_2226_98"/>
<feOffset/>
<feGaussianBlur stdDeviation="1.5"/>
<feComposite in2="hardAlpha" operator="out"/>
<feColorMatrix type="matrix" values="0 0 0 0 1 0 0 0 0 1 0 0 0 0 1 0 0 0 0.6 0"/>
<feBlend mode="normal" in2="BackgroundImageFix" result="effect1_dropShadow_2226_98"/>
<feBlend mode="normal" in="SourceGraphic" in2="effect1_dropShadow_2226_98" result="shape"/>
</filter>
<filter id="filter18_d_2226_98" x="290" y="680" width="30" height="30" filterUnits="userSpaceOnUse" color-interpolation-filters="sRGB">
<feFlood flood-opacity="0" result="BackgroundImageFix"/>
<feColorMatrix in="SourceAlpha" type="matrix" values="0 0 0 0 0 0 0 0 0 0 0 0 0 0 0 0 0 0 127 0" result="hardAlpha"/>
<feMorphology radius="3" operator="dilate" in="SourceAlpha" result="effect1_dropShadow_2226_98"/>
<feOffset/>
<feGaussianBlur stdDeviation="1.5"/>
<feComposite in2="hardAlpha" operator="out"/>
<feColorMatrix type="matrix" values="0 0 0 0 1 0 0 0 0 1 0 0 0 0 1 0 0 0 0.6 0"/>
<feBlend mode="normal" in2="BackgroundImageFix" result="effect1_dropShadow_2226_98"/>
<feBlend mode="normal" in="SourceGraphic" in2="effect1_dropShadow_2226_98" result="shape"/>
</filter>
<filter id="filter19_d_2226_98" x="206" y="722" width="30" height="30" filterUnits="userSpaceOnUse" color-interpolation-filters="sRGB">
<feFlood flood-opacity="0" result="BackgroundImageFix"/>
<feColorMatrix in="SourceAlpha" type="matrix" values="0 0 0 0 0 0 0 0 0 0 0 0 0 0 0 0 0 0 127 0" result="hardAlpha"/>
<feMorphology radius="3" operator="dilate" in="SourceAlpha" result="effect1_dropShadow_2226_98"/>
<feOffset/>
<feGaussianBlur stdDeviation="1.5"/>
<feComposite in2="hardAlpha" operator="out"/>
<feColorMatrix type="matrix" values="0 0 0 0 1 0 0 0 0 1 0 0 0 0 1 0 0 0 0.6 0"/>
<feBlend mode="normal" in2="BackgroundImageFix" result="effect1_dropShadow_2226_98"/>
<feBlend mode="normal" in="SourceGraphic" in2="effect1_dropShadow_2226_98" result="shape"/>
</filter>
<filter id="filter20_d_2226_98" x="728" y="706" width="30" height="30" filterUnits="userSpaceOnUse" color-interpolation-filters="sRGB">
<feFlood flood-opacity="0" result="BackgroundImageFix"/>
<feColorMatrix in="SourceAlpha" type="matrix" values="0 0 0 0 0 0 0 0 0 0 0 0 0 0 0 0 0 0 127 0" result="hardAlpha"/>
<feMorphology radius="3" operator="dilate" in="SourceAlpha" result="effect1_dropShadow_2226_98"/>
<feOffset/>
<feGaussianBlur stdDeviation="1.5"/>
<feComposite in2="hardAlpha" operator="out"/>
<feColorMatrix type="matrix" values="0 0 0 0 1 0 0 0 0 1 0 0 0 0 1 0 0 0 0.6 0"/>
<feBlend mode="normal" in2="BackgroundImageFix" result="effect1_dropShadow_2226_98"/>
<feBlend mode="normal" in="SourceGraphic" in2="effect1_dropShadow_2226_98" result="shape"/>
</filter>
<filter id="filter21_d_2226_98" x="636" y="698" width="28" height="28" filterUnits="userSpaceOnUse" color-interpolation-filters="sRGB">
<feFlood flood-opacity="0" result="BackgroundImageFix"/>
<feColorMatrix in="SourceAlpha" type="matrix" values="0 0 0 0 0 0 0 0 0 0 0 0 0 0 0 0 0 0 127 0" result="hardAlpha"/>
<feMorphology radius="3" operator="dilate" in="SourceAlpha" result="effect1_dropShadow_2226_98"/>
<feOffset/>
<feGaussianBlur stdDeviation="1.5"/>
<feComposite in2="hardAlpha" operator="out"/>
<feColorMatrix type="matrix" values="0 0 0 0 1 0 0 0 0 1 0 0 0 0 1 0 0 0 0.6 0"/>
<feBlend mode="normal" in2="BackgroundImageFix" result="effect1_dropShadow_2226_98"/>
<feBlend mode="normal" in="SourceGraphic" in2="effect1_dropShadow_2226_98" result="shape"/>
</filter>
<filter id="filter22_d_2226_98" x="791" y="724" width="30" height="30" filterUnits="userSpaceOnUse" color-interpolation-filters="sRGB">
<feFlood flood-opacity="0" result="BackgroundImageFix"/>
<feColorMatrix in="SourceAlpha" type="matrix" values="0 0 0 0 0 0 0 0 0 0 0 0 0 0 0 0 0 0 127 0" result="hardAlpha"/>
<feMorphology radius="3" operator="dilate" in="SourceAlpha" result="effect1_dropShadow_2226_98"/>
<feOffset/>
<feGaussianBlur stdDeviation="1.5"/>
<feComposite in2="hardAlpha" operator="out"/>
<feColorMatrix type="matrix" values="0 0 0 0 1 0 0 0 0 1 0 0 0 0 1 0 0 0 0.6 0"/>
<feBlend mode="normal" in2="BackgroundImageFix" result="effect1_dropShadow_2226_98"/>
<feBlend mode="normal" in="SourceGraphic" in2="effect1_dropShadow_2226_98" result="shape"/>
</filter>
<filter id="filter23_d_2226_98" x="672" y="609" width="26" height="26" filterUnits="userSpaceOnUse" color-interpolation-filters="sRGB">
<feFlood flood-opacity="0" result="BackgroundImageFix"/>
<feColorMatrix in="SourceAlpha" type="matrix" values="0 0 0 0 0 0 0 0 0 0 0 0 0 0 0 0 0 0 127 0" result="hardAlpha"/>
<feMorphology radius="3" operator="dilate" in="SourceAlpha" result="effect1_dropShadow_2226_98"/>
<feOffset/>
<feGaussianBlur stdDeviation="1.5"/>
<feComposite in2="hardAlpha" operator="out"/>
<feColorMatrix type="matrix" values="0 0 0 0 1 0 0 0 0 1 0 0 0 0 1 0 0 0 0.6 0"/>
<feBlend mode="normal" in2="BackgroundImageFix" result="effect1_dropShadow_2226_98"/>
<feBlend mode="normal" in="SourceGraphic" in2="effect1_dropShadow_2226_98" result="shape"/>
</filter>
<filter id="filter24_d_2226_98" x="768" y="658" width="26" height="26" filterUnits="userSpaceOnUse" color-interpolation-filters="sRGB">
<feFlood flood-opacity="0" result="BackgroundImageFix"/>
<feColorMatrix in="SourceAlpha" type="matrix" values="0 0 0 0 0 0 0 0 0 0 0 0 0 0 0 0 0 0 127 0" result="hardAlpha"/>
<feMorphology radius="3" operator="dilate" in="SourceAlpha" result="effect1_dropShadow_2226_98"/>
<feOffset/>
<feGaussianBlur stdDeviation="1.5"/>
<feComposite in2="hardAlpha" operator="out"/>
<feColorMatrix type="matrix" values="0 0 0 0 1 0 0 0 0 1 0 0 0 0 1 0 0 0 0.6 0"/>
<feBlend mode="normal" in2="BackgroundImageFix" result="effect1_dropShadow_2226_98"/>
<feBlend mode="normal" in="SourceGraphic" in2="effect1_dropShadow_2226_98" result="shape"/>
</filter>
<filter id="filter25_d_2226_98" x="854" y="632" width="26" height="26" filterUnits="userSpaceOnUse" color-interpolation-filters="sRGB">
<feFlood flood-opacity="0" result="BackgroundImageFix"/>
<feColorMatrix in="SourceAlpha" type="matrix" values="0 0 0 0 0 0 0 0 0 0 0 0 0 0 0 0 0 0 127 0" result="hardAlpha"/>
<feMorphology radius="3" operator="dilate" in="SourceAlpha" result="effect1_dropShadow_2226_98"/>
<feOffset/>
<feGaussianBlur stdDeviation="1.5"/>
<feComposite in2="hardAlpha" operator="out"/>
<feColorMatrix type="matrix" values="0 0 0 0 1 0 0 0 0 1 0 0 0 0 1 0 0 0 0.6 0"/>
<feBlend mode="normal" in2="BackgroundImageFix" result="effect1_dropShadow_2226_98"/>
<feBlend mode="normal" in="SourceGraphic" in2="effect1_dropShadow_2226_98" result="shape"/>
</filter>
<filter id="filter26_d_2226_98" x="164" y="632" width="26" height="26" filterUnits="userSpaceOnUse" color-interpolation-filters="sRGB">
<feFlood flood-opacity="0" result="BackgroundImageFix"/>
<feColorMatrix in="SourceAlpha" type="matrix" values="0 0 0 0 0 0 0 0 0 0 0 0 0 0 0 0 0 0 127 0" result="hardAlpha"/>
<feMorphology radius="3" operator="dilate" in="SourceAlpha" result="effect1_dropShadow_2226_98"/>
<feOffset/>
<feGaussianBlur stdDeviation="1.5"/>
<feComposite in2="hardAlpha" operator="out"/>
<feColorMatrix type="matrix" values="0 0 0 0 1 0 0 0 0 1 0 0 0 0 1 0 0 0 0.6 0"/>
<feBlend mode="normal" in2="BackgroundImageFix" result="effect1_dropShadow_2226_98"/>
<feBlend mode="normal" in="SourceGraphic" in2="effect1_dropShadow_2226_98" result="shape"/>
</filter>
<filter id="filter27_d_2226_98" x="380" y="680" width="28" height="28" filterUnits="userSpaceOnUse" color-interpolation-filters="sRGB">
<feFlood flood-opacity="0" result="BackgroundImageFix"/>
<feColorMatrix in="SourceAlpha" type="matrix" values="0 0 0 0 0 0 0 0 0 0 0 0 0 0 0 0 0 0 127 0" result="hardAlpha"/>
<feMorphology radius="3" operator="dilate" in="SourceAlpha" result="effect1_dropShadow_2226_98"/>
<feOffset/>
<feGaussianBlur stdDeviation="1.5"/>
<feComposite in2="hardAlpha" operator="out"/>
<feColorMatrix type="matrix" values="0 0 0 0 1 0 0 0 0 1 0 0 0 0 1 0 0 0 0.6 0"/>
<feBlend mode="normal" in2="BackgroundImageFix" result="effect1_dropShadow_2226_98"/>
<feBlend mode="normal" in="SourceGraphic" in2="effect1_dropShadow_2226_98" result="shape"/>
</filter>
<filter id="filter28_d_2226_98" x="473" y="706" width="28" height="28" filterUnits="userSpaceOnUse" color-interpolation-filters="sRGB">
<feFlood flood-opacity="0" result="BackgroundImageFix"/>
<feColorMatrix in="SourceAlpha" type="matrix" values="0 0 0 0 0 0 0 0 0 0 0 0 0 0 0 0 0 0 127 0" result="hardAlpha"/>
<feMorphology radius="3" operator="dilate" in="SourceAlpha" result="effect1_dropShadow_2226_98"/>
<feOffset/>
<feGaussianBlur stdDeviation="1.5"/>
<feComposite in2="hardAlpha" operator="out"/>
<feColorMatrix type="matrix" values="0 0 0 0 1 0 0 0 0 1 0 0 0 0 1 0 0 0 0.6 0"/>
<feBlend mode="normal" in2="BackgroundImageFix" result="effect1_dropShadow_2226_98"/>
<feBlend mode="normal" in="SourceGraphic" in2="effect1_dropShadow_2226_98" result="shape"/>
</filter>
<filter id="filter29_d_2226_98" x="581" y="649" width="28" height="28" filterUnits="userSpaceOnUse" color-interpolation-filters="sRGB">
<feFlood flood-opacity="0" result="BackgroundImageFix"/>
<feColorMatrix in="SourceAlpha" type="matrix" values="0 0 0 0 0 0 0 0 0 0 0 0 0 0 0 0 0 0 127 0" result="hardAlpha"/>
<feMorphology radius="3" operator="dilate" in="SourceAlpha" result="effect1_dropShadow_2226_98"/>
<feOffset/>
<feGaussianBlur stdDeviation="1.5"/>
<feComposite in2="hardAlpha" operator="out"/>
<feColorMatrix type="matrix" values="0 0 0 0 1 0 0 0 0 1 0 0 0 0 1 0 0 0 0.6 0"/>
<feBlend mode="normal" in2="BackgroundImageFix" result="effect1_dropShadow_2226_98"/>
<feBlend mode="normal" in="SourceGraphic" in2="effect1_dropShadow_2226_98" result="shape"/>
</filter>
<filter id="filter30_ddd_2226_98" x="360" y="122" width="324" height="365" filterUnits="userSpaceOnUse" color-interpolation-filters="sRGB">
<feFlood flood-opacity="0" result="BackgroundImageFix"/>
<feColorMatrix in="SourceAlpha" type="matrix" values="0 0 0 0 0 0 0 0 0 0 0 0 0 0 0 0 0 0 127 0" result="hardAlpha"/>
<feOffset/>
<feGaussianBlur stdDeviation="15"/>
<feComposite in2="hardAlpha" operator="out"/>
<feColorMatrix type="matrix" values="0 0 0 0 1 0 0 0 0 0.904275 0 0 0 0 0.2889 0 0 0 1 0"/>
<feBlend mode="normal" in2="BackgroundImageFix" result="effect1_dropShadow_2226_98"/>
<feColorMatrix in="SourceAlpha" type="matrix" values="0 0 0 0 0 0 0 0 0 0 0 0 0 0 0 0 0 0 127 0" result="hardAlpha"/>
<feOffset dy="4"/>
<feGaussianBlur stdDeviation="2"/>
<feComposite in2="hardAlpha" operator="out"/>
<feColorMatrix type="matrix" values="0 0 0 0 0.113725 0 0 0 0 0.160784 0 0 0 0 0.254902 0 0 0 0.25 0"/>
<feBlend mode="normal" in2="effect1_dropShadow_2226_98" result="effect2_dropShadow_2226_98"/>
<feColorMatrix in="SourceAlpha" type="matrix" values="0 0 0 0 0 0 0 0 0 0 0 0 0 0 0 0 0 0 127 0" result="hardAlpha"/>
<feOffset/>
<feGaussianBlur stdDeviation="30"/>
<feComposite in2="hardAlpha" operator="out"/>
<feColorMatrix type="matrix" values="0 0 0 0 1 0 0 0 0 0.905882 0 0 0 0 0.290196 0 0 0 1 0"/>
<feBlend mode="normal" in2="effect2_dropShadow_2226_98" result="effect3_dropShadow_2226_98"/>
<feBlend mode="normal" in="SourceGraphic" in2="effect3_dropShadow_2226_98" result="shape"/>
</filter>
<filter id="filter31_dd_2226_98" x="338" y="77" width="368" height="487" filterUnits="userSpaceOnUse" color-interpolation-filters="sRGB">
<feFlood flood-opacity="0" result="BackgroundImageFix"/>
<feColorMatrix in="SourceAlpha" type="matrix" values="0 0 0 0 0 0 0 0 0 0 0 0 0 0 0 0 0 0 127 0" result="hardAlpha"/>
<feOffset/>
<feGaussianBlur stdDeviation="15"/>
<feComposite in2="hardAlpha" operator="out"/>
<feColorMatrix type="matrix" values="0 0 0 0 1 0 0 0 0 0.960784 0 0 0 0 0.721569 0 0 0 1 0"/>
<feBlend mode="normal" in2="BackgroundImageFix" result="effect1_dropShadow_2226_98"/>
<feColorMatrix in="SourceAlpha" type="matrix" values="0 0 0 0 0 0 0 0 0 0 0 0 0 0 0 0 0 0 127 0" result="hardAlpha"/>
<feOffset dy="4"/>
<feGaussianBlur stdDeviation="2"/>
<feComposite in2="hardAlpha" operator="out"/>
<feColorMatrix type="matrix" values="0 0 0 0 0.113725 0 0 0 0 0.160784 0 0 0 0 0.254902 0 0 0 0.25 0"/>
<feBlend mode="normal" in2="effect1_dropShadow_2226_98" result="effect2_dropShadow_2226_98"/>
<feBlend mode="normal" in="SourceGraphic" in2="effect2_dropShadow_2226_98" result="shape"/>
</filter>
</defs>
</svg>
