<svg width="1024" height="1024" viewBox="0 0 1024 1024" fill="none" xmlns="http://www.w3.org/2000/svg">
<g clip-path="url(#clip0_1761_521)">
<g filter="url(#filter0_d_1761_521)">
<circle cx="394" cy="429" r="5" fill="#E1F3FF"/>
</g>
<g filter="url(#filter1_d_1761_521)">
<circle cx="458" cy="441" r="5" fill="#E1F3FF"/>
</g>
<g filter="url(#filter2_d_1761_521)">
<circle cx="591" cy="454" r="5" fill="#E1F3FF"/>
</g>
<g filter="url(#filter3_d_1761_521)">
<circle cx="620" cy="431" r="5" fill="#E1F3FF"/>
</g>
<g filter="url(#filter4_d_1761_521)">
<circle cx="740" cy="457" r="5" fill="#E1F3FF"/>
</g>
<g filter="url(#filter5_d_1761_521)">
<circle cx="751" cy="517" r="6" fill="#E1F3FF"/>
</g>
<g filter="url(#filter6_d_1761_521)">
<circle cx="808" cy="498" r="6" fill="#E1F3FF"/>
</g>
<g filter="url(#filter7_d_1761_521)">
<circle cx="529" cy="547" r="7" fill="#E1F3FF"/>
</g>
<g filter="url(#filter8_d_1761_521)">
<circle cx="580" cy="505" r="6" fill="#E1F3FF"/>
</g>
<g filter="url(#filter9_d_1761_521)">
<circle cx="464" cy="528" r="6" fill="#E1F3FF"/>
</g>
<g filter="url(#filter10_d_1761_521)">
<circle cx="357" cy="523" r="6" fill="#E1F3FF"/>
</g>
<g filter="url(#filter11_d_1761_521)">
<circle cx="655" cy="496" r="6" fill="#E1F3FF"/>
</g>
<g filter="url(#filter12_d_1761_521)">
<circle cx="274" cy="523" r="6" fill="#E1F3FF"/>
</g>
<g filter="url(#filter13_d_1761_521)">
<circle cx="218" cy="512" r="5" fill="#E1F3FF"/>
</g>
<g filter="url(#filter14_d_1761_521)">
<circle cx="274" cy="465" r="5" fill="#E1F3FF"/>
</g>
<g filter="url(#filter15_d_1761_521)">
<circle cx="605" cy="720" r="10" fill="#E1F3FF"/>
</g>
<g filter="url(#filter16_d_1761_521)">
<circle cx="331" cy="710" r="10" fill="#E1F3FF"/>
</g>
<g filter="url(#filter17_d_1761_521)">
<circle cx="410" cy="674" r="9" fill="#E1F3FF"/>
</g>
<g filter="url(#filter18_d_1761_521)">
<circle cx="322" cy="631" r="9" fill="#E1F3FF"/>
</g>
<g filter="url(#filter19_d_1761_521)">
<circle cx="183" cy="629" r="9" fill="#E1F3FF"/>
</g>
<g filter="url(#filter20_d_1761_521)">
<circle cx="706" cy="649" r="9" fill="#E1F3FF"/>
</g>
<g filter="url(#filter21_d_1761_521)">
<circle cx="612" cy="621" r="8" fill="#E1F3FF"/>
</g>
<g filter="url(#filter22_d_1761_521)">
<circle cx="807" cy="628" r="9" fill="#E1F3FF"/>
</g>
<g filter="url(#filter23_d_1761_521)">
<circle cx="668" cy="547" r="7" fill="#E1F3FF"/>
</g>
<g filter="url(#filter24_d_1761_521)">
<circle cx="765" cy="588" r="7" fill="#E1F3FF"/>
</g>
<g filter="url(#filter25_d_1761_521)">
<circle cx="809" cy="547" r="7" fill="#E1F3FF"/>
</g>
<g filter="url(#filter26_d_1761_521)">
<circle cx="203" cy="581" r="7" fill="#E1F3FF"/>
</g>
<g filter="url(#filter27_d_1761_521)">
<circle cx="359" cy="603" r="8" fill="#E1F3FF"/>
</g>
<g filter="url(#filter28_d_1761_521)">
<circle cx="452" cy="596" r="8" fill="#E1F3FF"/>
</g>
<g filter="url(#filter29_d_1761_521)">
<circle cx="536" cy="619" r="8" fill="#E1F3FF"/>
</g>
<g filter="url(#filter30_dddddd_1761_521)">
<path fill-rule="evenodd" clip-rule="evenodd" d="M645 224.994C645 255.875 634.147 284.269 615.989 306.668C615.658 307.077 615.066 307.154 614.638 306.849L607.803 301.965C607.345 301.638 607.248 300.999 607.582 300.546C610.471 296.632 613.121 292.435 615.48 288.061C615.738 287.583 616.329 287.392 616.816 287.635L622.211 290.333C622.705 290.58 623.306 290.38 623.553 289.886L624.447 288.097C624.694 287.603 624.494 287.002 624 286.755L618.624 284.068C618.136 283.823 617.934 283.232 618.167 282.737C622.264 274.035 625.196 264.822 626.588 255.849C626.664 255.358 627.085 254.993 627.582 254.993H630.026C630.584 254.993 631.035 255.45 631.016 256.007C630.823 261.802 629.64 265.97 627.992 270.334C627.797 270.85 628.051 271.429 628.566 271.63L630.43 272.354C630.945 272.555 631.525 272.3 631.72 271.783C633.851 266.145 635.32 260.614 635 252.002C635 251.449 634.552 250.993 634 250.993H628.287C627.699 250.993 627.238 250.487 627.284 249.9C627.399 248.418 627.468 246.948 627.49 245.493C627.499 244.941 627.05 244.493 626.498 244.493L624.498 244.493C623.945 244.493 623.499 244.939 623.49 245.491C623.235 261.466 616.906 279.473 607.171 294.158C606.88 294.598 606.295 294.729 605.841 294.462L602.09 292.26C601.613 291.981 601.001 292.14 600.721 292.617L599.709 294.341C599.429 294.818 599.588 295.43 600.065 295.71L603.373 297.652C603.886 297.953 604.025 298.631 603.666 299.105C599.71 304.328 595.314 308.991 590.62 312.805C590.191 313.154 590.116 313.782 590.457 314.216L591.694 315.787C592.036 316.221 592.665 316.297 593.094 315.949C596.908 312.855 600.53 309.238 603.893 305.233C604.231 304.83 604.822 304.752 605.25 305.058L611.904 309.811C612.385 310.155 612.465 310.839 612.072 311.28C600.854 323.891 587.219 334.364 571.876 341.996C571.387 342.239 570.795 342.041 570.548 341.554L569.232 338.972C568.981 338.48 568.379 338.284 567.887 338.535L566.105 339.443C565.613 339.694 565.417 340.296 565.668 340.788L566.896 343.198C567.155 343.707 566.937 344.329 566.415 344.56C560.325 347.252 553.992 349.507 547.458 351.283C546.931 351.426 546.388 351.115 546.241 350.59L544.35 343.863C544.202 343.336 544.505 342.789 545.029 342.629C559.399 338.25 572.842 331.041 585.067 322.299C585.501 321.988 586.103 322.07 586.436 322.486L588.814 325.458C589.159 325.89 589.788 325.96 590.219 325.615L591.781 324.365C592.212 324.02 592.282 323.391 591.937 322.96L588.564 318.744C588.563 318.742 588.56 318.742 588.559 318.743C588.557 318.744 588.554 318.744 588.553 318.742L587.222 316.986C586.888 316.546 586.261 316.46 585.819 316.791C566.724 331.095 544.685 341.533 520.89 343.04C520.338 343.075 519.914 343.545 519.943 344.097L520.048 346.094C520.077 346.645 520.548 347.07 521.099 347.035C527.293 346.645 533.359 345.677 539.28 344.215C539.807 344.085 540.345 344.394 540.492 344.917L542.339 351.492C542.494 352.041 542.158 352.608 541.602 352.733C533.06 354.645 524.205 355.747 515.125 355.953C514.572 355.966 514.117 355.523 514.11 354.969L513.924 339.984C513.917 339.432 513.464 338.99 512.912 338.997L510.912 339.022C510.36 339.029 509.918 339.482 509.925 340.034L510.16 359.012C510.166 359.565 510.62 360.007 511.172 360L512.111 359.988C587.695 359.929 649 299.541 649 224.994C649 151.071 588.716 91.0706 514.005 90.0142C514.002 90.0141 514 90.0119 514 90.0091C514 90.0063 513.998 90.004 513.995 90.004H513.065C512.711 90.0013 512.357 90 512.002 90L512 90.002L511.998 90.004H510.003L510 90.0075L509.997 90.0109C434.821 90.543 374 150.816 374 225.147C374 229.875 374.246 234.546 374.727 239.149C381.491 303.956 437.861 357.424 503.936 359.96C504.488 359.981 504.953 359.547 504.969 358.995L505.031 356.996C505.047 356.444 504.614 355.983 504.062 355.962C503.223 355.93 502.385 355.889 501.549 355.84C500.984 355.806 500.563 355.307 500.621 354.743L500.885 352.196C500.941 351.647 500.542 351.155 499.993 351.099L498.003 350.893C497.454 350.836 496.963 351.236 496.906 351.785L496.63 354.45C496.574 354.998 496.085 355.397 495.537 355.338C490.373 354.781 485.284 353.905 480.289 352.73C479.727 352.598 479.399 352.016 479.571 351.465L480.321 349.06C480.474 348.57 480.973 348.276 481.477 348.374C483.537 348.772 485.633 349.101 487.778 349.361C488.326 349.428 488.821 349.032 488.882 348.483L489.103 346.495C489.164 345.947 488.768 345.453 488.22 345.386C486.407 345.165 484.63 344.893 482.88 344.568C482.296 344.46 481.943 343.864 482.12 343.297L485.987 330.904C486.152 330.379 486.71 330.085 487.238 330.241C491.237 331.423 495.237 332.298 499.198 332.798C499.703 332.861 500.086 333.289 500.086 333.798L500.086 338.077C500.086 338.618 499.656 339.062 499.115 339.067C496.593 339.088 494.13 338.894 491.942 338.393C491.403 338.27 490.851 338.577 490.7 339.108L490.155 341.032C490.004 341.564 490.313 342.118 490.85 342.246C494.116 343.021 497.744 343.173 501.173 343.009L503.086 343.009C503.638 343.009 504.086 342.561 504.086 342.009L504.086 330.009C504.086 329.457 503.638 329.009 503.086 329.009L501.204 329.009C501.202 329.009 501.2 329.007 501.2 329.004C501.2 329.002 501.198 328.999 501.196 328.999C488.672 327.737 475.423 322.33 462.88 315.005C462.404 314.727 461.79 314.883 461.509 315.359L460.489 317.079C460.208 317.554 460.364 318.168 460.841 318.447C467.55 322.366 474.535 325.797 481.581 328.37C482.086 328.554 482.36 329.102 482.2 329.615L478.155 342.576C477.997 343.082 477.471 343.377 476.958 343.242C468.958 341.133 461.369 337.807 453.347 333.064C452.872 332.783 452.257 332.936 451.973 333.409L450.942 335.123C450.657 335.596 450.81 336.211 451.285 336.492C459.512 341.358 467.363 344.818 475.658 347.036C476.212 347.184 476.536 347.762 476.365 348.309L475.667 350.547C475.506 351.062 474.964 351.357 474.445 351.209C424.711 336.993 385.573 293.128 379.016 241.423C378.942 240.842 379.387 240.324 379.972 240.305L384.719 240.156C385.281 240.138 385.746 240.587 385.757 241.149C385.926 249.883 387.557 258.562 391.314 266.067C391.561 266.56 392.167 266.746 392.655 266.487L393.783 265.889C393.851 265.853 393.923 265.825 393.997 265.806L409.466 261.738C409.994 261.599 410.536 261.911 410.69 262.435C411.708 265.897 412.984 269.215 414.577 272.181C414.815 272.624 414.701 273.177 414.299 273.479L411.456 275.614C410.955 275.99 410.236 275.818 409.965 275.254C408.992 273.223 408.081 271.155 407.232 269.082C407.023 268.571 406.441 268.321 405.928 268.526L404.071 269.27C403.559 269.475 403.309 270.057 403.518 270.568C407.353 279.94 412.57 289.587 419.384 296.49C419.85 296.963 419.758 297.753 419.186 298.089L416.151 299.874C415.732 300.12 415.196 300.03 414.884 299.658C408.13 291.6 402.486 282.681 398.409 272.856C398.198 272.346 397.616 272.097 397.103 272.304L395.248 273.05C394.736 273.257 394.487 273.84 394.699 274.35C404.223 297.335 421.895 315.372 442.05 329.094C442.507 329.405 443.128 329.283 443.436 328.825L444.872 326.691L447.474 323.159C447.802 322.715 448.426 322.62 448.873 322.943C456.278 328.286 464.369 332.873 474.457 336.102C474.983 336.27 475.544 335.973 475.706 335.445L476.294 333.534C476.456 333.006 476.157 332.446 475.631 332.278C458.52 326.792 447.479 317.263 434.737 306.267L434.734 306.264C433.977 305.611 433.214 304.953 432.444 304.29C432.025 303.929 431.394 303.977 431.034 304.396L429.731 305.914C429.372 306.333 429.42 306.964 429.838 307.324C430.633 308.008 431.421 308.689 432.206 309.367C436.201 312.818 440.092 316.178 444.109 319.342C444.535 319.677 444.62 320.29 444.298 320.727L442.413 323.285C442.09 323.724 441.475 323.823 441.032 323.507C433.044 317.794 425.563 311.392 418.95 304.265C418.518 303.8 418.631 303.056 419.178 302.734L428.339 297.347C428.815 297.067 428.974 296.454 428.694 295.978L427.681 294.254C427.401 293.778 426.788 293.619 426.312 293.899L424.558 294.93C424.182 295.151 423.706 295.104 423.387 294.807C419.35 291.032 415.82 286.11 412.782 280.693C412.539 280.26 412.658 279.714 413.055 279.415L419.628 274.48C420.07 274.148 420.159 273.521 419.827 273.08L419.512 272.661C415.518 266.615 413.233 257.934 412.02 249.375C411.942 248.828 411.44 248.443 410.893 248.515L408.91 248.778C408.363 248.85 407.977 249.353 408.054 249.9C408.37 252.132 408.76 254.405 409.241 256.666C409.352 257.192 409.034 257.716 408.514 257.853L394.57 261.519C394.088 261.646 393.585 261.398 393.402 260.934C392.506 258.665 391.789 256.29 391.236 253.842C391.107 253.273 391.503 252.723 392.081 252.65L402.263 251.379C402.811 251.311 403.2 250.811 403.132 250.263L402.884 248.278C402.815 247.73 402.316 247.341 401.768 247.41L391.322 248.714C390.778 248.782 390.28 248.399 390.215 247.855C389.647 243.079 389.61 238.131 390.001 233.216C390.044 232.666 389.64 232.179 389.09 232.129L387.098 231.947C386.548 231.897 386.061 232.302 386.017 232.852C385.955 233.63 385.903 234.41 385.861 235.191C385.833 235.714 385.412 236.132 384.888 236.148L379.425 236.321C378.894 236.337 378.442 235.936 378.401 235.406C378.135 232.021 378 228.6 378 225.147C378 153.409 436.436 95.0827 508.988 94.0221C509.543 94.0139 510 94.4631 510 95.0183V98.696C510 99.2351 509.572 99.6769 509.033 99.6973C498.445 100.098 491.603 101.06 481.626 102.857C481.082 102.955 480.722 103.476 480.821 104.019L481.178 105.987C481.277 106.53 481.798 106.891 482.341 106.793C492.121 105.031 498.747 104.099 508.966 103.703C509.531 103.681 510 104.134 510 104.7V106.797C510 107.34 509.566 107.784 509.023 107.801C498.162 108.138 486.566 109.962 473.903 113.749C473.374 113.907 473.076 114.466 473.237 114.995L473.821 116.907C473.983 117.435 474.546 117.731 475.075 117.573C498.634 110.533 518.283 110.488 536.4 114.155C537.027 114.282 537.368 114.959 537.104 115.541L534.337 121.629C534.138 122.067 533.656 122.3 533.188 122.19C515.475 118 495.619 118.682 473.946 125.309C473.418 125.471 473.122 126.033 473.287 126.56L474.181 129.414C474.182 129.419 474.187 129.422 474.192 129.42C474.197 129.419 474.202 129.421 474.203 129.426L475.514 133.786C475.673 134.315 476.231 134.615 476.76 134.456L478.675 133.88C479.204 133.721 479.504 133.163 479.345 132.634L478.327 129.249C478.166 128.714 478.475 128.151 479.013 128.003C489.178 125.208 498.877 123.784 508.083 123.59C508.639 123.578 509.094 124.028 509.094 124.585V143.014C509.094 143.567 509.541 144.014 510.094 144.014H512.094C512.646 144.014 513.094 143.567 513.094 143.014V124.635C513.094 124.071 513.559 123.619 514.122 123.64C523.006 123.98 531.402 125.493 539.283 128.043C556.903 133.746 572.065 144.675 584.409 159.509C584.743 159.911 584.707 160.504 584.329 160.865L577.279 167.593C576.879 167.974 576.865 168.607 577.246 169.007L578.627 170.453C579.008 170.853 579.641 170.868 580.04 170.486L589.892 161.085C590.291 160.704 590.306 160.071 589.925 159.672L588.449 158.125C575.521 142.199 559.417 130.355 540.514 124.238C540.016 124.076 539.516 123.919 539.015 123.766C538.432 123.588 538.135 122.94 538.387 122.386L541.15 116.305C541.365 115.834 541.908 115.605 542.396 115.78C561.871 122.751 575.348 131.545 590.755 144.827C591.202 145.212 591.22 145.899 590.794 146.306L588.341 148.646C587.942 149.028 587.927 149.661 588.308 150.06L589.689 151.507C590.07 151.907 590.703 151.921 591.103 151.54L600.954 142.139C601.354 141.758 601.369 141.125 600.987 140.725L599.606 139.278C599.225 138.879 598.592 138.864 598.193 139.245L595.154 142.145C594.781 142.501 594.197 142.515 593.806 142.177C592.011 140.623 590.241 139.128 588.483 137.687C588.016 137.305 587.988 136.601 588.424 136.185L598.447 126.619C598.819 126.265 599.398 126.249 599.786 126.585C619.11 143.321 633.462 165.491 640.385 190.665C640.535 191.21 640.199 191.769 639.649 191.896L635.521 192.852C634.983 192.977 634.647 193.514 634.772 194.052L635.223 196C635.348 196.538 635.885 196.873 636.423 196.749L640.652 195.77C641.19 195.645 641.727 195.979 641.848 196.517C643.912 205.686 645 215.215 645 224.994ZM565.455 106.231C565.761 105.715 565.546 105.047 564.994 104.811C549.628 98.2284 532.751 94.4214 515.015 94.033C514.457 94.0208 514 94.4712 514 95.0291V106.759C514 107.307 514.442 107.753 514.99 107.763C524.068 107.932 532.653 109.128 540.951 111.051L541.05 111.074L541.145 111.106C553.235 115.227 563.085 119.971 572.308 125.849C572.745 126.127 573.323 126.03 573.641 125.621L577.355 120.858C577.694 120.422 578.323 120.344 578.758 120.684L580.336 121.913C580.771 122.253 580.849 122.881 580.509 123.317L577.069 127.731C576.715 128.185 576.817 128.843 577.289 129.173C579.458 130.685 581.607 132.267 583.76 133.928C584.152 134.23 584.707 134.203 585.066 133.861L595.173 124.215C595.611 123.797 595.581 123.09 595.106 122.715C587.542 116.745 579.3 111.571 570.513 107.324C570.047 107.099 569.488 107.271 569.225 107.716L567.363 110.863C567.069 111.36 567.257 112.003 567.771 112.268C568.715 112.756 569.656 113.256 570.592 113.769C571.076 114.034 571.249 114.643 570.98 115.126L570.005 116.872C569.736 117.354 569.126 117.526 568.642 117.261C552.717 108.54 535.55 103.704 519.991 103.505C519.439 103.498 518.992 103.051 518.992 102.499L518.992 100.499C518.992 99.9463 519.439 99.4979 519.991 99.5046C533.64 99.671 548.336 103.232 562.385 109.65C562.852 109.864 563.407 109.693 563.669 109.25L565.455 106.231Z" fill="url(#paint0_linear_1761_521)"/>
<path d="M511.172 288.038C511.172 287.486 510.72 287.039 510.168 287.029C480.256 286.494 456.172 262.08 456.172 232.041C456.172 201.673 480.786 177.054 511.153 177.043C511.163 177.043 511.172 177.035 511.172 177.024C511.172 177.014 511.181 177.005 511.191 177.005C513.72 177.048 516.208 177.255 518.643 177.616C532.367 179.65 544.457 186.571 553.019 196.511C553.379 196.93 554.009 196.989 554.434 196.636L556.427 194.981C556.431 194.977 556.437 194.978 556.441 194.982C556.444 194.986 556.451 194.986 556.455 194.982L562.778 189.19C563.185 188.817 563.213 188.184 562.84 187.777L561.997 186.857C551.988 175.141 538.349 166.337 523.08 164.755C522.563 164.701 522.164 164.269 522.164 163.75L522.164 161.023C522.164 160.471 521.716 160.023 521.164 160.023L519.164 160.023C518.612 160.023 518.164 160.471 518.164 161.023L518.164 167.501C518.164 168.053 518.612 168.499 519.165 168.512C533.69 168.848 547.083 176.461 557.23 187.507C557.601 187.91 557.569 188.537 557.166 188.907L554.808 191.066C554.406 191.434 553.784 191.412 553.402 191.023C544.458 181.919 532.562 175.636 519.229 173.66C517.293 173.373 515.327 173.177 513.335 173.076C512.775 173.048 512.34 172.573 512.371 172.013L513.028 160.121C513.058 159.569 512.636 159.098 512.084 159.067L510.087 158.957C509.536 158.926 509.064 159.349 509.034 159.9L508.354 172.211C508.326 172.723 507.913 173.13 507.402 173.162C486.228 174.497 468.085 187.001 458.799 204.849C458.534 205.357 457.902 205.552 457.403 205.27L444.058 197.745C443.577 197.474 442.967 197.644 442.696 198.125L441.714 199.867C441.442 200.348 441.612 200.958 442.094 201.229L455.883 209.005C456.324 209.254 456.509 209.792 456.322 210.262C453.644 217 452.172 224.349 452.172 232.041C452.172 242.908 455.11 253.088 460.235 261.832C460.525 262.325 460.354 262.963 459.851 263.236L432.981 277.838C432.495 278.102 432.316 278.709 432.58 279.194L433.535 280.951C433.798 281.437 434.405 281.616 434.891 281.352L435.366 281.094C435.832 280.841 436.414 280.996 436.7 281.442C439.058 285.113 441.602 288.131 445.161 291.89C448.861 295.8 452.963 299.598 456.306 302.348C456.706 302.677 456.795 303.256 456.508 303.686L453.1 308.796C452.79 309.26 452.161 309.382 451.712 309.052C447.893 306.242 443.69 301.9 439.675 297.078C435.008 291.473 430.747 285.406 427.843 280.81C427.549 280.343 426.933 280.198 426.463 280.489L424.763 281.543C424.294 281.834 424.148 282.449 424.443 282.916C427.43 287.648 431.801 293.872 436.601 299.637C441.541 305.57 447.103 311.223 452.19 314.148L452.845 314.585C453.304 314.891 453.925 314.767 454.232 314.308L460.647 304.689L460.647 304.686L460.646 304.684L461.89 302.826C462.197 302.367 462.076 301.748 461.628 301.424C458.315 299.032 452.889 294.237 448.066 289.141C444.75 285.637 442.418 282.881 440.289 279.626C439.974 279.143 440.144 278.498 440.651 278.223L445.677 275.491C446.161 275.228 446.767 275.407 447.039 275.887C452.099 284.796 458.746 291.013 468.52 296.67C468.998 296.947 469.609 296.777 469.88 296.297L470.864 294.555C471.136 294.074 470.965 293.465 470.488 293.188C461.299 287.864 455.211 282.149 450.556 273.98C450.283 273.5 450.463 272.891 450.949 272.626L462.201 266.512C462.647 266.27 463.202 266.4 463.5 266.809C465.299 269.271 467.285 271.589 469.435 273.741C469.8 274.106 469.837 274.689 469.512 275.091L466.156 279.254C465.81 279.684 465.877 280.314 466.307 280.661L467.865 281.916C468.295 282.262 468.924 282.195 469.271 281.765L472.409 277.871C472.762 277.433 473.405 277.373 473.84 277.729C475.895 279.41 478.066 280.955 480.338 282.35C480.779 282.621 480.95 283.18 480.726 283.647L473.273 299.249C473.035 299.748 473.246 300.345 473.745 300.583L475.621 301.479L475.622 301.48L475.622 301.482C475.837 301.584 476.05 301.685 476.261 301.785L476.452 301.875C480.807 303.927 484.379 305.423 487.981 306.472C488.518 306.629 488.835 307.188 488.68 307.726L487.249 312.691C487.092 313.236 486.514 313.542 485.979 313.356C480.7 311.518 475.389 308.842 468.407 305.2C467.917 304.945 467.312 305.134 467.056 305.623L466.13 307.396C465.874 307.885 466.068 308.492 466.558 308.747C480.583 316.063 488.504 319.832 503.023 320.469C503.575 320.493 504.042 320.06 504.06 319.508L504.127 317.509C504.145 316.957 503.713 316.496 503.161 316.471C498.889 316.283 495.241 315.815 491.815 315.036C491.262 314.911 490.936 314.344 491.093 313.799L492.625 308.481C492.767 307.989 493.257 307.685 493.762 307.765C496.542 308.208 499.533 308.446 503.052 308.547C503.604 308.562 504.062 308.123 504.073 307.571L504.114 305.572C504.126 305.02 503.687 304.563 503.135 304.547C497.903 304.397 494.056 303.934 490.366 302.98C486.88 302.079 483.465 300.723 479.087 298.692C478.584 298.458 478.371 297.858 478.61 297.358L484.193 285.67C484.435 285.164 485.045 284.956 485.55 285.2C493.017 288.805 501.359 290.884 510.172 291.03C510.724 291.039 511.172 290.591 511.172 290.038V288.038Z" fill="url(#paint1_linear_1761_521)"/>
<path d="M499.387 190.154C499.534 190.687 500.087 190.998 500.623 190.863C523.761 185.051 547.35 198.628 553.647 221.531C559.735 243.673 547.477 266.585 526.003 274.258L523.114 274.855C522.573 274.967 522.225 275.496 522.337 276.037L524.636 287.161C524.748 287.702 525.277 288.05 525.818 287.938L527.776 287.533C528.317 287.421 528.665 286.892 528.553 286.352L527.045 279.055C526.943 278.562 527.226 278.071 527.698 277.899C550.887 269.414 564.125 244.552 557.504 220.471C550.613 195.41 524.804 180.616 499.562 187.006C499.027 187.141 498.711 187.694 498.857 188.226L499.387 190.154Z" fill="url(#paint2_linear_1761_521)"/>
<path d="M467.619 236.178C469.635 259.652 490.135 277.141 513.667 275.653C514.218 275.618 514.706 276.025 514.753 276.575L514.924 278.568C514.971 279.118 514.56 279.604 514.009 279.639C488.294 281.314 465.84 262.213 463.634 236.52C462.048 218.041 471.364 201.139 486.249 192.087C486.684 191.822 486.862 191.277 486.656 190.811L486.105 189.566C485.881 189.061 486.109 188.47 486.614 188.247L488.442 187.437C488.947 187.213 489.538 187.441 489.762 187.946L491.104 190.975L491.821 192.484C492.058 192.983 491.844 193.579 491.351 193.827C475.966 201.576 466.064 218.06 467.619 236.178Z" fill="url(#paint3_linear_1761_521)"/>
<path d="M631.254 235.495C631.785 235.496 632.224 235.082 632.25 234.552C632.61 227.133 632.28 219.682 631.271 212.302C631.196 211.755 630.689 211.376 630.142 211.455L596 216.416C595.448 216.496 595.069 217.013 595.149 217.565C596.083 223.982 595.987 229.279 595.898 234.259V234.26C595.89 234.672 596.222 235.009 596.633 235.009H599.109C599.662 235.009 600.109 234.561 600.109 234.009L600.109 223.018L600.047 222.02C600.013 221.469 600.431 220.994 600.983 220.96L614.987 220.085C615.538 220.05 616.013 220.469 616.047 221.02L616.172 223.017C616.206 223.568 615.787 224.043 615.236 224.077L605.047 224.714C604.52 224.747 604.109 225.184 604.109 225.712L604.109 235.007C604.109 235.013 604.104 235.019 604.098 235.019C604.091 235.019 604.086 235.024 604.086 235.03V238.009C604.086 238.561 603.638 239.009 603.086 239.009H586.047C585.495 239.009 585.047 238.561 585.047 238.009L585.047 228.009C585.047 227.456 585.495 227.009 586.047 227.009L588.047 227.009C588.599 227.009 589.047 227.456 589.047 228.009L589.047 234.009C589.047 234.561 589.495 235.009 590.047 235.009H591.299C591.622 235.009 591.887 234.75 591.892 234.426L591.898 234.071V234.053C591.99 228.844 592.082 223.642 591.04 217.156C591.039 217.145 591.029 217.138 591.019 217.14C591.009 217.141 590.999 217.134 590.997 217.124L590.787 215.677L590.771 215.587L590.748 215.462L590.73 215.369C590.73 215.365 590.732 215.362 590.735 215.361C590.739 215.361 590.741 215.358 590.74 215.354L590.569 214.174C590.489 213.627 590.868 213.12 591.415 213.04L619.643 208.939C620.213 208.856 620.596 208.31 620.478 207.745L618.12 196.405C618.008 195.864 618.355 195.335 618.896 195.223L620.854 194.815C621.395 194.703 621.924 195.05 622.037 195.591L624.469 207.288C624.576 207.806 625.068 208.15 625.592 208.074L629.47 207.511C630.029 207.43 630.411 206.901 630.307 206.346C628.456 196.472 625.38 186.778 621.105 177.517C620.869 177.005 620.255 176.795 619.753 177.049L615.158 179.377C614.666 179.627 614.064 179.43 613.814 178.937L612.91 177.153C612.661 176.661 612.858 176.059 613.35 175.809L618.009 173.449C618.503 173.198 618.7 172.594 618.444 172.103C614.49 164.535 609.707 157.304 604.112 150.554C603.759 150.128 603.813 149.498 604.235 149.142L605.765 147.853C606.187 147.497 606.819 147.552 607.172 147.977C628.179 173.307 638.103 205.222 636.15 236.464L636.147 238.503C636.146 239.055 635.698 239.502 635.145 239.501L624.971 239.486C624.419 239.485 623.972 239.036 623.973 238.484L623.978 235.495C623.978 235.489 623.983 235.484 623.989 235.484C623.995 235.484 624 235.479 624 235.473L624 227.994C624 227.442 624.448 226.994 625 226.994L627 226.994C627.552 226.994 628 227.442 628 227.994L628 234.492C628 235.044 628.447 235.491 628.998 235.492L631.254 235.495Z" fill="url(#paint4_linear_1761_521)"/>
<path d="M503.203 153.412C503.203 152.884 503.613 152.447 504.139 152.42C507.495 152.246 510.902 152.289 514.344 152.564C524.037 153.338 533.163 155.876 541.427 159.834C541.927 160.073 542.128 160.676 541.881 161.171L540.861 163.209C540.614 163.703 540.815 164.304 541.309 164.551L543.097 165.445C543.591 165.692 544.192 165.492 544.439 164.998L545.397 163.082C545.653 162.571 546.285 162.377 546.779 162.664C562.885 172.017 575.109 187.003 580.925 204.677C581.105 205.223 580.78 205.804 580.223 205.944L579.687 206.079C579.151 206.214 578.826 206.758 578.961 207.294L581.335 216.704C581.47 217.239 582.013 217.564 582.549 217.429L584.488 216.94C585.023 216.805 585.348 216.261 585.213 215.726L583.509 208.969C583.376 208.441 583.69 207.904 584.216 207.76L584.926 207.566C585.459 207.421 585.773 206.87 585.621 206.339C576.69 175.196 549.065 151.323 514.662 148.577C470.771 145.073 432.304 177.275 428.294 220.702C428.243 221.252 428.654 221.739 429.205 221.783L431.198 221.942C431.749 221.986 432.23 221.571 432.282 221.022C435.605 185.287 463.517 157.534 498.085 152.975C498.679 152.896 499.203 153.361 499.203 153.959L499.203 159.841C499.203 160.329 498.85 160.745 498.369 160.833C489.213 162.506 481.3 166.244 474.467 170.853C466.764 176.05 460.341 182.322 454.993 191.124C454.706 191.596 454.865 192.209 455.341 192.489L457.065 193.504C457.541 193.784 458.153 193.625 458.44 193.153C463.453 184.918 469.445 179.067 476.704 174.169C484.437 168.953 493.506 164.994 504.222 164.083C504.772 164.036 505.189 163.561 505.152 163.01L505.008 160.85C504.978 160.39 504.577 160.041 504.117 160.078C503.625 160.118 503.203 159.732 503.203 159.239L503.203 153.412Z" fill="url(#paint5_linear_1761_521)"/>
<path d="M492.792 141.007C492.9 141.549 492.547 142.076 492.006 142.189C453.632 150.256 424.119 179.562 420.66 228.142C420.621 228.693 420.145 229.121 419.594 229.086L416.602 228.896L416.6 228.894L416.599 228.893L408.17 229.159C407.618 229.176 407.156 228.743 407.139 228.191L407.105 227.127C405.639 216.364 408.702 204.501 412.934 194.171C413.143 193.66 413.73 193.421 414.239 193.635L416.083 194.409C416.592 194.623 416.831 195.209 416.622 195.72C412.842 204.956 410.212 215.028 410.821 224.133C410.856 224.66 411.308 225.058 411.836 225.041L416.034 224.909C416.538 224.893 416.951 224.503 417.001 224.002C418.432 209.816 422.074 197.254 427.5 186.382C427.74 185.901 427.563 185.314 427.094 185.052L414.893 178.23C414.411 177.96 414.238 177.351 414.508 176.869L415.484 175.123C415.754 174.641 416.363 174.469 416.845 174.739L419.746 176.36C420.242 176.638 420.87 176.445 421.132 175.94C422.842 172.641 424.738 169.495 426.806 166.507C427.13 166.039 427.007 165.394 426.529 165.085L412.594 156.064C412.189 155.802 411.654 155.866 411.327 156.219C396.472 172.235 389.095 193.487 387.564 214.133C387.523 214.684 387.048 215.101 386.497 215.065L384.501 214.935C383.95 214.899 383.532 214.424 383.572 213.874C385.21 191.687 393.393 168.578 410.277 151.535C410.325 151.486 410.369 151.432 410.407 151.374L410.543 151.163C410.843 150.699 411.462 150.567 411.926 150.867L429.036 161.943C429.471 162.224 430.047 162.127 430.371 161.723C439.744 150.018 451.966 141.072 466.053 135.162C466.533 134.96 466.784 134.427 466.627 133.931L465.213 129.447C465.042 128.906 464.454 128.615 463.921 128.813C449.308 134.262 436.68 143.021 427.115 154.759C426.766 155.187 426.137 155.26 425.705 154.916L424.139 153.672C423.707 153.328 423.634 152.699 423.983 152.27C434.29 139.607 447.957 130.285 463.69 124.638C463.693 124.637 463.695 124.634 463.694 124.631C463.693 124.629 463.694 124.625 463.697 124.624L463.969 124.539L464.141 124.478L464.146 124.48L464.15 124.482L466.553 123.724C467.08 123.558 467.642 123.85 467.808 124.377L471.198 135.123L471.595 136.213C471.783 136.732 471.515 137.306 470.998 137.5C450.837 145.075 434.435 158.849 424.585 177.971C424.34 178.446 424.519 179.03 424.986 179.291L428.967 181.517C429.447 181.785 430.054 181.613 430.331 181.138C443.696 158.182 465.558 143.651 491.223 138.266C491.763 138.153 492.292 138.504 492.4 139.046L492.792 141.007Z" fill="url(#paint6_linear_1761_521)"/>
<path d="M412.804 167.542C413.268 167.841 413.402 168.46 413.106 168.926C409.301 174.94 406.125 181.147 403.631 187.472C403.434 187.972 403.673 188.536 404.166 188.748L408.869 190.763C409.377 190.981 409.612 191.569 409.394 192.077L408.606 193.915C408.388 194.422 407.8 194.657 407.293 194.44L402.917 192.564C402.381 192.334 401.762 192.61 401.581 193.165C397.446 205.85 396.061 218.906 397.833 231.732C397.909 232.279 397.534 232.788 396.988 232.871L395.01 233.169C394.464 233.252 393.954 232.875 393.878 232.328C390.778 209.998 396.81 187.185 409.744 166.76C410.039 166.294 410.659 166.159 411.123 166.458L412.804 167.542Z" fill="url(#paint7_linear_1761_521)"/>
<path d="M418.24 148.168C418.652 148.536 419.284 148.5 419.653 148.089C430.941 135.529 443.77 123.818 461.057 116.651C461.539 116.451 462.092 116.66 462.325 117.126L463.764 120.004C464.011 120.498 464.612 120.698 465.106 120.451L466.895 119.557C467.389 119.31 467.589 118.709 467.342 118.215L466.184 115.899C465.915 115.361 466.179 114.708 466.749 114.515C468.136 114.048 469.55 113.61 470.992 113.201C471.524 113.051 471.839 112.502 471.694 111.969L471.17 110.039C471.025 109.506 470.472 109.192 469.94 109.342C446.371 116.006 430.237 130.326 416.667 145.427C416.298 145.838 416.335 146.47 416.747 146.837L418.24 148.168Z" fill="url(#paint8_linear_1761_521)"/>
<path fill-rule="evenodd" clip-rule="evenodd" d="M514.164 328.94C514.164 329.487 514.602 329.932 515.148 329.934C517.86 329.942 520.647 329.806 523.503 329.511L523.513 329.51L523.524 329.509C545.721 327.454 565.09 319.154 580.146 305.963C580.554 305.606 580.596 304.988 580.245 304.574L574.805 298.174L574.805 298.171L574.805 298.168L574.01 297.267C573.645 296.853 573.685 296.221 574.098 295.854C581.989 288.84 585.839 284.53 590.265 276.548C594.262 269.338 597.305 260.681 598.839 253.105C598.949 252.564 599.47 252.207 600.013 252.309L601.979 252.677C602.522 252.779 602.88 253.302 602.771 253.843C602.603 254.675 602.418 255.52 602.216 256.374C602.087 256.92 602.426 257.471 602.975 257.593L608.442 258.813C608.959 258.928 609.476 258.621 609.617 258.112C611.325 251.966 612.548 245.51 613.25 238.778C613.307 238.228 613.795 237.825 614.345 237.878L616.336 238.07C616.886 238.123 617.288 238.617 617.231 239.167C611.727 292.047 575.004 328.756 523.903 333.491C519.477 333.947 515.2 334.041 511.09 333.819C510.538 333.79 510.121 333.313 510.158 332.761L510.164 332.673V299.737C510.164 299.193 509.729 298.75 509.186 298.733C501.714 298.5 495.043 297.515 489.537 296.109C489.002 295.972 488.688 295.422 488.833 294.889L489.356 292.959C489.501 292.426 490.049 292.112 490.584 292.248C497.318 293.962 506.013 295.037 515.897 294.735C524.954 294.459 530.29 293.622 538.504 290.512C539.021 290.317 539.601 290.571 539.802 291.086L540.667 293.311L540.671 293.313L540.674 293.314L542.814 298.007C543.029 298.48 543.571 298.71 544.056 298.525C545.151 298.108 546.227 297.644 547.294 297.121C547.769 296.889 547.966 296.32 547.75 295.837L545.133 289.986L544.201 288.201C543.945 287.711 544.134 287.109 544.618 286.843C560.881 277.913 573.848 258.665 575.07 239.085C575.105 238.532 574.673 238.066 574.12 238.044L570.747 237.915C570.214 237.895 569.76 238.296 569.704 238.827C567.91 255.843 558.015 271.822 542.08 282.172C541.617 282.473 540.998 282.332 540.704 281.865L539.64 280.172C539.346 279.704 539.49 279.085 539.953 278.784C565.139 262.394 573.901 231.41 557.996 206.099C557.992 206.091 557.994 206.082 558.001 206.077C558.008 206.073 558.01 206.064 558.006 206.057L556.652 203.819C556.366 203.347 556.518 202.732 556.99 202.446L567.929 195.828C568.402 195.542 569.017 195.694 569.303 196.166L570.338 197.877C570.624 198.35 570.473 198.965 570 199.251L562.471 203.806C561.995 204.093 561.846 204.714 562.131 205.192C564.734 209.562 566.665 214.074 567.962 218.64C568.104 219.139 568.596 219.455 569.107 219.366L571.862 218.888C572.387 218.796 572.748 218.31 572.684 217.781L572.489 216.19C572.422 215.642 572.813 215.143 573.361 215.076L575.346 214.834C575.894 214.767 576.393 215.157 576.46 215.706L576.748 218.063L577.257 220.995C577.352 221.539 576.987 222.057 576.443 222.151L570.087 223.256C569.538 223.352 569.174 223.877 569.266 224.427C569.741 227.255 569.982 230.089 569.998 232.909C570.001 233.451 570.427 233.9 570.969 233.921L578.28 234.201C578.832 234.222 579.263 234.687 579.241 235.239L579.127 238.233L579.123 238.236L579.12 238.24C578.284 258.328 565.912 278.047 549.765 288.43C549.344 288.701 549.18 289.237 549.384 289.693L551.119 293.572C551.371 294.136 552.07 294.339 552.575 293.983C554.531 292.603 556.51 290.958 558.571 288.972C558.969 288.588 559.602 288.59 559.991 288.982L561.4 290.401C561.789 290.793 561.786 291.428 561.389 291.811C555.624 297.376 550.31 300.574 544.39 302.663C543.491 302.98 542.578 303.271 541.65 303.541C541.086 303.704 540.773 304.309 540.975 304.86L544.37 314.11C544.562 314.633 545.147 314.898 545.666 314.696C553.546 311.634 559.171 308.832 566.082 303.75C566.527 303.422 567.155 303.511 567.486 303.953L568.686 305.553C569.017 305.995 568.928 306.622 568.483 306.949C560.667 312.701 554.375 315.687 545.294 319.123C536.18 322.571 527.902 322.743 521.085 322.752C520.532 322.752 520.086 322.304 520.086 321.752L520.086 319.752C520.086 319.2 520.533 318.752 521.085 318.751C526.767 318.743 533.074 318.612 539.929 316.682C540.481 316.526 540.777 315.931 540.58 315.392L536.98 305.585C536.809 305.119 536.321 304.849 535.833 304.948C532.959 305.53 529.904 306.016 526.599 306.52C526.063 306.602 525.689 307.095 525.757 307.633L526.025 309.776C526.093 310.324 525.704 310.824 525.156 310.892L523.172 311.141C522.624 311.209 522.124 310.82 522.055 310.272L521.283 304.097C521.226 303.637 521.551 303.218 522.011 303.161L522.857 303.055C522.861 303.054 522.864 303.051 522.863 303.047C522.863 303.043 522.865 303.04 522.869 303.039L523.777 302.902C529.374 302.055 534.022 301.352 538.195 300.326C538.796 300.178 539.107 299.519 538.85 298.956L537.537 296.076C537.324 295.607 536.789 295.379 536.3 295.54C529.471 297.793 524.079 298.488 516.019 298.733C515.729 298.742 515.439 298.75 515.15 298.756C514.603 298.769 514.164 299.214 514.164 299.761V328.94ZM607.109 262.614C607.685 262.742 608.025 263.34 607.836 263.899C602.821 278.71 594.873 291.528 584.564 301.83C584.154 302.239 583.483 302.208 583.107 301.766L579.57 297.604C579.222 297.194 579.261 296.582 579.656 296.216C585.924 290.405 589.644 285.916 593.763 278.488C596.568 273.429 598.915 267.723 600.646 262.124C600.801 261.622 601.314 261.321 601.826 261.435L607.109 262.614Z" fill="url(#paint9_linear_1761_521)"/>
<path d="M440.37 260.962C439.896 261.234 439.291 261.076 439.024 260.6C434.508 252.522 432.639 242.093 432.211 231.953C432.187 231.401 431.725 230.969 431.173 230.987L430.634 231.005L425.042 231.118C424.49 231.129 424.051 231.586 424.063 232.138L424.103 234.138C424.114 234.69 424.571 235.129 425.123 235.117L427.425 235.071C427.958 235.06 428.405 235.469 428.447 236.001C429.261 246.364 431.694 257.117 437.248 265.342L437.623 265.997C437.898 266.476 438.509 266.641 438.989 266.366L449.017 260.613L449.018 260.609L449.019 260.606L450.958 259.497C451.438 259.223 451.605 258.615 451.343 258.128C449.417 254.538 446.698 248.237 445.557 242.127C443.393 230.541 444.392 222.297 448.113 212.141C448.303 211.622 448.043 211.045 447.526 210.85L445.656 210.142C445.139 209.947 444.561 210.208 444.371 210.726C440.416 221.508 439.313 230.484 441.625 242.862C442.548 247.8 444.393 252.782 446.132 256.596C446.348 257.071 446.171 257.633 445.719 257.893L440.37 260.962Z" fill="url(#paint10_linear_1761_521)"/>
<path d="M430.869 266.765C431.31 266.433 431.396 265.807 431.078 265.355C426.094 258.276 423.832 248.771 423.107 239.311L423.07 237.013C423.061 236.461 422.606 236.021 422.053 236.03L404.053 236.324C403.501 236.333 403.061 236.788 403.07 237.34L403.103 239.339C403.112 239.892 403.567 240.332 404.119 240.323L418.219 240.093C418.745 240.084 419.188 240.486 419.236 241.011C420.105 250.442 422.524 260.214 427.883 267.765C428.203 268.215 428.831 268.302 429.272 267.97L430.869 266.765Z" fill="url(#paint11_linear_1761_521)"/>
<path d="M612.172 199.406C612.174 199.455 612.18 199.505 612.189 199.554L612.272 199.993C612.375 200.535 612.018 201.059 611.476 201.161L592.828 204.693L591.852 204.913C591.314 205.034 590.779 204.695 590.653 204.157C589.463 199.061 588.241 195.384 586.571 191.957C584.893 188.517 582.727 185.257 579.565 181.015C579.235 180.572 579.323 179.945 579.764 179.613L581.362 178.41C581.804 178.078 582.431 178.167 582.761 178.61C585.983 182.931 588.325 186.43 590.166 190.204C591.551 193.044 592.632 195.998 593.607 199.529C593.747 200.035 594.249 200.353 594.765 200.255L598.984 199.456C599.491 199.36 599.852 198.892 599.767 198.382C599.73 198.155 599.683 197.927 599.622 197.679C599.403 196.79 598.989 195.664 598.036 193.534C597.821 193.051 597.264 192.824 596.771 193.013L596.744 193.024C596.229 193.222 595.65 192.964 595.452 192.449L594.735 190.582C594.537 190.066 594.795 189.488 595.31 189.29L598.982 187.879C599.497 187.681 600.076 187.939 600.274 188.454L601.102 190.611C602.468 193.578 603.148 195.27 603.506 196.722C603.569 196.978 603.622 197.228 603.667 197.475C603.771 198.047 604.308 198.448 604.879 198.34L607.117 197.916C607.632 197.818 607.986 197.339 607.91 196.821C607.251 192.358 605.49 187.216 603.128 182.102C601.014 177.525 598.468 173.079 595.941 169.316C595.625 168.846 594.98 168.741 594.526 169.079L591.02 171.693C590.577 172.024 589.951 171.932 589.62 171.489L588.425 169.886C588.095 169.443 588.186 168.817 588.629 168.487L593.692 164.712L595.375 163.402C595.811 163.063 596.44 163.141 596.772 163.582C600.201 168.13 603.868 174.164 606.76 180.425C609.703 186.797 611.937 193.602 612.172 199.406Z" fill="url(#paint12_linear_1761_521)"/>
<path d="M570.294 164.614C569.853 164.946 569.225 164.855 568.887 164.418C557.24 149.396 540.982 141.747 523.125 140.651C522.606 140.62 522.152 140.998 522.084 141.514L521.894 142.958C521.822 143.506 521.32 143.891 520.772 143.819L518.789 143.558C518.242 143.486 517.856 142.984 517.929 142.437L518.594 137.382C518.594 136.903 518.984 136.513 519.463 136.519C539.875 136.742 558.81 144.861 572.084 162.015C572.423 162.451 572.335 163.081 571.893 163.413L570.294 164.614Z" fill="url(#paint13_linear_1761_521)"/>
<path d="M564.528 285.746C564.177 285.32 564.239 284.69 564.663 284.336C572.564 277.765 577.008 272.998 581.415 265.049C584.633 259.245 586.332 254.639 587.157 249.28C587.242 248.727 586.844 248.22 586.287 248.157L585.936 248.118C585.387 248.057 584.992 247.562 585.053 247.013L585.275 245.026C585.337 244.477 585.831 244.082 586.38 244.143L589.861 244.532L590.662 244.582C591.213 244.617 591.633 245.093 591.591 245.643C590.989 253.457 589.149 259.349 584.913 266.989C580.787 274.432 576.58 279.289 570.164 284.906C569.769 285.251 569.703 285.843 570.018 286.264L573.066 290.346C573.397 290.788 573.306 291.415 572.864 291.745L571.261 292.942C570.819 293.272 570.192 293.182 569.862 292.739L565.706 287.176L564.528 285.746Z" fill="url(#paint14_linear_1761_521)"/>
</g>
<g filter="url(#filter31_dddddd_1761_521)">
<path fill-rule="evenodd" clip-rule="evenodd" d="M519.5 238.063L515.82 237.292L518.552 236.409L558.857 219.023L517.339 234.763L549.261 195.194L513.604 231.349L527.222 200.905L511.767 231.671L509.68 193.211L507.955 227.03L501.605 201.295L506.513 232.667L487.441 204.369L505.673 235.612L504.795 235.528L476.639 216.343L501.709 235.231L462.223 231.442L499.463 239.013L468.772 240.443L502.162 240.493L479.82 248.927L505.206 240.722L475.533 278.47L501.759 251.555L489.26 276.347L505.45 247.768L507.676 245.484L509.345 285.473L511.262 251.832L518.989 279.803L512.316 246.554L530.966 274.91L515.257 245.642L514.1 243.925L547.08 264.26L513.631 241.539L560.263 246.603L524.532 239.117L553.423 236.434L519.5 238.063Z" fill="url(#paint15_radial_1761_521)"/>
</g>
<g style="mix-blend-mode:plus-darker">
<path fill-rule="evenodd" clip-rule="evenodd" d="M513.553 227.522L511.037 230.178L511.704 227.408L517.857 184.272L509.694 227.565L492.905 179.677L504.911 228.914L486.342 201.243L504.222 230.611L470.849 211.903L498.305 231.307L473.493 222.978L502.363 235.541L468.776 236.523L504.403 237.814L503.877 238.512L473.267 251.981L502.039 240.949L478.526 272.133L504.034 244.875L489.446 271.417L506.698 243.34L502.272 266.633L508.451 240.935L524.869 285.967L515.78 249.627L530.144 273.294L514.502 244.516L513.724 241.404L548.148 261.266L520.84 241.725L548.366 250.126L517.011 238.05L550.418 237.454L517.754 235.091L515.728 235.151L549.771 218.246L513.474 234.281L541.736 197.767L517.032 223.849L529.664 198.111L513.553 227.522Z" fill="url(#paint16_radial_1761_521)"/>
</g>
<g filter="url(#filter32_dddddd_1761_521)">
<path fill-rule="evenodd" clip-rule="evenodd" d="M518.961 511.767L513.657 485.342L528.48 507.879L515.999 484.624L515.079 483.26L541.284 499.418L514.708 481.365L551.755 485.388L523.367 479.441L546.326 477.308L519.368 478.603L516.443 477.99L518.614 477.289L550.637 463.475L517.04 476.212L513.797 477.436L513.436 477.36L513.373 476.199L525.505 449.079L513.228 473.518L511.57 442.965L510.198 469.855L505.149 449.388L509.047 474.309L493.897 451.831L508.384 476.655L507.687 476.589L485.315 461.345L505.235 476.353L473.858 473.342L503.447 479.358L479.067 480.494L505.591 480.534L487.839 487.234L508.559 480.538L509.258 480.539L509.659 480.621L509.385 481.167L495.342 509.021L509.926 483.276L511.304 516.272L512.826 489.56L518.961 511.767Z" fill="url(#paint17_radial_1761_521)"/>
</g>
<g style="mix-blend-mode:plus-darker">
<path fill-rule="evenodd" clip-rule="evenodd" d="M542.31 488.187L517.397 478.592L543.937 478.118L517.984 476.242L516.375 476.289L543.424 462.857L514.589 475.596L537.042 446.586L517.415 467.308L527.451 446.859L514.652 470.226L512.649 472.341L513.178 470.137L518.068 435.863L511.464 470.887L510.821 474.27L510.56 474.546L509.563 473.988L493.028 449.347L507.236 472.683L480.717 457.818L502.531 473.234L482.82 466.617L505.758 476.599L479.069 477.379L507.38 478.405L506.963 478.957L482.638 489.661L505.503 480.894L486.819 505.672L507.088 484.014L495.496 505.104L509.2 482.801L505.684 501.302L510.733 480.306L511.07 479.759L511.357 479.452L511.673 479.971L527.831 506.596L513.728 480.649L542.135 497.039L520.436 481.511L542.31 488.187Z" fill="url(#paint18_radial_1761_521)"/>
</g>
</g>
<defs>
<filter id="filter0_d_1761_521" x="383" y="418" width="22" height="22" filterUnits="userSpaceOnUse" color-interpolation-filters="sRGB">
<feFlood flood-opacity="0" result="BackgroundImageFix"/>
<feColorMatrix in="SourceAlpha" type="matrix" values="0 0 0 0 0 0 0 0 0 0 0 0 0 0 0 0 0 0 127 0" result="hardAlpha"/>
<feMorphology radius="3" operator="dilate" in="SourceAlpha" result="effect1_dropShadow_1761_521"/>
<feOffset/>
<feGaussianBlur stdDeviation="1.5"/>
<feComposite in2="hardAlpha" operator="out"/>
<feColorMatrix type="matrix" values="0 0 0 0 1 0 0 0 0 1 0 0 0 0 1 0 0 0 0.6 0"/>
<feBlend mode="normal" in2="BackgroundImageFix" result="effect1_dropShadow_1761_521"/>
<feBlend mode="normal" in="SourceGraphic" in2="effect1_dropShadow_1761_521" result="shape"/>
</filter>
<filter id="filter1_d_1761_521" x="447" y="430" width="22" height="22" filterUnits="userSpaceOnUse" color-interpolation-filters="sRGB">
<feFlood flood-opacity="0" result="BackgroundImageFix"/>
<feColorMatrix in="SourceAlpha" type="matrix" values="0 0 0 0 0 0 0 0 0 0 0 0 0 0 0 0 0 0 127 0" result="hardAlpha"/>
<feMorphology radius="3" operator="dilate" in="SourceAlpha" result="effect1_dropShadow_1761_521"/>
<feOffset/>
<feGaussianBlur stdDeviation="1.5"/>
<feComposite in2="hardAlpha" operator="out"/>
<feColorMatrix type="matrix" values="0 0 0 0 1 0 0 0 0 1 0 0 0 0 1 0 0 0 0.6 0"/>
<feBlend mode="normal" in2="BackgroundImageFix" result="effect1_dropShadow_1761_521"/>
<feBlend mode="normal" in="SourceGraphic" in2="effect1_dropShadow_1761_521" result="shape"/>
</filter>
<filter id="filter2_d_1761_521" x="580" y="443" width="22" height="22" filterUnits="userSpaceOnUse" color-interpolation-filters="sRGB">
<feFlood flood-opacity="0" result="BackgroundImageFix"/>
<feColorMatrix in="SourceAlpha" type="matrix" values="0 0 0 0 0 0 0 0 0 0 0 0 0 0 0 0 0 0 127 0" result="hardAlpha"/>
<feMorphology radius="3" operator="dilate" in="SourceAlpha" result="effect1_dropShadow_1761_521"/>
<feOffset/>
<feGaussianBlur stdDeviation="1.5"/>
<feComposite in2="hardAlpha" operator="out"/>
<feColorMatrix type="matrix" values="0 0 0 0 1 0 0 0 0 1 0 0 0 0 1 0 0 0 0.6 0"/>
<feBlend mode="normal" in2="BackgroundImageFix" result="effect1_dropShadow_1761_521"/>
<feBlend mode="normal" in="SourceGraphic" in2="effect1_dropShadow_1761_521" result="shape"/>
</filter>
<filter id="filter3_d_1761_521" x="609" y="420" width="22" height="22" filterUnits="userSpaceOnUse" color-interpolation-filters="sRGB">
<feFlood flood-opacity="0" result="BackgroundImageFix"/>
<feColorMatrix in="SourceAlpha" type="matrix" values="0 0 0 0 0 0 0 0 0 0 0 0 0 0 0 0 0 0 127 0" result="hardAlpha"/>
<feMorphology radius="3" operator="dilate" in="SourceAlpha" result="effect1_dropShadow_1761_521"/>
<feOffset/>
<feGaussianBlur stdDeviation="1.5"/>
<feComposite in2="hardAlpha" operator="out"/>
<feColorMatrix type="matrix" values="0 0 0 0 1 0 0 0 0 1 0 0 0 0 1 0 0 0 0.6 0"/>
<feBlend mode="normal" in2="BackgroundImageFix" result="effect1_dropShadow_1761_521"/>
<feBlend mode="normal" in="SourceGraphic" in2="effect1_dropShadow_1761_521" result="shape"/>
</filter>
<filter id="filter4_d_1761_521" x="729" y="446" width="22" height="22" filterUnits="userSpaceOnUse" color-interpolation-filters="sRGB">
<feFlood flood-opacity="0" result="BackgroundImageFix"/>
<feColorMatrix in="SourceAlpha" type="matrix" values="0 0 0 0 0 0 0 0 0 0 0 0 0 0 0 0 0 0 127 0" result="hardAlpha"/>
<feMorphology radius="3" operator="dilate" in="SourceAlpha" result="effect1_dropShadow_1761_521"/>
<feOffset/>
<feGaussianBlur stdDeviation="1.5"/>
<feComposite in2="hardAlpha" operator="out"/>
<feColorMatrix type="matrix" values="0 0 0 0 1 0 0 0 0 1 0 0 0 0 1 0 0 0 0.6 0"/>
<feBlend mode="normal" in2="BackgroundImageFix" result="effect1_dropShadow_1761_521"/>
<feBlend mode="normal" in="SourceGraphic" in2="effect1_dropShadow_1761_521" result="shape"/>
</filter>
<filter id="filter5_d_1761_521" x="739" y="505" width="24" height="24" filterUnits="userSpaceOnUse" color-interpolation-filters="sRGB">
<feFlood flood-opacity="0" result="BackgroundImageFix"/>
<feColorMatrix in="SourceAlpha" type="matrix" values="0 0 0 0 0 0 0 0 0 0 0 0 0 0 0 0 0 0 127 0" result="hardAlpha"/>
<feMorphology radius="3" operator="dilate" in="SourceAlpha" result="effect1_dropShadow_1761_521"/>
<feOffset/>
<feGaussianBlur stdDeviation="1.5"/>
<feComposite in2="hardAlpha" operator="out"/>
<feColorMatrix type="matrix" values="0 0 0 0 1 0 0 0 0 1 0 0 0 0 1 0 0 0 0.6 0"/>
<feBlend mode="normal" in2="BackgroundImageFix" result="effect1_dropShadow_1761_521"/>
<feBlend mode="normal" in="SourceGraphic" in2="effect1_dropShadow_1761_521" result="shape"/>
</filter>
<filter id="filter6_d_1761_521" x="796" y="486" width="24" height="24" filterUnits="userSpaceOnUse" color-interpolation-filters="sRGB">
<feFlood flood-opacity="0" result="BackgroundImageFix"/>
<feColorMatrix in="SourceAlpha" type="matrix" values="0 0 0 0 0 0 0 0 0 0 0 0 0 0 0 0 0 0 127 0" result="hardAlpha"/>
<feMorphology radius="3" operator="dilate" in="SourceAlpha" result="effect1_dropShadow_1761_521"/>
<feOffset/>
<feGaussianBlur stdDeviation="1.5"/>
<feComposite in2="hardAlpha" operator="out"/>
<feColorMatrix type="matrix" values="0 0 0 0 1 0 0 0 0 1 0 0 0 0 1 0 0 0 0.6 0"/>
<feBlend mode="normal" in2="BackgroundImageFix" result="effect1_dropShadow_1761_521"/>
<feBlend mode="normal" in="SourceGraphic" in2="effect1_dropShadow_1761_521" result="shape"/>
</filter>
<filter id="filter7_d_1761_521" x="516" y="534" width="26" height="26" filterUnits="userSpaceOnUse" color-interpolation-filters="sRGB">
<feFlood flood-opacity="0" result="BackgroundImageFix"/>
<feColorMatrix in="SourceAlpha" type="matrix" values="0 0 0 0 0 0 0 0 0 0 0 0 0 0 0 0 0 0 127 0" result="hardAlpha"/>
<feMorphology radius="3" operator="dilate" in="SourceAlpha" result="effect1_dropShadow_1761_521"/>
<feOffset/>
<feGaussianBlur stdDeviation="1.5"/>
<feComposite in2="hardAlpha" operator="out"/>
<feColorMatrix type="matrix" values="0 0 0 0 1 0 0 0 0 1 0 0 0 0 1 0 0 0 0.6 0"/>
<feBlend mode="normal" in2="BackgroundImageFix" result="effect1_dropShadow_1761_521"/>
<feBlend mode="normal" in="SourceGraphic" in2="effect1_dropShadow_1761_521" result="shape"/>
</filter>
<filter id="filter8_d_1761_521" x="568" y="493" width="24" height="24" filterUnits="userSpaceOnUse" color-interpolation-filters="sRGB">
<feFlood flood-opacity="0" result="BackgroundImageFix"/>
<feColorMatrix in="SourceAlpha" type="matrix" values="0 0 0 0 0 0 0 0 0 0 0 0 0 0 0 0 0 0 127 0" result="hardAlpha"/>
<feMorphology radius="3" operator="dilate" in="SourceAlpha" result="effect1_dropShadow_1761_521"/>
<feOffset/>
<feGaussianBlur stdDeviation="1.5"/>
<feComposite in2="hardAlpha" operator="out"/>
<feColorMatrix type="matrix" values="0 0 0 0 1 0 0 0 0 1 0 0 0 0 1 0 0 0 0.6 0"/>
<feBlend mode="normal" in2="BackgroundImageFix" result="effect1_dropShadow_1761_521"/>
<feBlend mode="normal" in="SourceGraphic" in2="effect1_dropShadow_1761_521" result="shape"/>
</filter>
<filter id="filter9_d_1761_521" x="452" y="516" width="24" height="24" filterUnits="userSpaceOnUse" color-interpolation-filters="sRGB">
<feFlood flood-opacity="0" result="BackgroundImageFix"/>
<feColorMatrix in="SourceAlpha" type="matrix" values="0 0 0 0 0 0 0 0 0 0 0 0 0 0 0 0 0 0 127 0" result="hardAlpha"/>
<feMorphology radius="3" operator="dilate" in="SourceAlpha" result="effect1_dropShadow_1761_521"/>
<feOffset/>
<feGaussianBlur stdDeviation="1.5"/>
<feComposite in2="hardAlpha" operator="out"/>
<feColorMatrix type="matrix" values="0 0 0 0 1 0 0 0 0 1 0 0 0 0 1 0 0 0 0.6 0"/>
<feBlend mode="normal" in2="BackgroundImageFix" result="effect1_dropShadow_1761_521"/>
<feBlend mode="normal" in="SourceGraphic" in2="effect1_dropShadow_1761_521" result="shape"/>
</filter>
<filter id="filter10_d_1761_521" x="345" y="511" width="24" height="24" filterUnits="userSpaceOnUse" color-interpolation-filters="sRGB">
<feFlood flood-opacity="0" result="BackgroundImageFix"/>
<feColorMatrix in="SourceAlpha" type="matrix" values="0 0 0 0 0 0 0 0 0 0 0 0 0 0 0 0 0 0 127 0" result="hardAlpha"/>
<feMorphology radius="3" operator="dilate" in="SourceAlpha" result="effect1_dropShadow_1761_521"/>
<feOffset/>
<feGaussianBlur stdDeviation="1.5"/>
<feComposite in2="hardAlpha" operator="out"/>
<feColorMatrix type="matrix" values="0 0 0 0 1 0 0 0 0 1 0 0 0 0 1 0 0 0 0.6 0"/>
<feBlend mode="normal" in2="BackgroundImageFix" result="effect1_dropShadow_1761_521"/>
<feBlend mode="normal" in="SourceGraphic" in2="effect1_dropShadow_1761_521" result="shape"/>
</filter>
<filter id="filter11_d_1761_521" x="643" y="484" width="24" height="24" filterUnits="userSpaceOnUse" color-interpolation-filters="sRGB">
<feFlood flood-opacity="0" result="BackgroundImageFix"/>
<feColorMatrix in="SourceAlpha" type="matrix" values="0 0 0 0 0 0 0 0 0 0 0 0 0 0 0 0 0 0 127 0" result="hardAlpha"/>
<feMorphology radius="3" operator="dilate" in="SourceAlpha" result="effect1_dropShadow_1761_521"/>
<feOffset/>
<feGaussianBlur stdDeviation="1.5"/>
<feComposite in2="hardAlpha" operator="out"/>
<feColorMatrix type="matrix" values="0 0 0 0 1 0 0 0 0 1 0 0 0 0 1 0 0 0 0.6 0"/>
<feBlend mode="normal" in2="BackgroundImageFix" result="effect1_dropShadow_1761_521"/>
<feBlend mode="normal" in="SourceGraphic" in2="effect1_dropShadow_1761_521" result="shape"/>
</filter>
<filter id="filter12_d_1761_521" x="262" y="511" width="24" height="24" filterUnits="userSpaceOnUse" color-interpolation-filters="sRGB">
<feFlood flood-opacity="0" result="BackgroundImageFix"/>
<feColorMatrix in="SourceAlpha" type="matrix" values="0 0 0 0 0 0 0 0 0 0 0 0 0 0 0 0 0 0 127 0" result="hardAlpha"/>
<feMorphology radius="3" operator="dilate" in="SourceAlpha" result="effect1_dropShadow_1761_521"/>
<feOffset/>
<feGaussianBlur stdDeviation="1.5"/>
<feComposite in2="hardAlpha" operator="out"/>
<feColorMatrix type="matrix" values="0 0 0 0 1 0 0 0 0 1 0 0 0 0 1 0 0 0 0.6 0"/>
<feBlend mode="normal" in2="BackgroundImageFix" result="effect1_dropShadow_1761_521"/>
<feBlend mode="normal" in="SourceGraphic" in2="effect1_dropShadow_1761_521" result="shape"/>
</filter>
<filter id="filter13_d_1761_521" x="207" y="501" width="22" height="22" filterUnits="userSpaceOnUse" color-interpolation-filters="sRGB">
<feFlood flood-opacity="0" result="BackgroundImageFix"/>
<feColorMatrix in="SourceAlpha" type="matrix" values="0 0 0 0 0 0 0 0 0 0 0 0 0 0 0 0 0 0 127 0" result="hardAlpha"/>
<feMorphology radius="3" operator="dilate" in="SourceAlpha" result="effect1_dropShadow_1761_521"/>
<feOffset/>
<feGaussianBlur stdDeviation="1.5"/>
<feComposite in2="hardAlpha" operator="out"/>
<feColorMatrix type="matrix" values="0 0 0 0 1 0 0 0 0 1 0 0 0 0 1 0 0 0 0.6 0"/>
<feBlend mode="normal" in2="BackgroundImageFix" result="effect1_dropShadow_1761_521"/>
<feBlend mode="normal" in="SourceGraphic" in2="effect1_dropShadow_1761_521" result="shape"/>
</filter>
<filter id="filter14_d_1761_521" x="263" y="454" width="22" height="22" filterUnits="userSpaceOnUse" color-interpolation-filters="sRGB">
<feFlood flood-opacity="0" result="BackgroundImageFix"/>
<feColorMatrix in="SourceAlpha" type="matrix" values="0 0 0 0 0 0 0 0 0 0 0 0 0 0 0 0 0 0 127 0" result="hardAlpha"/>
<feMorphology radius="3" operator="dilate" in="SourceAlpha" result="effect1_dropShadow_1761_521"/>
<feOffset/>
<feGaussianBlur stdDeviation="1.5"/>
<feComposite in2="hardAlpha" operator="out"/>
<feColorMatrix type="matrix" values="0 0 0 0 1 0 0 0 0 1 0 0 0 0 1 0 0 0 0.6 0"/>
<feBlend mode="normal" in2="BackgroundImageFix" result="effect1_dropShadow_1761_521"/>
<feBlend mode="normal" in="SourceGraphic" in2="effect1_dropShadow_1761_521" result="shape"/>
</filter>
<filter id="filter15_d_1761_521" x="589" y="704" width="32" height="32" filterUnits="userSpaceOnUse" color-interpolation-filters="sRGB">
<feFlood flood-opacity="0" result="BackgroundImageFix"/>
<feColorMatrix in="SourceAlpha" type="matrix" values="0 0 0 0 0 0 0 0 0 0 0 0 0 0 0 0 0 0 127 0" result="hardAlpha"/>
<feMorphology radius="3" operator="dilate" in="SourceAlpha" result="effect1_dropShadow_1761_521"/>
<feOffset/>
<feGaussianBlur stdDeviation="1.5"/>
<feComposite in2="hardAlpha" operator="out"/>
<feColorMatrix type="matrix" values="0 0 0 0 1 0 0 0 0 1 0 0 0 0 1 0 0 0 0.6 0"/>
<feBlend mode="normal" in2="BackgroundImageFix" result="effect1_dropShadow_1761_521"/>
<feBlend mode="normal" in="SourceGraphic" in2="effect1_dropShadow_1761_521" result="shape"/>
</filter>
<filter id="filter16_d_1761_521" x="315" y="694" width="32" height="32" filterUnits="userSpaceOnUse" color-interpolation-filters="sRGB">
<feFlood flood-opacity="0" result="BackgroundImageFix"/>
<feColorMatrix in="SourceAlpha" type="matrix" values="0 0 0 0 0 0 0 0 0 0 0 0 0 0 0 0 0 0 127 0" result="hardAlpha"/>
<feMorphology radius="3" operator="dilate" in="SourceAlpha" result="effect1_dropShadow_1761_521"/>
<feOffset/>
<feGaussianBlur stdDeviation="1.5"/>
<feComposite in2="hardAlpha" operator="out"/>
<feColorMatrix type="matrix" values="0 0 0 0 1 0 0 0 0 1 0 0 0 0 1 0 0 0 0.6 0"/>
<feBlend mode="normal" in2="BackgroundImageFix" result="effect1_dropShadow_1761_521"/>
<feBlend mode="normal" in="SourceGraphic" in2="effect1_dropShadow_1761_521" result="shape"/>
</filter>
<filter id="filter17_d_1761_521" x="395" y="659" width="30" height="30" filterUnits="userSpaceOnUse" color-interpolation-filters="sRGB">
<feFlood flood-opacity="0" result="BackgroundImageFix"/>
<feColorMatrix in="SourceAlpha" type="matrix" values="0 0 0 0 0 0 0 0 0 0 0 0 0 0 0 0 0 0 127 0" result="hardAlpha"/>
<feMorphology radius="3" operator="dilate" in="SourceAlpha" result="effect1_dropShadow_1761_521"/>
<feOffset/>
<feGaussianBlur stdDeviation="1.5"/>
<feComposite in2="hardAlpha" operator="out"/>
<feColorMatrix type="matrix" values="0 0 0 0 1 0 0 0 0 1 0 0 0 0 1 0 0 0 0.6 0"/>
<feBlend mode="normal" in2="BackgroundImageFix" result="effect1_dropShadow_1761_521"/>
<feBlend mode="normal" in="SourceGraphic" in2="effect1_dropShadow_1761_521" result="shape"/>
</filter>
<filter id="filter18_d_1761_521" x="307" y="616" width="30" height="30" filterUnits="userSpaceOnUse" color-interpolation-filters="sRGB">
<feFlood flood-opacity="0" result="BackgroundImageFix"/>
<feColorMatrix in="SourceAlpha" type="matrix" values="0 0 0 0 0 0 0 0 0 0 0 0 0 0 0 0 0 0 127 0" result="hardAlpha"/>
<feMorphology radius="3" operator="dilate" in="SourceAlpha" result="effect1_dropShadow_1761_521"/>
<feOffset/>
<feGaussianBlur stdDeviation="1.5"/>
<feComposite in2="hardAlpha" operator="out"/>
<feColorMatrix type="matrix" values="0 0 0 0 1 0 0 0 0 1 0 0 0 0 1 0 0 0 0.6 0"/>
<feBlend mode="normal" in2="BackgroundImageFix" result="effect1_dropShadow_1761_521"/>
<feBlend mode="normal" in="SourceGraphic" in2="effect1_dropShadow_1761_521" result="shape"/>
</filter>
<filter id="filter19_d_1761_521" x="168" y="614" width="30" height="30" filterUnits="userSpaceOnUse" color-interpolation-filters="sRGB">
<feFlood flood-opacity="0" result="BackgroundImageFix"/>
<feColorMatrix in="SourceAlpha" type="matrix" values="0 0 0 0 0 0 0 0 0 0 0 0 0 0 0 0 0 0 127 0" result="hardAlpha"/>
<feMorphology radius="3" operator="dilate" in="SourceAlpha" result="effect1_dropShadow_1761_521"/>
<feOffset/>
<feGaussianBlur stdDeviation="1.5"/>
<feComposite in2="hardAlpha" operator="out"/>
<feColorMatrix type="matrix" values="0 0 0 0 1 0 0 0 0 1 0 0 0 0 1 0 0 0 0.6 0"/>
<feBlend mode="normal" in2="BackgroundImageFix" result="effect1_dropShadow_1761_521"/>
<feBlend mode="normal" in="SourceGraphic" in2="effect1_dropShadow_1761_521" result="shape"/>
</filter>
<filter id="filter20_d_1761_521" x="691" y="634" width="30" height="30" filterUnits="userSpaceOnUse" color-interpolation-filters="sRGB">
<feFlood flood-opacity="0" result="BackgroundImageFix"/>
<feColorMatrix in="SourceAlpha" type="matrix" values="0 0 0 0 0 0 0 0 0 0 0 0 0 0 0 0 0 0 127 0" result="hardAlpha"/>
<feMorphology radius="3" operator="dilate" in="SourceAlpha" result="effect1_dropShadow_1761_521"/>
<feOffset/>
<feGaussianBlur stdDeviation="1.5"/>
<feComposite in2="hardAlpha" operator="out"/>
<feColorMatrix type="matrix" values="0 0 0 0 1 0 0 0 0 1 0 0 0 0 1 0 0 0 0.6 0"/>
<feBlend mode="normal" in2="BackgroundImageFix" result="effect1_dropShadow_1761_521"/>
<feBlend mode="normal" in="SourceGraphic" in2="effect1_dropShadow_1761_521" result="shape"/>
</filter>
<filter id="filter21_d_1761_521" x="598" y="607" width="28" height="28" filterUnits="userSpaceOnUse" color-interpolation-filters="sRGB">
<feFlood flood-opacity="0" result="BackgroundImageFix"/>
<feColorMatrix in="SourceAlpha" type="matrix" values="0 0 0 0 0 0 0 0 0 0 0 0 0 0 0 0 0 0 127 0" result="hardAlpha"/>
<feMorphology radius="3" operator="dilate" in="SourceAlpha" result="effect1_dropShadow_1761_521"/>
<feOffset/>
<feGaussianBlur stdDeviation="1.5"/>
<feComposite in2="hardAlpha" operator="out"/>
<feColorMatrix type="matrix" values="0 0 0 0 1 0 0 0 0 1 0 0 0 0 1 0 0 0 0.6 0"/>
<feBlend mode="normal" in2="BackgroundImageFix" result="effect1_dropShadow_1761_521"/>
<feBlend mode="normal" in="SourceGraphic" in2="effect1_dropShadow_1761_521" result="shape"/>
</filter>
<filter id="filter22_d_1761_521" x="792" y="613" width="30" height="30" filterUnits="userSpaceOnUse" color-interpolation-filters="sRGB">
<feFlood flood-opacity="0" result="BackgroundImageFix"/>
<feColorMatrix in="SourceAlpha" type="matrix" values="0 0 0 0 0 0 0 0 0 0 0 0 0 0 0 0 0 0 127 0" result="hardAlpha"/>
<feMorphology radius="3" operator="dilate" in="SourceAlpha" result="effect1_dropShadow_1761_521"/>
<feOffset/>
<feGaussianBlur stdDeviation="1.5"/>
<feComposite in2="hardAlpha" operator="out"/>
<feColorMatrix type="matrix" values="0 0 0 0 1 0 0 0 0 1 0 0 0 0 1 0 0 0 0.6 0"/>
<feBlend mode="normal" in2="BackgroundImageFix" result="effect1_dropShadow_1761_521"/>
<feBlend mode="normal" in="SourceGraphic" in2="effect1_dropShadow_1761_521" result="shape"/>
</filter>
<filter id="filter23_d_1761_521" x="655" y="534" width="26" height="26" filterUnits="userSpaceOnUse" color-interpolation-filters="sRGB">
<feFlood flood-opacity="0" result="BackgroundImageFix"/>
<feColorMatrix in="SourceAlpha" type="matrix" values="0 0 0 0 0 0 0 0 0 0 0 0 0 0 0 0 0 0 127 0" result="hardAlpha"/>
<feMorphology radius="3" operator="dilate" in="SourceAlpha" result="effect1_dropShadow_1761_521"/>
<feOffset/>
<feGaussianBlur stdDeviation="1.5"/>
<feComposite in2="hardAlpha" operator="out"/>
<feColorMatrix type="matrix" values="0 0 0 0 1 0 0 0 0 1 0 0 0 0 1 0 0 0 0.6 0"/>
<feBlend mode="normal" in2="BackgroundImageFix" result="effect1_dropShadow_1761_521"/>
<feBlend mode="normal" in="SourceGraphic" in2="effect1_dropShadow_1761_521" result="shape"/>
</filter>
<filter id="filter24_d_1761_521" x="752" y="575" width="26" height="26" filterUnits="userSpaceOnUse" color-interpolation-filters="sRGB">
<feFlood flood-opacity="0" result="BackgroundImageFix"/>
<feColorMatrix in="SourceAlpha" type="matrix" values="0 0 0 0 0 0 0 0 0 0 0 0 0 0 0 0 0 0 127 0" result="hardAlpha"/>
<feMorphology radius="3" operator="dilate" in="SourceAlpha" result="effect1_dropShadow_1761_521"/>
<feOffset/>
<feGaussianBlur stdDeviation="1.5"/>
<feComposite in2="hardAlpha" operator="out"/>
<feColorMatrix type="matrix" values="0 0 0 0 1 0 0 0 0 1 0 0 0 0 1 0 0 0 0.6 0"/>
<feBlend mode="normal" in2="BackgroundImageFix" result="effect1_dropShadow_1761_521"/>
<feBlend mode="normal" in="SourceGraphic" in2="effect1_dropShadow_1761_521" result="shape"/>
</filter>
<filter id="filter25_d_1761_521" x="796" y="534" width="26" height="26" filterUnits="userSpaceOnUse" color-interpolation-filters="sRGB">
<feFlood flood-opacity="0" result="BackgroundImageFix"/>
<feColorMatrix in="SourceAlpha" type="matrix" values="0 0 0 0 0 0 0 0 0 0 0 0 0 0 0 0 0 0 127 0" result="hardAlpha"/>
<feMorphology radius="3" operator="dilate" in="SourceAlpha" result="effect1_dropShadow_1761_521"/>
<feOffset/>
<feGaussianBlur stdDeviation="1.5"/>
<feComposite in2="hardAlpha" operator="out"/>
<feColorMatrix type="matrix" values="0 0 0 0 1 0 0 0 0 1 0 0 0 0 1 0 0 0 0.6 0"/>
<feBlend mode="normal" in2="BackgroundImageFix" result="effect1_dropShadow_1761_521"/>
<feBlend mode="normal" in="SourceGraphic" in2="effect1_dropShadow_1761_521" result="shape"/>
</filter>
<filter id="filter26_d_1761_521" x="190" y="568" width="26" height="26" filterUnits="userSpaceOnUse" color-interpolation-filters="sRGB">
<feFlood flood-opacity="0" result="BackgroundImageFix"/>
<feColorMatrix in="SourceAlpha" type="matrix" values="0 0 0 0 0 0 0 0 0 0 0 0 0 0 0 0 0 0 127 0" result="hardAlpha"/>
<feMorphology radius="3" operator="dilate" in="SourceAlpha" result="effect1_dropShadow_1761_521"/>
<feOffset/>
<feGaussianBlur stdDeviation="1.5"/>
<feComposite in2="hardAlpha" operator="out"/>
<feColorMatrix type="matrix" values="0 0 0 0 1 0 0 0 0 1 0 0 0 0 1 0 0 0 0.6 0"/>
<feBlend mode="normal" in2="BackgroundImageFix" result="effect1_dropShadow_1761_521"/>
<feBlend mode="normal" in="SourceGraphic" in2="effect1_dropShadow_1761_521" result="shape"/>
</filter>
<filter id="filter27_d_1761_521" x="345" y="589" width="28" height="28" filterUnits="userSpaceOnUse" color-interpolation-filters="sRGB">
<feFlood flood-opacity="0" result="BackgroundImageFix"/>
<feColorMatrix in="SourceAlpha" type="matrix" values="0 0 0 0 0 0 0 0 0 0 0 0 0 0 0 0 0 0 127 0" result="hardAlpha"/>
<feMorphology radius="3" operator="dilate" in="SourceAlpha" result="effect1_dropShadow_1761_521"/>
<feOffset/>
<feGaussianBlur stdDeviation="1.5"/>
<feComposite in2="hardAlpha" operator="out"/>
<feColorMatrix type="matrix" values="0 0 0 0 1 0 0 0 0 1 0 0 0 0 1 0 0 0 0.6 0"/>
<feBlend mode="normal" in2="BackgroundImageFix" result="effect1_dropShadow_1761_521"/>
<feBlend mode="normal" in="SourceGraphic" in2="effect1_dropShadow_1761_521" result="shape"/>
</filter>
<filter id="filter28_d_1761_521" x="438" y="582" width="28" height="28" filterUnits="userSpaceOnUse" color-interpolation-filters="sRGB">
<feFlood flood-opacity="0" result="BackgroundImageFix"/>
<feColorMatrix in="SourceAlpha" type="matrix" values="0 0 0 0 0 0 0 0 0 0 0 0 0 0 0 0 0 0 127 0" result="hardAlpha"/>
<feMorphology radius="3" operator="dilate" in="SourceAlpha" result="effect1_dropShadow_1761_521"/>
<feOffset/>
<feGaussianBlur stdDeviation="1.5"/>
<feComposite in2="hardAlpha" operator="out"/>
<feColorMatrix type="matrix" values="0 0 0 0 1 0 0 0 0 1 0 0 0 0 1 0 0 0 0.6 0"/>
<feBlend mode="normal" in2="BackgroundImageFix" result="effect1_dropShadow_1761_521"/>
<feBlend mode="normal" in="SourceGraphic" in2="effect1_dropShadow_1761_521" result="shape"/>
</filter>
<filter id="filter29_d_1761_521" x="522" y="605" width="28" height="28" filterUnits="userSpaceOnUse" color-interpolation-filters="sRGB">
<feFlood flood-opacity="0" result="BackgroundImageFix"/>
<feColorMatrix in="SourceAlpha" type="matrix" values="0 0 0 0 0 0 0 0 0 0 0 0 0 0 0 0 0 0 127 0" result="hardAlpha"/>
<feMorphology radius="3" operator="dilate" in="SourceAlpha" result="effect1_dropShadow_1761_521"/>
<feOffset/>
<feGaussianBlur stdDeviation="1.5"/>
<feComposite in2="hardAlpha" operator="out"/>
<feColorMatrix type="matrix" values="0 0 0 0 1 0 0 0 0 1 0 0 0 0 1 0 0 0 0.6 0"/>
<feBlend mode="normal" in2="BackgroundImageFix" result="effect1_dropShadow_1761_521"/>
<feBlend mode="normal" in="SourceGraphic" in2="effect1_dropShadow_1761_521" result="shape"/>
</filter>
<filter id="filter30_dddddd_1761_521" x="-276.119" y="-560.119" width="1575.24" height="1570.24" filterUnits="userSpaceOnUse" color-interpolation-filters="sRGB">
<feFlood flood-opacity="0" result="BackgroundImageFix"/>
<feColorMatrix in="SourceAlpha" type="matrix" values="0 0 0 0 0 0 0 0 0 0 0 0 0 0 0 0 0 0 127 0" result="hardAlpha"/>
<feOffset/>
<feGaussianBlur stdDeviation="7.73951"/>
<feColorMatrix type="matrix" values="0 0 0 0 0.568627 0 0 0 0 0.560784 0 0 0 0 1 0 0 0 1 0"/>
<feBlend mode="normal" in2="BackgroundImageFix" result="effect1_dropShadow_1761_521"/>
<feColorMatrix in="SourceAlpha" type="matrix" values="0 0 0 0 0 0 0 0 0 0 0 0 0 0 0 0 0 0 127 0" result="hardAlpha"/>
<feOffset/>
<feGaussianBlur stdDeviation="15.479"/>
<feColorMatrix type="matrix" values="0 0 0 0 0.568627 0 0 0 0 0.560784 0 0 0 0 1 0 0 0 1 0"/>
<feBlend mode="normal" in2="effect1_dropShadow_1761_521" result="effect2_dropShadow_1761_521"/>
<feColorMatrix in="SourceAlpha" type="matrix" values="0 0 0 0 0 0 0 0 0 0 0 0 0 0 0 0 0 0 127 0" result="hardAlpha"/>
<feOffset/>
<feGaussianBlur stdDeviation="54.1766"/>
<feColorMatrix type="matrix" values="0 0 0 0 0.568627 0 0 0 0 0.560784 0 0 0 0 1 0 0 0 1 0"/>
<feBlend mode="normal" in2="effect2_dropShadow_1761_521" result="effect3_dropShadow_1761_521"/>
<feColorMatrix in="SourceAlpha" type="matrix" values="0 0 0 0 0 0 0 0 0 0 0 0 0 0 0 0 0 0 127 0" result="hardAlpha"/>
<feOffset/>
<feGaussianBlur stdDeviation="108.353"/>
<feColorMatrix type="matrix" values="0 0 0 0 0.568627 0 0 0 0 0.560784 0 0 0 0 1 0 0 0 1 0"/>
<feBlend mode="normal" in2="effect3_dropShadow_1761_521" result="effect4_dropShadow_1761_521"/>
<feColorMatrix in="SourceAlpha" type="matrix" values="0 0 0 0 0 0 0 0 0 0 0 0 0 0 0 0 0 0 127 0" result="hardAlpha"/>
<feOffset/>
<feGaussianBlur stdDeviation="185.748"/>
<feColorMatrix type="matrix" values="0 0 0 0 0.568627 0 0 0 0 0.560784 0 0 0 0 1 0 0 0 1 0"/>
<feBlend mode="normal" in2="effect4_dropShadow_1761_521" result="effect5_dropShadow_1761_521"/>
<feColorMatrix in="SourceAlpha" type="matrix" values="0 0 0 0 0 0 0 0 0 0 0 0 0 0 0 0 0 0 127 0" result="hardAlpha"/>
<feOffset/>
<feGaussianBlur stdDeviation="325.06"/>
<feColorMatrix type="matrix" values="0 0 0 0 0.568627 0 0 0 0 0.560784 0 0 0 0 1 0 0 0 1 0"/>
<feBlend mode="normal" in2="effect5_dropShadow_1761_521" result="effect6_dropShadow_1761_521"/>
<feBlend mode="normal" in="SourceGraphic" in2="effect6_dropShadow_1761_521" result="shape"/>
</filter>
<filter id="filter31_dddddd_1761_521" x="77.2373" y="-191.779" width="868.018" height="862.241" filterUnits="userSpaceOnUse" color-interpolation-filters="sRGB">
<feFlood flood-opacity="0" result="BackgroundImageFix"/>
<feColorMatrix in="SourceAlpha" type="matrix" values="0 0 0 0 0 0 0 0 0 0 0 0 0 0 0 0 0 0 127 0" result="hardAlpha"/>
<feOffset/>
<feGaussianBlur stdDeviation="4.5832"/>
<feColorMatrix type="matrix" values="0 0 0 0 1 0 0 0 0 1 0 0 0 0 1 0 0 0 1 0"/>
<feBlend mode="normal" in2="BackgroundImageFix" result="effect1_dropShadow_1761_521"/>
<feColorMatrix in="SourceAlpha" type="matrix" values="0 0 0 0 0 0 0 0 0 0 0 0 0 0 0 0 0 0 127 0" result="hardAlpha"/>
<feOffset/>
<feGaussianBlur stdDeviation="9.16641"/>
<feColorMatrix type="matrix" values="0 0 0 0 1 0 0 0 0 1 0 0 0 0 1 0 0 0 1 0"/>
<feBlend mode="normal" in2="effect1_dropShadow_1761_521" result="effect2_dropShadow_1761_521"/>
<feColorMatrix in="SourceAlpha" type="matrix" values="0 0 0 0 0 0 0 0 0 0 0 0 0 0 0 0 0 0 127 0" result="hardAlpha"/>
<feOffset/>
<feGaussianBlur stdDeviation="32.0824"/>
<feColorMatrix type="matrix" values="0 0 0 0 1 0 0 0 0 1 0 0 0 0 1 0 0 0 1 0"/>
<feBlend mode="normal" in2="effect2_dropShadow_1761_521" result="effect3_dropShadow_1761_521"/>
<feColorMatrix in="SourceAlpha" type="matrix" values="0 0 0 0 0 0 0 0 0 0 0 0 0 0 0 0 0 0 127 0" result="hardAlpha"/>
<feOffset/>
<feGaussianBlur stdDeviation="64.1649"/>
<feColorMatrix type="matrix" values="0 0 0 0 1 0 0 0 0 1 0 0 0 0 1 0 0 0 1 0"/>
<feBlend mode="normal" in2="effect3_dropShadow_1761_521" result="effect4_dropShadow_1761_521"/>
<feColorMatrix in="SourceAlpha" type="matrix" values="0 0 0 0 0 0 0 0 0 0 0 0 0 0 0 0 0 0 127 0" result="hardAlpha"/>
<feOffset/>
<feGaussianBlur stdDeviation="109.997"/>
<feColorMatrix type="matrix" values="0 0 0 0 1 0 0 0 0 1 0 0 0 0 1 0 0 0 1 0"/>
<feBlend mode="normal" in2="effect4_dropShadow_1761_521" result="effect5_dropShadow_1761_521"/>
<feColorMatrix in="SourceAlpha" type="matrix" values="0 0 0 0 0 0 0 0 0 0 0 0 0 0 0 0 0 0 127 0" result="hardAlpha"/>
<feOffset/>
<feGaussianBlur stdDeviation="192.495"/>
<feColorMatrix type="matrix" values="0 0 0 0 1 0 0 0 0 1 0 0 0 0 1 0 0 0 1 0"/>
<feBlend mode="normal" in2="effect5_dropShadow_1761_521" result="effect6_dropShadow_1761_521"/>
<feBlend mode="normal" in="SourceGraphic" in2="effect6_dropShadow_1761_521" result="shape"/>
</filter>
<filter id="filter32_dddddd_1761_521" x="88.8701" y="57.976" width="847.877" height="843.286" filterUnits="userSpaceOnUse" color-interpolation-filters="sRGB">
<feFlood flood-opacity="0" result="BackgroundImageFix"/>
<feColorMatrix in="SourceAlpha" type="matrix" values="0 0 0 0 0 0 0 0 0 0 0 0 0 0 0 0 0 0 127 0" result="hardAlpha"/>
<feOffset/>
<feGaussianBlur stdDeviation="4.5832"/>
<feColorMatrix type="matrix" values="0 0 0 0 1 0 0 0 0 1 0 0 0 0 1 0 0 0 1 0"/>
<feBlend mode="normal" in2="BackgroundImageFix" result="effect1_dropShadow_1761_521"/>
<feColorMatrix in="SourceAlpha" type="matrix" values="0 0 0 0 0 0 0 0 0 0 0 0 0 0 0 0 0 0 127 0" result="hardAlpha"/>
<feOffset/>
<feGaussianBlur stdDeviation="9.16641"/>
<feColorMatrix type="matrix" values="0 0 0 0 1 0 0 0 0 1 0 0 0 0 1 0 0 0 1 0"/>
<feBlend mode="normal" in2="effect1_dropShadow_1761_521" result="effect2_dropShadow_1761_521"/>
<feColorMatrix in="SourceAlpha" type="matrix" values="0 0 0 0 0 0 0 0 0 0 0 0 0 0 0 0 0 0 127 0" result="hardAlpha"/>
<feOffset/>
<feGaussianBlur stdDeviation="32.0824"/>
<feColorMatrix type="matrix" values="0 0 0 0 1 0 0 0 0 1 0 0 0 0 1 0 0 0 1 0"/>
<feBlend mode="normal" in2="effect2_dropShadow_1761_521" result="effect3_dropShadow_1761_521"/>
<feColorMatrix in="SourceAlpha" type="matrix" values="0 0 0 0 0 0 0 0 0 0 0 0 0 0 0 0 0 0 127 0" result="hardAlpha"/>
<feOffset/>
<feGaussianBlur stdDeviation="64.1649"/>
<feColorMatrix type="matrix" values="0 0 0 0 1 0 0 0 0 1 0 0 0 0 1 0 0 0 1 0"/>
<feBlend mode="normal" in2="effect3_dropShadow_1761_521" result="effect4_dropShadow_1761_521"/>
<feColorMatrix in="SourceAlpha" type="matrix" values="0 0 0 0 0 0 0 0 0 0 0 0 0 0 0 0 0 0 127 0" result="hardAlpha"/>
<feOffset/>
<feGaussianBlur stdDeviation="109.997"/>
<feColorMatrix type="matrix" values="0 0 0 0 1 0 0 0 0 1 0 0 0 0 1 0 0 0 1 0"/>
<feBlend mode="normal" in2="effect4_dropShadow_1761_521" result="effect5_dropShadow_1761_521"/>
<feColorMatrix in="SourceAlpha" type="matrix" values="0 0 0 0 0 0 0 0 0 0 0 0 0 0 0 0 0 0 127 0" result="hardAlpha"/>
<feOffset/>
<feGaussianBlur stdDeviation="192.495"/>
<feColorMatrix type="matrix" values="0 0 0 0 1 0 0 0 0 1 0 0 0 0 1 0 0 0 1 0"/>
<feBlend mode="normal" in2="effect5_dropShadow_1761_521" result="effect6_dropShadow_1761_521"/>
<feBlend mode="normal" in="SourceGraphic" in2="effect6_dropShadow_1761_521" result="shape"/>
</filter>
<linearGradient id="paint0_linear_1761_521" x1="512" y1="90" x2="512" y2="360" gradientUnits="userSpaceOnUse">
<stop stop-color="#E7DBFF"/>
<stop offset="1" stop-color="white"/>
</linearGradient>
<linearGradient id="paint1_linear_1761_521" x1="512" y1="90" x2="512" y2="360" gradientUnits="userSpaceOnUse">
<stop stop-color="#E7DBFF"/>
<stop offset="1" stop-color="white"/>
</linearGradient>
<linearGradient id="paint2_linear_1761_521" x1="512" y1="90" x2="512" y2="360" gradientUnits="userSpaceOnUse">
<stop stop-color="#E7DBFF"/>
<stop offset="1" stop-color="white"/>
</linearGradient>
<linearGradient id="paint3_linear_1761_521" x1="512" y1="90" x2="512" y2="360" gradientUnits="userSpaceOnUse">
<stop stop-color="#E7DBFF"/>
<stop offset="1" stop-color="white"/>
</linearGradient>
<linearGradient id="paint4_linear_1761_521" x1="512" y1="90" x2="512" y2="360" gradientUnits="userSpaceOnUse">
<stop stop-color="#E7DBFF"/>
<stop offset="1" stop-color="white"/>
</linearGradient>
<linearGradient id="paint5_linear_1761_521" x1="512" y1="90" x2="512" y2="360" gradientUnits="userSpaceOnUse">
<stop stop-color="#E7DBFF"/>
<stop offset="1" stop-color="white"/>
</linearGradient>
<linearGradient id="paint6_linear_1761_521" x1="512" y1="90" x2="512" y2="360" gradientUnits="userSpaceOnUse">
<stop stop-color="#E7DBFF"/>
<stop offset="1" stop-color="white"/>
</linearGradient>
<linearGradient id="paint7_linear_1761_521" x1="512" y1="90" x2="512" y2="360" gradientUnits="userSpaceOnUse">
<stop stop-color="#E7DBFF"/>
<stop offset="1" stop-color="white"/>
</linearGradient>
<linearGradient id="paint8_linear_1761_521" x1="512" y1="90" x2="512" y2="360" gradientUnits="userSpaceOnUse">
<stop stop-color="#E7DBFF"/>
<stop offset="1" stop-color="white"/>
</linearGradient>
<linearGradient id="paint9_linear_1761_521" x1="512" y1="90" x2="512" y2="360" gradientUnits="userSpaceOnUse">
<stop stop-color="#E7DBFF"/>
<stop offset="1" stop-color="white"/>
</linearGradient>
<linearGradient id="paint10_linear_1761_521" x1="512" y1="90" x2="512" y2="360" gradientUnits="userSpaceOnUse">
<stop stop-color="#E7DBFF"/>
<stop offset="1" stop-color="white"/>
</linearGradient>
<linearGradient id="paint11_linear_1761_521" x1="512" y1="90" x2="512" y2="360" gradientUnits="userSpaceOnUse">
<stop stop-color="#E7DBFF"/>
<stop offset="1" stop-color="white"/>
</linearGradient>
<linearGradient id="paint12_linear_1761_521" x1="512" y1="90" x2="512" y2="360" gradientUnits="userSpaceOnUse">
<stop stop-color="#E7DBFF"/>
<stop offset="1" stop-color="white"/>
</linearGradient>
<linearGradient id="paint13_linear_1761_521" x1="512" y1="90" x2="512" y2="360" gradientUnits="userSpaceOnUse">
<stop stop-color="#E7DBFF"/>
<stop offset="1" stop-color="white"/>
</linearGradient>
<linearGradient id="paint14_linear_1761_521" x1="512" y1="90" x2="512" y2="360" gradientUnits="userSpaceOnUse">
<stop stop-color="#E7DBFF"/>
<stop offset="1" stop-color="white"/>
</linearGradient>
<radialGradient id="paint15_radial_1761_521" cx="0" cy="0" r="1" gradientUnits="userSpaceOnUse" gradientTransform="translate(512.502 236.895) rotate(120.621) scale(54.6609 46.046)">
<stop stop-color="white"/>
<stop offset="1" stop-color="#E2DAFF"/>
</radialGradient>
<radialGradient id="paint16_radial_1761_521" cx="0" cy="0" r="1" gradientUnits="userSpaceOnUse" gradientTransform="translate(510.822 233.067) rotate(110.613) scale(48.0642 44.8645)">
<stop stop-color="white"/>
<stop offset="1" stop-color="#E2DAFF"/>
</radialGradient>
<radialGradient id="paint17_radial_1761_521" cx="0" cy="0" r="1" gradientUnits="userSpaceOnUse" gradientTransform="translate(512.463 479.946) rotate(120.621) scale(33.7412 36.5857)">
<stop stop-color="white"/>
<stop offset="1" stop-color="#E2DAFF"/>
</radialGradient>
<radialGradient id="paint18_radial_1761_521" cx="0" cy="0" r="1" gradientUnits="userSpaceOnUse" gradientTransform="translate(512.478 474.633) rotate(110.613) scale(38.1889 35.6469)">
<stop stop-color="white"/>
<stop offset="1" stop-color="#E2DAFF"/>
</radialGradient>
<clipPath id="clip0_1761_521">
<rect width="1024" height="1024" fill="white"/>
</clipPath>
</defs>
</svg>
