<svg width="1024" height="1024" viewBox="0 0 1024 1024" fill="none" xmlns="http://www.w3.org/2000/svg">
<g filter="url(#filter0_d_2226_12)">
<circle cx="394" cy="429" r="5" fill="#E8E1FF"/>
</g>
<g filter="url(#filter1_d_2226_12)">
<circle cx="458" cy="441" r="5" fill="#E8E1FF"/>
</g>
<g filter="url(#filter2_d_2226_12)">
<circle cx="591" cy="454" r="5" fill="#E8E1FF"/>
</g>
<g filter="url(#filter3_d_2226_12)">
<circle cx="620" cy="431" r="5" fill="#E8E1FF"/>
</g>
<g filter="url(#filter4_d_2226_12)">
<circle cx="740" cy="457" r="5" fill="#E8E1FF"/>
</g>
<g filter="url(#filter5_d_2226_12)">
<circle cx="751" cy="517" r="6" fill="#E8E1FF"/>
</g>
<g filter="url(#filter6_d_2226_12)">
<circle cx="808" cy="498" r="6" fill="#E8E1FF"/>
</g>
<g filter="url(#filter7_d_2226_12)">
<circle cx="529" cy="547" r="7" fill="#E8E1FF"/>
</g>
<g filter="url(#filter8_d_2226_12)">
<circle cx="580" cy="505" r="6" fill="#E8E1FF"/>
</g>
<g filter="url(#filter9_d_2226_12)">
<circle cx="464" cy="528" r="6" fill="#E8E1FF"/>
</g>
<g filter="url(#filter10_d_2226_12)">
<circle cx="357" cy="523" r="6" fill="#E8E1FF"/>
</g>
<g filter="url(#filter11_d_2226_12)">
<circle cx="655" cy="496" r="6" fill="#E8E1FF"/>
</g>
<g filter="url(#filter12_d_2226_12)">
<circle cx="274" cy="523" r="6" fill="#E8E1FF"/>
</g>
<g filter="url(#filter13_d_2226_12)">
<circle cx="218" cy="512" r="5" fill="#E8E1FF"/>
</g>
<g filter="url(#filter14_d_2226_12)">
<circle cx="274" cy="465" r="5" fill="#E8E1FF"/>
</g>
<g filter="url(#filter15_d_2226_12)">
<circle cx="605" cy="720" r="10" fill="#E8E1FF"/>
</g>
<g filter="url(#filter16_d_2226_12)">
<circle cx="331" cy="710" r="10" fill="#E8E1FF"/>
</g>
<g filter="url(#filter17_d_2226_12)">
<circle cx="410" cy="674" r="9" fill="#E8E1FF"/>
</g>
<g filter="url(#filter18_d_2226_12)">
<circle cx="322" cy="631" r="9" fill="#E8E1FF"/>
</g>
<g filter="url(#filter19_d_2226_12)">
<circle cx="183" cy="629" r="9" fill="#E8E1FF"/>
</g>
<g filter="url(#filter20_d_2226_12)">
<circle cx="706" cy="646" r="9" fill="#E8E1FF"/>
</g>
<g filter="url(#filter21_d_2226_12)">
<circle cx="612" cy="621" r="8" fill="#E8E1FF"/>
</g>
<g filter="url(#filter22_d_2226_12)">
<circle cx="807" cy="628" r="9" fill="#E8E1FF"/>
</g>
<g filter="url(#filter23_d_2226_12)">
<circle cx="668" cy="547" r="7" fill="#E8E1FF"/>
</g>
<g filter="url(#filter24_d_2226_12)">
<circle cx="765" cy="588" r="7" fill="#E8E1FF"/>
</g>
<g filter="url(#filter25_d_2226_12)">
<circle cx="809" cy="547" r="7" fill="#E8E1FF"/>
</g>
<g filter="url(#filter26_d_2226_12)">
<circle cx="203" cy="581" r="7" fill="#E8E1FF"/>
</g>
<g filter="url(#filter27_d_2226_12)">
<circle cx="359" cy="603" r="8" fill="#E8E1FF"/>
</g>
<g filter="url(#filter28_d_2226_12)">
<circle cx="452" cy="596" r="8" fill="#E8E1FF"/>
</g>
<g filter="url(#filter29_d_2226_12)">
<circle cx="536" cy="619" r="8" fill="#E8E1FF"/>
</g>
<g filter="url(#filter30_ddd_2226_12)">
<path fill-rule="evenodd" clip-rule="evenodd" d="M504.179 141.014C504.447 142.369 503.567 143.684 502.213 143.953L493.513 145.678L493.502 145.68C453.251 153.472 422.887 189.092 423 231.78C423.047 249.44 428.24 265.795 437.185 279.457L443.503 276.296C433.944 262.115 429.737 249.415 429.737 232.827C429.737 217.421 434.002 202.943 441.42 190.616C449.603 177.015 461.634 166.021 476.012 159.286C476.13 159.219 476.25 159.163 476.373 159.118C486.605 154.388 498.013 151.811 510.061 151.976C524.973 152.18 537.286 155.846 547.589 161.244C554.757 165 561.516 170.127 568.2 177.173L572.735 173.907C573.855 173.1 575.417 173.354 576.224 174.474C577.031 175.594 576.777 177.157 575.657 177.964L571.577 180.903C571.977 181.366 572.378 181.836 572.778 182.314C576.674 186.961 580.278 193.828 582.864 199.373C584.17 202.176 585.243 204.699 585.99 206.521C586.363 207.433 586.655 208.172 586.855 208.684C586.955 208.941 587.032 209.141 587.084 209.278C587.111 209.346 587.131 209.399 587.144 209.435L587.16 209.477L587.164 209.489L587.166 209.492L587.166 209.493C587.166 209.494 587.166 209.494 584.825 210.37L587.166 209.494L587.911 211.485L586.066 212.54L584.353 213.519L586.199 219.062C586.636 220.372 585.928 221.787 584.618 222.224C583.308 222.66 581.892 221.952 581.456 220.642L578.962 213.156L578.315 211.213L580.093 210.196L581.71 209.271C581.604 209.008 581.488 208.723 581.362 208.416C580.638 206.648 579.598 204.201 578.332 201.486C575.772 195.996 572.395 189.638 568.947 185.526C567.969 184.361 566.995 183.244 566.021 182.173C559.929 175.474 553.879 170.58 547.589 166.95L546.211 169.982C545.641 171.239 544.159 171.796 542.901 171.225C541.644 170.654 541.088 169.172 541.659 167.915L543.16 164.61C533.953 160.142 523.068 157.155 509.993 156.976C508.499 156.955 507.016 156.98 505.545 157.048V168.449V170.73L503.273 170.939C497.474 171.471 492.482 172.361 485.333 175.626C475.325 180.804 465.953 188.882 460.269 197.746L458.923 199.845L456.82 198.504L452.908 196.009C451.744 195.266 451.402 193.721 452.145 192.557C452.887 191.393 454.433 191.051 455.597 191.793L457.456 192.979C463.252 184.796 471.712 177.511 480.77 172.409L476.258 164.725C463.623 171.088 453.031 181.016 445.704 193.194C438.743 204.763 434.737 218.353 434.737 232.827C434.737 244.731 437.01 254.431 442.193 264.403L447.716 261.449C440.755 246.649 440.201 229.845 445.302 214.459C445.737 213.148 447.151 212.437 448.461 212.872C449.771 213.307 450.481 214.722 450.046 216.033C445.08 231.011 445.93 247.322 453.247 261.353L454.392 263.549L452.209 264.716L444.635 268.768C445.668 270.495 446.788 272.241 448 274.018L461.904 266.861C456.675 258.066 453.671 247.793 453.671 236.82C453.671 229.056 455.32 220.809 458.038 213.865L447.639 207.378L446.93 208.617C446.244 209.816 444.717 210.231 443.519 209.546C442.32 208.86 441.905 207.332 442.59 206.134L444.589 202.641L445.879 200.387L448.083 201.761L460.09 209.252C469.294 190.811 487.688 178.827 509.521 177.975V166.453C509.521 165.073 510.64 163.953 512.021 163.953C513.402 163.953 514.521 165.073 514.521 166.453V177.974C530.539 178.583 545.19 185.022 555.576 195.45L558.787 192.696C557.905 191.793 556.693 190.614 555.189 189.294C551.749 186.274 546.826 182.555 540.857 179.686C535.07 176.904 530.148 175.466 526.704 174.725C524.982 174.354 523.629 174.158 522.724 174.054C522.271 174.003 521.93 173.974 521.71 173.959C521.6 173.952 521.521 173.947 521.473 173.945L521.44 173.943L521.425 173.943L521.424 173.943L521.423 173.943L521.421 173.943L521.421 173.943L521.42 173.943L518.995 173.875V171.444V165.954C518.995 164.574 520.115 163.454 521.495 163.454C522.876 163.454 523.995 164.574 523.995 165.954V169.174C524.983 169.306 526.25 169.513 527.756 169.837C531.542 170.652 536.843 172.208 543.023 175.179C549.521 178.303 554.821 182.318 558.487 185.536C560.324 187.149 561.763 188.571 562.747 189.597C563.24 190.111 563.62 190.526 563.881 190.817C564.011 190.962 564.111 191.077 564.181 191.157L564.226 191.209L564.263 191.252L564.286 191.279L564.293 191.288L564.296 191.291L564.297 191.292C564.297 191.293 564.298 191.293 562.385 192.903L564.298 191.293L565.893 193.188L564.013 194.801L557.032 200.789L555.191 202.368L553.557 200.577C543.581 189.641 528.558 182.927 512.021 182.927C490.005 182.927 471.672 195.098 463.448 213.869C460.512 220.569 458.671 228.995 458.671 236.82C458.671 252.468 465.341 266.556 476.002 276.405C485.618 285.288 498.47 290.713 512.596 290.713C513.976 290.713 515.096 291.832 515.096 293.213C515.096 294.594 513.976 295.713 512.596 295.713C503.285 295.713 494.477 293.553 486.647 289.709L480.507 301.999C487.639 305.115 495.049 306.954 503.269 307.691C504.644 307.814 505.659 309.028 505.536 310.404C505.412 311.779 504.198 312.794 502.823 312.671C493.155 311.805 484.452 309.486 476.034 305.448L473.744 304.349L474.879 302.076L482.254 287.315C479.59 285.713 477.064 283.906 474.696 281.917L471.146 286.715C470.325 287.825 468.759 288.059 467.649 287.238C466.539 286.417 466.305 284.851 467.127 283.741L470.988 278.522C468.679 276.22 466.559 273.727 464.655 271.069L450.925 278.136C456.651 285.884 462.675 292.17 470.91 297.051C472.098 297.755 472.49 299.288 471.787 300.476C471.083 301.664 469.549 302.056 468.361 301.352C459.11 295.869 452.509 288.796 446.409 280.433L440.075 283.602C455.907 304.955 481.343 318.763 510.343 318.999L510.351 318.999L511.317 318.999L511.317 304.428C504.695 304.108 498.105 302.82 491.773 300.556C490.473 300.092 489.796 298.661 490.26 297.36C490.724 296.059 492.154 295.381 493.454 295.846C505.803 300.261 519.224 300.669 531.735 297.139C536.604 295.765 541.333 293.795 545.808 291.234C551.177 288.161 556.181 284.234 560.621 279.458C567.373 272.195 570.548 265.623 573.464 256.383C574.904 251.818 575.625 247.731 575.984 244.792C576.082 243.994 576.153 243.282 576.204 242.669L570.733 242.669C569.184 262.117 558.89 279.593 541.468 288.062C540.226 288.666 538.731 288.148 538.128 286.906C537.525 285.664 538.043 284.168 539.285 283.564C559.093 273.934 569.057 250.979 565.081 227.252C564.082 221.287 562.2 215.288 559.374 209.465L558.459 207.58L560.155 206.349L568.404 200.36C569.522 199.549 571.085 199.797 571.895 200.915C572.705 202.032 572.456 203.596 571.339 204.407L564.761 209.183C567.306 214.838 569.042 220.639 570.011 226.423C570.642 230.189 570.947 233.952 570.938 237.667L578.838 237.667H581.338V240.168L578.839 240.168C581.338 240.168 581.338 240.169 581.338 240.169V240.171V240.174L581.338 240.182L581.337 240.206L581.337 240.287C581.336 240.355 581.334 240.451 581.331 240.574C581.324 240.82 581.312 241.174 581.287 241.624C581.238 242.524 581.139 243.811 580.945 245.401C580.557 248.575 579.781 252.972 578.23 257.89C575.161 267.614 571.676 274.91 564.28 282.866C559.494 288.015 554.091 292.255 548.289 295.576C543.456 298.343 538.348 300.47 533.092 301.953C527.615 303.499 521.975 304.345 516.317 304.487L516.317 321.499L516.317 323.999L513.817 323.999L510.331 323.999H510.321L510.311 323.999C478.863 323.745 451.347 308.357 434.721 284.729C434.422 284.504 434.169 284.209 433.99 283.851C433.922 283.715 433.868 283.576 433.826 283.435C423.863 268.747 418.052 251.002 418 231.794C417.88 186.677 449.972 149.017 492.546 140.772L492.551 140.771L501.24 139.048C502.595 138.78 503.91 139.66 504.179 141.014ZM480.821 162.621L485.268 170.195C491.114 167.735 495.74 166.751 500.545 166.194V157.452C493.632 158.251 487.014 160.02 480.821 162.621ZM515.195 286.139C516.575 286.153 517.706 285.046 517.721 283.665C517.735 282.284 516.627 281.154 515.247 281.139C489.379 280.87 468.879 260.967 469.128 236.999C469.292 221.181 478.423 207.355 492.072 199.823L494.079 198.715L493.149 196.62L491.103 192.013C490.543 190.751 489.066 190.182 487.804 190.742C486.542 191.302 485.973 192.78 486.533 194.042L487.669 196.6C473.692 205.137 464.305 219.946 464.128 236.947C463.847 263.961 486.859 285.844 515.195 286.139ZM521.499 310.814C521.382 309.438 522.402 308.228 523.777 308.111C533.622 307.274 543.906 304.174 552.147 299.337C553.337 298.638 554.869 299.037 555.568 300.228C556.267 301.419 555.868 302.951 554.678 303.65C545.738 308.899 534.723 312.2 524.202 313.094C522.827 313.211 521.617 312.19 521.499 310.814ZM501.672 196.716C524.451 190.237 548.191 203.509 554.685 226.379C561.18 249.25 547.963 273.033 525.184 279.512L523.011 280.13L523.406 282.355L524.876 290.631C525.117 291.991 526.415 292.897 527.774 292.655C529.134 292.413 530.04 291.114 529.798 289.755L528.714 283.651C552.827 275.56 566.531 249.792 559.494 225.012C552.249 199.499 525.755 184.668 500.307 191.906C498.979 192.284 498.208 193.667 498.585 194.995C498.962 196.323 500.344 197.094 501.672 196.716ZM514.502 142.499C514.502 141.118 515.622 139.999 517.002 139.999C518.707 139.999 520.412 140.056 522.115 140.173C539.697 141.381 556.59 147.833 572.069 163.116L574.156 161.488C575.244 160.638 576.815 160.832 577.665 161.921C578.514 163.01 578.32 164.581 577.231 165.43L573.393 168.424L571.622 169.806L570.059 168.192C555.706 153.364 540.199 146.903 523.997 145.345L523.415 148.548C523.168 149.906 521.866 150.807 520.508 150.56C519.149 150.313 518.248 149.011 518.496 147.653L518.973 145.026C518.317 145.008 517.66 144.999 517.002 144.999C515.622 144.999 514.502 143.879 514.502 142.499ZM562.829 291.63C561.955 290.56 560.38 290.402 559.311 291.276C558.242 292.149 558.084 293.724 558.957 294.794L564.389 301.441C552.528 310.414 538.254 316.354 522.713 318.114C521.341 318.269 520.355 319.507 520.51 320.879C520.666 322.251 521.904 323.237 523.276 323.082C540.665 321.113 556.556 314.201 569.51 303.787L571.474 302.208L569.879 300.257L562.829 291.63ZM584.322 178.412C583.205 179.223 582.957 180.787 583.768 181.904C586.848 186.145 589.56 190.687 591.857 195.48C595.218 202.495 598.092 208.769 599.509 216.32C599.972 218.788 600.324 221.184 600.569 223.598C600.62 224.095 600.666 224.593 600.707 225.093L575.162 226.002C573.782 226.051 572.703 227.209 572.752 228.589C572.801 229.969 573.959 231.047 575.339 230.998L600.974 230.087C600.993 230.859 601.003 231.641 601.003 232.436C601.003 233.066 600.996 233.693 600.984 234.319H588.289H585.789L585.789 236.819L585.79 244.386L585.79 246.886H588.29H588.419C587.693 261.446 580.655 275.132 569.216 286.985C568.257 287.978 568.285 289.561 569.279 290.52C570.272 291.478 571.855 291.45 572.814 290.457C585.543 277.267 593.482 261.508 593.482 244.386L593.482 241.886H590.982H590.79L590.79 239.319H600.746C599.037 262.063 588.924 282.212 573.543 296.587C572.535 297.529 572.481 299.111 573.424 300.12C574.367 301.129 575.949 301.182 576.957 300.24C594.871 283.498 606.003 259.387 606.003 232.436C606.003 230.704 605.96 229.023 605.873 227.369C605.797 225.926 605.687 224.506 605.544 223.092C605.283 220.528 604.91 217.994 604.423 215.398C602.873 207.135 599.727 200.333 596.366 193.32C593.938 188.253 591.071 183.451 587.814 178.966C587.003 177.849 585.44 177.601 584.322 178.412Z" fill="#E7DBFF"/>
</g>
<circle cx="511.5" cy="216.5" r="174" stroke="#E7DBFF" stroke-opacity="0.6"/>
<circle cx="512.5" cy="238.5" r="166" stroke="#E7DBFF" stroke-opacity="0.6"/>
<g filter="url(#filter31_dd_2226_12)">
<path fill-rule="evenodd" clip-rule="evenodd" d="M470.764 81.2116C484.168 77.4875 498.328 75.5 513 75.5C599.433 75.5 669.5 145.567 669.5 232C669.5 318.433 599.433 388.5 513 388.5C426.567 388.5 356.5 318.433 356.5 232C356.5 209.244 362.015 187.013 370.788 167.45C376.039 155.741 382.657 144.822 390.441 134.893C410.564 109.228 438.486 90.1799 470.764 81.2116ZM513 70.5C497.874 70.5 483.264 72.5492 469.425 76.3941C436.097 85.654 407.274 105.32 386.507 131.808C378.473 142.055 371.644 153.323 366.226 165.404C357.204 185.524 351.5 208.449 351.5 232C351.5 321.194 423.806 393.5 513 393.5C602.194 393.5 674.5 321.194 674.5 232C674.5 142.806 602.194 70.5 513 70.5ZM511.5 81C512.881 81 514 82.1193 514 83.5V92.0009C534.449 92.0782 554.032 96.8757 571.522 104.719C582.902 109.822 591.146 114.908 599.48 121.276L604.685 115.781C605.634 114.778 607.217 114.735 608.219 115.685C609.222 116.634 609.265 118.217 608.315 119.219L603.424 124.383C624.879 141.889 640.972 165.542 649.096 192.761L655.176 190.64C656.48 190.185 657.906 190.873 658.36 192.176C658.815 193.48 658.127 194.906 656.824 195.36L650.443 197.587C652.847 206.836 654.34 216.466 654.825 226.378C654.892 227.757 653.829 228.93 652.45 228.997C651.071 229.064 649.898 228.001 649.831 226.622C649.37 217.213 647.97 208.074 645.719 199.291L640.179 201.347C638.884 201.828 637.445 201.168 636.965 199.873C636.485 198.579 637.145 197.14 638.439 196.66L644.383 194.454C636.536 167.965 620.864 144.96 599.938 127.993L596.147 131.827L591.639 136.385C595.201 139.321 598.596 142.451 601.809 145.758C619.097 163.555 631.116 186.507 635.335 212.093C636.431 218.735 637 225.552 637 232.5C637 235.761 636.875 238.993 636.628 242.192C635.209 260.614 629.781 277.915 621.214 293.221C618.749 297.624 616.025 301.862 613.062 305.914L616.91 308.56L619.478 305.03C620.29 303.913 621.854 303.666 622.97 304.478C624.087 305.29 624.334 306.854 623.522 307.97L619.522 313.47L618.09 315.44L616.083 314.06L610.027 309.895C604.146 317.296 597.44 324.012 590.048 329.905L598.482 340.326C615.122 327.07 628.596 310.008 637.585 290.456C638.034 289.48 638.471 288.498 638.898 287.51C645.182 272.938 649.001 257.053 649.829 240.376C649.897 238.997 651.07 237.935 652.449 238.003C653.828 238.071 654.891 239.245 654.822 240.624C653.965 257.908 650.006 274.379 643.489 289.49C643.361 289.786 643.232 290.082 643.103 290.377L648.659 293.285C649.883 293.925 650.355 295.436 649.715 296.659C649.075 297.883 647.564 298.355 646.341 297.715L641.007 294.924C631.713 314.182 618.184 331.015 601.627 344.212L605.443 348.927C606.312 350 606.146 351.575 605.073 352.443C604 353.312 602.425 353.146 601.557 352.073L597.661 347.26C574.764 364.228 546.563 374.449 515.999 374.978V382C515.999 383.381 514.879 384.5 513.499 384.5C512.118 384.5 510.999 383.381 510.999 382V374.978C485.283 374.533 461.233 367.225 440.61 354.807L436.982 359.524C436.14 360.619 434.57 360.823 433.476 359.982C432.381 359.14 432.177 357.57 433.018 356.476L436.353 352.14C423.468 343.745 412.035 333.306 402.513 321.284L397.019 325.486C395.922 326.325 394.353 326.115 393.514 325.019C392.675 323.922 392.885 322.353 393.981 321.514L399.478 317.31C383.522 295.639 373.595 269.252 372.175 240.624C372.107 239.245 373.169 238.071 374.548 238.003C375.927 237.935 377.1 238.997 377.169 240.376C378.537 267.961 388.095 293.394 403.463 314.29L412.962 307.295C404.118 295.543 397.305 282.173 393.048 267.706C390.592 259.361 388.988 250.652 388.334 241.682C388.172 239.47 388.069 237.242 388.025 235H383.5C382.119 235 381 233.881 381 232.5C381 231.119 382.119 230 383.5 230H388.025C388.546 203.522 397.336 179.066 411.918 159.114L408.114 156.581C406.965 155.815 406.654 154.263 407.419 153.114C408.185 151.965 409.737 151.654 410.886 152.419L414.954 155.129C426.867 140.129 442.168 127.94 459.703 119.717L458.719 117.523C458.154 116.263 458.717 114.784 459.977 114.219C461.237 113.654 462.716 114.217 463.281 115.477L464.273 117.689C477.907 111.989 493.473 108.613 509 108.064V97.0727C479.304 98.034 452.011 108.478 430.041 125.477C399.462 149.138 379.209 185.486 377.169 226.624C377.1 228.003 375.927 229.065 374.548 228.997C373.169 228.929 372.107 227.755 372.175 226.376C374.245 184.643 394.395 147.671 424.944 123.129L421.581 119.103C420.696 118.043 420.838 116.466 421.897 115.581C422.957 114.696 424.534 114.838 425.419 115.897L428.899 120.065C451.377 103.274 479.015 93.0069 509 92.0702V83.5C509 82.1193 510.119 81 511.5 81ZM592.591 128.311L587.694 133.264C575.16 123.752 560.767 116.56 545.154 112.327C537.431 110.233 529.411 108.864 521.172 108.297C519.794 108.203 518.601 109.242 518.506 110.62C518.411 111.997 519.451 113.191 520.828 113.286C527.805 113.766 534.617 114.845 541.212 116.471L539.15 122.147C538.679 123.444 539.349 124.878 540.647 125.35C541.944 125.821 543.378 125.151 543.85 123.853L546.057 117.775C565.291 123.392 582.52 133.715 596.413 147.419L593.571 150.036L593.563 150.027L593.552 150.017L593.542 150.006L593.531 149.995L593.52 149.985L593.51 149.974L593.499 149.963L593.488 149.953L593.477 149.942L593.467 149.931L593.456 149.92L593.445 149.909L593.434 149.898L593.423 149.888L593.412 149.877L593.401 149.866L593.39 149.855L593.379 149.844L593.368 149.833L593.357 149.822L593.346 149.81L593.335 149.799L593.324 149.788L593.313 149.777L593.301 149.766L593.29 149.755L593.279 149.743L593.268 149.732L593.256 149.721L593.245 149.71L593.234 149.698L593.223 149.687L593.211 149.676L593.2 149.664L593.188 149.653L593.177 149.641L593.165 149.63L593.154 149.618L593.142 149.607L593.131 149.595L593.119 149.584L593.108 149.572L593.096 149.561L593.084 149.549L593.073 149.537L593.061 149.526L593.049 149.514L593.038 149.502L593.026 149.49L593.014 149.479L593.002 149.467L592.991 149.455L592.979 149.443L592.967 149.431L592.955 149.419L592.943 149.408L592.931 149.396L592.919 149.384L592.907 149.372L592.895 149.36L592.883 149.348L592.871 149.336L592.859 149.324L592.847 149.312L592.835 149.299L592.823 149.287L592.811 149.275L592.799 149.263L592.786 149.251L592.774 149.239L592.762 149.226L592.75 149.214L592.737 149.202L592.725 149.19L592.713 149.177L592.7 149.165L592.688 149.153L592.676 149.14L592.663 149.128L592.651 149.115L592.638 149.103L592.626 149.09L592.614 149.078L592.601 149.065L592.589 149.053L592.576 149.04L592.563 149.028L592.551 149.015L592.538 149.003L592.526 148.99L592.513 148.977L592.5 148.965L592.488 148.952L592.475 148.939L592.462 148.927L592.449 148.914L592.437 148.901L592.424 148.888L592.411 148.876L592.398 148.863L592.385 148.85L592.373 148.837L592.36 148.824L592.347 148.811L592.334 148.798L592.321 148.785L592.308 148.772L592.295 148.759L592.282 148.746L592.269 148.733L592.256 148.72L592.243 148.707L592.23 148.694L592.217 148.681L592.204 148.668L592.191 148.655L592.177 148.642L592.164 148.629L592.151 148.616L592.138 148.602L592.125 148.589L592.111 148.576L592.098 148.563L592.085 148.549L592.072 148.536L592.058 148.523L592.045 148.509L592.032 148.496L592.018 148.483L592.005 148.469L591.992 148.456L591.978 148.443L591.965 148.429L591.951 148.416L591.938 148.402L591.924 148.389L591.911 148.375L591.897 148.362L591.884 148.348L591.87 148.335L591.857 148.321L591.843 148.308L591.829 148.294L591.816 148.28L591.802 148.267L591.789 148.253L591.775 148.239L591.761 148.226L591.748 148.212L591.734 148.198L591.72 148.185L591.706 148.171L591.693 148.157L591.679 148.143L591.665 148.13L591.651 148.116L591.637 148.102L591.624 148.088L591.61 148.074L591.596 148.06L591.582 148.047L591.568 148.033L591.554 148.019L591.54 148.005L591.526 147.991L591.512 147.977L591.498 147.963L591.484 147.949L591.47 147.935L591.456 147.921L591.442 147.907L591.428 147.893L591.414 147.879L591.4 147.865L591.386 147.851L591.372 147.837L591.358 147.822L591.344 147.808L591.33 147.794L591.316 147.78L591.301 147.766L591.287 147.752L591.273 147.737L591.259 147.723L591.245 147.709L591.23 147.695L591.216 147.681L591.202 147.666L591.187 147.652L591.173 147.638L591.159 147.623L591.145 147.609L591.13 147.595L591.116 147.58L591.102 147.566L591.087 147.552L591.073 147.537L591.058 147.523L591.044 147.508L591.03 147.494L591.015 147.48L591.001 147.465L590.986 147.451L590.972 147.436L590.957 147.422L590.943 147.407L590.928 147.393L590.914 147.378L590.899 147.364L590.885 147.349L590.87 147.334L590.855 147.32L590.841 147.305L590.826 147.291L590.812 147.276L590.797 147.262L590.782 147.247L590.768 147.232C589.791 146.256 588.209 146.256 587.232 147.232C586.256 148.209 586.256 149.791 587.232 150.768L587.247 150.782L587.262 150.797L587.276 150.812L587.291 150.826L587.305 150.841L587.32 150.855L587.334 150.87L587.349 150.885L587.364 150.899L587.378 150.914L587.393 150.928L587.407 150.943L587.422 150.957L587.436 150.972L587.451 150.986L587.465 151.001L587.48 151.015L587.494 151.03L587.508 151.044L587.523 151.058L587.537 151.073L587.552 151.087L587.566 151.102L587.58 151.116L587.595 151.13L587.609 151.145L587.623 151.159L587.638 151.173L587.652 151.187L587.666 151.202L587.681 151.216L587.695 151.23L587.709 151.245L587.723 151.259L587.737 151.273L587.752 151.287L587.766 151.301L587.78 151.316L587.794 151.33L587.808 151.344L587.822 151.358L587.837 151.372L587.851 151.386L587.865 151.4L587.879 151.414L587.893 151.428L587.907 151.442L587.921 151.456L587.935 151.47L587.949 151.484L587.963 151.498L587.977 151.512L587.991 151.526L588.005 151.54L588.019 151.554L588.033 151.568L588.047 151.582L588.06 151.596L588.074 151.61L588.088 151.624L588.102 151.637L588.116 151.651L588.13 151.665L588.143 151.679L588.157 151.693L588.171 151.706L588.185 151.72L588.198 151.734L588.212 151.748L588.226 151.761L588.239 151.775L588.253 151.789L588.267 151.802L588.28 151.816L588.294 151.829L588.308 151.843L588.321 151.857L588.335 151.87L588.348 151.884L588.362 151.897L588.375 151.911L588.389 151.924L588.402 151.938L588.416 151.951L588.429 151.965L588.443 151.978L588.456 151.992L588.469 152.005L588.483 152.018L588.496 152.032L588.509 152.045L588.523 152.058L588.536 152.072L588.549 152.085L588.563 152.098L588.576 152.111L588.589 152.125L588.602 152.138L588.616 152.151L588.629 152.164L588.642 152.177L588.655 152.191L588.668 152.204L588.681 152.217L588.694 152.23L588.707 152.243L588.72 152.256L588.733 152.269L588.746 152.282L588.759 152.295L588.772 152.308L588.785 152.321L588.798 152.334L588.811 152.347L588.824 152.36L588.837 152.373L588.85 152.385L588.863 152.398L588.876 152.411L588.888 152.424L588.901 152.437L588.914 152.449L588.927 152.462L588.939 152.475L588.952 152.488L588.965 152.5L588.977 152.513L588.99 152.526L589.003 152.538L589.015 152.551L589.028 152.563L589.04 152.576L589.053 152.589L589.065 152.601L589.078 152.614L589.09 152.626L589.103 152.638L589.115 152.651L589.128 152.663L589.14 152.676L589.153 152.688L589.165 152.7L589.177 152.713L589.19 152.725L589.202 152.737L589.214 152.75L589.226 152.762L589.239 152.774L589.251 152.786L589.263 152.799L589.275 152.811L589.287 152.823L589.299 152.835L589.312 152.847L589.324 152.859L589.336 152.871L589.348 152.883L589.36 152.895L589.372 152.907L589.384 152.919L589.396 152.931L589.408 152.943L589.419 152.955L589.431 152.967L589.443 152.979L589.455 152.991L589.467 153.002L589.479 153.014L589.49 153.026L589.502 153.038L589.514 153.049L589.526 153.061L589.537 153.073L589.549 153.084L589.561 153.096L589.572 153.108L589.584 153.119L589.595 153.131L589.607 153.142L589.618 153.154L589.63 153.165L589.641 153.177L589.653 153.188L589.664 153.2L589.676 153.211L589.687 153.223L589.698 153.234L589.71 153.245L589.721 153.256L589.732 153.268L589.743 153.279L589.755 153.29L589.766 153.301L589.777 153.313L589.788 153.324L589.799 153.335L589.81 153.346L589.822 153.357L589.833 153.368L589.844 153.379L589.855 153.39L589.866 153.401L589.877 153.412L589.888 153.423L589.898 153.434L589.909 153.445L589.92 153.456L589.931 153.467L589.942 153.477L589.953 153.488L589.963 153.499L589.974 153.51L589.985 153.52L589.995 153.531L590.006 153.542L590.017 153.552L590.027 153.563L590.038 153.573L590.048 153.584L590.059 153.594L590.069 153.605L590.08 153.615L590.09 153.626L590.101 153.636L590.111 153.647L590.122 153.657L590.132 153.667L590.142 153.678L590.152 153.688L590.163 153.698L590.173 153.708L590.183 153.719L590.193 153.729L590.203 153.739L590.214 153.749L590.224 153.759L590.234 153.769L590.244 153.779L590.254 153.789L590.264 153.799L590.274 153.809L590.284 153.819L590.294 153.829L590.303 153.839L590.313 153.849L590.323 153.859L590.333 153.868L590.343 153.878L590.352 153.888L590.362 153.898L590.372 153.907L590.381 153.917L590.391 153.927L590.401 153.936L590.41 153.946L590.42 153.955L590.429 153.965L590.439 153.974L590.448 153.984L590.458 153.993L590.467 154.003L590.476 154.012L590.486 154.021L590.495 154.031L590.504 154.04L590.514 154.049L590.523 154.058L590.532 154.067L590.541 154.077L590.55 154.086L590.559 154.095L590.568 154.104L590.577 154.113L590.586 154.122L590.595 154.131L590.604 154.14L590.613 154.149L590.622 154.158L590.631 154.167L590.64 154.175L590.649 154.184L590.657 154.193L590.666 154.202L590.675 154.21L590.684 154.219L590.692 154.228L590.701 154.236L590.709 154.245L590.718 154.253L590.726 154.262L590.735 154.271L590.743 154.279L590.752 154.287L590.76 154.296L590.769 154.304L590.777 154.313L590.785 154.321L590.794 154.329L590.802 154.337L590.81 154.346L590.818 154.354L590.826 154.362L590.834 154.37L590.843 154.378L590.851 154.386L590.859 154.394L590.867 154.402L590.875 154.41L590.883 154.418L590.89 154.426L590.898 154.434L590.906 154.442L590.914 154.449L590.922 154.457L590.929 154.465L590.937 154.473L590.945 154.48L590.952 154.488L590.96 154.496L590.968 154.503L590.975 154.511L590.983 154.518L590.99 154.526L590.998 154.533L591.005 154.54L591.012 154.548L591.02 154.555L591.027 154.562L591.034 154.57L591.041 154.577L591.049 154.584L591.056 154.591L591.063 154.599L591.07 154.606L591.077 154.613L591.084 154.62L591.091 154.627L591.098 154.634L591.105 154.641L591.112 154.648L591.119 154.654L591.126 154.661L591.132 154.668L591.139 154.675L591.146 154.681L591.153 154.688L591.159 154.695L591.166 154.701L591.173 154.708L591.179 154.715L591.186 154.721L591.192 154.728L591.199 154.734L591.205 154.74L591.211 154.747L591.218 154.753L591.224 154.759L591.23 154.766L591.236 154.772L591.243 154.778L591.249 154.784L591.255 154.79L591.261 154.797L591.267 154.803L591.273 154.809L591.279 154.815L591.285 154.821L591.291 154.827L591.297 154.832L591.303 154.838L591.309 154.844L591.314 154.85L591.32 154.856L591.326 154.861L591.331 154.867L591.337 154.873L591.343 154.878L591.348 154.884L591.354 154.889L591.359 154.895L591.365 154.9L591.37 154.906L591.375 154.911L591.381 154.916L591.386 154.921L591.391 154.927L591.396 154.932L591.402 154.937L591.407 154.942L591.412 154.947L591.417 154.952L591.422 154.957L591.427 154.962L591.432 154.967L591.437 154.972L591.442 154.977L591.447 154.982L591.451 154.987L591.456 154.992L591.461 154.996L591.466 155.001L591.47 155.006L591.475 155.01L591.479 155.015L591.484 155.019L591.488 155.024L591.493 155.028L591.497 155.033L591.502 155.037L591.506 155.042L591.51 155.046L591.515 155.05L591.519 155.054L591.523 155.058L591.527 155.063L591.531 155.067L591.535 155.071L591.539 155.075L591.543 155.079L591.547 155.083L591.551 155.087L591.555 155.091L591.559 155.094L591.563 155.098L591.566 155.102L591.57 155.106L591.574 155.109L591.577 155.113L591.581 155.116L591.585 155.12L591.588 155.124L591.591 155.127L591.595 155.13L591.598 155.134L591.602 155.137L591.605 155.14L591.608 155.144L591.611 155.147L591.615 155.15L591.618 155.153L591.621 155.156L591.624 155.159L591.627 155.162L591.63 155.165L591.633 155.168L591.636 155.171L591.639 155.174L591.641 155.177L591.644 155.18L591.647 155.182L591.65 155.185L591.652 155.188L591.655 155.19L591.657 155.193L591.66 155.195L591.662 155.198L591.665 155.2L591.667 155.203L591.67 155.205L591.672 155.207L591.674 155.21L591.676 155.212L591.679 155.214L591.681 155.216L591.683 155.218L591.685 155.22L591.687 155.222L591.689 155.224L591.691 155.226L591.693 155.228L591.695 155.23L591.696 155.232L591.698 155.234L591.7 155.235L591.701 155.237L591.703 155.239L591.705 155.24L591.706 155.242L591.708 155.243L591.709 155.245L591.711 155.246L591.712 155.247L591.713 155.249L591.715 155.25L591.716 155.251L591.717 155.252L591.718 155.254L591.719 155.255L591.72 155.256L591.721 155.257L591.722 155.258L591.723 155.259L591.724 155.26L591.725 155.26L591.726 155.261L591.726 155.262L591.728 155.263L591.729 155.264L591.73 155.265L591.731 155.266L591.732 155.267L593.429 156.964L595.193 155.339L599.901 151.005C615.028 167.221 625.693 187.646 629.948 210.329L617.603 211.792C616.958 208.402 616.154 205.069 615.199 201.799C610.514 185.765 602.196 171.285 591.199 159.309C571.552 137.915 543.341 124.5 512 124.5C478.148 124.5 447.953 140.148 428.25 164.599L419.07 157.987C430.472 143.71 445.076 132.105 461.792 124.26L465.239 131.567C465.828 132.815 467.318 133.35 468.567 132.761C469.815 132.172 470.35 130.682 469.761 129.433L466.365 122.234C479.332 116.838 494.174 113.613 509 113.067V114C509 115.381 510.119 116.5 511.5 116.5C512.881 116.5 514 115.381 514 114V110.5V97.001C532.676 97.0743 550.646 101.24 566.892 108.152L563.855 113.214C563.145 114.398 563.528 115.933 564.712 116.644C565.896 117.354 567.432 116.97 568.142 115.786L571.493 110.201C581.257 114.732 588.586 119.288 595.974 124.89L592.591 128.311ZM619.5 232C619.5 226.817 619.133 221.719 618.423 216.73L630.767 215.267C631.579 220.893 632 226.646 632 232.5C632 234.85 631.932 237.184 631.798 239.5H624.5C623.119 239.5 622 240.619 622 242C622 243.381 623.119 244.5 624.5 244.5H631.405C629.83 260.305 625.175 275.202 618.049 288.584L612.222 285.319C611.017 284.644 609.494 285.074 608.819 286.278C608.144 287.483 608.574 289.006 609.778 289.681L615.607 292.947C613.151 297.128 610.447 301.146 607.516 304.982C601.52 312.831 594.573 319.914 586.848 326.061L582.398 320.872C581.499 319.824 579.92 319.703 578.872 320.602C577.824 321.501 577.703 323.08 578.602 324.128L582.865 329.097C571.938 337.071 559.609 343.234 546.319 347.148L545.448 343.554C546.839 343.043 548.476 342.468 550.074 341.91L551 341.587L551.003 341.586C553.076 340.863 554.998 340.193 555.928 339.821C557.975 339.002 563.822 336.397 567.362 334.096C568.52 333.344 568.849 331.795 568.096 330.638C567.344 329.48 565.795 329.151 564.638 329.904C561.511 331.936 556.025 334.398 554.072 335.179C553.256 335.505 551.462 336.131 549.346 336.869L549.345 336.869L548.426 337.19C545.984 338.042 543.301 338.987 541.572 339.679L539.561 340.483L540.07 342.588L541.492 348.46C533.298 350.501 524.768 351.698 515.998 351.95C515.971 350.592 514.863 349.5 513.499 349.5C512.118 349.5 510.999 350.619 510.999 352V357.281V369.978C485.438 369.519 461.6 362.036 441.323 349.379C428.002 341.065 416.22 330.518 406.499 318.264L416.05 311.231C422.749 319.428 430.472 326.755 439.025 333.017C449.605 340.764 461.456 346.882 474.208 351L471.667 357.602C471.171 358.891 471.814 360.337 473.102 360.833C474.391 361.329 475.837 360.686 476.333 359.398L479.01 352.443C486.512 354.534 494.299 355.939 502.298 356.588C503.674 356.699 504.88 355.674 504.992 354.298C505.103 352.922 504.078 351.716 502.702 351.604C495.183 350.994 487.861 349.688 480.802 347.751L482.825 342.42L486.312 333.952L486.344 333.872L486.372 333.791L486.484 333.453C489.59 334.209 492.748 334.83 495.952 335.31C500.386 335.974 504.908 336.367 509.501 336.471V340.5H509.492H509.477H509.462H509.447H509.431H509.416H509.401H509.386H509.37H509.355H509.34H509.324H509.309H509.294H509.278H509.263H509.248H509.232H509.217H509.202H509.186H509.171H509.155H509.14H509.124H509.109H509.093H509.078H509.062H509.047H509.031H509.016H509H508.985H508.969H508.953H508.938H508.922H508.907H508.891H508.876H508.86H508.844H508.829H508.813H508.797H508.782H508.766H508.751H508.735H508.719H508.704H508.688H508.672H508.657H508.641H508.625H508.61H508.594H508.578H508.563H508.547H508.531H508.516H508.5H508.485H508.469H508.453H508.438H508.422H508.406H508.391H508.375H508.359H508.344H508.328H508.313H508.297H508.281H508.266H508.25H508.235H508.219H508.203H508.188H508.172H508.157H508.141H508.126H508.11H508.095H508.079H508.064H508.048H508.033H508.017H508.002H507.986H507.971H507.955H507.94H507.925H507.909H507.894H507.878H507.863H507.848H507.832H507.817H507.802H507.786H507.771H507.756H507.741H507.725H507.71H507.695H507.68H507.665H507.65H507.635H507.619H507.604H507.589H507.574H507.559H507.544H507.529H507.514H507.499H507.484H507.469H507.454H507.44H507.425H507.41H507.395H507.38H507.366H507.351H507.336H507.321H507.307H507.292H507.278H507.263H507.248H507.234H507.219H507.205H507.19H507.176H507.162H507.147H507.133H507.118H507.104H507.09H507.076H507.061H507.047H507.033H507.019H507.005H506.991H506.977H506.963H506.949H506.935H506.921H506.907H506.893H506.879H506.866H506.852H506.838H506.824H506.811H506.797H506.784H506.77H506.757H506.743H506.73H506.716H506.703H506.69H506.676H506.663H506.65H506.637H506.624H506.61H506.597H506.584H506.571H506.558H506.546H506.533H506.52H506.507H506.494H506.482H506.469H506.456H506.444H506.431H506.419H506.406H506.394H506.382H506.369H506.357H506.345H506.333H506.32H506.308H506.296H506.284H506.272H506.26H506.249H506.237H506.225H506.213H506.202H506.19H506.178H506.167H506.155H506.144H506.133H506.121H506.11H506.099H506.088H506.076H506.065H506.054H506.043H506.032H506.022H506.011H506C505.117 340.5 503.73 340.388 502.483 340.263C501.877 340.202 501.332 340.141 500.939 340.095C500.743 340.072 500.585 340.053 500.476 340.04L500.353 340.025L500.322 340.021L500.315 340.02L500.313 340.02C498.944 339.847 497.693 340.817 497.52 342.187C497.347 343.556 498.317 344.807 499.687 344.98L499.688 344.98L499.691 344.981L499.701 344.982L499.737 344.987L499.872 345.003L499.999 345.019C500.1 345.031 500.221 345.045 500.361 345.061C500.773 345.109 501.345 345.173 501.984 345.237C503.227 345.362 504.839 345.5 506 345.5H506.011H506.022H506.032H506.043H506.054H506.065H506.076H506.088H506.099H506.11H506.121H506.133H506.144H506.155H506.167H506.178H506.19H506.202H506.213H506.225H506.237H506.249H506.26H506.272H506.284H506.296H506.308H506.32H506.333H506.345H506.357H506.369H506.382H506.394H506.406H506.419H506.431H506.444H506.456H506.469H506.482H506.494H506.507H506.52H506.533H506.546H506.558H506.571H506.584H506.597H506.61H506.624H506.637H506.65H506.663H506.676H506.69H506.703H506.716H506.73H506.743H506.757H506.77H506.784H506.797H506.811H506.824H506.838H506.852H506.866H506.879H506.893H506.907H506.921H506.935H506.949H506.963H506.977H506.991H507.005H507.019H507.033H507.047H507.061H507.076H507.09H507.104H507.118H507.133H507.147H507.162H507.176H507.19H507.205H507.219H507.234H507.248H507.263H507.278H507.292H507.307H507.321H507.336H507.351H507.366H507.38H507.395H507.41H507.425H507.44H507.454H507.469H507.484H507.499H507.514H507.529H507.544H507.559H507.574H507.589H507.604H507.619H507.635H507.65H507.665H507.68H507.695H507.71H507.725H507.741H507.756H507.771H507.786H507.802H507.817H507.832H507.848H507.863H507.878H507.894H507.909H507.925H507.94H507.955H507.971H507.986H508.002H508.017H508.033H508.048H508.064H508.079H508.095H508.11H508.126H508.141H508.157H508.172H508.188H508.203H508.219H508.235H508.25H508.266H508.281H508.297H508.313H508.328H508.344H508.359H508.375H508.391H508.406H508.422H508.438H508.453H508.469H508.485H508.5H508.516H508.531H508.547H508.563H508.578H508.594H508.61H508.625H508.641H508.657H508.672H508.688H508.704H508.719H508.735H508.751H508.766H508.782H508.797H508.813H508.829H508.844H508.86H508.876H508.891H508.907H508.922H508.938H508.953H508.969H508.985H509H509.016H509.031H509.047H509.062H509.078H509.093H509.109H509.124H509.14H509.155H509.171H509.186H509.202H509.217H509.232H509.248H509.263H509.278H509.294H509.309H509.324H509.34H509.355H509.37H509.386H509.401H509.416H509.431H509.447H509.462H509.477H509.492H509.507H509.522H509.537H509.553H509.568H509.583H509.598H509.613H509.628H509.643H509.658H509.673H509.687H509.702H509.717H509.732H509.747H509.762H509.776H509.791H509.806H509.821H509.835H509.85H509.865H509.879H509.894H509.908H509.923H509.938H509.952H509.966H509.981H509.995H510.01H510.024H510.038H510.053H510.067H510.081H510.095H510.11H510.124H510.138H510.152H510.166H510.18H510.194H510.208H510.222H510.236H510.25H510.264H510.277H510.291H510.305H510.319H510.332H510.346H510.36H510.373H510.387H510.4H510.414H510.427H510.44H510.454H510.467H510.48H510.494H510.507H510.52H510.533H510.546H510.559H510.572H510.585H510.598H510.611H510.624H510.637H510.65H510.662H510.675H510.688H510.7H510.713H510.726H510.738H510.75H510.763H510.775H510.788H510.8H510.812H510.824H510.836H510.848H510.861H510.872H510.884H510.896H510.908H510.92H510.932H510.944H510.955H510.967H510.978H510.99H511.001H511.013H511.024H511.035H511.047H511.058H511.069H511.08H511.091H511.102H511.113H511.124H511.135H511.146H511.157H511.167H511.178H511.189H511.199H511.21H511.22H511.23H511.241H511.251H511.261H511.271H511.281H511.292H511.301H511.311H511.321H511.331H511.341H511.35H511.36H511.37H511.379H511.389H511.398H511.407H511.417H511.426H511.435H511.444H511.453H511.462H511.471H511.48H511.489H511.497H511.506H511.514H511.523H511.531H511.54H511.548H511.556H511.565H511.573H511.581H511.589H511.597H511.605H511.612H511.62H511.628H511.635H511.643H511.65H511.658H511.665H511.672H511.679H511.686H511.693H511.7H511.707H511.714H511.721H511.728H511.734H511.741H511.747H511.753H511.76H511.766H511.772H511.778H511.784H511.79H511.796H511.802H511.808H511.813H511.819H511.824H511.83H511.835H511.84H511.845H511.85H511.855H511.86H511.865H511.87H511.875H511.879H511.884H511.888H511.893H511.897H511.901H511.905H511.909H511.913H511.917H511.921H511.925H511.928H511.932H511.935H511.939H511.942H511.945H511.948H511.951H511.954H511.957H511.96H511.963H511.965H511.968H511.97H511.972H511.975H511.977H511.979H511.981H511.983H511.985H511.986H511.988H511.989H511.991H511.992H511.993H511.995H511.996H511.998H511.999H512H512.001H514.501V343V336.471C537.741 335.941 559.165 328.033 576.513 314.999C593.429 302.289 606.476 284.703 613.563 264.321C615.513 258.715 617.011 252.898 618.015 246.914C618.244 245.552 617.325 244.263 615.963 244.034C614.602 243.806 613.313 244.725 613.084 246.086C612.271 250.933 611.118 255.663 609.65 260.253L605.374 258.658C604.08 258.175 602.64 258.833 602.158 260.126C601.675 261.42 602.333 262.86 603.626 263.342L608.01 264.978C601.381 282.66 590.004 298.028 575.428 309.524L572.95 306.435C572.086 305.359 570.512 305.186 569.435 306.05C568.359 306.914 568.186 308.488 569.05 309.565L571.426 312.526C554.665 324.473 534.157 331.5 512.001 331.5C504.552 331.5 497.289 330.706 490.292 329.197C489.549 329.037 488.809 328.868 488.071 328.692L488.372 327.791C488.808 326.481 488.1 325.065 486.791 324.628C485.481 324.192 484.065 324.9 483.628 326.209L483.229 327.407C473.716 324.631 464.776 320.512 456.627 315.27L457.975 313.532C458.822 312.441 458.623 310.871 457.532 310.025C456.441 309.178 454.871 309.377 454.025 310.468L452.48 312.46C435.456 300.344 422.492 283.893 415.529 264.219L424.146 261.915C425.48 261.559 426.272 260.188 425.915 258.854C425.559 257.52 424.188 256.728 422.854 257.085L413.981 259.457C412.424 254.216 411.283 248.764 410.591 243.119C410.554 242.819 410.518 242.518 410.484 242.217C410.328 240.846 409.089 239.86 407.717 240.016C406.346 240.172 405.36 241.411 405.516 242.783C406.223 248.999 407.448 254.995 409.148 260.749L397.181 263.949C395.198 256.66 393.887 249.093 393.32 241.318C393.168 239.227 393.069 237.12 393.026 235H397.5C398.881 235 400 233.881 400 232.5C400 231.119 398.881 230 397.5 230H393.026C393.547 204.574 402.008 181.104 416.031 161.96L425.202 168.566C422.855 171.773 420.68 175.114 418.694 178.577L414.758 176.329C413.559 175.644 412.032 176.061 411.347 177.26C410.662 178.459 411.079 179.986 412.278 180.671L418.406 184.171L418.453 184.198L418.501 184.223L423.355 186.723C424.583 187.355 426.09 186.872 426.723 185.645C427.355 184.417 426.872 182.91 425.645 182.277L423.09 180.962C440.397 150.879 472.526 130.415 509.5 129.53V134.5C509.5 135.881 510.619 137 512 137C513.381 137 514.5 135.881 514.5 134.5V129.53C542.424 130.198 567.58 142.032 585.68 160.743L578.436 166.549C577.359 167.413 577.186 168.986 578.049 170.064C578.913 171.141 580.486 171.314 581.564 170.451L589.076 164.429C598.21 174.84 605.267 187.114 609.603 200.605L604.997 201.551C603.644 201.829 602.773 203.151 603.051 204.503C603.329 205.856 604.651 206.727 606.003 206.449L611.02 205.418C613.289 213.893 614.5 222.803 614.5 232C614.5 233.381 615.619 234.5 617 234.5C618.381 234.5 619.5 233.381 619.5 232ZM515.999 357.281V356.952C525.212 356.697 534.179 355.442 542.791 353.289L544.103 357.711C544.496 359.035 545.888 359.789 547.211 359.397C548.535 359.004 549.289 357.612 548.897 356.289L547.617 351.978C561.62 347.869 574.597 341.366 586.075 332.944L594.513 343.37C572.476 359.646 545.369 369.45 515.999 369.978V357.281ZM398.595 268.746L410.684 265.514C418.243 287.14 432.679 305.063 451.593 317.934C460.706 324.136 470.821 328.973 481.645 332.153L479.115 338.297L470.89 335.164C469.6 334.672 468.155 335.32 467.664 336.61C467.172 337.9 467.82 339.345 469.11 339.836L477.277 342.947L475.996 346.322C464.574 342.662 453.9 337.33 444.26 330.613L448.337 326.195L450.12 324.263L448.101 322.58L442.102 317.58C441.042 316.696 439.465 316.839 438.581 317.899C437.697 318.96 437.84 320.536 438.901 321.42L442.88 324.737L440.192 327.649C432.73 321.97 425.956 315.432 420.017 308.184L424.061 304.953C425.139 304.091 425.315 302.518 424.453 301.439C423.591 300.361 422.018 300.185 420.939 301.047L416.93 304.251C408.954 293.646 402.705 281.672 398.595 268.746ZM410.614 191.262C409.378 190.647 407.877 191.15 407.262 192.386C406.647 193.622 407.15 195.123 408.386 195.738L410.414 196.748C406.581 207.794 404.5 219.656 404.5 232C404.5 233.381 405.619 234.5 407 234.5C408.381 234.5 409.5 233.381 409.5 232C409.5 219.466 411.748 207.464 415.862 196.369L416.643 194.263L414.632 193.262L410.614 191.262Z" fill="#E7DBFF"/>
</g>
<defs>
<filter id="filter0_d_2226_12" x="383" y="418" width="22" height="22" filterUnits="userSpaceOnUse" color-interpolation-filters="sRGB">
<feFlood flood-opacity="0" result="BackgroundImageFix"/>
<feColorMatrix in="SourceAlpha" type="matrix" values="0 0 0 0 0 0 0 0 0 0 0 0 0 0 0 0 0 0 127 0" result="hardAlpha"/>
<feMorphology radius="3" operator="dilate" in="SourceAlpha" result="effect1_dropShadow_2226_12"/>
<feOffset/>
<feGaussianBlur stdDeviation="1.5"/>
<feComposite in2="hardAlpha" operator="out"/>
<feColorMatrix type="matrix" values="0 0 0 0 1 0 0 0 0 1 0 0 0 0 1 0 0 0 0.6 0"/>
<feBlend mode="normal" in2="BackgroundImageFix" result="effect1_dropShadow_2226_12"/>
<feBlend mode="normal" in="SourceGraphic" in2="effect1_dropShadow_2226_12" result="shape"/>
</filter>
<filter id="filter1_d_2226_12" x="447" y="430" width="22" height="22" filterUnits="userSpaceOnUse" color-interpolation-filters="sRGB">
<feFlood flood-opacity="0" result="BackgroundImageFix"/>
<feColorMatrix in="SourceAlpha" type="matrix" values="0 0 0 0 0 0 0 0 0 0 0 0 0 0 0 0 0 0 127 0" result="hardAlpha"/>
<feMorphology radius="3" operator="dilate" in="SourceAlpha" result="effect1_dropShadow_2226_12"/>
<feOffset/>
<feGaussianBlur stdDeviation="1.5"/>
<feComposite in2="hardAlpha" operator="out"/>
<feColorMatrix type="matrix" values="0 0 0 0 1 0 0 0 0 1 0 0 0 0 1 0 0 0 0.6 0"/>
<feBlend mode="normal" in2="BackgroundImageFix" result="effect1_dropShadow_2226_12"/>
<feBlend mode="normal" in="SourceGraphic" in2="effect1_dropShadow_2226_12" result="shape"/>
</filter>
<filter id="filter2_d_2226_12" x="580" y="443" width="22" height="22" filterUnits="userSpaceOnUse" color-interpolation-filters="sRGB">
<feFlood flood-opacity="0" result="BackgroundImageFix"/>
<feColorMatrix in="SourceAlpha" type="matrix" values="0 0 0 0 0 0 0 0 0 0 0 0 0 0 0 0 0 0 127 0" result="hardAlpha"/>
<feMorphology radius="3" operator="dilate" in="SourceAlpha" result="effect1_dropShadow_2226_12"/>
<feOffset/>
<feGaussianBlur stdDeviation="1.5"/>
<feComposite in2="hardAlpha" operator="out"/>
<feColorMatrix type="matrix" values="0 0 0 0 1 0 0 0 0 1 0 0 0 0 1 0 0 0 0.6 0"/>
<feBlend mode="normal" in2="BackgroundImageFix" result="effect1_dropShadow_2226_12"/>
<feBlend mode="normal" in="SourceGraphic" in2="effect1_dropShadow_2226_12" result="shape"/>
</filter>
<filter id="filter3_d_2226_12" x="609" y="420" width="22" height="22" filterUnits="userSpaceOnUse" color-interpolation-filters="sRGB">
<feFlood flood-opacity="0" result="BackgroundImageFix"/>
<feColorMatrix in="SourceAlpha" type="matrix" values="0 0 0 0 0 0 0 0 0 0 0 0 0 0 0 0 0 0 127 0" result="hardAlpha"/>
<feMorphology radius="3" operator="dilate" in="SourceAlpha" result="effect1_dropShadow_2226_12"/>
<feOffset/>
<feGaussianBlur stdDeviation="1.5"/>
<feComposite in2="hardAlpha" operator="out"/>
<feColorMatrix type="matrix" values="0 0 0 0 1 0 0 0 0 1 0 0 0 0 1 0 0 0 0.6 0"/>
<feBlend mode="normal" in2="BackgroundImageFix" result="effect1_dropShadow_2226_12"/>
<feBlend mode="normal" in="SourceGraphic" in2="effect1_dropShadow_2226_12" result="shape"/>
</filter>
<filter id="filter4_d_2226_12" x="729" y="446" width="22" height="22" filterUnits="userSpaceOnUse" color-interpolation-filters="sRGB">
<feFlood flood-opacity="0" result="BackgroundImageFix"/>
<feColorMatrix in="SourceAlpha" type="matrix" values="0 0 0 0 0 0 0 0 0 0 0 0 0 0 0 0 0 0 127 0" result="hardAlpha"/>
<feMorphology radius="3" operator="dilate" in="SourceAlpha" result="effect1_dropShadow_2226_12"/>
<feOffset/>
<feGaussianBlur stdDeviation="1.5"/>
<feComposite in2="hardAlpha" operator="out"/>
<feColorMatrix type="matrix" values="0 0 0 0 1 0 0 0 0 1 0 0 0 0 1 0 0 0 0.6 0"/>
<feBlend mode="normal" in2="BackgroundImageFix" result="effect1_dropShadow_2226_12"/>
<feBlend mode="normal" in="SourceGraphic" in2="effect1_dropShadow_2226_12" result="shape"/>
</filter>
<filter id="filter5_d_2226_12" x="739" y="505" width="24" height="24" filterUnits="userSpaceOnUse" color-interpolation-filters="sRGB">
<feFlood flood-opacity="0" result="BackgroundImageFix"/>
<feColorMatrix in="SourceAlpha" type="matrix" values="0 0 0 0 0 0 0 0 0 0 0 0 0 0 0 0 0 0 127 0" result="hardAlpha"/>
<feMorphology radius="3" operator="dilate" in="SourceAlpha" result="effect1_dropShadow_2226_12"/>
<feOffset/>
<feGaussianBlur stdDeviation="1.5"/>
<feComposite in2="hardAlpha" operator="out"/>
<feColorMatrix type="matrix" values="0 0 0 0 1 0 0 0 0 1 0 0 0 0 1 0 0 0 0.6 0"/>
<feBlend mode="normal" in2="BackgroundImageFix" result="effect1_dropShadow_2226_12"/>
<feBlend mode="normal" in="SourceGraphic" in2="effect1_dropShadow_2226_12" result="shape"/>
</filter>
<filter id="filter6_d_2226_12" x="796" y="486" width="24" height="24" filterUnits="userSpaceOnUse" color-interpolation-filters="sRGB">
<feFlood flood-opacity="0" result="BackgroundImageFix"/>
<feColorMatrix in="SourceAlpha" type="matrix" values="0 0 0 0 0 0 0 0 0 0 0 0 0 0 0 0 0 0 127 0" result="hardAlpha"/>
<feMorphology radius="3" operator="dilate" in="SourceAlpha" result="effect1_dropShadow_2226_12"/>
<feOffset/>
<feGaussianBlur stdDeviation="1.5"/>
<feComposite in2="hardAlpha" operator="out"/>
<feColorMatrix type="matrix" values="0 0 0 0 1 0 0 0 0 1 0 0 0 0 1 0 0 0 0.6 0"/>
<feBlend mode="normal" in2="BackgroundImageFix" result="effect1_dropShadow_2226_12"/>
<feBlend mode="normal" in="SourceGraphic" in2="effect1_dropShadow_2226_12" result="shape"/>
</filter>
<filter id="filter7_d_2226_12" x="516" y="534" width="26" height="26" filterUnits="userSpaceOnUse" color-interpolation-filters="sRGB">
<feFlood flood-opacity="0" result="BackgroundImageFix"/>
<feColorMatrix in="SourceAlpha" type="matrix" values="0 0 0 0 0 0 0 0 0 0 0 0 0 0 0 0 0 0 127 0" result="hardAlpha"/>
<feMorphology radius="3" operator="dilate" in="SourceAlpha" result="effect1_dropShadow_2226_12"/>
<feOffset/>
<feGaussianBlur stdDeviation="1.5"/>
<feComposite in2="hardAlpha" operator="out"/>
<feColorMatrix type="matrix" values="0 0 0 0 1 0 0 0 0 1 0 0 0 0 1 0 0 0 0.6 0"/>
<feBlend mode="normal" in2="BackgroundImageFix" result="effect1_dropShadow_2226_12"/>
<feBlend mode="normal" in="SourceGraphic" in2="effect1_dropShadow_2226_12" result="shape"/>
</filter>
<filter id="filter8_d_2226_12" x="568" y="493" width="24" height="24" filterUnits="userSpaceOnUse" color-interpolation-filters="sRGB">
<feFlood flood-opacity="0" result="BackgroundImageFix"/>
<feColorMatrix in="SourceAlpha" type="matrix" values="0 0 0 0 0 0 0 0 0 0 0 0 0 0 0 0 0 0 127 0" result="hardAlpha"/>
<feMorphology radius="3" operator="dilate" in="SourceAlpha" result="effect1_dropShadow_2226_12"/>
<feOffset/>
<feGaussianBlur stdDeviation="1.5"/>
<feComposite in2="hardAlpha" operator="out"/>
<feColorMatrix type="matrix" values="0 0 0 0 1 0 0 0 0 1 0 0 0 0 1 0 0 0 0.6 0"/>
<feBlend mode="normal" in2="BackgroundImageFix" result="effect1_dropShadow_2226_12"/>
<feBlend mode="normal" in="SourceGraphic" in2="effect1_dropShadow_2226_12" result="shape"/>
</filter>
<filter id="filter9_d_2226_12" x="452" y="516" width="24" height="24" filterUnits="userSpaceOnUse" color-interpolation-filters="sRGB">
<feFlood flood-opacity="0" result="BackgroundImageFix"/>
<feColorMatrix in="SourceAlpha" type="matrix" values="0 0 0 0 0 0 0 0 0 0 0 0 0 0 0 0 0 0 127 0" result="hardAlpha"/>
<feMorphology radius="3" operator="dilate" in="SourceAlpha" result="effect1_dropShadow_2226_12"/>
<feOffset/>
<feGaussianBlur stdDeviation="1.5"/>
<feComposite in2="hardAlpha" operator="out"/>
<feColorMatrix type="matrix" values="0 0 0 0 1 0 0 0 0 1 0 0 0 0 1 0 0 0 0.6 0"/>
<feBlend mode="normal" in2="BackgroundImageFix" result="effect1_dropShadow_2226_12"/>
<feBlend mode="normal" in="SourceGraphic" in2="effect1_dropShadow_2226_12" result="shape"/>
</filter>
<filter id="filter10_d_2226_12" x="345" y="511" width="24" height="24" filterUnits="userSpaceOnUse" color-interpolation-filters="sRGB">
<feFlood flood-opacity="0" result="BackgroundImageFix"/>
<feColorMatrix in="SourceAlpha" type="matrix" values="0 0 0 0 0 0 0 0 0 0 0 0 0 0 0 0 0 0 127 0" result="hardAlpha"/>
<feMorphology radius="3" operator="dilate" in="SourceAlpha" result="effect1_dropShadow_2226_12"/>
<feOffset/>
<feGaussianBlur stdDeviation="1.5"/>
<feComposite in2="hardAlpha" operator="out"/>
<feColorMatrix type="matrix" values="0 0 0 0 1 0 0 0 0 1 0 0 0 0 1 0 0 0 0.6 0"/>
<feBlend mode="normal" in2="BackgroundImageFix" result="effect1_dropShadow_2226_12"/>
<feBlend mode="normal" in="SourceGraphic" in2="effect1_dropShadow_2226_12" result="shape"/>
</filter>
<filter id="filter11_d_2226_12" x="643" y="484" width="24" height="24" filterUnits="userSpaceOnUse" color-interpolation-filters="sRGB">
<feFlood flood-opacity="0" result="BackgroundImageFix"/>
<feColorMatrix in="SourceAlpha" type="matrix" values="0 0 0 0 0 0 0 0 0 0 0 0 0 0 0 0 0 0 127 0" result="hardAlpha"/>
<feMorphology radius="3" operator="dilate" in="SourceAlpha" result="effect1_dropShadow_2226_12"/>
<feOffset/>
<feGaussianBlur stdDeviation="1.5"/>
<feComposite in2="hardAlpha" operator="out"/>
<feColorMatrix type="matrix" values="0 0 0 0 1 0 0 0 0 1 0 0 0 0 1 0 0 0 0.6 0"/>
<feBlend mode="normal" in2="BackgroundImageFix" result="effect1_dropShadow_2226_12"/>
<feBlend mode="normal" in="SourceGraphic" in2="effect1_dropShadow_2226_12" result="shape"/>
</filter>
<filter id="filter12_d_2226_12" x="262" y="511" width="24" height="24" filterUnits="userSpaceOnUse" color-interpolation-filters="sRGB">
<feFlood flood-opacity="0" result="BackgroundImageFix"/>
<feColorMatrix in="SourceAlpha" type="matrix" values="0 0 0 0 0 0 0 0 0 0 0 0 0 0 0 0 0 0 127 0" result="hardAlpha"/>
<feMorphology radius="3" operator="dilate" in="SourceAlpha" result="effect1_dropShadow_2226_12"/>
<feOffset/>
<feGaussianBlur stdDeviation="1.5"/>
<feComposite in2="hardAlpha" operator="out"/>
<feColorMatrix type="matrix" values="0 0 0 0 1 0 0 0 0 1 0 0 0 0 1 0 0 0 0.6 0"/>
<feBlend mode="normal" in2="BackgroundImageFix" result="effect1_dropShadow_2226_12"/>
<feBlend mode="normal" in="SourceGraphic" in2="effect1_dropShadow_2226_12" result="shape"/>
</filter>
<filter id="filter13_d_2226_12" x="207" y="501" width="22" height="22" filterUnits="userSpaceOnUse" color-interpolation-filters="sRGB">
<feFlood flood-opacity="0" result="BackgroundImageFix"/>
<feColorMatrix in="SourceAlpha" type="matrix" values="0 0 0 0 0 0 0 0 0 0 0 0 0 0 0 0 0 0 127 0" result="hardAlpha"/>
<feMorphology radius="3" operator="dilate" in="SourceAlpha" result="effect1_dropShadow_2226_12"/>
<feOffset/>
<feGaussianBlur stdDeviation="1.5"/>
<feComposite in2="hardAlpha" operator="out"/>
<feColorMatrix type="matrix" values="0 0 0 0 1 0 0 0 0 1 0 0 0 0 1 0 0 0 0.6 0"/>
<feBlend mode="normal" in2="BackgroundImageFix" result="effect1_dropShadow_2226_12"/>
<feBlend mode="normal" in="SourceGraphic" in2="effect1_dropShadow_2226_12" result="shape"/>
</filter>
<filter id="filter14_d_2226_12" x="263" y="454" width="22" height="22" filterUnits="userSpaceOnUse" color-interpolation-filters="sRGB">
<feFlood flood-opacity="0" result="BackgroundImageFix"/>
<feColorMatrix in="SourceAlpha" type="matrix" values="0 0 0 0 0 0 0 0 0 0 0 0 0 0 0 0 0 0 127 0" result="hardAlpha"/>
<feMorphology radius="3" operator="dilate" in="SourceAlpha" result="effect1_dropShadow_2226_12"/>
<feOffset/>
<feGaussianBlur stdDeviation="1.5"/>
<feComposite in2="hardAlpha" operator="out"/>
<feColorMatrix type="matrix" values="0 0 0 0 1 0 0 0 0 1 0 0 0 0 1 0 0 0 0.6 0"/>
<feBlend mode="normal" in2="BackgroundImageFix" result="effect1_dropShadow_2226_12"/>
<feBlend mode="normal" in="SourceGraphic" in2="effect1_dropShadow_2226_12" result="shape"/>
</filter>
<filter id="filter15_d_2226_12" x="589" y="704" width="32" height="32" filterUnits="userSpaceOnUse" color-interpolation-filters="sRGB">
<feFlood flood-opacity="0" result="BackgroundImageFix"/>
<feColorMatrix in="SourceAlpha" type="matrix" values="0 0 0 0 0 0 0 0 0 0 0 0 0 0 0 0 0 0 127 0" result="hardAlpha"/>
<feMorphology radius="3" operator="dilate" in="SourceAlpha" result="effect1_dropShadow_2226_12"/>
<feOffset/>
<feGaussianBlur stdDeviation="1.5"/>
<feComposite in2="hardAlpha" operator="out"/>
<feColorMatrix type="matrix" values="0 0 0 0 1 0 0 0 0 1 0 0 0 0 1 0 0 0 0.6 0"/>
<feBlend mode="normal" in2="BackgroundImageFix" result="effect1_dropShadow_2226_12"/>
<feBlend mode="normal" in="SourceGraphic" in2="effect1_dropShadow_2226_12" result="shape"/>
</filter>
<filter id="filter16_d_2226_12" x="315" y="694" width="32" height="32" filterUnits="userSpaceOnUse" color-interpolation-filters="sRGB">
<feFlood flood-opacity="0" result="BackgroundImageFix"/>
<feColorMatrix in="SourceAlpha" type="matrix" values="0 0 0 0 0 0 0 0 0 0 0 0 0 0 0 0 0 0 127 0" result="hardAlpha"/>
<feMorphology radius="3" operator="dilate" in="SourceAlpha" result="effect1_dropShadow_2226_12"/>
<feOffset/>
<feGaussianBlur stdDeviation="1.5"/>
<feComposite in2="hardAlpha" operator="out"/>
<feColorMatrix type="matrix" values="0 0 0 0 1 0 0 0 0 1 0 0 0 0 1 0 0 0 0.6 0"/>
<feBlend mode="normal" in2="BackgroundImageFix" result="effect1_dropShadow_2226_12"/>
<feBlend mode="normal" in="SourceGraphic" in2="effect1_dropShadow_2226_12" result="shape"/>
</filter>
<filter id="filter17_d_2226_12" x="395" y="659" width="30" height="30" filterUnits="userSpaceOnUse" color-interpolation-filters="sRGB">
<feFlood flood-opacity="0" result="BackgroundImageFix"/>
<feColorMatrix in="SourceAlpha" type="matrix" values="0 0 0 0 0 0 0 0 0 0 0 0 0 0 0 0 0 0 127 0" result="hardAlpha"/>
<feMorphology radius="3" operator="dilate" in="SourceAlpha" result="effect1_dropShadow_2226_12"/>
<feOffset/>
<feGaussianBlur stdDeviation="1.5"/>
<feComposite in2="hardAlpha" operator="out"/>
<feColorMatrix type="matrix" values="0 0 0 0 1 0 0 0 0 1 0 0 0 0 1 0 0 0 0.6 0"/>
<feBlend mode="normal" in2="BackgroundImageFix" result="effect1_dropShadow_2226_12"/>
<feBlend mode="normal" in="SourceGraphic" in2="effect1_dropShadow_2226_12" result="shape"/>
</filter>
<filter id="filter18_d_2226_12" x="307" y="616" width="30" height="30" filterUnits="userSpaceOnUse" color-interpolation-filters="sRGB">
<feFlood flood-opacity="0" result="BackgroundImageFix"/>
<feColorMatrix in="SourceAlpha" type="matrix" values="0 0 0 0 0 0 0 0 0 0 0 0 0 0 0 0 0 0 127 0" result="hardAlpha"/>
<feMorphology radius="3" operator="dilate" in="SourceAlpha" result="effect1_dropShadow_2226_12"/>
<feOffset/>
<feGaussianBlur stdDeviation="1.5"/>
<feComposite in2="hardAlpha" operator="out"/>
<feColorMatrix type="matrix" values="0 0 0 0 1 0 0 0 0 1 0 0 0 0 1 0 0 0 0.6 0"/>
<feBlend mode="normal" in2="BackgroundImageFix" result="effect1_dropShadow_2226_12"/>
<feBlend mode="normal" in="SourceGraphic" in2="effect1_dropShadow_2226_12" result="shape"/>
</filter>
<filter id="filter19_d_2226_12" x="168" y="614" width="30" height="30" filterUnits="userSpaceOnUse" color-interpolation-filters="sRGB">
<feFlood flood-opacity="0" result="BackgroundImageFix"/>
<feColorMatrix in="SourceAlpha" type="matrix" values="0 0 0 0 0 0 0 0 0 0 0 0 0 0 0 0 0 0 127 0" result="hardAlpha"/>
<feMorphology radius="3" operator="dilate" in="SourceAlpha" result="effect1_dropShadow_2226_12"/>
<feOffset/>
<feGaussianBlur stdDeviation="1.5"/>
<feComposite in2="hardAlpha" operator="out"/>
<feColorMatrix type="matrix" values="0 0 0 0 1 0 0 0 0 1 0 0 0 0 1 0 0 0 0.6 0"/>
<feBlend mode="normal" in2="BackgroundImageFix" result="effect1_dropShadow_2226_12"/>
<feBlend mode="normal" in="SourceGraphic" in2="effect1_dropShadow_2226_12" result="shape"/>
</filter>
<filter id="filter20_d_2226_12" x="691" y="631" width="30" height="30" filterUnits="userSpaceOnUse" color-interpolation-filters="sRGB">
<feFlood flood-opacity="0" result="BackgroundImageFix"/>
<feColorMatrix in="SourceAlpha" type="matrix" values="0 0 0 0 0 0 0 0 0 0 0 0 0 0 0 0 0 0 127 0" result="hardAlpha"/>
<feMorphology radius="3" operator="dilate" in="SourceAlpha" result="effect1_dropShadow_2226_12"/>
<feOffset/>
<feGaussianBlur stdDeviation="1.5"/>
<feComposite in2="hardAlpha" operator="out"/>
<feColorMatrix type="matrix" values="0 0 0 0 1 0 0 0 0 1 0 0 0 0 1 0 0 0 0.6 0"/>
<feBlend mode="normal" in2="BackgroundImageFix" result="effect1_dropShadow_2226_12"/>
<feBlend mode="normal" in="SourceGraphic" in2="effect1_dropShadow_2226_12" result="shape"/>
</filter>
<filter id="filter21_d_2226_12" x="598" y="607" width="28" height="28" filterUnits="userSpaceOnUse" color-interpolation-filters="sRGB">
<feFlood flood-opacity="0" result="BackgroundImageFix"/>
<feColorMatrix in="SourceAlpha" type="matrix" values="0 0 0 0 0 0 0 0 0 0 0 0 0 0 0 0 0 0 127 0" result="hardAlpha"/>
<feMorphology radius="3" operator="dilate" in="SourceAlpha" result="effect1_dropShadow_2226_12"/>
<feOffset/>
<feGaussianBlur stdDeviation="1.5"/>
<feComposite in2="hardAlpha" operator="out"/>
<feColorMatrix type="matrix" values="0 0 0 0 1 0 0 0 0 1 0 0 0 0 1 0 0 0 0.6 0"/>
<feBlend mode="normal" in2="BackgroundImageFix" result="effect1_dropShadow_2226_12"/>
<feBlend mode="normal" in="SourceGraphic" in2="effect1_dropShadow_2226_12" result="shape"/>
</filter>
<filter id="filter22_d_2226_12" x="792" y="613" width="30" height="30" filterUnits="userSpaceOnUse" color-interpolation-filters="sRGB">
<feFlood flood-opacity="0" result="BackgroundImageFix"/>
<feColorMatrix in="SourceAlpha" type="matrix" values="0 0 0 0 0 0 0 0 0 0 0 0 0 0 0 0 0 0 127 0" result="hardAlpha"/>
<feMorphology radius="3" operator="dilate" in="SourceAlpha" result="effect1_dropShadow_2226_12"/>
<feOffset/>
<feGaussianBlur stdDeviation="1.5"/>
<feComposite in2="hardAlpha" operator="out"/>
<feColorMatrix type="matrix" values="0 0 0 0 1 0 0 0 0 1 0 0 0 0 1 0 0 0 0.6 0"/>
<feBlend mode="normal" in2="BackgroundImageFix" result="effect1_dropShadow_2226_12"/>
<feBlend mode="normal" in="SourceGraphic" in2="effect1_dropShadow_2226_12" result="shape"/>
</filter>
<filter id="filter23_d_2226_12" x="655" y="534" width="26" height="26" filterUnits="userSpaceOnUse" color-interpolation-filters="sRGB">
<feFlood flood-opacity="0" result="BackgroundImageFix"/>
<feColorMatrix in="SourceAlpha" type="matrix" values="0 0 0 0 0 0 0 0 0 0 0 0 0 0 0 0 0 0 127 0" result="hardAlpha"/>
<feMorphology radius="3" operator="dilate" in="SourceAlpha" result="effect1_dropShadow_2226_12"/>
<feOffset/>
<feGaussianBlur stdDeviation="1.5"/>
<feComposite in2="hardAlpha" operator="out"/>
<feColorMatrix type="matrix" values="0 0 0 0 1 0 0 0 0 1 0 0 0 0 1 0 0 0 0.6 0"/>
<feBlend mode="normal" in2="BackgroundImageFix" result="effect1_dropShadow_2226_12"/>
<feBlend mode="normal" in="SourceGraphic" in2="effect1_dropShadow_2226_12" result="shape"/>
</filter>
<filter id="filter24_d_2226_12" x="752" y="575" width="26" height="26" filterUnits="userSpaceOnUse" color-interpolation-filters="sRGB">
<feFlood flood-opacity="0" result="BackgroundImageFix"/>
<feColorMatrix in="SourceAlpha" type="matrix" values="0 0 0 0 0 0 0 0 0 0 0 0 0 0 0 0 0 0 127 0" result="hardAlpha"/>
<feMorphology radius="3" operator="dilate" in="SourceAlpha" result="effect1_dropShadow_2226_12"/>
<feOffset/>
<feGaussianBlur stdDeviation="1.5"/>
<feComposite in2="hardAlpha" operator="out"/>
<feColorMatrix type="matrix" values="0 0 0 0 1 0 0 0 0 1 0 0 0 0 1 0 0 0 0.6 0"/>
<feBlend mode="normal" in2="BackgroundImageFix" result="effect1_dropShadow_2226_12"/>
<feBlend mode="normal" in="SourceGraphic" in2="effect1_dropShadow_2226_12" result="shape"/>
</filter>
<filter id="filter25_d_2226_12" x="796" y="534" width="26" height="26" filterUnits="userSpaceOnUse" color-interpolation-filters="sRGB">
<feFlood flood-opacity="0" result="BackgroundImageFix"/>
<feColorMatrix in="SourceAlpha" type="matrix" values="0 0 0 0 0 0 0 0 0 0 0 0 0 0 0 0 0 0 127 0" result="hardAlpha"/>
<feMorphology radius="3" operator="dilate" in="SourceAlpha" result="effect1_dropShadow_2226_12"/>
<feOffset/>
<feGaussianBlur stdDeviation="1.5"/>
<feComposite in2="hardAlpha" operator="out"/>
<feColorMatrix type="matrix" values="0 0 0 0 1 0 0 0 0 1 0 0 0 0 1 0 0 0 0.6 0"/>
<feBlend mode="normal" in2="BackgroundImageFix" result="effect1_dropShadow_2226_12"/>
<feBlend mode="normal" in="SourceGraphic" in2="effect1_dropShadow_2226_12" result="shape"/>
</filter>
<filter id="filter26_d_2226_12" x="190" y="568" width="26" height="26" filterUnits="userSpaceOnUse" color-interpolation-filters="sRGB">
<feFlood flood-opacity="0" result="BackgroundImageFix"/>
<feColorMatrix in="SourceAlpha" type="matrix" values="0 0 0 0 0 0 0 0 0 0 0 0 0 0 0 0 0 0 127 0" result="hardAlpha"/>
<feMorphology radius="3" operator="dilate" in="SourceAlpha" result="effect1_dropShadow_2226_12"/>
<feOffset/>
<feGaussianBlur stdDeviation="1.5"/>
<feComposite in2="hardAlpha" operator="out"/>
<feColorMatrix type="matrix" values="0 0 0 0 1 0 0 0 0 1 0 0 0 0 1 0 0 0 0.6 0"/>
<feBlend mode="normal" in2="BackgroundImageFix" result="effect1_dropShadow_2226_12"/>
<feBlend mode="normal" in="SourceGraphic" in2="effect1_dropShadow_2226_12" result="shape"/>
</filter>
<filter id="filter27_d_2226_12" x="345" y="589" width="28" height="28" filterUnits="userSpaceOnUse" color-interpolation-filters="sRGB">
<feFlood flood-opacity="0" result="BackgroundImageFix"/>
<feColorMatrix in="SourceAlpha" type="matrix" values="0 0 0 0 0 0 0 0 0 0 0 0 0 0 0 0 0 0 127 0" result="hardAlpha"/>
<feMorphology radius="3" operator="dilate" in="SourceAlpha" result="effect1_dropShadow_2226_12"/>
<feOffset/>
<feGaussianBlur stdDeviation="1.5"/>
<feComposite in2="hardAlpha" operator="out"/>
<feColorMatrix type="matrix" values="0 0 0 0 1 0 0 0 0 1 0 0 0 0 1 0 0 0 0.6 0"/>
<feBlend mode="normal" in2="BackgroundImageFix" result="effect1_dropShadow_2226_12"/>
<feBlend mode="normal" in="SourceGraphic" in2="effect1_dropShadow_2226_12" result="shape"/>
</filter>
<filter id="filter28_d_2226_12" x="438" y="582" width="28" height="28" filterUnits="userSpaceOnUse" color-interpolation-filters="sRGB">
<feFlood flood-opacity="0" result="BackgroundImageFix"/>
<feColorMatrix in="SourceAlpha" type="matrix" values="0 0 0 0 0 0 0 0 0 0 0 0 0 0 0 0 0 0 127 0" result="hardAlpha"/>
<feMorphology radius="3" operator="dilate" in="SourceAlpha" result="effect1_dropShadow_2226_12"/>
<feOffset/>
<feGaussianBlur stdDeviation="1.5"/>
<feComposite in2="hardAlpha" operator="out"/>
<feColorMatrix type="matrix" values="0 0 0 0 1 0 0 0 0 1 0 0 0 0 1 0 0 0 0.6 0"/>
<feBlend mode="normal" in2="BackgroundImageFix" result="effect1_dropShadow_2226_12"/>
<feBlend mode="normal" in="SourceGraphic" in2="effect1_dropShadow_2226_12" result="shape"/>
</filter>
<filter id="filter29_d_2226_12" x="522" y="605" width="28" height="28" filterUnits="userSpaceOnUse" color-interpolation-filters="sRGB">
<feFlood flood-opacity="0" result="BackgroundImageFix"/>
<feColorMatrix in="SourceAlpha" type="matrix" values="0 0 0 0 0 0 0 0 0 0 0 0 0 0 0 0 0 0 127 0" result="hardAlpha"/>
<feMorphology radius="3" operator="dilate" in="SourceAlpha" result="effect1_dropShadow_2226_12"/>
<feOffset/>
<feGaussianBlur stdDeviation="1.5"/>
<feComposite in2="hardAlpha" operator="out"/>
<feColorMatrix type="matrix" values="0 0 0 0 1 0 0 0 0 1 0 0 0 0 1 0 0 0 0.6 0"/>
<feBlend mode="normal" in2="BackgroundImageFix" result="effect1_dropShadow_2226_12"/>
<feBlend mode="normal" in="SourceGraphic" in2="effect1_dropShadow_2226_12" result="shape"/>
</filter>
<filter id="filter30_ddd_2226_12" x="358" y="79" width="308" height="304.999" filterUnits="userSpaceOnUse" color-interpolation-filters="sRGB">
<feFlood flood-opacity="0" result="BackgroundImageFix"/>
<feColorMatrix in="SourceAlpha" type="matrix" values="0 0 0 0 0 0 0 0 0 0 0 0 0 0 0 0 0 0 127 0" result="hardAlpha"/>
<feOffset/>
<feGaussianBlur stdDeviation="15"/>
<feComposite in2="hardAlpha" operator="out"/>
<feColorMatrix type="matrix" values="0 0 0 0 0.568627 0 0 0 0 0.560784 0 0 0 0 1 0 0 0 1 0"/>
<feBlend mode="normal" in2="BackgroundImageFix" result="effect1_dropShadow_2226_12"/>
<feColorMatrix in="SourceAlpha" type="matrix" values="0 0 0 0 0 0 0 0 0 0 0 0 0 0 0 0 0 0 127 0" result="hardAlpha"/>
<feOffset dy="4"/>
<feGaussianBlur stdDeviation="3"/>
<feComposite in2="hardAlpha" operator="out"/>
<feColorMatrix type="matrix" values="0 0 0 0 0.113725 0 0 0 0 0.160784 0 0 0 0 0.254902 0 0 0 0.25 0"/>
<feBlend mode="normal" in2="effect1_dropShadow_2226_12" result="effect2_dropShadow_2226_12"/>
<feColorMatrix in="SourceAlpha" type="matrix" values="0 0 0 0 0 0 0 0 0 0 0 0 0 0 0 0 0 0 127 0" result="hardAlpha"/>
<feOffset/>
<feGaussianBlur stdDeviation="30"/>
<feComposite in2="hardAlpha" operator="out"/>
<feColorMatrix type="matrix" values="0 0 0 0 0.568627 0 0 0 0 0.560784 0 0 0 0 1 0 0 0 1 0"/>
<feBlend mode="normal" in2="effect2_dropShadow_2226_12" result="effect3_dropShadow_2226_12"/>
<feBlend mode="normal" in="SourceGraphic" in2="effect3_dropShadow_2226_12" result="shape"/>
</filter>
<filter id="filter31_dd_2226_12" x="321.5" y="40.5" width="383" height="383" filterUnits="userSpaceOnUse" color-interpolation-filters="sRGB">
<feFlood flood-opacity="0" result="BackgroundImageFix"/>
<feColorMatrix in="SourceAlpha" type="matrix" values="0 0 0 0 0 0 0 0 0 0 0 0 0 0 0 0 0 0 127 0" result="hardAlpha"/>
<feOffset/>
<feGaussianBlur stdDeviation="15"/>
<feComposite in2="hardAlpha" operator="out"/>
<feColorMatrix type="matrix" values="0 0 0 0 0.568627 0 0 0 0 0.560784 0 0 0 0 1 0 0 0 1 0"/>
<feBlend mode="normal" in2="BackgroundImageFix" result="effect1_dropShadow_2226_12"/>
<feColorMatrix in="SourceAlpha" type="matrix" values="0 0 0 0 0 0 0 0 0 0 0 0 0 0 0 0 0 0 127 0" result="hardAlpha"/>
<feOffset dy="4"/>
<feGaussianBlur stdDeviation="3"/>
<feComposite in2="hardAlpha" operator="out"/>
<feColorMatrix type="matrix" values="0 0 0 0 0.113725 0 0 0 0 0.160784 0 0 0 0 0.254902 0 0 0 0.25 0"/>
<feBlend mode="normal" in2="effect1_dropShadow_2226_12" result="effect2_dropShadow_2226_12"/>
<feBlend mode="normal" in="SourceGraphic" in2="effect2_dropShadow_2226_12" result="shape"/>
</filter>
</defs>
</svg>
