<svg width="1024" height="1024" viewBox="0 0 1024 1024" fill="none" xmlns="http://www.w3.org/2000/svg">
<g filter="url(#filter0_d_2236_358)">
<path fill-rule="evenodd" clip-rule="evenodd" d="M519.5 361C590.469 361 648 303.469 648 232.5C648 161.531 590.469 104 519.5 104C448.531 104 391 161.531 391 232.5C391 303.469 448.531 361 519.5 361ZM519.5 363C591.573 363 650 304.573 650 232.5C650 160.427 591.573 102 519.5 102C447.427 102 389 160.427 389 232.5C389 304.573 447.427 363 519.5 363Z" fill="#FFDACE" fill-opacity="0.6" shape-rendering="crispEdges"/>
</g>
<g filter="url(#filter1_dd_2236_358)">
<path fill-rule="evenodd" clip-rule="evenodd" d="M516.461 397.963L510.425 390.974C508.882 389.188 509.213 386.462 511.137 385.097L518 380.227V376L518 375.992C483.733 375.641 452.344 363.28 427.841 342.917L425.891 360.04C425.877 360.166 425.909 360.297 425.989 360.409C426.756 361.483 428.365 363.778 429.91 366.246C431.42 368.656 432.992 371.42 433.549 373.369C433.571 373.444 433.586 373.52 433.596 373.595C457.788 388.494 486.117 397.324 516.461 397.963ZM429.067 370.703C428.563 369.792 427.981 368.817 427.368 367.838C425.868 365.444 424.298 363.204 423.547 362.152C423.043 361.445 422.811 360.574 422.911 359.701L424.747 343.575L411.853 357.62C417.291 362.343 423.041 366.716 429.067 370.703ZM409.606 355.632L422.634 341.44L406.034 344.462C405.379 344.582 404.708 344.514 404.089 344.264C403.028 343.835 400.526 342.838 397.865 341.879C396.972 341.557 396.076 341.245 395.219 340.961C399.708 346.144 404.513 351.044 409.606 355.632ZM391.799 336.881C393.685 337.261 396.415 338.167 398.883 339.057C401.595 340.035 404.136 341.047 405.212 341.482C405.303 341.519 405.398 341.529 405.497 341.511L422.649 338.388C394.551 312.674 376.72 275.924 376.021 235H373.773L368.903 241.863C367.538 243.787 364.812 244.118 363.026 242.575L355.021 235.661C355.627 273.997 369.308 309.158 391.799 336.881ZM355.021 230.339L363.026 223.425C364.812 221.882 367.538 222.213 368.903 224.137L373.773 231H376.008C376.43 189.778 394.233 152.721 422.437 126.806L405.497 123.722C405.398 123.704 405.303 123.714 405.212 123.751C404.136 124.186 401.595 125.198 398.883 126.176C396.732 126.951 394.383 127.739 392.566 128.18C369.619 156.046 355.634 191.569 355.021 230.339ZM396.169 123.951C396.728 123.759 397.297 123.559 397.865 123.354C400.526 122.394 403.028 121.398 404.089 120.969C404.708 120.719 405.379 120.651 406.034 120.771L422.634 123.792L409.992 110.021C405.114 114.388 400.498 119.04 396.169 123.951ZM412.246 108.04L424.747 121.658L422.911 105.532C422.811 104.659 423.043 103.788 423.547 103.081C424.298 102.029 425.868 99.7888 427.368 97.3947C427.71 96.8478 428.043 96.3024 428.358 95.7685C422.733 99.5321 417.353 103.632 412.246 108.04ZM433.314 92.5788C432.626 94.454 431.243 96.8589 429.91 98.9871C428.365 101.455 426.756 103.75 425.989 104.824C425.909 104.936 425.877 105.067 425.891 105.192L427.817 122.103C452.323 101.728 483.722 89.3587 518 89.0077V85.273L511.137 80.403C509.213 79.0376 508.882 76.3118 510.425 74.5262L516.021 68.047C485.726 68.764 457.451 77.6466 433.314 92.5788ZM605.367 374.229C581.404 388.744 553.45 397.333 523.539 397.963L529.575 390.974C531.118 389.188 530.787 386.462 528.863 385.097L522 380.227V376L522 375.979C555.837 375.401 586.821 363.111 611.073 342.988L613.015 360.04C613.029 360.166 612.997 360.297 612.917 360.409C612.151 361.483 610.541 363.778 608.996 366.246C607.487 368.656 605.914 371.42 605.357 373.369C605.273 373.661 605.282 373.958 605.367 374.229ZM609.255 371.799C615.668 367.667 621.775 363.102 627.537 358.147L614.159 343.575L615.996 359.701C616.095 360.574 615.863 361.445 615.359 362.152C614.608 363.204 613.038 365.444 611.538 367.838C610.671 369.222 609.867 370.597 609.255 371.799ZM629.794 356.17C635.267 351.287 640.413 346.046 645.195 340.482C643.921 340.869 642.478 341.361 641.041 341.879C638.38 342.838 635.879 343.835 634.818 344.264C634.198 344.514 633.527 344.582 632.872 344.462L616.273 341.44L629.794 356.17ZM648.232 336.843C670.533 309.338 684.164 274.516 684.963 236.539L677.974 242.575C676.188 244.118 673.462 243.787 672.097 241.863L667.227 235H663L662.979 235C662.279 275.931 644.443 312.688 616.336 338.403L633.41 341.511C633.508 341.529 633.603 341.519 633.694 341.482C634.771 341.047 637.312 340.035 640.023 339.057C642.692 338.095 645.667 337.113 647.55 336.799C647.786 336.76 648.018 336.778 648.232 336.843ZM684.963 229.461C684.157 191.156 670.297 156.062 647.653 128.447C647.619 128.444 647.585 128.439 647.55 128.434C645.667 128.12 642.692 127.138 640.023 126.176C637.312 125.198 634.771 124.186 633.694 123.751C633.603 123.714 633.508 123.704 633.41 123.722L616.548 126.792C644.761 152.707 662.57 189.771 662.992 231L663 231H667.227L672.097 224.137C673.462 222.213 676.188 221.882 677.974 223.425L684.963 229.461ZM644.282 124.466C639.647 119.162 634.677 114.158 629.406 109.485L616.273 123.792L632.872 120.771C633.527 120.651 634.198 120.719 634.818 120.969C635.879 121.398 638.38 122.394 641.041 123.354C642.144 123.752 643.251 124.134 644.282 124.466ZM627.143 107.515C621.685 102.851 615.92 98.5368 609.882 94.607C610.376 95.4963 610.942 96.4433 611.538 97.3947C613.038 99.7888 614.608 102.029 615.359 103.081C615.863 103.788 616.095 104.659 615.996 105.532L614.159 121.658L627.143 107.515ZM605.329 91.7481C605.336 91.7868 605.346 91.8255 605.357 91.864C605.914 93.8126 607.487 96.5773 608.996 98.9871C610.541 101.455 612.151 103.75 612.917 104.824C612.997 104.936 613.029 105.067 613.015 105.192L611.097 122.032C586.842 101.897 555.849 89.5996 522 89.0213V85.273L528.863 80.403C530.787 79.0376 531.118 76.3118 529.575 74.5262L523.979 68.047C553.708 68.7506 581.492 77.3176 605.329 91.7481ZM690 233C690 326.888 613.888 403 520 403C426.112 403 350 326.888 350 233C350 139.112 426.112 63 520 63C613.888 63 690 139.112 690 233ZM518 370.992C443.033 370.197 382.347 309.839 381.022 235H390.484L399.064 246.74C402.286 278.316 418.302 307.292 440.678 327.001C441.85 328.033 442.739 328.678 443.665 329.349C444.184 329.726 444.715 330.111 445.315 330.578C462.838 344.226 484.239 353.147 507.686 355.479L518 363.016V370.992ZM657.978 235C656.659 309.506 596.506 369.659 522 370.978V363.016L532.314 355.479C555.761 353.147 577.162 344.226 594.685 330.578C595.285 330.111 595.816 329.726 596.335 329.349C597.261 328.678 598.15 328.033 599.322 327.001C621.509 307.458 637.443 278.805 640.852 247.54L641.115 247.18L650.016 235H657.978ZM522 94.0221C596.839 95.3468 657.197 156.033 657.992 231H650.016L641.115 218.82L640.786 218.37C637.242 187.335 621.369 158.919 599.322 139.499C598.15 138.467 597.261 137.822 596.335 137.151C595.816 136.774 595.285 136.389 594.685 135.922C577.561 122.585 556.735 113.763 533.914 111.191L522 102.484V94.0221ZM518 102.484V94.008C442.699 94.807 381.807 155.699 381.008 231H390.484L399.125 219.176C402.484 187.827 418.44 159.087 440.678 139.499C441.85 138.467 442.739 137.822 443.665 137.15C444.184 136.774 444.715 136.389 445.315 135.922C462.439 122.585 483.265 113.763 506.086 111.191L518 102.484ZM534.528 351.21C554.079 348.828 572.08 341.699 587.381 331H584C581.791 331 580 329.209 580 327V318C580 316.895 580.895 316 582 316C583.105 316 584 316.895 584 318V327H592.776C593.345 326.568 593.791 326.247 594.194 325.957L594.196 325.956L594.198 325.954C594.805 325.518 595.315 325.152 596 324.581V315H587C585.895 315 585 314.105 585 313C585 311.895 585.895 311 587 311H596C598.209 311 600 312.791 600 315V320.957C619.903 302.011 633.983 275.306 636.95 246.4L623.665 234.489L622.004 233L623.665 231.511L636.902 219.643C633.834 190.912 619.798 164.389 600 145.543V151.5C600 153.709 598.209 155.5 596 155.5H587C585.895 155.5 585 154.605 585 153.5C585 152.395 585.895 151.5 587 151.5H596V141.919C595.315 141.348 594.805 140.982 594.198 140.546C593.794 140.255 593.347 139.933 592.776 139.5H584V148.5C584 149.605 583.105 150.5 582 150.5C580.895 150.5 580 149.605 580 148.5V139.5C580 137.291 581.791 135.5 584 135.5H587.381C571.881 124.662 553.611 117.487 533.765 115.2L521.532 129.785L520 131.612L518.468 129.785L506.235 115.2C486.389 117.487 468.119 124.662 452.619 135.5H456C458.209 135.5 460 137.291 460 139.5V148.5C460 149.605 459.105 150.5 458 150.5C456.895 150.5 456 149.605 456 148.5V139.5H447.224C446.653 139.933 446.206 140.255 445.802 140.546C445.195 140.982 444.685 141.348 444 141.919V151.5H453C454.105 151.5 455 152.395 455 153.5C455 154.605 454.105 155.5 453 155.5H444C441.791 155.5 440 153.709 440 151.5V145.543C420.306 164.29 406.313 190.634 403.147 219.19L417.785 231.468L419.612 233L417.785 234.532L403.097 246.851C406.164 275.584 420.201 302.11 440 320.957V315C440 312.791 441.791 311 444 311H453C454.105 311 455 311.895 455 313C455 314.105 454.105 315 453 315H444V324.581C444.685 325.151 445.195 325.518 445.801 325.954L445.802 325.954L445.804 325.956L445.806 325.957L445.809 325.96L445.812 325.962C446.214 326.251 446.658 326.57 447.224 327H456V318C456 316.895 456.895 316 458 316C459.105 316 460 316.895 460 318V327C460 329.209 458.209 331 456 331H452.619C467.92 341.699 485.921 348.828 505.472 351.21L518 336.272V324.5C518 323.395 518.895 322.5 520 322.5C521.105 322.5 522 323.395 522 324.5V336.272L534.528 351.21ZM520 105.977L530.022 113.301C530.028 113.339 530.035 113.377 530.043 113.414L520 125.388L509.957 113.414C509.961 113.398 509.964 113.382 509.967 113.366L509.972 113.337L509.974 113.325L509.978 113.301L520 105.977ZM520 81.7874L513.452 77.1409L520 69.5597L526.548 77.1409L520 81.7874ZM509.906 352.147L520 359.523L530.094 352.147L520 340.112L509.906 352.147ZM513.452 388.359L520 383.713L526.548 388.359L520 395.94L513.452 388.359ZM670.713 233L675.359 226.452L682.94 233L675.359 239.548L670.713 233ZM365.641 226.452L370.287 233L365.641 239.548L358.06 233L365.641 226.452ZM646.523 233L639.189 222.965L627.996 233L639.189 243.035L646.523 233ZM401.353 222.906L393.977 233L401.353 243.094L413.388 233L401.353 222.906Z" fill="#FFDACE"/>
</g>
<g filter="url(#filter2_d_2236_358)">
<path fill-rule="evenodd" clip-rule="evenodd" d="M519.5 409C616.978 409 696 329.978 696 232.5C696 135.022 616.978 56 519.5 56C422.022 56 343 135.022 343 232.5C343 329.978 422.022 409 519.5 409ZM519.5 411C618.083 411 698 331.083 698 232.5C698 133.917 618.083 54 519.5 54C420.917 54 341 133.917 341 232.5C341 331.083 420.917 411 519.5 411Z" fill="#FFDACE" fill-opacity="0.6" shape-rendering="crispEdges"/>
</g>
<g filter="url(#filter3_ddd_2236_358)">
<path fill-rule="evenodd" clip-rule="evenodd" d="M519.5 157.5C520.328 157.5 521 158.172 521 159V173.019C533.499 173.334 545.027 177.57 554.396 184.543C568.718 195.203 578 212.268 578 231.5C578 232.328 577.328 233 576.5 233C575.672 233 575 232.328 575 231.5C575 213.394 566.332 197.314 552.912 187.18L529.848 184.061C529.219 183.976 528.626 183.722 528.13 183.325L519.5 176.421L510.87 183.325C510.374 183.722 509.781 183.976 509.152 184.061L486.088 187.18C472.668 197.314 464 213.394 464 231.5C464 232.328 463.328 233 462.5 233C461.672 233 461 232.328 461 231.5C461 212.268 470.282 195.203 484.604 184.543C493.973 177.57 505.501 173.334 518 173.019V159C518 158.172 518.672 157.5 519.5 157.5ZM514.999 176.18C506.612 176.853 498.753 179.389 491.835 183.376L508.75 181.088C508.84 181.076 508.925 181.039 508.995 180.983L514.999 176.18ZM524.001 176.18C532.388 176.853 540.247 179.389 547.165 183.376L530.25 181.088C530.16 181.076 530.075 181.039 530.005 180.983L524.001 176.18Z" fill="#FFDACE"/>
</g>
<g filter="url(#filter4_ddd_2236_358)">
<path fill-rule="evenodd" clip-rule="evenodd" d="M519.479 309.504L533.155 296.366C533.218 296.305 533.3 296.258 533.396 296.233C534.85 295.85 539.26 294.639 542.142 293.273C549.859 289.616 554.158 285.892 559.641 279.474C562.379 276.268 564.946 271.649 566.803 267.915C567.739 266.033 568.509 264.345 569.045 263.127C569.313 262.517 569.524 262.025 569.667 261.683C569.739 261.513 569.794 261.38 569.832 261.289L569.846 261.254C575.026 252.531 578 242.345 578 231.471C578 230.642 577.328 229.971 576.5 229.971C575.672 229.971 575 230.642 575 231.471C575 241.83 572.158 251.521 567.212 259.814C563.518 266.008 558.649 271.422 552.913 275.75L529.848 278.867C529.219 278.952 528.626 279.206 528.131 279.602L519.5 286.5L510.869 279.602C510.374 279.206 509.781 278.952 509.152 278.867L486.087 275.75C480.326 271.404 475.44 265.961 471.74 259.734C466.823 251.458 464 241.796 464 231.471C464 230.642 463.328 229.971 462.5 229.971C461.672 229.971 461 230.642 461 231.471C461 242.315 463.957 252.474 469.111 261.181L469.132 261.23C469.171 261.322 469.23 261.455 469.305 261.627C469.456 261.97 469.676 262.466 469.956 263.079C470.515 264.304 471.313 266.001 472.269 267.892C474.166 271.644 476.739 276.269 479.339 279.449C482.141 282.877 484.536 285.463 487.246 287.634C489.964 289.812 492.947 291.531 496.889 293.288C499.928 294.642 504.549 295.849 506.087 296.235C506.188 296.261 506.274 296.31 506.34 296.376L519.479 309.504ZM478.778 273.434C480.609 275.208 482.555 276.864 484.605 278.388C493.973 285.355 505.502 289.587 518 289.902V303.785L508.461 294.254C508.003 293.797 507.433 293.48 506.817 293.325C505.252 292.933 500.876 291.78 498.111 290.548C494.328 288.862 491.585 287.266 489.122 285.293C486.65 283.313 484.408 280.911 481.661 277.55C480.698 276.372 479.722 274.953 478.778 273.434ZM521 303.883V289.902C533.498 289.587 545.027 285.355 554.395 278.388C556.531 276.799 558.555 275.069 560.452 273.21C559.459 274.8 558.414 276.291 557.359 277.525C552.084 283.701 548.109 287.126 540.858 290.562C538.263 291.792 534.114 292.941 532.632 293.332C532.053 293.484 531.517 293.78 531.077 294.202L521 303.883ZM514.996 286.741C506.613 286.068 498.757 283.535 491.84 279.555L508.751 281.84C508.84 281.852 508.925 281.888 508.996 281.945L514.996 286.741ZM524.004 286.741C532.387 286.068 540.243 283.535 547.16 279.555L530.249 281.84C530.16 281.852 530.075 281.888 530.004 281.945L524.004 286.741Z" fill="#FFDACE"/>
</g>
<g filter="url(#filter5_ddd_2236_358)">
<path fill-rule="evenodd" clip-rule="evenodd" d="M518 131.53C463.374 132.857 419.5 177.555 419.5 232.5C419.5 288.281 464.719 333.5 520.5 333.5C576.281 333.5 621.5 288.281 621.5 232.5C621.5 177.22 577.089 132.313 522 131.511V145.911L526.956 141.185C527.799 140.382 528.959 139.979 530.131 140.106C576.733 145.168 613 184.731 613 232.78C613 284.259 571.367 326 520 326C468.633 326 427 284.259 427 232.78C427 184.731 463.267 145.168 509.869 140.106C511.041 139.979 512.201 140.382 513.044 141.185L518 145.911V131.53ZM414.5 232.5C414.5 173.958 461.958 126.5 520.5 126.5C579.042 126.5 626.5 173.958 626.5 232.5C626.5 291.042 579.042 338.5 520.5 338.5C461.958 338.5 414.5 291.042 414.5 232.5ZM498.115 146.277C459.547 156.052 431 191.072 431 232.78C431 282.059 470.851 322 520 322C569.149 322 609 282.059 609 232.78C609 191.237 580.678 156.329 542.342 146.394C542.24 146.545 542.12 146.688 541.981 146.819L532.4 155.856C568.237 161.181 596.168 190.72 599.026 227.305C599.133 228.682 598.104 229.885 596.728 229.992C595.351 230.1 594.148 229.071 594.041 227.695C591.232 191.733 562.534 163.034 526.572 160.226C524.657 160.076 522.721 160 520.767 160C518.812 160 516.876 160.076 514.961 160.226C478.999 163.034 450.301 191.733 447.492 227.695C447.385 229.071 446.182 230.1 444.805 229.992C443.429 229.885 442.4 228.682 442.508 227.305C445.358 190.805 473.167 161.318 508.883 155.894L498.616 146.879C498.413 146.7 498.246 146.497 498.115 146.277ZM536.523 145.094C534.281 144.672 532.01 144.334 529.712 144.084L522 151.438V155.009C523.291 155.029 524.574 155.08 525.849 155.162L536.523 145.094ZM518 155.048V151.438L510.288 144.084C508.183 144.313 506.1 144.616 504.042 144.989L515.631 155.165C516.418 155.115 517.207 155.075 518 155.048ZM447.492 239.305C447.385 237.929 446.182 236.9 444.805 237.008C443.429 237.115 442.4 238.318 442.508 239.695C445.667 280.155 479.497 312 520.767 312C562.036 312 595.866 280.155 599.026 239.695C599.133 238.318 598.104 237.115 596.728 237.008C595.351 236.9 594.148 237.929 594.041 239.305C591.083 277.183 559.405 307 520.767 307C482.128 307 450.451 277.183 447.492 239.305ZM482.5 232.5C482.5 212.065 499.065 195.5 519.5 195.5C539.935 195.5 556.5 212.065 556.5 232.5C556.5 252.935 539.935 269.5 519.5 269.5C499.065 269.5 482.5 252.935 482.5 232.5ZM519.5 190.5C496.304 190.5 477.5 209.304 477.5 232.5C477.5 255.696 496.304 274.5 519.5 274.5C542.696 274.5 561.5 255.696 561.5 232.5C561.5 209.304 542.696 190.5 519.5 190.5Z" fill="#FFDACE"/>
</g>
<g filter="url(#filter6_d_2236_358)">
<circle cx="439" cy="521" r="5" fill="#FFE1E4"/>
</g>
<g filter="url(#filter7_d_2236_358)">
<circle cx="444" cy="594" r="5" fill="#FFE1E4"/>
</g>
<g filter="url(#filter8_d_2236_358)">
<circle cx="583" cy="516" r="5" fill="#FFE1E4"/>
</g>
<g filter="url(#filter9_d_2236_358)">
<circle cx="662" cy="539" r="5" fill="#FFE1E4"/>
</g>
<g filter="url(#filter10_d_2236_358)">
<circle cx="723" cy="537" r="5" fill="#FFE1E4"/>
</g>
<g filter="url(#filter11_d_2236_358)">
<circle cx="792" cy="604" r="6" fill="#FFE1E4"/>
</g>
<g filter="url(#filter12_d_2236_358)">
<circle cx="792" cy="563" r="6" fill="#FFE1E4"/>
</g>
<g filter="url(#filter13_d_2236_358)">
<circle cx="618" cy="659" r="7" fill="#FFE1E4"/>
</g>
<g filter="url(#filter14_d_2236_358)">
<circle cx="611" cy="606" r="6" fill="#FFE1E4"/>
</g>
<g filter="url(#filter15_d_2236_358)">
<circle cx="533" cy="629" r="6" fill="#FFE1E4"/>
</g>
<g filter="url(#filter16_d_2236_358)">
<circle cx="390" cy="620" r="6" fill="#FFE1E4"/>
</g>
<g filter="url(#filter17_d_2236_358)">
<circle cx="700" cy="588" r="6" fill="#FFE1E4"/>
</g>
<g filter="url(#filter18_d_2236_358)">
<circle cx="320" cy="627" r="6" fill="#FFE1E4"/>
</g>
<g filter="url(#filter19_d_2236_358)">
<circle cx="247" cy="597" r="5" fill="#FFE1E4"/>
</g>
<g filter="url(#filter20_d_2236_358)">
<circle cx="319" cy="557" r="5" fill="#FFE1E4"/>
</g>
<g filter="url(#filter21_d_2236_358)">
<circle cx="611" cy="769" r="10" fill="#FFE1E4"/>
</g>
<g filter="url(#filter22_d_2236_358)">
<circle cx="423" cy="767" r="10" fill="#FFE1E4"/>
</g>
<g filter="url(#filter23_d_2236_358)">
<circle cx="479" cy="738" r="9" fill="#FFE1E4"/>
</g>
<g filter="url(#filter24_d_2236_358)">
<circle cx="326" cy="728" r="9" fill="#FFE1E4"/>
</g>
<g filter="url(#filter25_d_2236_358)">
<circle cx="233" cy="671" r="9" fill="#FFE1E4"/>
</g>
<g filter="url(#filter26_d_2236_358)">
<circle cx="739" cy="733" r="9" fill="#FFE1E4"/>
</g>
<g filter="url(#filter27_d_2236_358)">
<circle cx="686" cy="697" r="8" fill="#FFE1E4"/>
</g>
<g filter="url(#filter28_d_2236_358)">
<circle cx="803" cy="675" r="9" fill="#FFE1E4"/>
</g>
<g filter="url(#filter29_d_2236_358)">
<circle cx="361" cy="673" r="7" fill="#FFE1E4"/>
</g>
<g filter="url(#filter30_d_2236_358)">
<circle cx="697" cy="642" r="7" fill="#FFE1E4"/>
</g>
<g filter="url(#filter31_d_2236_358)">
<circle cx="839" cy="599" r="7" fill="#FFE1E4"/>
</g>
<g filter="url(#filter32_d_2236_358)">
<circle cx="212" cy="571" r="7" fill="#FFE1E4"/>
</g>
<g filter="url(#filter33_d_2236_358)">
<circle cx="423" cy="711" r="8" fill="#FFE1E4"/>
</g>
<g filter="url(#filter34_d_2236_358)">
<circle cx="502" cy="671" r="8" fill="#FFE1E4"/>
</g>
<g filter="url(#filter35_d_2236_358)">
<circle cx="600" cy="712" r="8" fill="#FFE1E4"/>
</g>
<defs>
<filter id="filter0_d_2236_358" x="359" y="72" width="321" height="321" filterUnits="userSpaceOnUse" color-interpolation-filters="sRGB">
<feFlood flood-opacity="0" result="BackgroundImageFix"/>
<feColorMatrix in="SourceAlpha" type="matrix" values="0 0 0 0 0 0 0 0 0 0 0 0 0 0 0 0 0 0 127 0" result="hardAlpha"/>
<feOffset/>
<feGaussianBlur stdDeviation="15"/>
<feComposite in2="hardAlpha" operator="out"/>
<feColorMatrix type="matrix" values="0 0 0 0 1 0 0 0 0 0.603922 0 0 0 0 0.611765 0 0 0 1 0"/>
<feBlend mode="normal" in2="BackgroundImageFix" result="effect1_dropShadow_2236_358"/>
<feBlend mode="normal" in="SourceGraphic" in2="effect1_dropShadow_2236_358" result="shape"/>
</filter>
<filter id="filter1_dd_2236_358" x="320" y="33" width="400" height="400" filterUnits="userSpaceOnUse" color-interpolation-filters="sRGB">
<feFlood flood-opacity="0" result="BackgroundImageFix"/>
<feColorMatrix in="SourceAlpha" type="matrix" values="0 0 0 0 0 0 0 0 0 0 0 0 0 0 0 0 0 0 127 0" result="hardAlpha"/>
<feOffset/>
<feGaussianBlur stdDeviation="15"/>
<feComposite in2="hardAlpha" operator="out"/>
<feColorMatrix type="matrix" values="0 0 0 0 1 0 0 0 0 0.603922 0 0 0 0 0.611765 0 0 0 1 0"/>
<feBlend mode="normal" in2="BackgroundImageFix" result="effect1_dropShadow_2236_358"/>
<feColorMatrix in="SourceAlpha" type="matrix" values="0 0 0 0 0 0 0 0 0 0 0 0 0 0 0 0 0 0 127 0" result="hardAlpha"/>
<feOffset dy="4"/>
<feGaussianBlur stdDeviation="3"/>
<feComposite in2="hardAlpha" operator="out"/>
<feColorMatrix type="matrix" values="0 0 0 0 0.133333 0 0 0 0 0.160784 0 0 0 0 0.243137 0 0 0 0.25 0"/>
<feBlend mode="normal" in2="effect1_dropShadow_2236_358" result="effect2_dropShadow_2236_358"/>
<feBlend mode="normal" in="SourceGraphic" in2="effect2_dropShadow_2236_358" result="shape"/>
</filter>
<filter id="filter2_d_2236_358" x="311" y="24" width="417" height="417" filterUnits="userSpaceOnUse" color-interpolation-filters="sRGB">
<feFlood flood-opacity="0" result="BackgroundImageFix"/>
<feColorMatrix in="SourceAlpha" type="matrix" values="0 0 0 0 0 0 0 0 0 0 0 0 0 0 0 0 0 0 127 0" result="hardAlpha"/>
<feOffset/>
<feGaussianBlur stdDeviation="15"/>
<feComposite in2="hardAlpha" operator="out"/>
<feColorMatrix type="matrix" values="0 0 0 0 1 0 0 0 0 0.603922 0 0 0 0 0.611765 0 0 0 1 0"/>
<feBlend mode="normal" in2="BackgroundImageFix" result="effect1_dropShadow_2236_358"/>
<feBlend mode="normal" in="SourceGraphic" in2="effect1_dropShadow_2236_358" result="shape"/>
</filter>
<filter id="filter3_ddd_2236_358" x="401" y="97.5" width="237" height="195.5" filterUnits="userSpaceOnUse" color-interpolation-filters="sRGB">
<feFlood flood-opacity="0" result="BackgroundImageFix"/>
<feColorMatrix in="SourceAlpha" type="matrix" values="0 0 0 0 0 0 0 0 0 0 0 0 0 0 0 0 0 0 127 0" result="hardAlpha"/>
<feOffset/>
<feGaussianBlur stdDeviation="15"/>
<feComposite in2="hardAlpha" operator="out"/>
<feColorMatrix type="matrix" values="0 0 0 0 0.99847 0 0 0 0 0.605322 0 0 0 0 0.611875 0 0 0 1 0"/>
<feBlend mode="normal" in2="BackgroundImageFix" result="effect1_dropShadow_2236_358"/>
<feColorMatrix in="SourceAlpha" type="matrix" values="0 0 0 0 0 0 0 0 0 0 0 0 0 0 0 0 0 0 127 0" result="hardAlpha"/>
<feOffset dy="4"/>
<feGaussianBlur stdDeviation="2"/>
<feComposite in2="hardAlpha" operator="out"/>
<feColorMatrix type="matrix" values="0 0 0 0 0.113725 0 0 0 0 0.160784 0 0 0 0 0.254902 0 0 0 0.25 0"/>
<feBlend mode="normal" in2="effect1_dropShadow_2236_358" result="effect2_dropShadow_2236_358"/>
<feColorMatrix in="SourceAlpha" type="matrix" values="0 0 0 0 0 0 0 0 0 0 0 0 0 0 0 0 0 0 127 0" result="hardAlpha"/>
<feOffset/>
<feGaussianBlur stdDeviation="30"/>
<feComposite in2="hardAlpha" operator="out"/>
<feColorMatrix type="matrix" values="0 0 0 0 1 0 0 0 0 0.218376 0 0 0 0 0.46589 0 0 0 1 0"/>
<feBlend mode="normal" in2="effect2_dropShadow_2236_358" result="effect3_dropShadow_2236_358"/>
<feBlend mode="normal" in="SourceGraphic" in2="effect3_dropShadow_2236_358" result="shape"/>
</filter>
<filter id="filter4_ddd_2236_358" x="401" y="169.971" width="237" height="199.533" filterUnits="userSpaceOnUse" color-interpolation-filters="sRGB">
<feFlood flood-opacity="0" result="BackgroundImageFix"/>
<feColorMatrix in="SourceAlpha" type="matrix" values="0 0 0 0 0 0 0 0 0 0 0 0 0 0 0 0 0 0 127 0" result="hardAlpha"/>
<feOffset/>
<feGaussianBlur stdDeviation="15"/>
<feComposite in2="hardAlpha" operator="out"/>
<feColorMatrix type="matrix" values="0 0 0 0 0.99847 0 0 0 0 0.605322 0 0 0 0 0.611875 0 0 0 1 0"/>
<feBlend mode="normal" in2="BackgroundImageFix" result="effect1_dropShadow_2236_358"/>
<feColorMatrix in="SourceAlpha" type="matrix" values="0 0 0 0 0 0 0 0 0 0 0 0 0 0 0 0 0 0 127 0" result="hardAlpha"/>
<feOffset dy="4"/>
<feGaussianBlur stdDeviation="2"/>
<feComposite in2="hardAlpha" operator="out"/>
<feColorMatrix type="matrix" values="0 0 0 0 0.113725 0 0 0 0 0.160784 0 0 0 0 0.254902 0 0 0 0.25 0"/>
<feBlend mode="normal" in2="effect1_dropShadow_2236_358" result="effect2_dropShadow_2236_358"/>
<feColorMatrix in="SourceAlpha" type="matrix" values="0 0 0 0 0 0 0 0 0 0 0 0 0 0 0 0 0 0 127 0" result="hardAlpha"/>
<feOffset/>
<feGaussianBlur stdDeviation="30"/>
<feComposite in2="hardAlpha" operator="out"/>
<feColorMatrix type="matrix" values="0 0 0 0 1 0 0 0 0 0.218376 0 0 0 0 0.46589 0 0 0 1 0"/>
<feBlend mode="normal" in2="effect2_dropShadow_2236_358" result="effect3_dropShadow_2236_358"/>
<feBlend mode="normal" in="SourceGraphic" in2="effect3_dropShadow_2236_358" result="shape"/>
</filter>
<filter id="filter5_ddd_2236_358" x="354.5" y="66.5" width="332" height="332" filterUnits="userSpaceOnUse" color-interpolation-filters="sRGB">
<feFlood flood-opacity="0" result="BackgroundImageFix"/>
<feColorMatrix in="SourceAlpha" type="matrix" values="0 0 0 0 0 0 0 0 0 0 0 0 0 0 0 0 0 0 127 0" result="hardAlpha"/>
<feOffset/>
<feGaussianBlur stdDeviation="15"/>
<feComposite in2="hardAlpha" operator="out"/>
<feColorMatrix type="matrix" values="0 0 0 0 0.99847 0 0 0 0 0.605322 0 0 0 0 0.611875 0 0 0 1 0"/>
<feBlend mode="normal" in2="BackgroundImageFix" result="effect1_dropShadow_2236_358"/>
<feColorMatrix in="SourceAlpha" type="matrix" values="0 0 0 0 0 0 0 0 0 0 0 0 0 0 0 0 0 0 127 0" result="hardAlpha"/>
<feOffset dy="4"/>
<feGaussianBlur stdDeviation="3"/>
<feComposite in2="hardAlpha" operator="out"/>
<feColorMatrix type="matrix" values="0 0 0 0 0.113725 0 0 0 0 0.160784 0 0 0 0 0.254902 0 0 0 0.25 0"/>
<feBlend mode="normal" in2="effect1_dropShadow_2236_358" result="effect2_dropShadow_2236_358"/>
<feColorMatrix in="SourceAlpha" type="matrix" values="0 0 0 0 0 0 0 0 0 0 0 0 0 0 0 0 0 0 127 0" result="hardAlpha"/>
<feOffset/>
<feGaussianBlur stdDeviation="30"/>
<feComposite in2="hardAlpha" operator="out"/>
<feColorMatrix type="matrix" values="0 0 0 0 1 0 0 0 0 0.365674 0 0 0 0 0.378235 0 0 0 1 0"/>
<feBlend mode="normal" in2="effect2_dropShadow_2236_358" result="effect3_dropShadow_2236_358"/>
<feBlend mode="normal" in="SourceGraphic" in2="effect3_dropShadow_2236_358" result="shape"/>
</filter>
<filter id="filter6_d_2236_358" x="428" y="510" width="22" height="22" filterUnits="userSpaceOnUse" color-interpolation-filters="sRGB">
<feFlood flood-opacity="0" result="BackgroundImageFix"/>
<feColorMatrix in="SourceAlpha" type="matrix" values="0 0 0 0 0 0 0 0 0 0 0 0 0 0 0 0 0 0 127 0" result="hardAlpha"/>
<feMorphology radius="3" operator="dilate" in="SourceAlpha" result="effect1_dropShadow_2236_358"/>
<feOffset/>
<feGaussianBlur stdDeviation="1.5"/>
<feComposite in2="hardAlpha" operator="out"/>
<feColorMatrix type="matrix" values="0 0 0 0 1 0 0 0 0 1 0 0 0 0 1 0 0 0 0.6 0"/>
<feBlend mode="normal" in2="BackgroundImageFix" result="effect1_dropShadow_2236_358"/>
<feBlend mode="normal" in="SourceGraphic" in2="effect1_dropShadow_2236_358" result="shape"/>
</filter>
<filter id="filter7_d_2236_358" x="433" y="583" width="22" height="22" filterUnits="userSpaceOnUse" color-interpolation-filters="sRGB">
<feFlood flood-opacity="0" result="BackgroundImageFix"/>
<feColorMatrix in="SourceAlpha" type="matrix" values="0 0 0 0 0 0 0 0 0 0 0 0 0 0 0 0 0 0 127 0" result="hardAlpha"/>
<feMorphology radius="3" operator="dilate" in="SourceAlpha" result="effect1_dropShadow_2236_358"/>
<feOffset/>
<feGaussianBlur stdDeviation="1.5"/>
<feComposite in2="hardAlpha" operator="out"/>
<feColorMatrix type="matrix" values="0 0 0 0 1 0 0 0 0 1 0 0 0 0 1 0 0 0 0.6 0"/>
<feBlend mode="normal" in2="BackgroundImageFix" result="effect1_dropShadow_2236_358"/>
<feBlend mode="normal" in="SourceGraphic" in2="effect1_dropShadow_2236_358" result="shape"/>
</filter>
<filter id="filter8_d_2236_358" x="572" y="505" width="22" height="22" filterUnits="userSpaceOnUse" color-interpolation-filters="sRGB">
<feFlood flood-opacity="0" result="BackgroundImageFix"/>
<feColorMatrix in="SourceAlpha" type="matrix" values="0 0 0 0 0 0 0 0 0 0 0 0 0 0 0 0 0 0 127 0" result="hardAlpha"/>
<feMorphology radius="3" operator="dilate" in="SourceAlpha" result="effect1_dropShadow_2236_358"/>
<feOffset/>
<feGaussianBlur stdDeviation="1.5"/>
<feComposite in2="hardAlpha" operator="out"/>
<feColorMatrix type="matrix" values="0 0 0 0 1 0 0 0 0 1 0 0 0 0 1 0 0 0 0.6 0"/>
<feBlend mode="normal" in2="BackgroundImageFix" result="effect1_dropShadow_2236_358"/>
<feBlend mode="normal" in="SourceGraphic" in2="effect1_dropShadow_2236_358" result="shape"/>
</filter>
<filter id="filter9_d_2236_358" x="651" y="528" width="22" height="22" filterUnits="userSpaceOnUse" color-interpolation-filters="sRGB">
<feFlood flood-opacity="0" result="BackgroundImageFix"/>
<feColorMatrix in="SourceAlpha" type="matrix" values="0 0 0 0 0 0 0 0 0 0 0 0 0 0 0 0 0 0 127 0" result="hardAlpha"/>
<feMorphology radius="3" operator="dilate" in="SourceAlpha" result="effect1_dropShadow_2236_358"/>
<feOffset/>
<feGaussianBlur stdDeviation="1.5"/>
<feComposite in2="hardAlpha" operator="out"/>
<feColorMatrix type="matrix" values="0 0 0 0 1 0 0 0 0 1 0 0 0 0 1 0 0 0 0.6 0"/>
<feBlend mode="normal" in2="BackgroundImageFix" result="effect1_dropShadow_2236_358"/>
<feBlend mode="normal" in="SourceGraphic" in2="effect1_dropShadow_2236_358" result="shape"/>
</filter>
<filter id="filter10_d_2236_358" x="712" y="526" width="22" height="22" filterUnits="userSpaceOnUse" color-interpolation-filters="sRGB">
<feFlood flood-opacity="0" result="BackgroundImageFix"/>
<feColorMatrix in="SourceAlpha" type="matrix" values="0 0 0 0 0 0 0 0 0 0 0 0 0 0 0 0 0 0 127 0" result="hardAlpha"/>
<feMorphology radius="3" operator="dilate" in="SourceAlpha" result="effect1_dropShadow_2236_358"/>
<feOffset/>
<feGaussianBlur stdDeviation="1.5"/>
<feComposite in2="hardAlpha" operator="out"/>
<feColorMatrix type="matrix" values="0 0 0 0 1 0 0 0 0 1 0 0 0 0 1 0 0 0 0.6 0"/>
<feBlend mode="normal" in2="BackgroundImageFix" result="effect1_dropShadow_2236_358"/>
<feBlend mode="normal" in="SourceGraphic" in2="effect1_dropShadow_2236_358" result="shape"/>
</filter>
<filter id="filter11_d_2236_358" x="780" y="592" width="24" height="24" filterUnits="userSpaceOnUse" color-interpolation-filters="sRGB">
<feFlood flood-opacity="0" result="BackgroundImageFix"/>
<feColorMatrix in="SourceAlpha" type="matrix" values="0 0 0 0 0 0 0 0 0 0 0 0 0 0 0 0 0 0 127 0" result="hardAlpha"/>
<feMorphology radius="3" operator="dilate" in="SourceAlpha" result="effect1_dropShadow_2236_358"/>
<feOffset/>
<feGaussianBlur stdDeviation="1.5"/>
<feComposite in2="hardAlpha" operator="out"/>
<feColorMatrix type="matrix" values="0 0 0 0 1 0 0 0 0 1 0 0 0 0 1 0 0 0 0.6 0"/>
<feBlend mode="normal" in2="BackgroundImageFix" result="effect1_dropShadow_2236_358"/>
<feBlend mode="normal" in="SourceGraphic" in2="effect1_dropShadow_2236_358" result="shape"/>
</filter>
<filter id="filter12_d_2236_358" x="780" y="551" width="24" height="24" filterUnits="userSpaceOnUse" color-interpolation-filters="sRGB">
<feFlood flood-opacity="0" result="BackgroundImageFix"/>
<feColorMatrix in="SourceAlpha" type="matrix" values="0 0 0 0 0 0 0 0 0 0 0 0 0 0 0 0 0 0 127 0" result="hardAlpha"/>
<feMorphology radius="3" operator="dilate" in="SourceAlpha" result="effect1_dropShadow_2236_358"/>
<feOffset/>
<feGaussianBlur stdDeviation="1.5"/>
<feComposite in2="hardAlpha" operator="out"/>
<feColorMatrix type="matrix" values="0 0 0 0 1 0 0 0 0 1 0 0 0 0 1 0 0 0 0.6 0"/>
<feBlend mode="normal" in2="BackgroundImageFix" result="effect1_dropShadow_2236_358"/>
<feBlend mode="normal" in="SourceGraphic" in2="effect1_dropShadow_2236_358" result="shape"/>
</filter>
<filter id="filter13_d_2236_358" x="605" y="646" width="26" height="26" filterUnits="userSpaceOnUse" color-interpolation-filters="sRGB">
<feFlood flood-opacity="0" result="BackgroundImageFix"/>
<feColorMatrix in="SourceAlpha" type="matrix" values="0 0 0 0 0 0 0 0 0 0 0 0 0 0 0 0 0 0 127 0" result="hardAlpha"/>
<feMorphology radius="3" operator="dilate" in="SourceAlpha" result="effect1_dropShadow_2236_358"/>
<feOffset/>
<feGaussianBlur stdDeviation="1.5"/>
<feComposite in2="hardAlpha" operator="out"/>
<feColorMatrix type="matrix" values="0 0 0 0 1 0 0 0 0 1 0 0 0 0 1 0 0 0 0.6 0"/>
<feBlend mode="normal" in2="BackgroundImageFix" result="effect1_dropShadow_2236_358"/>
<feBlend mode="normal" in="SourceGraphic" in2="effect1_dropShadow_2236_358" result="shape"/>
</filter>
<filter id="filter14_d_2236_358" x="599" y="594" width="24" height="24" filterUnits="userSpaceOnUse" color-interpolation-filters="sRGB">
<feFlood flood-opacity="0" result="BackgroundImageFix"/>
<feColorMatrix in="SourceAlpha" type="matrix" values="0 0 0 0 0 0 0 0 0 0 0 0 0 0 0 0 0 0 127 0" result="hardAlpha"/>
<feMorphology radius="3" operator="dilate" in="SourceAlpha" result="effect1_dropShadow_2236_358"/>
<feOffset/>
<feGaussianBlur stdDeviation="1.5"/>
<feComposite in2="hardAlpha" operator="out"/>
<feColorMatrix type="matrix" values="0 0 0 0 1 0 0 0 0 1 0 0 0 0 1 0 0 0 0.6 0"/>
<feBlend mode="normal" in2="BackgroundImageFix" result="effect1_dropShadow_2236_358"/>
<feBlend mode="normal" in="SourceGraphic" in2="effect1_dropShadow_2236_358" result="shape"/>
</filter>
<filter id="filter15_d_2236_358" x="521" y="617" width="24" height="24" filterUnits="userSpaceOnUse" color-interpolation-filters="sRGB">
<feFlood flood-opacity="0" result="BackgroundImageFix"/>
<feColorMatrix in="SourceAlpha" type="matrix" values="0 0 0 0 0 0 0 0 0 0 0 0 0 0 0 0 0 0 127 0" result="hardAlpha"/>
<feMorphology radius="3" operator="dilate" in="SourceAlpha" result="effect1_dropShadow_2236_358"/>
<feOffset/>
<feGaussianBlur stdDeviation="1.5"/>
<feComposite in2="hardAlpha" operator="out"/>
<feColorMatrix type="matrix" values="0 0 0 0 1 0 0 0 0 1 0 0 0 0 1 0 0 0 0.6 0"/>
<feBlend mode="normal" in2="BackgroundImageFix" result="effect1_dropShadow_2236_358"/>
<feBlend mode="normal" in="SourceGraphic" in2="effect1_dropShadow_2236_358" result="shape"/>
</filter>
<filter id="filter16_d_2236_358" x="378" y="608" width="24" height="24" filterUnits="userSpaceOnUse" color-interpolation-filters="sRGB">
<feFlood flood-opacity="0" result="BackgroundImageFix"/>
<feColorMatrix in="SourceAlpha" type="matrix" values="0 0 0 0 0 0 0 0 0 0 0 0 0 0 0 0 0 0 127 0" result="hardAlpha"/>
<feMorphology radius="3" operator="dilate" in="SourceAlpha" result="effect1_dropShadow_2236_358"/>
<feOffset/>
<feGaussianBlur stdDeviation="1.5"/>
<feComposite in2="hardAlpha" operator="out"/>
<feColorMatrix type="matrix" values="0 0 0 0 1 0 0 0 0 1 0 0 0 0 1 0 0 0 0.6 0"/>
<feBlend mode="normal" in2="BackgroundImageFix" result="effect1_dropShadow_2236_358"/>
<feBlend mode="normal" in="SourceGraphic" in2="effect1_dropShadow_2236_358" result="shape"/>
</filter>
<filter id="filter17_d_2236_358" x="688" y="576" width="24" height="24" filterUnits="userSpaceOnUse" color-interpolation-filters="sRGB">
<feFlood flood-opacity="0" result="BackgroundImageFix"/>
<feColorMatrix in="SourceAlpha" type="matrix" values="0 0 0 0 0 0 0 0 0 0 0 0 0 0 0 0 0 0 127 0" result="hardAlpha"/>
<feMorphology radius="3" operator="dilate" in="SourceAlpha" result="effect1_dropShadow_2236_358"/>
<feOffset/>
<feGaussianBlur stdDeviation="1.5"/>
<feComposite in2="hardAlpha" operator="out"/>
<feColorMatrix type="matrix" values="0 0 0 0 1 0 0 0 0 1 0 0 0 0 1 0 0 0 0.6 0"/>
<feBlend mode="normal" in2="BackgroundImageFix" result="effect1_dropShadow_2236_358"/>
<feBlend mode="normal" in="SourceGraphic" in2="effect1_dropShadow_2236_358" result="shape"/>
</filter>
<filter id="filter18_d_2236_358" x="308" y="615" width="24" height="24" filterUnits="userSpaceOnUse" color-interpolation-filters="sRGB">
<feFlood flood-opacity="0" result="BackgroundImageFix"/>
<feColorMatrix in="SourceAlpha" type="matrix" values="0 0 0 0 0 0 0 0 0 0 0 0 0 0 0 0 0 0 127 0" result="hardAlpha"/>
<feMorphology radius="3" operator="dilate" in="SourceAlpha" result="effect1_dropShadow_2236_358"/>
<feOffset/>
<feGaussianBlur stdDeviation="1.5"/>
<feComposite in2="hardAlpha" operator="out"/>
<feColorMatrix type="matrix" values="0 0 0 0 1 0 0 0 0 1 0 0 0 0 1 0 0 0 0.6 0"/>
<feBlend mode="normal" in2="BackgroundImageFix" result="effect1_dropShadow_2236_358"/>
<feBlend mode="normal" in="SourceGraphic" in2="effect1_dropShadow_2236_358" result="shape"/>
</filter>
<filter id="filter19_d_2236_358" x="236" y="586" width="22" height="22" filterUnits="userSpaceOnUse" color-interpolation-filters="sRGB">
<feFlood flood-opacity="0" result="BackgroundImageFix"/>
<feColorMatrix in="SourceAlpha" type="matrix" values="0 0 0 0 0 0 0 0 0 0 0 0 0 0 0 0 0 0 127 0" result="hardAlpha"/>
<feMorphology radius="3" operator="dilate" in="SourceAlpha" result="effect1_dropShadow_2236_358"/>
<feOffset/>
<feGaussianBlur stdDeviation="1.5"/>
<feComposite in2="hardAlpha" operator="out"/>
<feColorMatrix type="matrix" values="0 0 0 0 1 0 0 0 0 1 0 0 0 0 1 0 0 0 0.6 0"/>
<feBlend mode="normal" in2="BackgroundImageFix" result="effect1_dropShadow_2236_358"/>
<feBlend mode="normal" in="SourceGraphic" in2="effect1_dropShadow_2236_358" result="shape"/>
</filter>
<filter id="filter20_d_2236_358" x="308" y="546" width="22" height="22" filterUnits="userSpaceOnUse" color-interpolation-filters="sRGB">
<feFlood flood-opacity="0" result="BackgroundImageFix"/>
<feColorMatrix in="SourceAlpha" type="matrix" values="0 0 0 0 0 0 0 0 0 0 0 0 0 0 0 0 0 0 127 0" result="hardAlpha"/>
<feMorphology radius="3" operator="dilate" in="SourceAlpha" result="effect1_dropShadow_2236_358"/>
<feOffset/>
<feGaussianBlur stdDeviation="1.5"/>
<feComposite in2="hardAlpha" operator="out"/>
<feColorMatrix type="matrix" values="0 0 0 0 1 0 0 0 0 1 0 0 0 0 1 0 0 0 0.6 0"/>
<feBlend mode="normal" in2="BackgroundImageFix" result="effect1_dropShadow_2236_358"/>
<feBlend mode="normal" in="SourceGraphic" in2="effect1_dropShadow_2236_358" result="shape"/>
</filter>
<filter id="filter21_d_2236_358" x="595" y="753" width="32" height="32" filterUnits="userSpaceOnUse" color-interpolation-filters="sRGB">
<feFlood flood-opacity="0" result="BackgroundImageFix"/>
<feColorMatrix in="SourceAlpha" type="matrix" values="0 0 0 0 0 0 0 0 0 0 0 0 0 0 0 0 0 0 127 0" result="hardAlpha"/>
<feMorphology radius="3" operator="dilate" in="SourceAlpha" result="effect1_dropShadow_2236_358"/>
<feOffset/>
<feGaussianBlur stdDeviation="1.5"/>
<feComposite in2="hardAlpha" operator="out"/>
<feColorMatrix type="matrix" values="0 0 0 0 1 0 0 0 0 1 0 0 0 0 1 0 0 0 0.6 0"/>
<feBlend mode="normal" in2="BackgroundImageFix" result="effect1_dropShadow_2236_358"/>
<feBlend mode="normal" in="SourceGraphic" in2="effect1_dropShadow_2236_358" result="shape"/>
</filter>
<filter id="filter22_d_2236_358" x="407" y="751" width="32" height="32" filterUnits="userSpaceOnUse" color-interpolation-filters="sRGB">
<feFlood flood-opacity="0" result="BackgroundImageFix"/>
<feColorMatrix in="SourceAlpha" type="matrix" values="0 0 0 0 0 0 0 0 0 0 0 0 0 0 0 0 0 0 127 0" result="hardAlpha"/>
<feMorphology radius="3" operator="dilate" in="SourceAlpha" result="effect1_dropShadow_2236_358"/>
<feOffset/>
<feGaussianBlur stdDeviation="1.5"/>
<feComposite in2="hardAlpha" operator="out"/>
<feColorMatrix type="matrix" values="0 0 0 0 1 0 0 0 0 1 0 0 0 0 1 0 0 0 0.6 0"/>
<feBlend mode="normal" in2="BackgroundImageFix" result="effect1_dropShadow_2236_358"/>
<feBlend mode="normal" in="SourceGraphic" in2="effect1_dropShadow_2236_358" result="shape"/>
</filter>
<filter id="filter23_d_2236_358" x="464" y="723" width="30" height="30" filterUnits="userSpaceOnUse" color-interpolation-filters="sRGB">
<feFlood flood-opacity="0" result="BackgroundImageFix"/>
<feColorMatrix in="SourceAlpha" type="matrix" values="0 0 0 0 0 0 0 0 0 0 0 0 0 0 0 0 0 0 127 0" result="hardAlpha"/>
<feMorphology radius="3" operator="dilate" in="SourceAlpha" result="effect1_dropShadow_2236_358"/>
<feOffset/>
<feGaussianBlur stdDeviation="1.5"/>
<feComposite in2="hardAlpha" operator="out"/>
<feColorMatrix type="matrix" values="0 0 0 0 1 0 0 0 0 1 0 0 0 0 1 0 0 0 0.6 0"/>
<feBlend mode="normal" in2="BackgroundImageFix" result="effect1_dropShadow_2236_358"/>
<feBlend mode="normal" in="SourceGraphic" in2="effect1_dropShadow_2236_358" result="shape"/>
</filter>
<filter id="filter24_d_2236_358" x="311" y="713" width="30" height="30" filterUnits="userSpaceOnUse" color-interpolation-filters="sRGB">
<feFlood flood-opacity="0" result="BackgroundImageFix"/>
<feColorMatrix in="SourceAlpha" type="matrix" values="0 0 0 0 0 0 0 0 0 0 0 0 0 0 0 0 0 0 127 0" result="hardAlpha"/>
<feMorphology radius="3" operator="dilate" in="SourceAlpha" result="effect1_dropShadow_2236_358"/>
<feOffset/>
<feGaussianBlur stdDeviation="1.5"/>
<feComposite in2="hardAlpha" operator="out"/>
<feColorMatrix type="matrix" values="0 0 0 0 1 0 0 0 0 1 0 0 0 0 1 0 0 0 0.6 0"/>
<feBlend mode="normal" in2="BackgroundImageFix" result="effect1_dropShadow_2236_358"/>
<feBlend mode="normal" in="SourceGraphic" in2="effect1_dropShadow_2236_358" result="shape"/>
</filter>
<filter id="filter25_d_2236_358" x="218" y="656" width="30" height="30" filterUnits="userSpaceOnUse" color-interpolation-filters="sRGB">
<feFlood flood-opacity="0" result="BackgroundImageFix"/>
<feColorMatrix in="SourceAlpha" type="matrix" values="0 0 0 0 0 0 0 0 0 0 0 0 0 0 0 0 0 0 127 0" result="hardAlpha"/>
<feMorphology radius="3" operator="dilate" in="SourceAlpha" result="effect1_dropShadow_2236_358"/>
<feOffset/>
<feGaussianBlur stdDeviation="1.5"/>
<feComposite in2="hardAlpha" operator="out"/>
<feColorMatrix type="matrix" values="0 0 0 0 1 0 0 0 0 1 0 0 0 0 1 0 0 0 0.6 0"/>
<feBlend mode="normal" in2="BackgroundImageFix" result="effect1_dropShadow_2236_358"/>
<feBlend mode="normal" in="SourceGraphic" in2="effect1_dropShadow_2236_358" result="shape"/>
</filter>
<filter id="filter26_d_2236_358" x="724" y="718" width="30" height="30" filterUnits="userSpaceOnUse" color-interpolation-filters="sRGB">
<feFlood flood-opacity="0" result="BackgroundImageFix"/>
<feColorMatrix in="SourceAlpha" type="matrix" values="0 0 0 0 0 0 0 0 0 0 0 0 0 0 0 0 0 0 127 0" result="hardAlpha"/>
<feMorphology radius="3" operator="dilate" in="SourceAlpha" result="effect1_dropShadow_2236_358"/>
<feOffset/>
<feGaussianBlur stdDeviation="1.5"/>
<feComposite in2="hardAlpha" operator="out"/>
<feColorMatrix type="matrix" values="0 0 0 0 1 0 0 0 0 1 0 0 0 0 1 0 0 0 0.6 0"/>
<feBlend mode="normal" in2="BackgroundImageFix" result="effect1_dropShadow_2236_358"/>
<feBlend mode="normal" in="SourceGraphic" in2="effect1_dropShadow_2236_358" result="shape"/>
</filter>
<filter id="filter27_d_2236_358" x="672" y="683" width="28" height="28" filterUnits="userSpaceOnUse" color-interpolation-filters="sRGB">
<feFlood flood-opacity="0" result="BackgroundImageFix"/>
<feColorMatrix in="SourceAlpha" type="matrix" values="0 0 0 0 0 0 0 0 0 0 0 0 0 0 0 0 0 0 127 0" result="hardAlpha"/>
<feMorphology radius="3" operator="dilate" in="SourceAlpha" result="effect1_dropShadow_2236_358"/>
<feOffset/>
<feGaussianBlur stdDeviation="1.5"/>
<feComposite in2="hardAlpha" operator="out"/>
<feColorMatrix type="matrix" values="0 0 0 0 1 0 0 0 0 1 0 0 0 0 1 0 0 0 0.6 0"/>
<feBlend mode="normal" in2="BackgroundImageFix" result="effect1_dropShadow_2236_358"/>
<feBlend mode="normal" in="SourceGraphic" in2="effect1_dropShadow_2236_358" result="shape"/>
</filter>
<filter id="filter28_d_2236_358" x="788" y="660" width="30" height="30" filterUnits="userSpaceOnUse" color-interpolation-filters="sRGB">
<feFlood flood-opacity="0" result="BackgroundImageFix"/>
<feColorMatrix in="SourceAlpha" type="matrix" values="0 0 0 0 0 0 0 0 0 0 0 0 0 0 0 0 0 0 127 0" result="hardAlpha"/>
<feMorphology radius="3" operator="dilate" in="SourceAlpha" result="effect1_dropShadow_2236_358"/>
<feOffset/>
<feGaussianBlur stdDeviation="1.5"/>
<feComposite in2="hardAlpha" operator="out"/>
<feColorMatrix type="matrix" values="0 0 0 0 1 0 0 0 0 1 0 0 0 0 1 0 0 0 0.6 0"/>
<feBlend mode="normal" in2="BackgroundImageFix" result="effect1_dropShadow_2236_358"/>
<feBlend mode="normal" in="SourceGraphic" in2="effect1_dropShadow_2236_358" result="shape"/>
</filter>
<filter id="filter29_d_2236_358" x="348" y="660" width="26" height="26" filterUnits="userSpaceOnUse" color-interpolation-filters="sRGB">
<feFlood flood-opacity="0" result="BackgroundImageFix"/>
<feColorMatrix in="SourceAlpha" type="matrix" values="0 0 0 0 0 0 0 0 0 0 0 0 0 0 0 0 0 0 127 0" result="hardAlpha"/>
<feMorphology radius="3" operator="dilate" in="SourceAlpha" result="effect1_dropShadow_2236_358"/>
<feOffset/>
<feGaussianBlur stdDeviation="1.5"/>
<feComposite in2="hardAlpha" operator="out"/>
<feColorMatrix type="matrix" values="0 0 0 0 1 0 0 0 0 1 0 0 0 0 1 0 0 0 0.6 0"/>
<feBlend mode="normal" in2="BackgroundImageFix" result="effect1_dropShadow_2236_358"/>
<feBlend mode="normal" in="SourceGraphic" in2="effect1_dropShadow_2236_358" result="shape"/>
</filter>
<filter id="filter30_d_2236_358" x="684" y="629" width="26" height="26" filterUnits="userSpaceOnUse" color-interpolation-filters="sRGB">
<feFlood flood-opacity="0" result="BackgroundImageFix"/>
<feColorMatrix in="SourceAlpha" type="matrix" values="0 0 0 0 0 0 0 0 0 0 0 0 0 0 0 0 0 0 127 0" result="hardAlpha"/>
<feMorphology radius="3" operator="dilate" in="SourceAlpha" result="effect1_dropShadow_2236_358"/>
<feOffset/>
<feGaussianBlur stdDeviation="1.5"/>
<feComposite in2="hardAlpha" operator="out"/>
<feColorMatrix type="matrix" values="0 0 0 0 1 0 0 0 0 1 0 0 0 0 1 0 0 0 0.6 0"/>
<feBlend mode="normal" in2="BackgroundImageFix" result="effect1_dropShadow_2236_358"/>
<feBlend mode="normal" in="SourceGraphic" in2="effect1_dropShadow_2236_358" result="shape"/>
</filter>
<filter id="filter31_d_2236_358" x="826" y="586" width="26" height="26" filterUnits="userSpaceOnUse" color-interpolation-filters="sRGB">
<feFlood flood-opacity="0" result="BackgroundImageFix"/>
<feColorMatrix in="SourceAlpha" type="matrix" values="0 0 0 0 0 0 0 0 0 0 0 0 0 0 0 0 0 0 127 0" result="hardAlpha"/>
<feMorphology radius="3" operator="dilate" in="SourceAlpha" result="effect1_dropShadow_2236_358"/>
<feOffset/>
<feGaussianBlur stdDeviation="1.5"/>
<feComposite in2="hardAlpha" operator="out"/>
<feColorMatrix type="matrix" values="0 0 0 0 1 0 0 0 0 1 0 0 0 0 1 0 0 0 0.6 0"/>
<feBlend mode="normal" in2="BackgroundImageFix" result="effect1_dropShadow_2236_358"/>
<feBlend mode="normal" in="SourceGraphic" in2="effect1_dropShadow_2236_358" result="shape"/>
</filter>
<filter id="filter32_d_2236_358" x="199" y="558" width="26" height="26" filterUnits="userSpaceOnUse" color-interpolation-filters="sRGB">
<feFlood flood-opacity="0" result="BackgroundImageFix"/>
<feColorMatrix in="SourceAlpha" type="matrix" values="0 0 0 0 0 0 0 0 0 0 0 0 0 0 0 0 0 0 127 0" result="hardAlpha"/>
<feMorphology radius="3" operator="dilate" in="SourceAlpha" result="effect1_dropShadow_2236_358"/>
<feOffset/>
<feGaussianBlur stdDeviation="1.5"/>
<feComposite in2="hardAlpha" operator="out"/>
<feColorMatrix type="matrix" values="0 0 0 0 1 0 0 0 0 1 0 0 0 0 1 0 0 0 0.6 0"/>
<feBlend mode="normal" in2="BackgroundImageFix" result="effect1_dropShadow_2236_358"/>
<feBlend mode="normal" in="SourceGraphic" in2="effect1_dropShadow_2236_358" result="shape"/>
</filter>
<filter id="filter33_d_2236_358" x="409" y="697" width="28" height="28" filterUnits="userSpaceOnUse" color-interpolation-filters="sRGB">
<feFlood flood-opacity="0" result="BackgroundImageFix"/>
<feColorMatrix in="SourceAlpha" type="matrix" values="0 0 0 0 0 0 0 0 0 0 0 0 0 0 0 0 0 0 127 0" result="hardAlpha"/>
<feMorphology radius="3" operator="dilate" in="SourceAlpha" result="effect1_dropShadow_2236_358"/>
<feOffset/>
<feGaussianBlur stdDeviation="1.5"/>
<feComposite in2="hardAlpha" operator="out"/>
<feColorMatrix type="matrix" values="0 0 0 0 1 0 0 0 0 1 0 0 0 0 1 0 0 0 0.6 0"/>
<feBlend mode="normal" in2="BackgroundImageFix" result="effect1_dropShadow_2236_358"/>
<feBlend mode="normal" in="SourceGraphic" in2="effect1_dropShadow_2236_358" result="shape"/>
</filter>
<filter id="filter34_d_2236_358" x="488" y="657" width="28" height="28" filterUnits="userSpaceOnUse" color-interpolation-filters="sRGB">
<feFlood flood-opacity="0" result="BackgroundImageFix"/>
<feColorMatrix in="SourceAlpha" type="matrix" values="0 0 0 0 0 0 0 0 0 0 0 0 0 0 0 0 0 0 127 0" result="hardAlpha"/>
<feMorphology radius="3" operator="dilate" in="SourceAlpha" result="effect1_dropShadow_2236_358"/>
<feOffset/>
<feGaussianBlur stdDeviation="1.5"/>
<feComposite in2="hardAlpha" operator="out"/>
<feColorMatrix type="matrix" values="0 0 0 0 1 0 0 0 0 1 0 0 0 0 1 0 0 0 0.6 0"/>
<feBlend mode="normal" in2="BackgroundImageFix" result="effect1_dropShadow_2236_358"/>
<feBlend mode="normal" in="SourceGraphic" in2="effect1_dropShadow_2236_358" result="shape"/>
</filter>
<filter id="filter35_d_2236_358" x="586" y="698" width="28" height="28" filterUnits="userSpaceOnUse" color-interpolation-filters="sRGB">
<feFlood flood-opacity="0" result="BackgroundImageFix"/>
<feColorMatrix in="SourceAlpha" type="matrix" values="0 0 0 0 0 0 0 0 0 0 0 0 0 0 0 0 0 0 127 0" result="hardAlpha"/>
<feMorphology radius="3" operator="dilate" in="SourceAlpha" result="effect1_dropShadow_2236_358"/>
<feOffset/>
<feGaussianBlur stdDeviation="1.5"/>
<feComposite in2="hardAlpha" operator="out"/>
<feColorMatrix type="matrix" values="0 0 0 0 1 0 0 0 0 1 0 0 0 0 1 0 0 0 0.6 0"/>
<feBlend mode="normal" in2="BackgroundImageFix" result="effect1_dropShadow_2236_358"/>
<feBlend mode="normal" in="SourceGraphic" in2="effect1_dropShadow_2236_358" result="shape"/>
</filter>
</defs>
</svg>
