<svg width="809" height="258" viewBox="0 0 809 258" fill="none" xmlns="http://www.w3.org/2000/svg">
<path style="mix-blend-mode:screen" d="M455.495 173.599C482.83 173.599 504.989 150.608 504.989 122.248C504.989 93.8874 482.83 70.8967 455.495 70.8967C428.159 70.8967 406 93.8874 406 122.248C406 150.608 428.159 173.599 455.495 173.599Z" fill="url(#paint0_radial_2002_286)"/>
<path style="mix-blend-mode:screen" d="M410.5 152.963C630.585 152.963 809 147.614 809 141.016C809 134.419 630.585 129.07 410.5 129.07C190.414 129.07 12 134.419 12 141.016C12 147.614 190.414 152.963 410.5 152.963Z" fill="url(#paint1_radial_2002_286)"/>
<path style="mix-blend-mode:screen" d="M404.49 141.294C627.884 141.294 808.981 140.291 808.981 139.055C808.981 137.818 627.884 136.816 404.49 136.816C181.096 136.816 0 137.818 0 139.055C0 140.291 181.096 141.294 404.49 141.294Z" fill="url(#paint2_radial_2002_286)"/>
<path style="mix-blend-mode:screen" d="M404.49 145.348C627.884 145.348 808.981 144.346 808.981 143.109C808.981 141.873 627.884 140.87 404.49 140.87C181.096 140.87 0 141.873 0 143.109C0 144.346 181.096 145.348 404.49 145.348Z" fill="url(#paint3_radial_2002_286)"/>
<path style="mix-blend-mode:screen" d="M439.767 234.5C442.049 234.14 437.879 192.791 430.453 142.144C423.026 91.4974 415.156 50.7321 412.874 51.0923C410.592 51.4525 414.762 92.8018 422.189 143.448C429.615 194.095 437.485 234.86 439.767 234.5Z" fill="url(#paint4_radial_2002_286)"/>
<path style="mix-blend-mode:screen" d="M426.95 147.084C475.765 139.379 515.057 131.213 514.709 128.846C514.362 126.478 474.508 130.805 425.693 138.509C376.877 146.214 337.586 154.38 337.933 156.747C338.28 159.115 378.135 154.788 426.95 147.084Z" fill="url(#paint5_radial_2002_286)"/>
<path style="mix-blend-mode:screen" d="M426.321 220.297C467.614 220.297 501.088 185.567 501.088 142.726C501.088 99.8841 467.614 65.1542 426.321 65.1542C385.029 65.1542 351.555 99.8841 351.555 142.726C351.555 185.567 385.029 220.297 426.321 220.297Z" fill="url(#paint6_radial_2002_286)"/>
<path style="mix-blend-mode:screen" d="M431.564 143.874C444.333 80.8441 452.376 29.2449 449.529 28.624C446.682 28.0031 434.022 78.5956 421.253 141.625C408.484 204.655 400.441 256.255 403.288 256.876C406.136 257.496 418.795 206.904 431.564 143.874Z" fill="url(#paint7_radial_2002_286)"/>
<path style="mix-blend-mode:screen" d="M536.402 166.738C537.001 163.784 488.238 150.649 427.487 137.401C366.736 124.153 317.002 115.808 316.404 118.762C315.805 121.717 364.569 134.851 425.319 148.099C486.07 161.347 535.804 169.692 536.402 166.738Z" fill="url(#paint8_radial_2002_286)"/>
<path style="mix-blend-mode:screen" d="M412 196.646C465.572 196.646 509 152.626 509 98.3232C509 44.0208 465.572 0 412 0C358.428 0 315 44.0208 315 98.3232C315 152.626 358.428 196.646 412 196.646Z" fill="url(#paint9_radial_2002_286)"/>
<path style="mix-blend-mode:screen" d="M496.023 214.355C498.976 211.291 471.626 177.947 434.935 139.88C398.243 101.812 366.105 73.4356 363.152 76.4996C360.199 79.5637 387.549 112.908 424.24 150.975C460.932 189.043 493.07 217.419 496.023 214.355Z" fill="url(#paint10_radial_2002_286)"/>
<path style="mix-blend-mode:screen" d="M511.536 230.744C512.212 230.043 474.756 190.046 427.877 141.407C380.997 92.7691 342.446 53.9084 341.77 54.6094C341.095 55.3104 378.55 95.3078 425.43 143.946C472.309 192.584 510.861 231.445 511.536 230.744Z" fill="url(#paint11_radial_2002_286)"/>
<path style="mix-blend-mode:screen" d="M434.481 144.482C491.476 104.007 536.171 68.9083 534.309 66.0863C532.447 63.2643 484.734 93.7876 427.739 134.262C370.743 174.737 326.048 209.835 327.91 212.657C329.772 215.479 377.485 184.956 434.481 144.482Z" fill="url(#paint12_radial_2002_286)"/>
<path style="mix-blend-mode:screen" d="M427.623 143.742C500.442 92.0308 559.129 49.5887 558.705 48.9452C558.28 48.3018 498.905 89.7006 426.085 141.412C353.266 193.124 294.578 235.566 295.003 236.209C295.427 236.853 354.803 195.454 427.623 143.742Z" fill="url(#paint13_radial_2002_286)"/>
<path style="mix-blend-mode:screen" d="M361.389 228.465C378.095 228.465 391.638 214.414 391.638 197.082C391.638 179.749 378.095 165.698 361.389 165.698C344.683 165.698 331.141 179.749 331.141 197.082C331.141 214.414 344.683 228.465 361.389 228.465Z" fill="url(#paint14_radial_2002_286)"/>
<path style="mix-blend-mode:screen" d="M381.398 191.697C387.862 191.697 393.101 186.261 393.101 179.555C393.101 172.849 387.862 167.413 381.398 167.413C374.935 167.413 369.695 172.849 369.695 179.555C369.695 186.261 374.935 191.697 381.398 191.697Z" fill="url(#paint15_radial_2002_286)"/>
<path style="mix-blend-mode:screen" d="M516.703 88.9477C523.166 88.9477 528.406 83.5116 528.406 76.8057C528.406 70.0999 523.166 64.6638 516.703 64.6638C510.24 64.6638 505 70.0999 505 76.8057C505 83.5116 510.24 88.9477 516.703 88.9477Z" fill="url(#paint16_radial_2002_286)"/>
<path style="mix-blend-mode:screen" d="M454.742 135.928C461.205 135.928 466.445 130.492 466.445 123.786C466.445 117.081 461.205 111.644 454.742 111.644C448.279 111.644 443.039 117.081 443.039 123.786C443.039 130.492 448.279 135.928 454.742 135.928Z" fill="url(#paint17_radial_2002_286)"/>
<defs>
<radialGradient id="paint0_radial_2002_286" cx="0" cy="0" r="1" gradientUnits="userSpaceOnUse" gradientTransform="translate(455.495 122.248) scale(49.4945 51.3513)">
<stop/>
<stop offset="0.43" stop-color="#020101"/>
<stop offset="0.59" stop-color="#090606"/>
<stop offset="0.7" stop-color="#140D0D"/>
<stop offset="0.76" stop-color="#1F1414"/>
<stop offset="0.81" stop-color="#160E0E"/>
<stop offset="0.92" stop-color="#060404"/>
<stop offset="1"/>
</radialGradient>
<radialGradient id="paint1_radial_2002_286" cx="0" cy="0" r="1" gradientUnits="userSpaceOnUse" gradientTransform="translate(400.606 133.366) rotate(-90) scale(11.9665 398.255)">
<stop offset="0.04" stop-color="#DBD172"/>
<stop offset="0.19" stop-color="#A49F55"/>
<stop offset="0.33" stop-color="#72673C"/>
<stop offset="0.48" stop-color="#492638"/>
<stop offset="0.62" stop-color="#29151F"/>
<stop offset="0.76" stop-color="#120A0E"/>
<stop offset="0.89" stop-color="#050204"/>
<stop offset="1"/>
</radialGradient>
<radialGradient id="paint2_radial_2002_286" cx="0" cy="0" r="1" gradientUnits="userSpaceOnUse" gradientTransform="translate(409.196 248.609) rotate(-90) scale(2.17749 404.535)">
<stop offset="0.09" stop-color="#FFD373"/>
<stop offset="0.15" stop-color="#DFBA65"/>
<stop offset="0.25" stop-color="#A5884A"/>
<stop offset="0.35" stop-color="#724134"/>
<stop offset="0.45" stop-color="#492A21"/>
<stop offset="0.55" stop-color="#291713"/>
<stop offset="0.64" stop-color="#120B08"/>
<stop offset="0.73" stop-color="#050302"/>
<stop offset="0.81"/>
</radialGradient>
<radialGradient id="paint3_radial_2002_286" cx="0" cy="0" r="1" gradientUnits="userSpaceOnUse" gradientTransform="translate(409.196 252.554) rotate(-90) scale(2.17748 404.535)">
<stop offset="0.09" stop-color="#FFE58F"/>
<stop offset="0.15" stop-color="#DFB665"/>
<stop offset="0.25" stop-color="#A58A4A"/>
<stop offset="0.35" stop-color="#724134"/>
<stop offset="0.45" stop-color="#492A21"/>
<stop offset="0.55" stop-color="#291713"/>
<stop offset="0.64" stop-color="#120B08"/>
<stop offset="0.73" stop-color="#050302"/>
<stop offset="0.81"/>
</radialGradient>
<radialGradient id="paint4_radial_2002_286" cx="0" cy="0" r="1" gradientUnits="userSpaceOnUse" gradientTransform="translate(441.848 139.536) rotate(-8.96932) scale(3.98554 92.6491)">
<stop stop-color="#FFB9AB"/>
<stop offset="0.03" stop-color="#E9A99C"/>
<stop offset="0.1" stop-color="#B9867C"/>
<stop offset="0.17" stop-color="#8D665E"/>
<stop offset="0.25" stop-color="#674B45"/>
<stop offset="0.33" stop-color="#47332F"/>
<stop offset="0.42" stop-color="#2D211E"/>
<stop offset="0.52" stop-color="#191211"/>
<stop offset="0.63" stop-color="#0B0807"/>
<stop offset="0.77" stop-color="#020202"/>
<stop offset="1"/>
</radialGradient>
<radialGradient id="paint5_radial_2002_286" cx="0" cy="0" r="1" gradientUnits="userSpaceOnUse" gradientTransform="translate(457.38 344.095) rotate(81.6583) scale(4.12817 89.4481)">
<stop stop-color="#FFF2AB"/>
<stop offset="0.03" stop-color="#E9D89C"/>
<stop offset="0.1" stop-color="#B9A17C"/>
<stop offset="0.17" stop-color="#8D785E"/>
<stop offset="0.25" stop-color="#674B45"/>
<stop offset="0.33" stop-color="#47332F"/>
<stop offset="0.42" stop-color="#2D211E"/>
<stop offset="0.52" stop-color="#191211"/>
<stop offset="0.63" stop-color="#0B0807"/>
<stop offset="0.77" stop-color="#020202"/>
<stop offset="1"/>
</radialGradient>
<radialGradient id="paint6_radial_2002_286" cx="0" cy="0" r="1" gradientUnits="userSpaceOnUse" gradientTransform="translate(426.327 142.814) rotate(-8.96932) scale(74.8313 77.5045)">
<stop offset="0.06" stop-color="#FFB9AB"/>
<stop offset="0.13" stop-color="#D1988C"/>
<stop offset="0.22" stop-color="#A1756C"/>
<stop offset="0.31" stop-color="#76554F"/>
<stop offset="0.4" stop-color="#513B37"/>
<stop offset="0.5" stop-color="#342623"/>
<stop offset="0.6" stop-color="#1D1513"/>
<stop offset="0.71" stop-color="#0D0908"/>
<stop offset="0.84" stop-color="#030202"/>
<stop offset="1"/>
</radialGradient>
<radialGradient id="paint7_radial_2002_286" cx="0" cy="0" r="1" gradientUnits="userSpaceOnUse" gradientTransform="translate(452.94 147.686) rotate(12.302) scale(5.01548 116.416)">
<stop stop-color="#FFB9AB"/>
<stop offset="0.03" stop-color="#E9A99C"/>
<stop offset="0.1" stop-color="#B9867C"/>
<stop offset="0.17" stop-color="#8D665E"/>
<stop offset="0.25" stop-color="#674B45"/>
<stop offset="0.33" stop-color="#47332F"/>
<stop offset="0.42" stop-color="#2D211E"/>
<stop offset="0.52" stop-color="#191211"/>
<stop offset="0.63" stop-color="#0B0807"/>
<stop offset="0.77" stop-color="#020202"/>
<stop offset="1"/>
</radialGradient>
<radialGradient id="paint8_radial_2002_286" cx="0" cy="0" r="1" gradientUnits="userSpaceOnUse" gradientTransform="translate(386.53 347.499) rotate(101.452) scale(5.18741 112.557)">
<stop stop-color="#FFB9AB"/>
<stop offset="0.03" stop-color="#E9A99C"/>
<stop offset="0.1" stop-color="#B9867C"/>
<stop offset="0.17" stop-color="#8D665E"/>
<stop offset="0.25" stop-color="#674B45"/>
<stop offset="0.33" stop-color="#47332F"/>
<stop offset="0.42" stop-color="#2D211E"/>
<stop offset="0.52" stop-color="#191211"/>
<stop offset="0.63" stop-color="#0B0807"/>
<stop offset="0.77" stop-color="#020202"/>
<stop offset="1"/>
</radialGradient>
<radialGradient id="paint9_radial_2002_286" cx="0" cy="0" r="1" gradientUnits="userSpaceOnUse" gradientTransform="translate(413.08 104.571) rotate(12.2548) scale(97.2766 98.4848)">
<stop offset="0.06" stop-color="#FFB9AB"/>
<stop offset="0.13" stop-color="#D1988C"/>
<stop offset="0.22" stop-color="#A1756C"/>
<stop offset="0.31" stop-color="#76554F"/>
<stop offset="0.4" stop-color="#513B37"/>
<stop offset="0.5" stop-color="#342623"/>
<stop offset="0.6" stop-color="#1D1513"/>
<stop offset="0.71" stop-color="#0D0908"/>
<stop offset="0.84" stop-color="#030202"/>
<stop offset="1"/>
</radialGradient>
<radialGradient id="paint10_radial_2002_286" cx="0" cy="0" r="1" gradientUnits="userSpaceOnUse" gradientTransform="translate(332.737 243.909) rotate(-46.0548) scale(7.48472 95.6323)">
<stop stop-color="#C99191"/>
<stop offset="0.11" stop-color="#A47676"/>
<stop offset="0.27" stop-color="#725252"/>
<stop offset="0.43" stop-color="#493535"/>
<stop offset="0.58" stop-color="#291E1E"/>
<stop offset="0.73" stop-color="#120D0D"/>
<stop offset="0.88" stop-color="#050303"/>
<stop offset="1"/>
</radialGradient>
<radialGradient id="paint11_radial_2002_286" cx="0" cy="0" r="1" gradientUnits="userSpaceOnUse" gradientTransform="translate(224.828 361.342) rotate(-46.0548) scale(1.60389 122.345)">
<stop stop-color="#C99191"/>
<stop offset="0.01" stop-color="#FFF75E"/>
<stop offset="0.08" stop-color="#DFD852"/>
<stop offset="0.22" stop-color="#A5A03D"/>
<stop offset="0.37" stop-color="#726F2A"/>
<stop offset="0.51" stop-color="#49471B"/>
<stop offset="0.64" stop-color="#29280F"/>
<stop offset="0.77" stop-color="#121207"/>
<stop offset="0.89" stop-color="#050502"/>
<stop offset="1"/>
</radialGradient>
<radialGradient id="paint12_radial_2002_286" cx="0" cy="0" r="1" gradientUnits="userSpaceOnUse" gradientTransform="translate(488.444 243.864) rotate(-123.413) scale(5.91988 126.315)">
<stop stop-color="#C99191"/>
<stop offset="0.11" stop-color="#A47676"/>
<stop offset="0.27" stop-color="#725252"/>
<stop offset="0.43" stop-color="#493535"/>
<stop offset="0.58" stop-color="#291E1E"/>
<stop offset="0.73" stop-color="#120D0D"/>
<stop offset="0.88" stop-color="#050303"/>
<stop offset="1"/>
</radialGradient>
<radialGradient id="paint13_radial_2002_286" cx="0" cy="0" r="1" gradientUnits="userSpaceOnUse" gradientTransform="translate(196.506 -178.843) rotate(-123.413) scale(1.61451 161.343)">
<stop stop-color="#C99191"/>
<stop offset="0.01" stop-color="#FFF75E"/>
<stop offset="0.08" stop-color="#DFD852"/>
<stop offset="0.22" stop-color="#A5A03D"/>
<stop offset="0.37" stop-color="#726F2A"/>
<stop offset="0.51" stop-color="#49471B"/>
<stop offset="0.64" stop-color="#29280F"/>
<stop offset="0.77" stop-color="#121207"/>
<stop offset="0.89" stop-color="#050502"/>
<stop offset="1"/>
</radialGradient>
<radialGradient id="paint14_radial_2002_286" cx="0" cy="0" r="1" gradientUnits="userSpaceOnUse" gradientTransform="translate(361.389 197.082) scale(30.2488 31.3836)">
<stop offset="0.74" stop-color="#120710"/>
<stop offset="0.82" stop-color="#0B040A"/>
<stop offset="1"/>
</radialGradient>
<radialGradient id="paint15_radial_2002_286" cx="0" cy="0" r="1" gradientUnits="userSpaceOnUse" gradientTransform="translate(381.398 179.555) scale(11.703 12.142)">
<stop offset="0.74" stop-color="#120F07"/>
<stop offset="0.82" stop-color="#0B0904"/>
<stop offset="1"/>
</radialGradient>
<radialGradient id="paint16_radial_2002_286" cx="0" cy="0" r="1" gradientUnits="userSpaceOnUse" gradientTransform="translate(516.703 76.8057) scale(11.703 12.142)">
<stop offset="0.74" stop-color="#120F07"/>
<stop offset="0.82" stop-color="#0B0904"/>
<stop offset="1"/>
</radialGradient>
<radialGradient id="paint17_radial_2002_286" cx="0" cy="0" r="1" gradientUnits="userSpaceOnUse" gradientTransform="translate(454.742 123.786) scale(11.703 12.142)">
<stop offset="0.74" stop-color="#45391B"/>
<stop offset="0.83" stop-color="#292210"/>
<stop offset="0.94" stop-color="#0B0904"/>
<stop offset="1"/>
</radialGradient>
</defs>
</svg>
