<svg width="60" height="60" viewBox="0 0 60 60" fill="none" xmlns="http://www.w3.org/2000/svg">
<g opacity="0.24" clip-path="url(#clip0_1_14)">
<path d="M30 53.75C27.929 53.75 26.25 52.0711 26.25 50C26.25 47.9289 27.929 46.25 30 46.25H42.5C43.1904 46.25 43.75 45.6904 43.75 45L43.75 15C43.75 14.3097 43.1904 13.75 42.5 13.75H31.25C29.179 13.75 27.5 12.071 27.5 10C27.5 7.929 29.179 6.25 31.25 6.25H42.5C47.3325 6.25 51.25 10.1675 51.25 15L51.25 45C51.25 49.8325 47.3325 53.75 42.5 53.75H30ZM14.8485 39.7227L7.7775 32.6518C6.313 31.1873 6.313 28.8127 7.7775 27.3482L14.8485 20.2772C16.313 18.8127 18.6873 18.8127 20.1518 20.2772C21.6163 21.7417 21.6163 24.116 20.1518 25.5805L19.4825 26.25H30C32.071 26.25 33.75 27.929 33.75 30C33.75 32.071 32.071 33.75 30 33.75H19.4825L20.1518 34.4195C21.6163 35.8839 21.6163 38.2582 20.1518 39.7227C18.6873 41.1872 16.313 41.1872 14.8485 39.7227Z" fill="currentColor"/>
</g>
<defs>
<clipPath id="clip0_1_14">
<rect width="60" height="60" fill="currentColor" transform="matrix(-1 0 0 -1 60 60)"/>
</clipPath>
</defs>
</svg>
