<svg width="32" height="32" viewBox="0 0 32 32" fill="none" xmlns="http://www.w3.org/2000/svg">
<path d="M23.476 6.844C23.1437 6.844 22.8189 6.94253 22.5426 7.12713C22.2664 7.31173 22.051 7.57411 21.9239 7.88109C21.7967 8.18807 21.7635 8.52586 21.8283 8.85175C21.8931 9.17764 22.0531 9.47699 22.2881 9.71194C22.523 9.94689 22.8224 10.1069 23.1482 10.1717C23.4741 10.2365 23.8119 10.2033 24.1189 10.0761C24.4259 9.94896 24.6883 9.73363 24.8729 9.45736C25.0575 9.18108 25.156 8.85627 25.156 8.524C25.156 8.07844 24.979 7.65112 24.6639 7.33606C24.3489 7.021 23.9216 6.844 23.476 6.844ZM29.916 10.232C29.8888 9.07042 29.6712 7.92116 29.272 6.83C28.916 5.89639 28.362 5.05099 27.648 4.352C26.9548 3.6344 26.1074 3.08385 25.17 2.742C24.0817 2.33063 22.9312 2.10809 21.768 2.084C20.284 2 19.808 2 16 2C12.192 2 11.716 2 10.232 2.084C9.06881 2.10809 7.91828 2.33063 6.83 2.742C5.89435 3.08731 5.04771 3.63738 4.352 4.352C3.6344 5.04525 3.08385 5.89262 2.742 6.83C2.33063 7.91828 2.10809 9.06881 2.084 10.232C2 11.716 2 12.192 2 16C2 19.808 2 20.284 2.084 21.768C2.10809 22.9312 2.33063 24.0817 2.742 25.17C3.08385 26.1074 3.6344 26.9548 4.352 27.648C5.04771 28.3626 5.89435 28.9127 6.83 29.258C7.91828 29.6694 9.06881 29.8919 10.232 29.916C11.716 30 12.192 30 16 30C19.808 30 20.284 30 21.768 29.916C22.9312 29.8919 24.0817 29.6694 25.17 29.258C26.1074 28.9162 26.9548 28.3656 27.648 27.648C28.3651 26.9516 28.9197 26.1055 29.272 25.17C29.6712 24.0788 29.8888 22.9296 29.916 21.768C29.916 20.284 30 19.808 30 16C30 12.192 30 11.716 29.916 10.232ZM27.396 21.6C27.3858 22.4887 27.2249 23.3692 26.92 24.204C26.6965 24.8133 26.3374 25.3638 25.87 25.814C25.4159 26.2767 24.8665 26.635 24.26 26.864C23.4252 27.1689 22.5447 27.3298 21.656 27.34C20.256 27.41 19.738 27.424 16.056 27.424C12.374 27.424 11.856 27.424 10.456 27.34C9.53325 27.3573 8.61443 27.2152 7.74 26.92C7.16009 26.6793 6.6359 26.3219 6.2 25.87C5.73532 25.4202 5.38078 24.8693 5.164 24.26C4.8222 23.4132 4.63262 22.5127 4.604 21.6C4.604 20.2 4.52 19.682 4.52 16C4.52 12.318 4.52 11.8 4.604 10.4C4.61028 9.49148 4.77613 8.59112 5.094 7.74C5.34047 7.14908 5.71877 6.62232 6.2 6.2C6.62534 5.71864 7.151 5.33633 7.74 5.08C8.59337 4.77206 9.4928 4.61111 10.4 4.604C11.8 4.604 12.318 4.52 16 4.52C19.682 4.52 20.2 4.52 21.6 4.604C22.4887 4.61419 23.3692 4.77514 24.204 5.08C24.8402 5.31611 25.4112 5.69999 25.87 6.2C26.3288 6.63005 26.6873 7.15583 26.92 7.74C27.2312 8.59251 27.3922 9.49249 27.396 10.4C27.466 11.8 27.48 12.318 27.48 16C27.48 19.682 27.466 20.2 27.396 21.6ZM16 8.818C14.5801 8.82077 13.1929 9.24434 12.0137 10.0352C10.8345 10.826 9.91613 11.9487 9.37469 13.2613C8.83324 14.5738 8.69301 16.0175 8.97171 17.4097C9.25041 18.8019 9.93553 20.0803 10.9405 21.0834C11.9455 22.0864 13.2252 22.769 14.618 23.045C16.0108 23.321 17.4541 23.1779 18.7657 22.634C20.0772 22.09 21.198 21.1694 21.9866 19.9886C22.7751 18.8079 23.196 17.4199 23.196 16C23.1979 15.0551 23.0129 14.1192 22.6517 13.2461C22.2906 12.373 21.7604 11.5799 21.0916 10.9125C20.4229 10.245 19.6287 9.71635 18.7549 9.3569C17.8811 8.99745 16.9448 8.81431 16 8.818ZM16 20.662C15.0779 20.662 14.1766 20.3886 13.4099 19.8763C12.6433 19.364 12.0457 18.6359 11.6929 17.7841C11.34 16.9322 11.2477 15.9948 11.4276 15.0905C11.6075 14.1861 12.0515 13.3555 12.7035 12.7035C13.3555 12.0515 14.1861 11.6075 15.0905 11.4276C15.9948 11.2477 16.9322 11.34 17.7841 11.6929C18.6359 12.0457 19.364 12.6433 19.8763 13.4099C20.3886 14.1766 20.662 15.0779 20.662 16C20.662 16.6122 20.5414 17.2184 20.3071 17.7841C20.0728 18.3497 19.7294 18.8636 19.2965 19.2965C18.8636 19.7294 18.3497 20.0728 17.7841 20.3071C17.2184 20.5414 16.6122 20.662 16 20.662Z" fill="currentColor" fill-opacity="0.8"/>
</svg>
