<svg width="61" height="60" viewBox="0 0 61 60" fill="none" xmlns="http://www.w3.org/2000/svg">
<path d="M44.154 0C43.0929 1.26383e-05 42.0752 0.421323 41.3248 1.17125C40.5745 1.92117 40.1529 2.93828 40.1529 3.99883V6.0002H4.156C3.09487 6.0002 2.0772 6.42149 1.32685 7.17137C0.576509 7.92125 0.154949 8.93832 0.154907 9.99883C0.154902 10.524 0.25839 11.0439 0.459461 11.5291C0.660532 12.0143 0.95525 12.4551 1.32679 12.8264C1.69832 13.1977 2.1394 13.4923 2.62484 13.6933C3.11028 13.8942 3.63057 13.9977 4.156 13.9977H40.1529V16.0014C40.1529 17.0619 40.5745 18.079 41.3248 18.8289C42.0752 19.5789 43.0929 20.0002 44.154 20.0002C45.2152 20.0002 46.2329 19.5789 46.9833 18.8289C47.7336 18.079 48.1551 17.0619 48.1551 16.0014V13.9977H56.1524C56.6779 13.9977 57.1982 13.8943 57.6837 13.6933C58.1691 13.4924 58.6102 13.1978 58.9818 12.8265C59.3533 12.4552 59.6481 12.0143 59.8492 11.5291C60.0502 11.044 60.1537 10.524 60.1537 9.99883C60.1537 9.4737 60.0502 8.95372 59.8491 8.46857C59.648 7.98342 59.3533 7.54261 58.9817 7.1713C58.6102 6.79999 58.1691 6.50546 57.6836 6.30452C57.1982 6.10359 56.6779 6.00017 56.1524 6.0002H48.1551V3.99883C48.1551 2.93828 47.7336 1.92117 46.9833 1.17125C46.2329 0.421323 45.2152 1.26383e-05 44.154 0ZM15.1546 20C14.6292 20 14.1089 20.1034 13.6234 20.3044C13.1379 20.5053 12.6968 20.7999 12.3253 21.1712C11.9537 21.5425 11.659 21.9833 11.4579 22.4685C11.2568 22.9537 11.1533 23.4737 11.1533 23.9988V26H4.15717C3.63174 26 3.11145 26.1034 2.62601 26.3044C2.14057 26.5054 1.69949 26.7999 1.32796 27.1712C0.956421 27.5426 0.661704 27.9834 0.460633 28.4686C0.259562 28.9537 0.156074 29.4737 0.156079 29.9988C0.156074 30.524 0.259562 31.0439 0.460633 31.5291C0.661704 32.0143 0.956421 32.4551 1.32796 32.8264C1.69949 33.1977 2.14057 33.4923 2.62601 33.6933C3.11145 33.8942 3.63174 33.9977 4.15717 33.9977H11.1533V36.0014C11.1533 36.5265 11.2568 37.0465 11.4579 37.5317C11.659 38.0169 11.9537 38.4577 12.3253 38.829C12.6968 39.2003 13.1379 39.4949 13.6234 39.6958C14.1089 39.8968 14.6292 40.0002 15.1546 40.0002C16.2158 40.0002 17.2335 39.5789 17.9838 38.8289C18.7342 38.079 19.1557 37.0619 19.1557 36.0014V33.9977H56.1538C56.6792 33.9977 57.1995 33.8942 57.685 33.6933C58.1704 33.4923 58.6115 33.1977 58.983 32.8264C59.3546 32.4551 59.6493 32.0143 59.8504 31.5291C60.0514 31.0439 60.1549 30.524 60.1549 29.9988C60.1549 29.4737 60.0514 28.9537 59.8504 28.4686C59.6493 27.9834 59.3546 27.5426 58.983 27.1712C58.6115 26.7999 58.1704 26.5054 57.685 26.3044C57.1995 26.1034 56.6792 26 56.1538 26H19.1557V23.9988C19.1557 22.9383 18.7342 21.9212 17.9838 21.1712C17.2335 20.4213 16.2158 20 15.1546 20ZM28.1544 40.0002C27.0932 40.0002 26.0756 40.4215 25.3252 41.1714C24.5749 41.9213 24.1533 42.9383 24.1533 43.9988V46H4.15717C3.63174 46 3.11145 46.1034 2.62601 46.3044C2.14057 46.5054 1.69949 46.7999 1.32796 47.1712C0.956421 47.5426 0.661704 47.9834 0.460633 48.4686C0.259562 48.9537 0.156074 49.4737 0.156079 49.9988C0.156121 51.0593 0.577681 52.0764 1.32803 52.8263C2.07837 53.5762 3.09604 53.9975 4.15717 53.9975H24.1533V56.0014C24.1533 57.0619 24.5749 58.0789 25.3252 58.8288C26.0756 59.5787 27.0932 60 28.1544 60C29.2155 60 30.2332 59.5787 30.9835 58.8288C31.7338 58.0789 32.1554 57.0619 32.1555 56.0014V53.9975H56.1538C57.2149 53.9975 58.2326 53.5762 58.983 52.8263C59.7333 52.0764 60.1549 51.0593 60.1549 49.9988C60.1549 49.4737 60.0514 48.9537 59.8504 48.4686C59.6493 47.9834 59.3546 47.5426 58.983 47.1712C58.6115 46.7999 58.1704 46.5054 57.685 46.3044C57.1995 46.1034 56.6792 46 56.1538 46H32.1555V43.9988C32.1554 42.9383 31.7338 41.9213 30.9835 41.1714C30.2332 40.4215 29.2155 40.0002 28.1544 40.0002Z" fill="black"/>
</svg>
