<svg width="32" height="32" viewBox="0 0 32 32" fill="none" xmlns="http://www.w3.org/2000/svg">
<path d="M26.7834 4.19422C26.7834 4.19422 29.1886 3.24194 28.9881 5.55463C28.9213 6.50693 28.3201 9.83993 27.8524 13.445L26.2489 24.1243C26.2489 24.1243 26.1153 25.6887 24.9127 25.9608C23.7101 26.2329 21.9062 25.0085 21.5721 24.7364C21.3049 24.5324 16.5614 21.4714 14.891 19.975C14.4234 19.5669 13.8889 18.7506 14.9578 17.7983L21.973 10.9963C22.7747 10.18 23.5765 8.27548 20.2359 10.5882L10.8824 17.0501C10.8824 17.0501 9.81343 17.7303 7.80914 17.1182L3.4664 15.7577C3.4664 15.7577 1.86294 14.7374 4.60219 13.7171C11.2833 10.5201 19.501 7.25512 26.7834 4.19422Z" fill="currentColor" fill-opacity="0.8"/>
</svg>
