<svg width="38" height="38" viewBox="0 0 38 38" fill="none" xmlns="http://www.w3.org/2000/svg">
<g clip-path="url(#clip0_1577_850)">
<path d="M18.0462 0C14.9952 0.0443333 8.44017 0.544667 4.77792 3.90608C2.05775 6.62942 1.09825 10.6083 0.9985 15.5436C0.89875 20.4773 0.768916 29.7287 9.68625 32.2367H9.691L9.68467 36.062C9.68467 36.062 9.62608 37.6089 10.6505 37.9256C11.8807 38.3088 12.6043 37.1339 13.7855 35.8641C14.4299 35.1674 15.3245 34.1478 15.9974 33.3624C22.0932 33.8786 26.7831 32.7038 27.3183 32.5312C28.5469 32.1322 35.5136 31.2392 36.6473 21.9909C37.8189 12.4593 36.0773 6.42675 32.9422 3.70975C31.9986 2.83892 28.1827 0.0680833 19.6818 0.0316667C19.6818 0.0316667 19.0564 -0.00791667 18.0399 0.00475L18.0462 0ZM18.1381 2.68058C19.001 2.67425 19.5314 2.7075 19.5314 2.7075C26.7229 2.73917 30.1667 4.90517 30.9662 5.63033C33.6183 7.90242 34.9721 13.338 33.9841 21.3006V21.3038C33.0277 29.0273 27.3752 29.5118 26.3334 29.8458C25.8901 29.9883 21.7702 31.0128 16.5912 30.6755C16.5912 30.6755 12.7342 35.3305 11.5292 36.5402C11.3392 36.7302 11.1176 36.8046 10.9719 36.7682C10.7661 36.7159 10.7091 36.4705 10.7107 36.1127L10.7423 29.7508C3.2025 27.6608 3.64108 19.7885 3.72817 15.6671C3.81367 11.5441 4.58792 8.16525 6.8885 5.89317C9.99183 3.08592 15.5557 2.698 18.146 2.679L18.1381 2.68058ZM18.7397 6.80042C18.617 6.80661 18.5013 6.85953 18.4163 6.94832C18.3313 7.03712 18.2835 7.15506 18.2827 7.27797C18.2819 7.40088 18.3281 7.51944 18.4119 7.60935C18.4957 7.69925 18.6108 7.75369 18.7334 7.7615C21.3047 7.77733 23.3979 8.61175 25.1111 10.2822C26.81 11.9383 27.6761 14.1898 27.6967 17.1443C27.6998 17.4088 27.9183 17.6193 28.1827 17.6193C28.3093 17.6177 28.4301 17.5662 28.519 17.4761C28.6079 17.386 28.6578 17.2646 28.6577 17.138C28.6356 13.9967 27.6792 11.4443 25.7824 9.595C23.8982 7.75833 21.5185 6.81942 18.7397 6.80042ZM12.4697 7.90083C12.1331 7.85422 11.7905 7.9193 11.4944 8.08608L11.4786 8.08925C10.7977 8.48033 10.1866 8.97908 9.66408 9.56492C9.66092 9.57125 9.65458 9.57125 9.65142 9.57758C9.22867 10.089 8.98642 10.5878 8.92308 11.0786C8.91068 11.1518 8.90696 11.2262 8.912 11.3003C8.912 11.5156 8.94683 11.7278 9.01492 11.9336L9.0355 11.9494C9.24925 12.7094 9.78442 13.9698 10.9434 16.0724C11.6084 17.2884 12.3732 18.4474 13.2329 19.5336C13.6604 20.0783 14.1196 20.5992 14.6104 21.0916L14.8194 21.3006C15.3102 21.7882 15.8327 22.2506 16.3774 22.6781C17.4645 23.538 18.6223 24.3044 19.8386 24.9692C21.9412 26.1298 23.2047 26.6633 23.9616 26.8787L23.9774 26.9008C24.2529 26.9909 24.5445 27.0206 24.8324 26.9879C25.3232 26.9309 25.8252 26.6871 26.3334 26.2596C26.3398 26.2596 26.3382 26.2564 26.3461 26.2517C26.9319 25.7292 27.4275 25.1117 27.8186 24.434L27.8233 24.4182C28.1796 23.7342 28.0608 23.085 27.5383 22.6448C27.532 22.6448 26.4332 21.7265 25.8964 21.3307C25.3264 20.9269 24.7406 20.5517 24.1342 20.2065C23.3267 19.7553 22.5002 20.0387 22.1582 20.482L21.4504 21.375C21.0862 21.8231 20.4102 21.7645 20.4102 21.7645C15.4702 20.5042 14.1481 15.5024 14.1481 15.5024C14.1481 15.5024 14.0895 14.8279 14.5407 14.4638L15.4322 13.7544C15.8707 13.414 16.1542 12.5875 15.7013 11.7784C15.3574 11.1709 14.9822 10.5816 14.5772 10.013C14.152 9.45657 13.7138 8.91017 13.263 8.37425C13.0644 8.12561 12.7817 7.95832 12.4682 7.904L12.4697 7.90083ZM19.5789 9.29417C19.4517 9.29039 19.3281 9.33731 19.2355 9.42461C19.1429 9.5119 19.0887 9.63243 19.0849 9.75967C19.0811 9.8869 19.1281 10.0104 19.2154 10.1031C19.3027 10.1957 19.4232 10.2499 19.5504 10.2537C21.3871 10.3883 22.744 10.9915 23.7383 12.0745C24.7358 13.1638 25.2108 14.4875 25.1728 16.1437C25.1797 16.2654 25.2323 16.3801 25.3201 16.4648C25.4078 16.5495 25.5243 16.598 25.6462 16.6006C25.7682 16.6032 25.8866 16.5597 25.9779 16.4788C26.0692 16.3979 26.1266 16.2856 26.1387 16.1642C26.1782 14.3038 25.6098 12.692 24.4492 11.4238C23.2776 10.1413 21.6357 9.43983 19.6201 9.29258H19.5821L19.5789 9.29417ZM20.312 11.875C20.1901 11.8768 20.0734 11.9246 19.9852 12.0089C19.8971 12.0932 19.8442 12.2077 19.837 12.3294C19.8243 12.5938 20.027 12.8203 20.293 12.8361C21.1211 12.8804 21.6784 13.1132 22.0552 13.5043C22.4352 13.8922 22.6696 14.4859 22.7139 15.3472C22.7302 15.4666 22.7907 15.5755 22.8834 15.6525C22.9761 15.7294 23.0943 15.7688 23.2147 15.7629C23.335 15.7569 23.4487 15.706 23.5334 15.6203C23.618 15.5345 23.6674 15.4202 23.6718 15.2998C23.6243 14.2801 23.3314 13.4346 22.7535 12.8345C22.1724 12.236 21.3396 11.9257 20.3468 11.8734H20.3183L20.312 11.875Z" fill="currentColor"/>
</g>
<defs>
<clipPath id="clip0_1577_850">
<rect width="38" height="38" fill="currentColor"/>
</clipPath>
</defs>
</svg>
