<svg width="32" height="32" viewBox="0 0 32 32" fill="none" xmlns="http://www.w3.org/2000/svg">
<path d="M25.9196 6.07407C24.6296 4.77757 23.0931 3.74961 21.3997 3.05015C19.7063 2.35069 17.8898 1.99373 16.0563 2.00008C8.37387 2.00008 2.11256 8.23006 2.11256 15.874C2.11256 18.324 2.7598 20.704 3.96985 22.804L2 30L9.38693 28.068C11.4271 29.174 13.7206 29.762 16.0563 29.762C23.7387 29.762 30 23.532 30 15.888C30 12.1781 28.5508 8.69206 25.9196 6.07407ZM16.0563 27.41C13.9739 27.41 11.9337 26.85 10.1467 25.8L9.72462 25.548L5.33467 26.696L6.50251 22.44L6.22111 22.006C5.06417 20.1678 4.44985 18.043 4.44824 15.874C4.44824 9.51806 9.65427 4.33808 16.0422 4.33808C19.1377 4.33808 22.0503 5.54207 24.2312 7.72607C25.311 8.79561 26.1668 10.0678 26.7489 11.4689C27.331 12.8699 27.6278 14.372 27.6221 15.888C27.6503 22.244 22.4442 27.41 16.0563 27.41ZM22.4161 18.786C22.0643 18.618 20.3477 17.778 20.0382 17.652C19.7146 17.54 19.4894 17.484 19.2502 17.82C19.0111 18.17 18.3497 18.954 18.1528 19.178C17.9558 19.416 17.7447 19.444 17.393 19.262C17.0412 19.094 15.9156 18.716 14.593 17.54C13.5518 16.616 12.8623 15.482 12.6513 15.132C12.4543 14.782 12.6231 14.6 12.806 14.418C12.9608 14.264 13.1578 14.012 13.3266 13.816C13.4955 13.62 13.5658 13.466 13.6784 13.242C13.791 13.004 13.7347 12.8081 13.6503 12.6401C13.5658 12.4721 12.8623 10.7641 12.5809 10.0641C12.2995 9.39206 12.004 9.47606 11.793 9.46206H11.1176C10.8784 9.46206 10.5126 9.54606 10.1889 9.89606C9.8794 10.2461 8.97889 11.0861 8.97889 12.7941C8.97889 14.502 10.2312 16.154 10.4 16.378C10.5688 16.616 12.8623 20.116 16.3518 21.614C17.1819 21.978 17.8291 22.188 18.3357 22.342C19.1658 22.608 19.9256 22.566 20.5307 22.482C21.206 22.384 22.599 21.642 22.8804 20.83C23.1759 20.018 23.1759 19.332 23.0774 19.178C22.9789 19.024 22.7678 18.954 22.4161 18.786Z" fill="currentColor" fill-opacity="0.8"/>
</svg>
