<svg width="60" height="60" viewBox="0 0 60 60" fill="none" xmlns="http://www.w3.org/2000/svg">
<g clip-path="url(#clip0_2_31)">
<path d="M1.98304 33.7099C0.776438 32.2879 0.262266 30.5107 0.407553 28.7911C0.553258 27.072 1.35933 25.4064 2.78704 24.2076C4.21372 23.0096 5.99963 22.4996 7.72785 22.6465C9.4571 22.7925 11.1316 23.5942 12.339 25.0174L22.7612 37.3264L48.8956 10.6003L49.6562 11.3145L48.895 10.5974C48.9698 10.5192 49.0523 10.4546 49.1417 10.4043C50.6386 9.36599 52.4174 9.01321 54.0917 9.28135L54.0919 9.27949L54.1734 9.29557C55.8554 9.5852 57.4312 10.5078 58.5103 11.9921C59.608 13.5015 59.9873 15.312 59.7134 17.0138L59.7152 17.014L59.6992 17.0951C59.4149 18.738 58.518 20.2785 57.0737 21.3476L25.8632 51.9606L25.8649 51.9626C25.8061 52.0227 25.7417 52.0729 25.673 52.1155C24.2576 53.1115 22.5621 53.4947 20.9372 53.2957C19.2988 53.0948 17.7259 52.3018 16.5796 50.9495L1.98304 33.7099Z" fill="currentColor"/>
</g>
<defs>
<clipPath id="clip0_2_31">
<rect width="60" height="60" fill="currentColor"/>
</clipPath>
</defs>
</svg>
