<?xml version="1.0" standalone="no"?>
<!DOCTYPE svg PUBLIC "-//W3C//DTD SVG 1.1//EN" "http://www.w3.org/Graphics/SVG/1.1/DTD/svg11.dtd" >
<svg xmlns="http://www.w3.org/2000/svg">
<metadata>Generated by IcoMoon</metadata>
<defs>
<font id="icon" horiz-adv-x="1024">
<font-face units-per-em="1024" ascent="960" descent="-64" />
<missing-glyph horiz-adv-x="1024" />
<glyph unicode="&#x20;" horiz-adv-x="512" d="" />
<glyph unicode="&#xe900;" glyph-name="close" d="M584.397 448l439.603 439.603-72.397 72.397-439.603-439.603-439.603 439.603-72.397-72.397 439.603-439.603-439.603-439.603 72.397-72.397 439.603 439.603 439.603-439.603 72.397 72.397-439.603 439.603z" />
<glyph unicode="&#xe901;" glyph-name="add" d="M841.142 960h-658.285c-100.939-0.12-182.736-81.917-182.856-182.856v-658.285c0.12-100.939 81.917-182.736 182.856-182.856h658.285c100.939 0.12 182.736 81.917 182.856 182.856v658.285c-0.12 100.939-81.917 182.736-182.856 182.856zM950.856 118.858c0-60.594-49.121-109.714-109.714-109.714h-658.285c-60.594 0-109.714 49.121-109.714 109.714v658.285c0 60.594 49.121 109.714 109.714 109.714h658.285c60.594 0 109.714-49.121 109.714-109.714v-658.285zM694.857 484.571h-146.286v146.286c0 20.199-16.374 36.572-36.572 36.572s-36.572-16.374-36.572-36.572v-146.286h-146.284c-20.199 0-36.572-16.374-36.572-36.572s16.374-36.57 36.572-36.57h146.286v-146.286c0-20.199 16.374-36.572 36.572-36.572s36.57 16.376 36.57 36.572v146.286h146.286c20.199 0 36.572 16.374 36.572 36.572s-16.376 36.57-36.572 36.57z" />
<glyph unicode="&#xe902;" glyph-name="join" d="M771.487 342.521c-50.821 0-99.144-18.791-136.709-53.034l-191.504 88.397c8.297 22.465 12.499 46.021 12.499 70.119 0 24.392-4.287 48.181-12.752 70.84l191.149 88.229c37.648-34.599 86.187-53.584 137.318-53.584 112.077 0 203.259 91.182 203.259 203.262 0 112.074-91.182 203.252-203.259 203.252s-203.256-91.179-203.256-203.252c0-21.56 3.368-42.741 10.023-63.067l-195.156-90.079c-36.61 30.773-82.769 47.66-130.578 47.66-112.077 0-203.259-91.182-203.259-203.259 0-112.080 91.182-203.262 203.259-203.262 48.125 0 94.511 17.079 131.227 48.194l194.758-89.895c-6.819-20.562-10.273-41.981-10.273-63.778 0-112.077 91.179-203.259 203.256-203.259s203.259 91.182 203.259 203.259c0 112.070-91.182 203.256-203.259 203.256zM771.487 38.071c-55.793 0-101.185 45.392-101.185 101.188s45.392 101.188 101.185 101.188c55.796 0 101.188-45.392 101.188-101.188s-45.392-101.188-101.188-101.188zM771.487 655.556c-55.793 0-101.185 45.395-101.185 101.192 0 55.793 45.392 101.182 101.185 101.182 55.796 0 101.188-45.392 101.188-101.182 0-55.8-45.392-101.192-101.188-101.192zM252.513 549.188c55.793 0 101.185-45.392 101.185-101.188 0-20.816-6.315-40.815-18.274-57.887 0 0-4.623-6.012-6.862-8.739-19.275-21.978-46.953-34.566-76.053-34.566-55.796 0-101.188 45.395-101.188 101.192s45.395 101.188 101.192 101.188z" />
<glyph unicode="&#xe903;" glyph-name="logout" d="M510.3 22.75h-382.726c-23.474 0-42.524 19.052-42.524 42.524v765.45c0 23.474 19.052 42.524 42.524 42.524h382.726c23.516 0 42.524 19.008 42.524 42.524s-19.008 42.528-42.524 42.528h-382.726c-70.336 0-127.574-57.24-127.574-127.576v-765.448c0-70.336 57.238-127.574 127.574-127.574h382.726c23.516 0 42.524 19.008 42.524 42.524s-19.008 42.524-42.524 42.524zM1011.328 478.278l-258.552 255.15c-16.67 16.5-43.63 16.286-60.13-0.426s-16.33-43.63 0.426-60.13l184.77-182.346h-495.118c-23.516 0-42.524-19.008-42.524-42.524s19.008-42.526 42.524-42.526h495.118l-184.77-182.346c-16.754-16.5-16.882-43.418-0.426-60.13 8.334-8.42 19.306-12.672 30.278-12.672 10.802 0 21.602 4.082 29.852 12.248l258.552 255.15c8.080 7.994 12.672 18.882 12.672 30.278 0 11.392-4.55 22.236-12.672 30.274z" />
<glyph unicode="&#xe904;" glyph-name="like" d="M0-17.455h186.182v558.545h-186.182v-558.545zM1024 494.545c0 51.2-41.891 93.091-93.091 93.091h-293.236l46.545 214.109c0 4.655 0 9.309 0 13.964 0 18.618-9.309 37.236-18.616 51.2l-51.202 46.545-307.2-307.2c-18.618-13.964-27.927-37.236-27.927-65.164v-465.455c0-51.2 41.891-93.091 93.091-93.091h418.909c37.236 0 69.818 23.273 83.782 55.855l139.636 330.475c4.655 9.309 4.655 23.273 4.655 32.582v93.091h4.655c0-4.656 0-0.002 0-0.002z" />
<glyph unicode="&#xe905;" glyph-name="dislike" d="M837.819 913.455h186.181v-558.546h-186.181v558.546zM651.638 913.455h-418.909c-38.633 0-71.679-23.505-85.643-56.786l-140.335-328.146c-4.191-10.706-6.751-22.108-6.751-33.977v-89.134l0.465-0.465-0.465-3.493c0-51.432 41.657-93.092 93.092-93.092h293.935l-44.45-212.712c-0.932-4.654-1.63-9.541-1.63-14.662 0-19.316 7.913-36.77 20.481-49.337l49.569-49.106 306.502 306.502c16.756 16.99 27.229 40.261 27.229 65.863v465.454c0 51.432-41.657 93.092-93.090 93.092z" />
<glyph unicode="&#xe906;" glyph-name="search" d="M683.841 842.832c-156.213 156.213-410.46 156.213-566.673 0-156.179-156.246-156.179-410.46 0-566.707 139.111-139.078 355.77-153.978 511.881-45.377 3.285-15.543 10.802-30.376 22.892-42.465l227.495-227.495c33.152-33.085 86.725-33.085 119.708 0 33.119 33.119 33.119 86.691 0 119.708l-227.495 227.563c-12.022 11.988-26.888 19.539-42.431 22.824 108.668 156.145 93.768 372.77-45.377 511.949zM612.016 347.95c-116.626-116.626-306.431-116.626-423.024 0-116.558 116.626-116.558 306.397 0 423.024 116.592 116.592 306.397 116.592 423.024 0 116.626-116.626 116.626-306.397 0-423.024z" />
<glyph unicode="&#xe907;" glyph-name="edit" d="M636.75 787.445l208.305-208.303-527.277-527.277-208.187 208.303 527.159 527.277zM1003.117 837.683l-92.896 92.896c-35.901 35.901-94.197 35.901-130.22 0l-88.985-88.985 208.305-208.305 103.796 103.796c27.845 27.847 27.845 72.753 0 100.598zM0.581-32.618c-3.791-17.061 11.613-32.348 28.676-28.199l232.121 56.28-208.187 208.303-52.61-236.384z" />
<glyph unicode="&#xe908;" glyph-name="delete" d="M170.667 49.779c0-62.864 50.915-113.779 113.779-113.779h455.112c62.861 0 113.776 50.915 113.776 113.779v682.667h-682.667v-682.667zM711.112 903.112l-56.891 56.888h-284.443l-56.891-56.888h-199.109v-113.779h796.443v113.779z" />
<glyph unicode="&#xe909;" glyph-name="viber" d="M486.298 960c-82.216-1.195-258.857-14.677-357.545-105.259-73.301-73.387-99.157-180.607-101.845-313.601-2.688-132.95-6.187-382.251 234.112-449.835h0.128l-0.171-103.082c0 0-1.579-41.685 26.027-50.219 33.151-10.326 52.65 21.334 84.48 55.552 17.365 18.774 41.472 46.25 59.605 67.414 164.266-13.91 290.646 17.748 305.068 22.399 33.108 10.752 220.842 34.816 251.392 284.033 31.572 256.852-15.36 419.413-99.843 492.629-25.428 23.467-128.256 98.133-357.333 99.115 0 0-16.853 1.067-44.245 0.725l0.17 0.128zM488.774 887.765c23.253 0.171 37.546-0.725 37.546-0.725 193.792-0.853 286.593-59.221 308.138-78.763 71.467-61.227 107.948-207.701 81.324-422.273v-0.086c-25.772-208.128-178.092-221.184-206.166-230.184-11.946-3.84-122.966-31.448-262.527-22.358 0 0-103.936-125.44-136.408-158.038-5.12-5.12-11.092-7.125-15.018-6.144-5.546 1.409-7.082 8.022-7.039 17.664l0.852 171.436c-203.178 56.32-191.359 268.458-189.012 379.519 2.304 111.104 23.168 202.155 85.163 263.382 83.627 75.648 233.558 86.101 303.36 86.613l-0.213-0.043zM504.986 776.747c-3.306-0.167-6.424-1.593-8.715-3.986s-3.579-5.571-3.6-8.883c-0.022-3.312 1.223-6.507 3.482-8.93s5.36-3.89 8.664-4.1c69.29-0.427 125.696-22.912 171.862-67.926 45.781-44.628 69.12-105.3 69.675-184.916 0.084-7.128 5.972-12.8 13.096-12.8 3.412 0.043 6.667 1.431 9.062 3.859s3.74 5.699 3.738 9.111c-0.596 84.65-26.368 153.43-77.482 203.264-50.774 49.493-114.901 74.795-189.782 75.307zM336.026 747.093c-9.070 1.256-18.303-0.498-26.282-4.992l-0.426-0.085c-18.348-10.539-34.816-23.979-48.897-39.765-0.085-0.171-0.256-0.171-0.341-0.341-11.392-13.781-17.92-27.223-19.627-40.449-0.334-1.973-0.434-3.977-0.299-5.974 0-5.802 0.939-11.52 2.773-17.066l0.555-0.426c5.76-20.48 20.181-54.444 51.413-111.104 17.92-32.768 38.529-64 61.696-93.27 11.52-14.678 23.894-28.715 37.12-41.984l5.632-5.632c13.226-13.14 27.306-25.6 41.984-37.12 29.294-23.172 60.494-43.825 93.27-61.739 56.66-31.275 90.708-45.652 111.104-51.456l0.426-0.596c7.424-2.428 15.282-3.228 23.040-2.347 13.226 1.536 26.753 8.106 40.448 19.626 0.172 0 0.129 0.086 0.342 0.213 15.786 14.080 29.141 30.72 39.68 48.982l0.127 0.426c9.601 18.432 6.4 35.926-7.68 47.788-0.17 0-29.78 24.746-44.245 35.412-15.36 10.881-31.146 20.992-47.487 30.294-21.76 12.159-44.032 4.522-53.248-7.424l-19.073-24.064c-9.814-12.075-28.031-10.496-28.031-10.496-133.12 33.962-168.747 168.747-168.747 168.747s-1.579 18.176 10.58 27.988l24.024 19.116c11.816 9.173 19.456 31.445 7.252 53.248-9.267 16.371-19.378 32.251-30.292 47.573-11.458 14.994-23.266 29.718-35.414 44.16-5.352 6.7-12.97 11.208-21.418 12.672l0.040 0.085zM527.6 709.547c-3.428 0.102-6.758-1.163-9.254-3.515s-3.956-5.6-4.058-9.029c-0.102-3.429 1.164-6.757 3.517-9.255 2.353-2.495 5.6-3.956 9.027-4.058 49.494-3.627 86.059-19.882 112.853-49.066 26.88-29.354 39.68-65.024 38.656-109.654 0.186-3.279 1.603-6.37 3.969-8.653 2.363-2.282 5.503-3.589 8.788-3.659 3.288-0.070 6.478 1.102 8.938 3.282s4.007 5.206 4.333 8.478c1.064 50.133-14.252 93.567-45.528 127.741-31.572 34.56-75.816 53.463-130.132 57.431h-1.024l-0.086-0.043zM547.355 640c-3.285-0.049-6.43-1.337-8.806-3.608-2.374-2.272-3.8-5.357-3.994-8.637-0.342-7.125 5.12-13.228 12.288-13.654 22.315-1.194 37.333-7.467 47.487-18.006 10.24-10.453 16.556-26.452 17.75-49.661 0.439-3.218 2.070-6.152 4.568-8.227 2.498-2.072 5.683-3.134 8.928-2.975 3.242 0.162 6.306 1.533 8.588 3.843 2.28 2.312 3.611 5.392 3.73 8.637-1.28 27.478-9.173 50.262-24.746 66.433-15.659 16.128-38.101 24.49-64.854 25.899h-0.768l-0.17-0.043z" />
<glyph unicode="&#xe90a;" d="M512 960c-282.328 0-512-229.672-512-512s229.672-512 512-512 512 229.672 512 512-229.672 512-512 512z" />
<glyph unicode="&#xe90b;" d="M771.5 556.5l-277.336-277.328c-8.32-8.32-19.242-12.508-30.164-12.508s-21.844 4.188-30.164 12.508l-138.664 138.664c-16.688 16.68-16.688 43.648 0 60.328 16.68 16.688 43.641 16.688 60.328 0l108.5-108.5 247.172 247.164c16.68 16.688 43.641 16.688 60.328 0 16.68-16.68 16.68-43.641 0-60.328z" />
<glyph unicode="&#xe90c;" d="M512 960c-282.328 0-512-229.672-512-512s229.672-512 512-512 512 229.672 512 512-229.672 512-512 512z" />
<glyph unicode="&#xe90d;" d="M700.547 319.789c16.68-16.688 16.68-43.648 0-60.336-8.32-8.32-19.242-12.5-30.172-12.5-10.922 0-21.844 4.18-30.164 12.5l-128.211 128.219-128.211-128.219c-8.32-8.32-19.242-12.5-30.164-12.5-10.93 0-21.852 4.18-30.172 12.5-16.68 16.688-16.68 43.648 0 60.336l128.219 128.211-128.219 128.211c-16.68 16.688-16.68 43.648 0 60.336 16.688 16.68 43.648 16.68 60.336 0l128.211-128.219 128.211 128.219c16.688 16.68 43.648 16.68 60.336 0 16.68-16.688 16.68-43.648 0-60.336l-128.219-128.211z" />
<glyph unicode="&#xe90e;" glyph-name="instagram" d="M751.232 740.992c-10.634 0-21.027-3.153-29.869-9.060-8.838-5.907-15.731-14.303-19.798-24.127-4.070-9.823-5.133-20.633-3.059-31.061s7.194-20.008 14.714-27.526c7.517-7.518 17.098-12.639 27.523-14.712 10.429-2.074 21.238-1.011 31.062 3.059 9.824 4.068 18.221 10.959 24.128 19.8s9.059 19.235 9.059 29.868c0 14.258-5.664 27.932-15.747 38.014-10.080 10.082-23.754 15.746-38.013 15.746zM957.312 632.576c-0.87 37.171-7.834 73.947-20.608 108.864-11.392 29.876-29.12 56.928-51.968 79.296-22.182 22.963-49.299 40.581-79.296 51.52-34.826 13.164-71.642 20.285-108.864 21.056-47.488 2.688-62.72 2.688-184.576 2.688s-137.088 0-184.576-2.688c-37.222-0.771-74.039-7.892-108.864-21.056-29.941-11.050-57.033-28.652-79.296-51.52-22.963-22.184-40.581-49.3-51.52-79.296-13.164-34.825-20.285-71.642-21.056-108.864-2.688-47.488-2.688-62.72-2.688-184.576s0-137.088 2.688-184.576c0.771-37.222 7.892-74.038 21.056-108.864 10.939-29.997 28.557-57.114 51.52-79.296 22.263-22.867 49.355-40.47 79.296-51.52 34.825-13.165 71.642-20.285 108.864-21.056 47.488-2.688 62.72-2.688 184.576-2.688s137.088 0 184.576 2.688c37.222 0.771 74.038 7.891 108.864 21.056 29.997 10.938 57.114 28.557 79.296 51.52 22.947 22.285 40.694 49.36 51.968 79.296 12.774 34.918 19.738 71.693 20.608 108.864 0 47.488 2.688 62.72 2.688 184.576s0 137.088-2.688 184.576zM876.672 268.8c-0.326-28.438-5.475-56.614-15.232-83.328-7.152-19.498-18.643-37.114-33.6-51.52-14.531-14.806-32.112-26.272-51.52-33.6-26.714-9.757-54.89-14.906-83.328-15.232-44.8-2.24-61.376-2.688-179.2-2.688s-134.4 0-179.2 2.688c-29.528-0.554-58.93 3.994-86.912 13.44-18.557 7.702-35.331 19.139-49.28 33.6-14.87 14.394-26.215 32.022-33.152 51.52-10.938 27.098-17.004 55.914-17.92 85.12 0 44.8-2.688 61.376-2.688 179.2s0 134.4 2.688 179.2c0.201 29.073 5.508 57.884 15.68 85.12 7.887 18.909 19.993 35.766 35.392 49.28 13.611 15.404 30.432 27.637 49.28 35.84 27.308 9.854 56.090 15.004 85.12 15.232 44.8 0 61.376 2.688 179.2 2.688s134.4 0 179.2-2.688c28.438-0.326 56.614-5.476 83.328-15.232 20.358-7.556 38.63-19.84 53.312-35.84 14.682-13.762 26.154-30.587 33.6-49.28 9.958-27.28 15.11-56.080 15.232-85.12 2.24-44.8 2.688-61.376 2.688-179.2s-0.448-134.4-2.688-179.2zM512 677.824c-45.437-0.089-89.827-13.643-127.562-38.95-37.734-25.306-67.122-61.232-84.448-103.235-17.326-42-21.814-88.198-12.895-132.749s30.842-85.459 63.001-117.558c32.16-32.096 73.11-53.939 117.68-62.771s90.755-4.253 132.726 13.152c41.968 17.408 77.834 46.867 103.069 84.653 25.232 37.782 38.701 82.198 38.701 127.635 0.061 30.237-5.859 60.186-17.418 88.125-11.555 27.939-28.522 53.318-49.923 74.675-21.398 21.36-46.813 38.277-74.774 49.779s-57.923 17.363-88.157 17.245zM512 298.816c-29.507 0-58.349 8.749-82.883 25.142-24.531 16.394-43.654 39.693-54.944 66.95-11.293 27.261-14.246 57.258-8.49 86.195 5.757 28.941 19.965 55.52 40.829 76.384s47.443 35.072 76.384 40.829c28.938 5.757 58.934 2.803 86.195-8.49 27.258-11.29 50.557-30.413 66.95-54.944 16.394-24.534 25.142-53.376 25.142-82.883 0-19.59-3.859-38.989-11.357-57.091-7.498-18.099-18.486-34.544-32.339-48.397s-30.298-24.842-48.397-32.339c-18.102-7.498-37.501-11.357-57.091-11.357z" />
<glyph unicode="&#xe90f;" glyph-name="facebook" d="M654.938 725.887h81.062v132.288c-39.248 3.938-78.685 5.882-118.144 5.824-117.283 0-197.482-69.056-197.482-195.52v-108.991h-132.374v-148.096h132.374v-379.392h158.675v379.392h131.942l19.834 148.096h-151.776v94.431c0 43.68 12.074 71.968 75.888 71.968z" />
<glyph unicode="&#xe910;" glyph-name="whatsapp" d="M829.427 765.63c-41.28 41.488-90.448 74.383-144.637 96.765s-112.317 33.805-170.989 33.602c-245.838 0-446.2-199.359-446.2-443.965 0-78.4 20.712-154.56 59.433-221.76l-63.035-230.272 236.382 61.824c65.285-35.392 138.677-54.208 213.42-54.208 245.837 0 446.198 199.36 446.198 443.968 0 118.717-46.374 230.27-130.573 314.046zM513.802 82.88c-66.637 0-131.923 17.92-189.107 51.52l-13.507 8.064-140.478-36.736 37.371 136.192-9.005 13.888c-37.022 58.822-56.68 126.816-56.732 196.224 0 203.39 166.593 369.149 371.007 369.149 99.056 0 192.259-38.528 262.048-108.416 34.554-34.225 61.939-74.935 80.566-119.771 18.627-44.832 28.125-92.899 27.942-141.411 0.902-203.392-165.693-368.704-370.106-368.704zM717.315 358.848c-11.258 5.376-66.189 32.256-76.093 36.288-10.355 3.584-17.562 5.376-25.216-5.376-7.651-11.2-28.816-36.288-35.117-43.456-6.304-7.616-13.059-8.512-24.314-2.688-11.258 5.376-47.277 17.472-89.6 55.104-33.318 29.568-55.382 65.856-62.134 77.056-6.304 11.2-0.902 17.024 4.95 22.848 4.954 4.928 11.258 12.992 16.659 19.264 5.405 6.272 7.654 11.2 11.258 18.368 3.603 7.616 1.802 13.885-0.899 19.261-2.704 5.376-25.216 60.032-34.221 82.432-9.005 21.505-18.461 18.817-25.213 19.265h-21.613c-7.654 0-19.36-2.688-29.718-13.888-9.904-11.201-38.72-38.081-38.72-92.737 0-54.653 40.074-107.517 45.476-114.685 5.402-7.616 78.794-119.616 190.458-167.552 26.563-11.648 47.274-18.368 63.485-23.296 26.563-8.512 50.877-7.168 70.24-4.48 21.61 3.136 66.186 26.88 75.19 52.864 9.456 25.984 9.456 47.936 6.304 52.864s-9.907 7.168-21.162 12.544z" />
<glyph unicode="&#xe911;" glyph-name="telegram" d="M857.069 825.785c0 0 76.966 30.473 70.55-43.533-2.138-30.474-21.376-137.13-36.342-252.492l-51.312-341.738c0 0-4.275-50.061-42.758-58.768s-96.208 30.474-106.899 39.181c-8.55 6.528-160.342 104.48-213.795 152.365-14.963 13.059-32.067 39.181 2.138 69.654l224.486 217.664c25.654 26.122 51.312 87.066-55.587 13.059l-299.312-206.781c0 0-34.207-21.766-98.344-2.179l-138.968 43.536c0 0-51.311 32.65 36.345 65.299 213.796 102.304 476.762 206.783 709.799 304.732z" />
<glyph unicode="&#xe912;" glyph-name="fold" d="M102.4 430.933c0-37.683 15.292-68.267 34.133-68.267h750.933c18.842 0 34.133 30.583 34.133 68.267s-15.292 68.267-34.133 68.267h-750.933c-18.842 0-34.133-30.583-34.133-68.267z" />
<glyph unicode="&#xe913;" glyph-name="no" d="M512 960c282.717 0 512-229.283 512-512s-229.283-511.992-512-511.992c-282.725-0.008-512 229.275-512 511.992s229.275 512 512 512v0zM820.875 651.258l-512.117-512.117c58.325-38.475 128.158-60.892 203.242-60.892 204.167 0 369.742 165.575 369.742 369.742 0 75.083-22.417 144.925-60.867 203.267v0 0zM203.15 244.758l512.108 512.117c-58.308 38.458-128.175 60.867-203.258 60.867-204.167 0-369.742-165.583-369.742-369.742 0.008-75.075 22.417-144.917 60.892-203.242v0 0z" />
<glyph unicode="&#xe914;" glyph-name="yes" d="M33.844 384.684c-20.593 24.269-29.368 54.6-26.888 83.948 2.487 29.339 16.244 57.766 40.61 78.225 24.349 20.446 54.828 29.15 84.323 26.643 29.513-2.492 58.091-16.174 78.697-40.463l177.872-210.074 446.027 456.125 12.981-12.189-12.991 12.239c1.277 1.335 2.685 2.437 4.21 3.296 25.547 17.72 55.905 23.741 84.48 19.165l0.003 0.032 1.391-0.274c28.706-4.943 55.6-20.689 74.016-46.021 18.734-25.76 25.207-56.66 20.533-85.704l0.031-0.003-0.273-1.384c-4.852-28.039-20.159-54.33-44.809-72.576l-532.63-522.496c-1.004-1.026-2.103-1.882-3.275-2.609-24.156-16.998-53.093-23.538-80.824-20.142-27.962 3.429-54.806 16.963-74.37 40.042l-249.115 294.223z" />
<glyph unicode="&#xe915;" glyph-name="exit" d="M512 42.667c-35.345 0-64 28.653-64 64s28.655 64 64 64h213.333c11.783 0 21.333 9.551 21.333 21.333v512c0 11.781-9.551 21.333-21.333 21.333h-192c-35.345 0-64 28.655-64 64s28.655 64 64 64h192c82.475 0 149.333-66.859 149.333-149.333v-512c0-82.475-66.859-149.333-149.333-149.333h-213.333zM253.414 282.066l-120.678 120.677c-24.994 24.994-24.994 65.521 0 90.515l120.678 120.678c24.994 24.994 65.516 24.994 90.51 0s24.994-65.516 0-90.51l-11.423-11.426h179.499c35.345 0 64-28.655 64-64s-28.655-64-64-64h-179.499l11.423-11.426c24.994-24.992 24.994-65.514 0-90.508s-65.516-24.994-90.51 0z" />
<glyph unicode="&#xe916;" glyph-name="play" d="M353.536 814.634c-9.696 5.965-20.808 9.236-32.189 9.476-11.38 0.24-22.62-2.561-32.558-8.112s-18.217-13.654-23.98-23.471c-5.763-9.817-8.803-20.994-8.808-32.378v-624.299c0.005-11.383 3.045-22.56 8.808-32.377s14.042-17.92 23.98-23.472 21.178-8.352 32.558-8.112c11.382 0.239 22.494 3.511 32.189 9.475l507.221 312.149c9.308 5.728 16.995 13.745 22.328 23.286s8.131 20.291 8.131 31.22c0 10.931-2.799 21.678-8.131 31.22s-13.020 17.558-22.328 23.287l-507.221 312.106z" />
<glyph unicode="&#xe917;" glyph-name="settings" horiz-adv-x="1041" d="M753.562 960c-18.109 0-35.478-7.191-48.285-19.989-12.805-12.799-20-30.157-20-48.257v-34.157h-614.347c-18.11 0-35.478-7.19-48.284-19.988s-20-30.156-20.001-48.255c0-8.963 1.766-17.836 5.198-26.117s8.461-15.804 14.802-22.141c6.341-6.337 13.869-11.365 22.153-14.795 8.285-3.429 17.164-5.195 26.132-5.195h614.347v-34.196c0-18.099 7.195-35.458 20-48.256 12.807-12.8 30.176-19.99 48.285-19.99 18.111 0 35.48 7.19 48.287 19.99 12.805 12.798 19.999 30.157 19.999 48.256v34.196h136.487c8.969 0 17.848 1.765 26.134 5.195 8.284 3.429 15.812 8.457 22.154 14.793 6.34 6.337 11.372 13.862 14.804 22.142 3.43 8.279 5.197 17.154 5.197 26.117s-1.766 17.837-5.199 26.116c-3.432 8.28-8.462 15.803-14.804 22.14-6.34 6.337-13.868 11.364-22.154 14.793-8.284 3.429-17.164 5.194-26.132 5.194h-136.487v34.157c0 18.1-7.194 35.459-19.999 48.257-12.807 12.799-30.176 19.989-48.287 19.989zM258.639 618.667c-8.967 0-17.847-1.765-26.132-5.195-8.286-3.429-15.814-8.457-22.154-14.793-6.342-6.337-11.372-13.86-14.804-22.141s-5.199-17.155-5.199-26.117v-34.154h-119.401c-8.967 0-17.847-1.765-26.132-5.195s-15.813-8.457-22.153-14.793c-6.341-6.339-11.371-13.862-14.802-22.142-3.432-8.279-5.198-17.154-5.198-26.115 0-8.963 1.766-17.836 5.198-26.117s8.461-15.804 14.802-22.141c6.341-6.337 13.869-11.365 22.153-14.795s17.164-5.195 26.132-5.195h119.401v-34.196c0-8.962 1.766-17.836 5.199-26.117s8.462-15.804 14.804-22.141c6.34-6.337 13.868-11.365 22.154-14.793 8.286-3.43 17.166-5.195 26.132-5.195 18.111 0 35.48 7.19 48.285 19.99 12.807 12.798 20 30.157 20 48.256v34.196h631.434c8.967 0 17.847 1.766 26.132 5.195s15.812 8.458 22.153 14.795c6.342 6.337 11.372 13.86 14.804 22.141 3.43 8.281 5.197 17.154 5.197 26.117 0 8.962-1.766 17.836-5.197 26.115-3.432 8.281-8.462 15.804-14.804 22.142-6.34 6.337-13.868 11.363-22.153 14.793s-17.166 5.195-26.132 5.195h-631.434v34.154c0 18.099-7.194 35.458-20 48.258-12.805 12.798-30.174 19.988-48.285 19.988zM480.502 277.33c-18.111 0-35.478-7.19-48.285-19.988-12.805-12.798-20-30.155-20-48.254v-34.154h-341.267c-8.967 0-17.847-1.765-26.132-5.195s-15.813-8.457-22.153-14.793c-6.341-6.339-11.371-13.862-14.802-22.142-3.432-8.279-5.198-17.154-5.198-26.115 0.001-18.099 7.195-35.458 20.001-48.256s30.174-19.988 48.284-19.988h341.267v-34.2c0-18.099 7.195-35.456 20-48.254 12.807-12.798 30.174-19.988 48.285-19.988 18.109 0 35.478 7.19 48.283 19.988s20 30.155 20.002 48.254v34.2h409.571c18.109 0 35.478 7.19 48.285 19.988 12.805 12.798 20 30.157 20 48.256 0 8.962-1.766 17.836-5.197 26.115-3.432 8.281-8.462 15.804-14.804 22.142-6.34 6.337-13.868 11.363-22.153 14.793s-17.166 5.195-26.132 5.195h-409.571v34.154c-0.002 18.099-7.197 35.456-20.002 48.254s-30.174 19.988-48.283 19.988z" />
</font>
</defs>
</svg>
