<svg width="292" height="292" viewBox="0 0 292 292" fill="none" xmlns="http://www.w3.org/2000/svg">
<path d="M287.652 110.713L287.694 110.703L286.359 105.726L286.317 105.736C283.275 95.1316 279.039 84.9039 273.69 75.2521L273.726 75.2296L271.15 70.7672L271.114 70.7897C265.431 61.3374 258.69 52.551 251.029 44.6108L251.058 44.5818L247.414 40.9398L247.385 40.9688C239.448 33.3052 230.664 26.5651 221.209 20.8833L221.231 20.848L216.77 18.2709L216.748 18.3063C207.099 12.9592 196.869 8.72203 186.265 5.67849L186.275 5.63667L181.299 4.30471L181.29 4.34654C170.586 1.67942 159.606 0.23486 148.578 0.0418237V0H143.425V0.0418237C132.397 0.238078 121.42 1.68263 110.714 4.34654L110.704 4.30471L105.729 5.63667L105.738 5.67849C95.1345 8.72203 84.9071 12.9592 75.2586 18.3063L75.2393 18.2709L70.7752 20.848L70.7945 20.8833C61.3422 26.5651 52.5556 33.3085 44.618 40.9688L44.5891 40.9398L40.9452 44.5818L40.9741 44.6108C33.3132 52.5478 26.5721 61.3342 20.8891 70.7897L20.8505 70.7672L18.2743 75.2296L18.3097 75.2521C12.9644 84.9039 8.72549 95.1349 5.68299 105.736L5.64118 105.726L4.30646 110.703L4.34827 110.713C1.68206 121.417 0.234783 132.394 0.0418119 143.426H0V148.58H0.0418119C0.237999 159.609 1.68206 170.586 4.34827 181.294L4.30646 181.303L5.64118 186.28L5.68299 186.271C8.72549 196.875 12.9644 207.103 18.3097 216.754L18.2743 216.777L20.8505 221.239L20.8859 221.217C26.5688 230.672 33.31 239.455 40.9709 247.392L40.9419 247.421L44.5859 251.063L44.6148 251.034C52.5491 258.695 61.3357 265.438 70.7913 271.12L70.772 271.155L75.2361 273.732L75.2553 273.697C87.8081 280.653 98.5115 284.43 110.701 287.698L112.036 282.721C58.9911 268.507 23.7933 230.56 10.6648 184.935L38.3304 177.523L61.1428 171.41C62.8698 177.175 65.1758 182.748 68.0318 188.047L67.9578 188.088L70.534 192.551L95.3757 178.208L124.678 161.292C117.506 148.87 119.092 140.392 124.678 130.721L99.9106 116.42C120.751 83.9709 171.204 80.078 194.736 120.841L199.197 118.264C194.064 109.375 188.394 101.968 178.157 95.4534L189.967 74.9979L204.285 50.1927C228.828 65.1273 246.539 87.8799 255.001 119.467L259.98 118.132C257.359 108.358 254.515 99.9415 248.845 89.6011L248.881 89.5786L246.305 85.1163L246.269 85.1356C241.844 77.8452 236.637 71.06 230.741 64.8989L230.77 64.8699L227.126 61.228L227.098 61.2569C220.939 55.3629 214.149 50.1541 206.861 45.7304L206.884 45.695L202.423 43.1179L202.404 43.1533C194.926 39.0545 187.024 35.7793 178.839 33.3921L178.848 33.3503L173.873 32.0151L165.115 64.6994L170.091 66.0314L177.504 38.3628C185.252 40.631 192.739 43.7324 199.824 47.6093L173.696 92.8699C165.919 88.8161 157.332 86.5158 148.575 86.1394V86.0557H143.422V86.1394C134.661 86.519 126.077 88.8194 118.301 92.8699L106.491 72.4177L92.1724 47.6125C101.917 42.2814 109.868 39.5628 119.458 36.9922L118.124 32.0151C108.414 34.6179 99.9685 37.462 89.5963 43.1501L89.5738 43.1147L85.1129 45.6918L85.1355 45.7271C77.8476 50.1509 71.0614 55.3597 64.8993 61.2537L64.8703 61.2248L61.2264 64.8667L61.2553 64.8957C55.3601 71.0535 50.1531 77.842 45.7276 85.1323L45.6922 85.113L43.1161 89.5754L47.5769 92.1524L72.4187 106.495L74.9948 102.033L50.1917 87.7094C59.5572 72.3179 72.319 59.5518 87.7116 50.1863L99.4989 70.6031C91.7768 75.3647 87.078 79.5793 81.5108 85.1484L85.1547 88.7904C90.2781 83.6653 94.636 79.6726 102.075 75.0623L113.84 95.4437C106.443 100.154 100.158 106.437 95.4497 113.834L95.3757 113.792L92.7996 118.254L117.744 132.658C113.772 141.084 113.772 150.91 117.744 159.339L97.2636 171.166L72.4959 185.466C68.4338 177.899 66.6296 172.301 64.7063 165.117L59.7309 166.449L37.0407 172.53C34.4099 161.723 33.8471 153.339 33.8471 143.423H28.6947C28.6947 153.477 29.2576 162.373 32.0653 173.865L32.0235 173.874L9.33335 179.955C3.77258 157.56 3.76936 134.437 9.33335 112.045L32.0235 118.126L59.8113 125.57C58.4219 131.426 57.6371 137.407 57.4602 143.423H57.3766V148.577H91.214V143.423H62.6158C62.8827 134.826 64.1209 129.074 66.041 121.906L38.3336 114.48L10.6681 107.068C27.7717 47.6286 81.543 6.32838 143.429 5.19268V57.4541C134.372 57.7179 128.194 59.0177 120.578 61.0575L121.912 66.0346C133.88 62.827 139.338 62.5213 148.581 62.5213V5.19268C271.4 7.44478 332.636 155.298 247.388 243.747L206.855 203.21C198.142 211.925 193.562 214.94 185.512 219.586L188.089 224.048C194.463 220.364 199.895 216.944 206.794 210.436L243.744 247.389C227.13 263.408 207.112 274.965 184.937 281.344L178.845 258.614C190.025 255.355 197.988 251.456 206.89 246.311L204.314 241.849C195.907 246.704 188.333 250.465 177.51 253.634L170.097 225.965C148.099 231.859 127.171 230.582 106.539 219.508L118.304 199.127C126.081 203.181 134.665 205.481 143.425 205.861V205.944H148.578V177.137C157.86 176.361 166.37 171.449 171.683 163.798L192.093 175.583C186.175 184.797 179.54 189.906 171.168 194.739L173.744 199.201C182.627 194.073 190.038 188.397 196.553 178.16L196.627 178.202L199.204 173.739L199.13 173.698C203.182 165.921 205.482 157.334 205.861 148.574H229.394C229.13 157.109 227.908 162.846 225.969 170.094L230.947 171.426C232.851 164.313 234.273 158.055 234.549 148.574H258.121C257.706 166.584 253.033 184.025 244.388 199.828L219.585 185.505L217.008 189.967L246.311 206.887L248.887 202.425L248.852 202.402C252.949 194.928 256.223 187.023 258.613 178.836L258.655 178.845L259.989 173.868L259.948 173.858C261.974 165.577 263.09 157.093 263.276 148.571H263.318V143.417H234.549C234.376 137.4 233.588 131.423 232.198 125.564L232.279 125.541L230.947 120.564L230.864 120.587C229.137 114.818 226.831 109.249 223.971 103.95L224.045 103.908L221.469 99.446L221.395 99.4878C216.632 91.7664 212.419 87.0692 206.852 81.5L203.208 85.142C219.559 101.495 228.68 120.3 229.394 143.417H200.796C200.796 152.911 199.757 161.256 194.669 171.117L174.365 159.394L174.262 159.332C178.234 150.906 178.234 141.078 174.262 132.652L174.365 132.59L171.789 128.128L171.686 128.189C165.466 119.226 156.377 114.728 143.429 114.728V119.882C181.302 119.882 181.859 172.102 143.429 172.102V200.703C132.51 200.185 124.778 197.01 116.381 192.158L113.804 196.621L102.036 217.002L99.4603 221.464L87.7148 241.807C80.8161 237.609 74.387 232.677 68.5464 227.098L88.7987 206.845L85.1547 203.203L64.9025 223.456C57.2222 215.413 52.5395 208.434 47.5834 199.848L43.1225 202.425C48.1976 211.217 53.1313 218.604 61.2618 227.101L61.2328 227.13L64.8767 230.772L64.9057 230.743C71.0647 236.637 77.8508 241.846 85.1419 246.27L85.1194 246.305L89.5802 248.882L89.6027 248.847C97.0771 252.945 104.982 256.221 113.164 258.608L113.155 258.65L118.13 259.982L118.14 259.94C129.39 262.691 138.206 263.312 148.578 263.312V258.157C129.348 258.157 111.061 254.715 92.1757 244.381L103.963 223.964C109.26 226.821 114.834 229.128 120.597 230.856L120.575 230.936L125.55 232.271L125.572 232.191C131.429 233.577 137.408 234.366 143.425 234.543V234.626H148.578V234.543C154.595 234.369 160.574 233.581 166.431 232.191L173.876 259.982L179.955 282.673C166.495 286.016 155.621 286.846 143.425 286.846V292C155.811 292 167.174 291.167 181.29 287.65L181.299 287.692L186.275 286.36L186.265 286.318C196.869 283.275 207.099 279.038 216.748 273.69L216.77 273.726L221.231 271.149L221.209 271.113C230.664 265.428 239.448 258.688 247.385 251.028L247.414 251.057L251.058 247.415L251.029 247.386C258.69 239.449 265.431 230.663 271.114 221.21L271.15 221.233L273.726 216.77L273.69 216.748C279.036 207.096 283.275 196.868 286.317 186.264L286.359 186.274L287.694 181.297L287.652 181.287C290.318 170.583 291.762 159.603 291.958 148.574H292V143.42H291.958C291.762 132.388 290.318 121.41 287.652 110.706V110.713Z" fill="url(#paint0_linear_1380_6)"/>
<defs>
<linearGradient id="paint0_linear_1380_6" x1="146" y1="0" x2="146" y2="292" gradientUnits="userSpaceOnUse">
<stop stop-color="#E1F3FF" stop-opacity="0.5"/>
<stop offset="1" stop-color="#5564C6" stop-opacity="0"/>
</linearGradient>
</defs>
</svg>
