<svg width="226" height="226" viewBox="0 0 226 226" fill="none" xmlns="http://www.w3.org/2000/svg">
<g clip-path="url(#clip0_994_61)">
<path d="M124.939 106.98C126.145 109.129 126.721 111.635 126.56 114.101C126.413 116.567 125.529 118.994 124.042 121.012C123.868 121.262 123.654 121.5 123.466 121.75C123.252 121.987 123.051 122.225 122.823 122.449C122.381 122.897 121.913 123.319 121.417 123.702C121.297 123.794 121.163 123.9 121.042 123.979L120.908 124.071L120.761 124.177C120.667 124.243 120.56 124.309 120.466 124.374C119.007 125.324 117.332 125.983 115.605 126.287C117.279 125.997 118.913 125.403 120.386 124.546C120.6 124.427 120.801 124.282 121.015 124.15L121.056 124.124L121.149 124.071C121.149 124.071 121.216 124.032 121.243 124.005L121.631 123.715C121.765 123.623 121.886 123.517 122.006 123.412C122.127 123.306 122.261 123.214 122.381 123.095C122.877 122.673 123.319 122.212 123.747 121.724C125.435 119.772 126.533 117.332 126.868 114.774C127.216 112.215 126.774 109.565 125.663 107.23C124.538 104.883 122.716 102.878 120.466 101.507C118.216 100.122 115.565 99.3967 112.899 99.4495C110.234 99.489 107.596 100.307 105.373 101.771C103.15 103.234 101.368 105.344 100.297 107.784C99.2257 110.211 98.8774 112.954 99.3328 115.591L100.592 115.367C100.15 113.02 100.377 110.54 101.288 108.312C102.185 106.083 103.752 104.105 105.734 102.68C107.717 101.256 110.127 100.412 112.591 100.267C115.056 100.109 117.574 100.663 119.743 101.85C121.926 103.023 123.761 104.83 124.953 106.98H124.939Z" fill="url(#paint0_linear_994_61)"/>
<path d="M117.788 127.395C118.056 127.315 118.31 127.223 118.564 127.131H118.618L118.725 127.078C118.765 127.065 118.806 127.052 118.846 127.025L119.341 126.827C119.515 126.761 119.663 126.682 119.837 126.603C119.997 126.524 120.158 126.458 120.319 126.366C120.962 126.049 121.578 125.654 122.167 125.245C124.511 123.583 126.372 121.249 127.43 118.585C128.502 115.921 128.756 112.954 128.18 110.132C127.604 107.309 126.185 104.659 124.136 102.575C122.087 100.491 119.422 99.0011 116.542 98.3549C113.663 97.6955 110.582 97.8669 107.783 98.8692C104.984 99.8583 102.48 101.665 100.672 103.999C98.8506 106.334 97.739 109.208 97.4979 112.149L98.9175 112.242C99.0783 109.591 100.016 106.98 101.596 104.817C103.176 102.654 105.4 100.927 107.931 99.9242C110.462 98.9088 113.288 98.645 115.993 99.133C118.698 99.6077 121.256 100.874 123.265 102.733C125.288 104.58 126.774 107.006 127.484 109.644C128.194 112.281 128.127 115.13 127.283 117.754C126.453 120.379 124.832 122.752 122.676 124.533C122.408 124.757 122.127 124.968 121.846 125.179C121.551 125.377 121.27 125.575 120.975 125.759C120.386 126.128 119.756 126.458 119.114 126.735C118.953 126.801 118.792 126.88 118.631 126.946L118.471 127.012L118.283 127.078C118.163 127.131 118.029 127.17 117.908 127.21C116.073 127.856 114.091 128.107 112.149 127.975C114.038 128.093 115.953 127.896 117.774 127.368L117.788 127.395Z" fill="url(#paint1_linear_994_61)"/>
<path d="M98.0349 108.483C98.9322 105.661 100.646 103.103 102.95 101.19C105.253 99.2782 108.119 98.0122 111.119 97.5901C114.119 97.1681 117.24 97.6297 120.026 98.8694C122.811 100.096 125.222 102.14 126.896 104.672C128.57 107.204 129.521 110.211 129.561 113.244C129.601 116.277 128.757 119.337 127.137 121.935C125.516 124.546 123.119 126.683 120.32 128.028C119.972 128.199 119.61 128.344 119.249 128.502C118.887 128.634 118.526 128.779 118.151 128.898C117.414 129.135 116.651 129.32 115.874 129.452C115.686 129.478 115.485 129.518 115.298 129.544L115.11 129.571L114.883 129.597C114.735 129.61 114.588 129.637 114.441 129.637C112.285 129.848 110.088 129.597 108.012 128.938C110.021 129.571 112.124 129.861 114.24 129.768C114.548 129.768 114.843 129.729 115.151 129.689H115.204L115.338 129.676C115.392 129.676 115.432 129.676 115.485 129.663L116.075 129.571C116.276 129.544 116.463 129.492 116.664 129.465C116.865 129.426 117.052 129.386 117.253 129.333C118.03 129.162 118.793 128.898 119.543 128.621C122.53 127.461 125.168 125.43 127.043 122.832C128.918 120.247 130.016 117.108 130.164 113.917C130.324 110.725 129.507 107.481 127.86 104.698C126.226 101.916 123.749 99.6079 120.829 98.144C117.909 96.6802 114.535 96.0472 111.253 96.3769C107.972 96.7066 104.785 97.9858 102.187 100.03C99.5884 102.061 97.6063 104.87 96.5349 107.982L98.0349 108.457V108.483Z" fill="url(#paint2_linear_994_61)"/>
<path d="M96.6161 103.261L98.1027 104.171C99.8437 101.375 102.388 99.0671 105.402 97.6164C108.402 96.1526 111.843 95.546 115.192 95.902C118.54 96.2449 121.781 97.5769 124.433 99.6474C127.098 101.718 129.133 104.54 130.245 107.718C131.37 110.883 131.557 114.378 130.767 117.662C129.99 120.946 128.236 124.018 125.785 126.392C123.334 128.779 120.16 130.441 116.772 131.153C116.357 131.259 115.915 131.311 115.5 131.377C115.071 131.43 114.643 131.483 114.201 131.509C113.33 131.575 112.46 131.575 111.602 131.509C111.388 131.496 111.174 131.483 110.946 131.456L110.732 131.43L110.491 131.404C110.33 131.377 110.156 131.364 109.995 131.338C107.611 130.995 105.308 130.151 103.259 128.885C105.241 130.098 107.451 130.968 109.741 131.43C110.076 131.496 110.41 131.549 110.745 131.588H110.812L110.96 131.615C111.013 131.615 111.067 131.628 111.12 131.628L111.79 131.694C112.018 131.72 112.232 131.72 112.46 131.733C112.687 131.733 112.901 131.76 113.129 131.747C114.026 131.76 114.91 131.694 115.794 131.575C119.33 131.1 122.732 129.623 125.45 127.315C128.182 125.021 130.218 121.922 131.249 118.519C132.294 115.117 132.307 111.411 131.29 107.982C130.285 104.553 128.249 101.401 125.491 99.0539C122.732 96.6933 119.276 95.1239 115.647 94.6228C112.018 94.1085 108.227 94.6492 104.879 96.1658C101.518 97.6692 98.6116 100.162 96.6161 103.248V103.261Z" fill="url(#paint3_linear_994_61)"/>
<path d="M99.3449 99.5419C101.983 96.9834 105.358 95.1635 109.001 94.3986C112.63 93.6205 116.501 93.8711 120.023 95.1371C123.545 96.39 126.679 98.6847 128.969 101.612C131.273 104.54 132.706 108.14 133.041 111.859C133.389 115.578 132.639 119.39 130.898 122.726C129.157 126.063 126.438 128.911 123.144 130.823C119.849 132.736 115.978 133.712 112.121 133.58C111.639 133.58 111.157 133.527 110.675 133.487C110.193 133.421 109.711 133.382 109.242 133.29C108.291 133.131 107.354 132.894 106.43 132.604C106.202 132.525 105.974 132.459 105.747 132.38L105.519 132.3L105.264 132.208C105.09 132.142 104.916 132.076 104.755 131.997C102.291 130.995 100.028 129.465 98.1663 127.579C99.9743 129.412 102.117 130.942 104.461 132.037C104.796 132.195 105.144 132.34 105.505 132.472L105.572 132.498L105.72 132.564C105.72 132.564 105.84 132.604 105.894 132.63L106.59 132.868C106.818 132.947 107.059 133.013 107.3 133.079C107.541 133.145 107.769 133.224 108.01 133.276C108.961 133.527 109.952 133.685 110.929 133.804C114.867 134.239 118.938 133.527 122.514 131.773C126.09 130.019 129.117 127.223 131.166 123.834C133.215 120.445 134.246 116.449 134.085 112.479C133.938 108.51 132.612 104.58 130.268 101.309C127.938 98.0385 124.643 95.4273 120.867 93.9239C117.09 92.4073 112.858 91.9852 108.827 92.7238C104.796 93.4491 100.979 95.3745 97.9922 98.1704L99.3449 99.5551V99.5419Z" fill="url(#paint4_linear_994_61)"/>
<path d="M98.5968 131.245C98.9182 131.509 99.253 131.76 99.6012 131.997L99.6682 132.037L99.8155 132.142C99.8155 132.142 99.9226 132.221 99.9896 132.261L100.673 132.709C100.9 132.867 101.141 132.986 101.382 133.131C101.623 133.276 101.851 133.408 102.106 133.527C103.07 134.054 104.074 134.49 105.106 134.859C109.23 136.362 113.824 136.679 118.15 135.729C122.476 134.793 126.52 132.577 129.654 129.465C132.788 126.353 134.984 122.317 135.895 117.992C136.819 113.679 136.458 109.09 134.837 104.949C133.23 100.808 130.377 97.1284 126.708 94.4908C123.052 91.8533 118.605 90.2839 114.065 90.0202C109.512 89.7432 104.878 90.7983 100.9 93.027L101.985 94.8733C105.521 92.816 109.659 91.7478 113.797 91.8928C117.922 92.0115 122.034 93.3171 125.476 95.6118C128.931 97.8933 131.676 101.19 133.351 104.962C135.038 108.734 135.601 112.993 134.944 117.082C134.301 121.17 132.453 125.1 129.668 128.225C126.882 131.351 123.172 133.711 119.087 134.898C115.003 136.098 110.57 136.112 106.458 134.951C105.936 134.819 105.44 134.635 104.931 134.476C104.436 134.279 103.927 134.107 103.445 133.883C102.467 133.461 101.516 132.96 100.606 132.406C100.378 132.261 100.15 132.129 99.9226 131.971L99.7083 131.826L99.4539 131.654C99.2932 131.535 99.1191 131.43 98.9584 131.298C96.5745 129.557 94.5522 127.329 93.0522 124.783C94.4986 127.236 96.387 129.452 98.6236 131.259L98.5968 131.245Z" fill="url(#paint5_linear_994_61)"/>
<path d="M106.043 90.5346C110.423 89.2422 115.177 89.2026 119.597 90.4423C124.016 91.6688 128.087 94.1481 131.168 97.5374C134.275 100.913 136.337 105.199 137.101 109.71C137.891 114.22 137.328 118.954 135.507 123.201C133.699 127.447 130.645 131.18 126.775 133.817C122.918 136.455 118.284 138.011 113.556 138.209C108.829 138.42 104.048 137.259 99.9228 134.925C99.4005 134.648 98.905 134.318 98.4095 134.002C97.9273 133.659 97.4318 133.342 96.963 132.96C96.0122 132.248 95.1283 131.456 94.3113 130.612C94.1104 130.401 93.8961 130.19 93.6953 129.966L93.5078 129.742L93.2801 129.491C93.1328 129.32 92.9721 129.162 92.8381 128.977C90.7355 126.471 89.1686 123.531 88.2579 120.392C89.1552 123.425 90.5882 126.3 92.5033 128.845C92.7712 129.215 93.0792 129.571 93.3738 129.914L93.4274 129.979L93.5479 130.125C93.5479 130.125 93.6417 130.243 93.6953 130.296L94.3113 130.955C94.5122 131.18 94.7399 131.377 94.9542 131.602C95.1684 131.813 95.3827 132.024 95.6238 132.221C96.5211 133.039 97.4854 133.778 98.5032 134.463C102.548 137.18 107.396 138.736 112.324 138.855C117.253 138.987 122.208 137.668 126.427 135.136C130.659 132.604 134.127 128.832 136.284 124.427C138.467 120.023 139.324 114.972 138.708 110.079C138.105 105.186 136.043 100.465 132.802 96.6538C129.587 92.8425 125.221 89.9675 120.387 88.4773C115.565 86.9739 110.275 86.8948 105.374 88.2267L106.043 90.5082V90.5346Z" fill="url(#paint6_linear_994_61)"/>
<path d="M136.807 101.138C139.231 105.595 140.289 110.765 139.887 115.829C139.499 120.893 137.611 125.865 134.49 129.953C131.383 134.054 127.071 137.272 122.182 139.092C117.308 140.912 111.87 141.374 106.727 140.332C101.571 139.303 96.7365 136.798 92.933 133.184C92.4509 132.749 92.0089 132.261 91.5536 131.786C91.125 131.285 90.6831 130.81 90.2813 130.283C89.4644 129.267 88.7278 128.173 88.0581 127.052C87.8974 126.762 87.7233 126.485 87.576 126.195L87.4287 125.904L87.2546 125.575C87.1474 125.351 87.0269 125.126 86.9198 124.902C85.6609 122.304 84.8573 119.495 84.5091 116.633C84.8171 119.39 85.5001 122.106 86.5849 124.678C86.7724 125.153 87.0001 125.614 87.2278 126.063L87.268 126.155L87.3617 126.353C87.4019 126.432 87.4421 126.498 87.4823 126.577L87.9644 127.461C88.1251 127.751 88.3126 128.028 88.4867 128.318C88.6608 128.608 88.8349 128.885 89.0358 129.162C89.7724 130.283 90.6295 131.338 91.5268 132.34C95.1428 136.336 99.9508 139.303 105.227 140.728C110.504 142.178 116.196 142.06 121.446 140.451C126.696 138.842 131.464 135.703 134.999 131.509C138.548 127.329 140.852 122.12 141.521 116.686C142.204 111.253 141.267 105.608 138.816 100.663C136.379 95.7043 132.468 91.4446 127.66 88.5696C122.865 85.6683 117.187 84.1781 111.535 84.3231L111.629 86.9607C116.705 86.7365 121.834 87.9366 126.267 90.4423C130.7 92.9348 134.41 96.6933 136.807 101.164V101.138Z" fill="url(#paint7_linear_994_61)"/>
<path d="M81.3218 118.585C81.4021 119.152 81.5227 119.706 81.6432 120.247L81.67 120.352L81.7236 120.59C81.7369 120.682 81.7637 120.774 81.7905 120.867L82.0718 121.948C82.1655 122.304 82.286 122.66 82.3932 123.016C82.5003 123.372 82.6209 123.728 82.7548 124.071C83.2503 125.482 83.8798 126.828 84.5762 128.146C87.3752 133.421 91.7546 137.879 97.0581 140.82C102.348 143.774 108.522 145.172 114.629 144.816C120.736 144.473 126.736 142.35 131.691 138.763C136.66 135.202 140.571 130.19 142.767 124.506C144.977 118.823 145.512 112.506 144.227 106.505C142.954 100.518 139.888 94.8866 135.508 90.5082C131.129 86.1167 125.424 83.0043 119.29 81.6724L118.674 84.5341C124.205 85.6287 129.415 88.2927 133.499 92.1699C137.597 96.0339 140.571 101.058 141.937 106.505C143.329 111.952 143.062 117.807 141.254 123.161C139.459 128.529 136.057 133.369 131.584 136.956C127.111 140.543 121.58 142.877 115.821 143.55C110.062 144.222 104.089 143.273 98.8259 140.793C93.5492 138.327 89.0225 134.331 85.902 129.439C85.5003 128.832 85.1521 128.199 84.7905 127.566C84.469 126.92 84.1074 126.287 83.8262 125.614C83.2235 124.295 82.7146 122.924 82.3128 121.539C82.2191 121.183 82.0985 120.84 82.0182 120.484L81.9378 120.128L81.8441 119.719C81.7771 119.456 81.7102 119.179 81.67 118.902C81.0271 115.776 80.92 112.532 81.3218 109.354C80.9066 112.4 80.9066 115.512 81.362 118.572L81.3218 118.585Z" fill="url(#paint8_linear_994_61)"/>
<path d="M126.84 83.8088C132.505 86.4596 137.393 90.706 140.741 95.9548C144.103 101.204 145.938 107.415 145.924 113.653C145.938 119.891 144.049 126.129 140.634 131.43C137.233 136.732 132.251 141.07 126.438 143.734C120.639 146.425 114.037 147.466 107.648 146.662C101.26 145.871 95.0728 143.26 90.0773 139.185C85.0685 135.123 81.265 129.623 79.2427 123.517C78.9749 122.766 78.774 121.974 78.5597 121.21C78.3856 120.431 78.1847 119.64 78.0508 118.849C77.7561 117.266 77.5954 115.657 77.5418 114.049C77.5418 113.64 77.5017 113.244 77.5151 112.835V112.44L77.5285 111.978C77.5285 111.675 77.5285 111.358 77.5686 111.055C77.7695 106.597 78.9079 102.179 80.9034 98.1572C78.9883 102.061 77.7695 106.281 77.341 110.606C77.274 111.226 77.2472 111.859 77.2338 112.492V112.611L77.2204 112.875C77.2204 112.98 77.2204 113.086 77.2204 113.178V114.418C77.2204 114.827 77.274 115.235 77.2874 115.657C77.3142 116.066 77.3276 116.475 77.3811 116.897C77.5285 118.546 77.8365 120.168 78.2249 121.777C79.8052 128.199 83.3141 134.173 88.2157 138.749C93.104 143.339 99.3986 146.477 106.068 147.717C112.738 148.97 119.782 148.258 126.103 145.713C132.425 143.194 138.009 138.828 141.947 133.276C145.884 127.737 148.188 121.064 148.442 114.26C148.71 107.468 146.942 100.597 143.407 94.7151C139.884 88.8202 134.581 83.9539 128.327 80.8943L126.88 83.822L126.84 83.8088Z" fill="url(#paint9_linear_994_61)"/>
<path d="M74.5442 103.01L74.504 103.142L74.4237 103.432C74.3835 103.538 74.3567 103.656 74.3299 103.762L74.0085 105.094C73.888 105.542 73.821 105.991 73.7406 106.439C73.6469 106.888 73.5665 107.336 73.513 107.797C73.2183 109.604 73.1112 111.45 73.0844 113.284C73.0442 120.629 75.187 128.001 79.2316 134.226C83.2628 140.464 89.1689 145.515 96.0259 148.614C102.883 151.726 110.677 152.821 118.177 151.753C125.691 150.711 132.896 147.48 138.641 142.534C144.4 137.602 148.699 131.021 150.828 123.755C152.971 116.501 152.944 108.628 150.735 101.349C148.552 94.0557 144.159 87.4091 138.253 82.4504L135.896 85.2199C141.279 89.5719 145.391 95.4405 147.561 101.995C149.757 108.536 150.038 115.723 148.311 122.449C146.623 129.188 142.887 135.4 137.757 140.213C132.641 145.04 126.092 148.39 119.088 149.722C112.097 151.08 104.704 150.46 98.0214 147.902C91.3519 145.356 85.3922 140.899 81.12 135.189C76.8209 129.491 74.2362 122.555 73.7139 115.433C73.6335 114.55 73.6335 113.653 73.6067 112.756C73.6335 111.859 73.6201 110.976 73.7139 110.079C73.821 108.299 74.0888 106.518 74.4638 104.777C74.571 104.342 74.6513 103.907 74.7585 103.472L74.879 103.037L75.0129 102.536C75.1067 102.206 75.187 101.876 75.3076 101.546C76.7272 96.7988 79.178 92.3413 82.419 88.53C79.2852 92.2226 76.8209 96.4559 75.1736 101.019C74.9326 101.678 74.7317 102.351 74.5442 103.023V103.01Z" fill="url(#paint10_linear_994_61)"/>
<path d="M145.268 89.084C149.888 95.2031 152.714 102.615 153.263 110.264C153.839 117.899 152.178 125.72 148.495 132.512C144.839 139.33 139.107 145.04 132.264 148.864C125.433 152.715 117.451 154.588 109.55 154.179C101.648 153.797 93.8403 151.172 87.3315 146.649C80.8361 142.139 75.6263 135.769 72.5728 128.476C69.5059 121.196 68.5952 113.02 69.9881 105.213C70.1354 104.237 70.3898 103.274 70.6041 102.298C70.872 101.349 71.113 100.373 71.4478 99.4364C72.0505 97.5374 72.8273 95.7043 73.7112 93.9107C73.9389 93.4623 74.1532 93.0139 74.3942 92.5787L74.6353 92.1436L74.9165 91.6424C75.104 91.3127 75.2915 90.9698 75.4924 90.6533C78.3316 85.9057 82.1753 81.7515 86.7154 78.4941C82.336 81.646 78.5057 85.5628 75.5058 90.0335C75.0638 90.6797 74.6755 91.3523 74.2737 92.0249L74.1933 92.1567L74.0192 92.4469C73.9523 92.5524 73.8853 92.6711 73.8317 92.7766L73.1219 94.1349C72.8809 94.5833 72.68 95.0581 72.4523 95.5196C72.238 95.9812 72.0237 96.4428 71.8362 96.9175C71.0193 98.7902 70.4032 100.742 69.8809 102.72C67.8319 110.633 68.1265 119.139 70.7916 126.92C73.43 134.714 78.4254 141.717 84.9744 146.873C91.5099 152.043 99.6125 155.287 107.996 156.131C116.38 156.988 125.032 155.419 132.585 151.608C140.138 147.823 146.58 141.849 150.853 134.582C155.152 127.329 157.268 118.823 156.866 110.396C156.504 101.955 153.571 93.6338 148.576 86.7234L145.281 89.084H145.268Z" fill="url(#paint11_linear_994_61)"/>
<path d="M76.1485 142.481C70.3763 135.888 66.5059 127.645 65.1934 118.981C63.8675 110.316 65.1264 101.269 68.7558 93.2249C69.1844 92.2094 69.7201 91.2335 70.2022 90.2444C70.7513 89.2817 71.2736 88.3058 71.8897 87.3827C73.0548 85.4968 74.3941 83.7165 75.8405 82.0284C76.2021 81.6064 76.5503 81.1712 76.9387 80.7756L77.3137 80.3799L77.7556 79.9183C78.0503 79.615 78.3315 79.2985 78.653 79.0084C83.0055 74.6432 88.2956 71.1748 94.0678 68.8669C88.4831 71.1089 83.2868 74.3135 78.8271 78.3358C78.1708 78.9161 77.5681 79.5359 76.9521 80.1557L76.8316 80.2744L76.5771 80.5382C76.47 80.6437 76.3762 80.736 76.2825 80.8547L75.1441 82.1207C74.7557 82.5427 74.4209 82.9911 74.0459 83.4395C73.6843 83.8747 73.3227 84.3231 73.0013 84.7847C71.6218 86.5914 70.4165 88.53 69.3183 90.5214C64.9523 98.5 62.9434 107.758 63.6934 116.844C64.4032 125.944 67.8853 134.819 73.537 142.112C79.1753 149.418 87.0233 155.063 95.8356 158.175C104.635 161.327 114.398 161.92 123.572 159.81C132.746 157.727 141.317 152.992 147.906 146.293C154.522 139.607 159.116 131.008 160.991 121.803C162.906 112.611 162.022 102.852 158.513 94.0821L154.308 95.7569C157.616 103.577 158.634 112.321 157.147 120.708C155.687 129.096 151.763 137.074 145.937 143.431C140.138 149.814 132.397 154.456 123.973 156.764C115.563 159.098 106.443 159.006 98.032 156.487C89.6081 153.981 81.9073 149.089 76.1351 142.481H76.1485Z" fill="url(#paint12_linear_994_61)"/>
<path d="M162.251 105.358C163.684 114.655 162.398 124.361 158.501 132.999C154.644 141.651 148.229 149.22 140.207 154.522C132.211 159.863 122.596 162.817 112.886 163.094C103.176 163.384 93.3729 160.879 84.9891 155.92C76.592 150.988 69.6278 143.668 65.2083 135.03C60.7887 126.392 58.8602 116.488 59.8245 106.795C60.7619 97.1021 64.5788 87.686 70.6992 79.9711C71.4358 78.982 72.2796 78.0853 73.0831 77.1489C73.9403 76.2654 74.7706 75.3422 75.6813 74.5114C77.4625 72.797 79.3776 71.2276 81.3999 69.7769C81.9088 69.4209 82.4044 69.0516 82.9267 68.7087L83.449 68.379L84.0517 67.9966C84.4534 67.746 84.8418 67.4823 85.257 67.2581C91.1363 63.7105 97.7925 61.3631 104.636 60.4136C98.0067 61.3499 91.5381 63.4336 85.6186 66.5987C84.7615 67.0471 83.9311 67.5614 83.1008 68.0625L82.9401 68.1548L82.5919 68.3658C82.4579 68.445 82.324 68.5373 82.1901 68.6164L80.6098 69.6846C80.0741 70.0275 79.5919 70.4363 79.0696 70.8056C78.5607 71.188 78.0518 71.5705 77.5696 71.9793C75.5875 73.5619 73.7528 75.329 72.0251 77.1885C65.1279 84.6396 60.4539 94.0821 58.7664 104.079C57.0522 114.075 58.3781 124.572 62.4762 133.923C66.5609 143.286 73.4715 151.449 82.1231 157.146C90.748 162.87 101.114 166.101 111.587 166.246C122.046 166.431 132.586 163.595 141.519 158.109C150.466 152.649 157.778 144.592 162.305 135.175C166.871 125.773 168.586 115.024 167.193 104.632L162.211 105.318L162.251 105.358Z" fill="url(#paint13_linear_994_61)"/>
<path d="M130.991 164.967C120.907 168.62 109.751 169.253 99.2107 166.971C88.6574 164.716 78.787 159.415 71.0997 151.858C63.3989 144.328 57.8812 134.595 55.4839 124.098C53.0733 113.627 53.7027 102.417 57.3857 92.2359C61.0418 82.0417 67.7381 72.8893 76.4299 66.1899C77.5013 65.3195 78.6531 64.5678 79.7647 63.7765C80.9298 63.0512 82.0682 62.2731 83.2869 61.6269C85.6708 60.2422 88.1752 59.0553 90.7332 58.0398C91.3761 57.7892 92.0189 57.5255 92.6751 57.3013L93.3314 57.0771L94.0814 56.8265C94.5769 56.6551 95.0724 56.4836 95.5947 56.3518C102.907 54.0834 110.715 53.3186 118.362 54.0966C110.956 53.3449 103.416 53.8856 96.1706 55.7319C95.126 55.9825 94.0948 56.3122 93.0635 56.6419L92.876 56.7078L92.4341 56.8397C92.26 56.8925 92.0993 56.9452 91.9386 57.0111L89.9431 57.7497C89.2734 57.987 88.6306 58.2904 87.9743 58.5541C87.3181 58.8311 86.6753 59.108 86.0324 59.4245C83.461 60.5982 81.0102 62.0357 78.6397 63.5655C69.1711 69.7638 61.5508 78.7183 57.0107 89.0576C52.4304 99.3837 51.0108 111.042 52.859 122.212C54.7071 133.395 59.9303 144.025 67.7113 152.452C75.4523 160.905 85.7378 167.13 96.9876 170.071C108.211 173.038 120.344 172.774 131.473 169.226C142.616 165.705 152.687 158.953 160.147 149.999C167.633 141.07 172.415 129.927 173.754 118.374L168.196 117.794C167.205 128.199 163.174 138.314 156.611 146.609C150.089 154.918 141.103 161.38 131.018 164.98L130.991 164.967Z" fill="url(#paint14_linear_994_61)"/>
<path d="M150.828 160.773C141.52 168 130.082 172.589 118.217 173.803C106.351 175.069 94.1367 172.8 83.3958 167.552C72.6416 162.329 63.4275 153.994 57.2133 143.813C50.959 133.646 47.6778 121.697 47.9456 109.749C48.2001 97.8142 51.9366 85.9056 58.6865 75.896C65.4096 65.8601 75.1192 57.776 86.3288 52.8569C87.7216 52.2107 89.1546 51.6964 90.5876 51.1293C92.0474 50.6545 93.4804 50.127 94.967 49.7446C97.9134 48.8874 100.927 48.2675 103.98 47.8455C104.744 47.7532 105.507 47.6213 106.27 47.5554L107.034 47.4894L107.918 47.4103C108.507 47.3576 109.083 47.3048 109.672 47.2916C118.176 46.7773 126.801 48.017 134.837 50.8919C127.056 48.1225 118.779 46.6982 110.476 46.7773C109.27 46.7773 108.078 46.8564 106.873 46.9355H106.645L106.136 46.9883C105.936 46.9883 105.748 47.0147 105.547 47.041L103.203 47.3048C102.413 47.3839 101.65 47.5422 100.873 47.6609C100.096 47.7796 99.3196 47.9114 98.5428 48.0829C95.4492 48.6763 92.409 49.5599 89.4359 50.6018C77.5433 54.7823 66.8694 62.4049 59.1552 72.3617C51.4009 82.279 46.6733 94.4777 45.6287 107.006C44.5707 119.548 47.3028 132.393 53.383 143.536C59.4231 154.707 68.8113 164.123 80.1414 170.268C91.4314 176.44 104.583 179.368 117.56 178.484C130.524 177.64 143.234 173.025 153.72 165.349C164.234 157.713 172.43 146.965 177.023 134.846L171.184 132.749C167.274 143.708 160.162 153.546 150.828 160.747V160.773Z" fill="url(#paint15_linear_994_61)"/>
<path d="M140.742 174.515C128.743 179.843 115.149 181.768 102.024 179.922C88.8862 178.141 76.3373 172.471 66.1992 163.964C56.0342 155.485 48.3736 144.064 44.4496 131.443C40.4854 118.836 40.2041 105.081 43.7532 92.2753C47.2888 79.4831 54.561 67.6273 64.5787 58.62C74.5695 49.5863 87.2389 43.4408 100.672 41.0933C102.346 40.7636 104.047 40.5922 105.734 40.368C107.435 40.2361 109.136 40.0515 110.837 40.0251C114.252 39.88 117.667 40.0251 121.069 40.368C121.912 40.4735 122.769 40.5262 123.613 40.6713L124.457 40.8032L125.421 40.9614C126.064 41.0669 126.707 41.1593 127.35 41.3043C136.658 42.9924 145.617 46.6322 153.492 51.8414C145.858 46.8037 137.327 43.0715 128.341 40.9482C127.042 40.6317 125.729 40.3944 124.417 40.1702L124.176 40.1306L123.613 40.0251C123.399 39.9855 123.185 39.946 122.97 39.9196L120.372 39.5899C119.502 39.458 118.631 39.4316 117.761 39.3525C116.89 39.2734 116.02 39.2075 115.136 39.1943C111.64 39.0096 108.118 39.1679 104.636 39.4976C90.6674 40.8559 77.0873 46.2498 66.0518 54.9405C54.9896 63.5786 46.5656 75.474 42.0121 88.7146C37.4453 101.955 36.8828 116.528 40.3916 130.151C43.8603 143.787 51.4137 156.434 61.9403 166.061C72.4401 175.702 85.8059 182.335 100.029 184.828C114.238 187.36 129.198 185.751 142.604 180.238C156.023 174.778 167.795 165.362 176.059 153.533L170.34 149.735C163.121 160.509 152.782 169.24 140.742 174.528V174.515Z" fill="url(#paint16_linear_994_61)"/>
<path d="M82.9002 182.256C69.2264 176.862 57.24 167.42 48.6286 155.577C39.977 143.747 34.8476 129.412 34.0574 114.761C33.2271 100.109 36.6824 85.2066 44.0081 72.3485C51.3071 59.4903 62.3962 48.6367 75.6414 41.5812C88.8733 34.4862 104.221 31.2156 119.341 32.2443C121.23 32.3234 123.118 32.6003 124.993 32.7981C126.855 33.1147 128.743 33.352 130.591 33.7872C134.314 34.5389 137.957 35.5808 141.533 36.8732C142.417 37.2029 143.328 37.5062 144.198 37.8623L145.069 38.2315L146.073 38.6535C146.743 38.9305 147.412 39.2074 148.055 39.5239C157.617 43.81 166.296 50.1006 173.367 57.8023C166.51 50.3512 158.327 44.0737 149.234 39.4052C147.921 38.7195 146.569 38.126 145.216 37.5326L144.962 37.4139L144.386 37.1633C144.171 37.0578 143.944 36.9655 143.716 36.8864L140.997 35.8313C140.1 35.4621 139.163 35.1983 138.238 34.8818C137.314 34.5653 136.39 34.262 135.453 34.0114C131.73 32.8905 127.899 32.1256 124.042 31.5585C108.614 29.3297 92.5027 31.5585 78.2262 37.9942C63.9363 44.3771 51.6151 54.9801 43.0974 68.0492C34.553 81.1184 29.9727 96.68 30.0397 112.294C30.0397 127.909 34.7405 143.55 43.459 156.711C52.1374 169.886 64.7533 180.581 79.4048 187.03C94.0429 193.518 110.609 195.747 126.56 193.347C142.524 191.013 157.778 183.984 169.912 173.407L164.783 167.789C154.068 177.495 140.529 184.168 126.105 186.687C111.708 189.259 96.5339 187.729 82.8868 182.269L82.9002 182.256Z" fill="url(#paint17_linear_994_61)"/>
<path d="M107.032 195.892C90.8134 194.85 74.8628 189.193 61.6443 179.698C48.3723 170.268 38.0332 156.922 31.9798 141.862C25.8861 126.814 24.2656 110 27.4129 94.003C30.5066 77.9929 38.3011 62.8401 49.7115 50.9051C61.0952 38.9701 76.0012 30.2134 92.2196 26.0988C108.425 21.9578 125.862 22.4853 141.879 27.6022C143.902 28.1957 145.844 28.9737 147.826 29.6991C149.754 30.5299 151.723 31.2948 153.584 32.2443C157.388 34.0379 161.044 36.1347 164.54 38.4558C165.41 39.0492 166.294 39.6031 167.138 40.2362L167.968 40.856L168.932 41.5681C169.575 42.0429 170.231 42.5176 170.834 43.032C179.981 50.193 187.615 59.253 193.133 69.4472C187.776 59.5959 180.664 50.6677 172.133 43.2298C170.915 42.1352 169.615 41.1461 168.316 40.1438L168.075 39.9592L167.526 39.5372C167.312 39.3658 167.098 39.2075 166.883 39.0624L164.245 37.2161C163.374 36.5831 162.437 36.0556 161.54 35.4622C160.629 34.8819 159.718 34.3016 158.781 33.7873C155.071 31.5849 151.147 29.765 147.156 28.1165C131.125 21.6281 113.152 19.7554 96.0097 22.9205C78.8538 26.0197 62.6756 34.1829 49.9258 46.0256C37.1493 57.8551 27.962 73.4168 23.7701 90.2708C19.5246 107.112 20.3014 125.205 26.1138 141.703C31.8726 158.201 42.5599 173.064 56.5954 183.904C70.604 194.771 87.8537 201.55 105.706 203.198C123.545 204.913 141.92 201.365 157.897 193.176L153.893 185.764C139.683 193.387 123.277 197 107.045 195.905L107.032 195.892Z" fill="url(#paint18_linear_994_61)"/>
<path d="M83.9333 200.785C66.7238 195.365 51.0813 185.039 39.4297 171.31C27.6978 157.634 20.198 140.503 17.7739 122.66C15.3097 104.83 18.1489 86.2749 25.9166 69.8429C33.6307 53.3977 46.1662 39.1284 61.7284 29.2903C77.2638 19.439 95.7188 13.9397 114.321 13.8078C132.923 13.6231 151.579 18.8192 167.45 28.565C169.472 29.7387 171.347 31.097 173.289 32.3894C175.137 33.8005 177.052 35.1325 178.806 36.6623C182.422 39.59 185.784 42.821 188.918 46.2631C189.681 47.1334 190.498 47.9643 191.235 48.8742L191.971 49.771L192.815 50.7997C193.378 51.4854 193.953 52.158 194.462 52.8833C202.364 63.0248 208.123 74.8147 211.297 87.264C208.217 75.2235 202.98 63.7106 195.815 53.4372C194.797 51.9338 193.659 50.5227 192.534 49.0984L192.32 48.8347L191.837 48.228C191.663 47.9907 191.462 47.7665 191.275 47.5423L188.931 44.8519C188.168 43.942 187.297 43.1112 186.494 42.2408C185.677 41.3704 184.847 40.5131 183.963 39.7087C180.561 36.359 176.838 33.3522 172.981 30.5168C157.472 19.2807 138.602 12.5022 119.263 11.3812C99.9241 10.1943 80.2503 14.7045 63.2819 24.0943C46.2867 33.4577 32.1307 47.8192 23.0104 64.8711C13.8365 81.8966 9.73833 101.626 11.5061 120.946C13.2204 140.266 20.6667 159.111 32.8406 174.502C44.9743 189.918 61.7284 201.8 80.5182 208.302C99.2812 214.87 120.053 215.911 139.513 211.309L137.222 202.262C119.825 206.733 101.143 206.271 83.9467 200.798L83.9333 200.785Z" fill="url(#paint19_linear_994_61)"/>
<path d="M114.748 215.634C94.7794 215.845 74.7575 210.399 57.7087 199.954C40.6331 189.562 26.5843 174.291 17.772 156.395C8.85252 138.538 5.43741 118.084 7.70076 98.2099C9.91054 78.3358 18.0399 59.0816 30.8967 43.4276C43.7001 27.7473 61.1104 15.6672 80.5699 9.17878C100.003 2.66399 121.404 1.62215 141.506 6.40933C161.608 11.1438 180.304 21.6677 194.755 36.3853C196.603 38.1788 198.264 40.157 200.005 42.0561C201.612 44.0606 203.313 46.0124 204.786 48.1225C207.88 52.2371 210.625 56.6154 213.063 61.1521C213.652 62.2994 214.308 63.4072 214.844 64.5677L215.393 65.7282L216.023 67.0602C216.438 67.9438 216.88 68.8274 217.228 69.7505C223 82.7669 225.973 97.0098 226 111.253C225.96 97.4582 223.469 83.6637 218.54 70.6869C217.844 68.801 217.014 66.9679 216.197 65.1348L216.049 64.7919L215.701 64.0138C215.567 63.7105 215.433 63.4072 215.273 63.117L213.478 59.5959C212.902 58.409 212.192 57.288 211.563 56.1407C210.92 54.9933 210.264 53.846 209.527 52.7382C206.782 48.228 203.581 43.9947 200.192 39.9196C186.532 23.725 168.037 11.4207 147.493 5.09055C126.962 -1.31874 104.529 -1.64844 83.6635 3.96958C62.7845 9.57441 43.6063 21.2984 29.1155 37.2821C14.5712 53.213 4.78117 73.3904 1.40625 94.6887C-2.02226 115.961 0.870529 138.261 9.78999 158.083C18.6559 177.917 33.4815 195.167 51.9633 207.141C70.4049 219.195 92.516 225.802 114.748 226V215.634Z" fill="url(#paint20_linear_994_61)"/>
</g>
<defs>
<linearGradient id="paint0_linear_994_61" x1="126.984" y1="112.867" x2="99.1374" y2="112.867" gradientUnits="userSpaceOnUse">
<stop stop-color="#E1F3FF" stop-opacity="0.5"/>
<stop offset="1" stop-color="#5564C6" stop-opacity="0.2"/>
</linearGradient>
<linearGradient id="paint1_linear_994_61" x1="128.48" y1="112.986" x2="97.4979" y2="112.986" gradientUnits="userSpaceOnUse">
<stop stop-color="#E1F3FF" stop-opacity="0.5"/>
<stop offset="1" stop-color="#5564C6" stop-opacity="0.2"/>
</linearGradient>
<linearGradient id="paint2_linear_994_61" x1="130.184" y1="113.038" x2="96.5349" y2="113.038" gradientUnits="userSpaceOnUse">
<stop stop-color="#E1F3FF" stop-opacity="0.5"/>
<stop offset="1" stop-color="#5564C6" stop-opacity="0.2"/>
</linearGradient>
<linearGradient id="paint3_linear_994_61" x1="132.043" y1="113.092" x2="96.6161" y2="113.092" gradientUnits="userSpaceOnUse">
<stop stop-color="#E1F3FF" stop-opacity="0.5"/>
<stop offset="1" stop-color="#5564C6" stop-opacity="0.2"/>
</linearGradient>
<linearGradient id="paint4_linear_994_61" x1="134.102" y1="113.149" x2="97.9922" y2="113.149" gradientUnits="userSpaceOnUse">
<stop stop-color="#E1F3FF" stop-opacity="0.5"/>
<stop offset="1" stop-color="#5564C6" stop-opacity="0.2"/>
</linearGradient>
<linearGradient id="paint5_linear_994_61" x1="136.395" y1="113.122" x2="93.0522" y2="113.122" gradientUnits="userSpaceOnUse">
<stop stop-color="#E1F3FF" stop-opacity="0.5"/>
<stop offset="1" stop-color="#5564C6" stop-opacity="0.2"/>
</linearGradient>
<linearGradient id="paint6_linear_994_61" x1="138.902" y1="113.075" x2="88.2579" y2="113.075" gradientUnits="userSpaceOnUse">
<stop stop-color="#E1F3FF" stop-opacity="0.5"/>
<stop offset="1" stop-color="#5564C6" stop-opacity="0.2"/>
</linearGradient>
<linearGradient id="paint7_linear_994_61" x1="141.738" y1="113.027" x2="84.5091" y2="113.027" gradientUnits="userSpaceOnUse">
<stop stop-color="#E1F3FF" stop-opacity="0.5"/>
<stop offset="1" stop-color="#5564C6" stop-opacity="0.2"/>
</linearGradient>
<linearGradient id="paint8_linear_994_61" x1="144.914" y1="113.271" x2="81.0153" y2="113.271" gradientUnits="userSpaceOnUse">
<stop stop-color="#E1F3FF" stop-opacity="0.5"/>
<stop offset="1" stop-color="#5564C6" stop-opacity="0.2"/>
</linearGradient>
<linearGradient id="paint9_linear_994_61" x1="148.469" y1="114.607" x2="77.2204" y2="114.607" gradientUnits="userSpaceOnUse">
<stop stop-color="#E1F3FF" stop-opacity="0.5"/>
<stop offset="1" stop-color="#5564C6" stop-opacity="0.2"/>
</linearGradient>
<linearGradient id="paint10_linear_994_61" x1="152.414" y1="117.3" x2="73.0838" y2="117.3" gradientUnits="userSpaceOnUse">
<stop stop-color="#E1F3FF" stop-opacity="0.5"/>
<stop offset="1" stop-color="#5564C6" stop-opacity="0.2"/>
</linearGradient>
<linearGradient id="paint11_linear_994_61" x1="156.914" y1="117.427" x2="68.5395" y2="117.427" gradientUnits="userSpaceOnUse">
<stop stop-color="#E1F3FF" stop-opacity="0.5"/>
<stop offset="1" stop-color="#5564C6" stop-opacity="0.2"/>
</linearGradient>
<linearGradient id="paint12_linear_994_61" x1="161.98" y1="114.961" x2="63.5395" y2="114.961" gradientUnits="userSpaceOnUse">
<stop stop-color="#E1F3FF" stop-opacity="0.5"/>
<stop offset="1" stop-color="#5564C6" stop-opacity="0.2"/>
</linearGradient>
<linearGradient id="paint13_linear_994_61" x1="167.664" y1="113.334" x2="58.0354" y2="113.334" gradientUnits="userSpaceOnUse">
<stop stop-color="#E1F3FF" stop-opacity="0.5"/>
<stop offset="1" stop-color="#5564C6" stop-opacity="0.2"/>
</linearGradient>
<linearGradient id="paint14_linear_994_61" x1="173.754" y1="112.939" x2="52.0726" y2="112.939" gradientUnits="userSpaceOnUse">
<stop stop-color="#E1F3FF" stop-opacity="0.5"/>
<stop offset="1" stop-color="#5564C6" stop-opacity="0.2"/>
</linearGradient>
<linearGradient id="paint15_linear_994_61" x1="177.023" y1="112.706" x2="45.406" y2="112.706" gradientUnits="userSpaceOnUse">
<stop stop-color="#E1F3FF" stop-opacity="0.5"/>
<stop offset="1" stop-color="#5564C6" stop-opacity="0.2"/>
</linearGradient>
<linearGradient id="paint16_linear_994_61" x1="176.059" y1="112.556" x2="38.1182" y2="112.556" gradientUnits="userSpaceOnUse">
<stop stop-color="#E1F3FF" stop-opacity="0.5"/>
<stop offset="1" stop-color="#5564C6" stop-opacity="0.2"/>
</linearGradient>
<linearGradient id="paint17_linear_994_61" x1="173.367" y1="112.503" x2="30.0389" y2="112.503" gradientUnits="userSpaceOnUse">
<stop stop-color="#E1F3FF" stop-opacity="0.5"/>
<stop offset="1" stop-color="#5564C6" stop-opacity="0.2"/>
</linearGradient>
<linearGradient id="paint18_linear_994_61" x1="193.133" y1="112.518" x2="21.0795" y2="112.518" gradientUnits="userSpaceOnUse">
<stop stop-color="#E1F3FF" stop-opacity="0.5"/>
<stop offset="1" stop-color="#5564C6" stop-opacity="0.2"/>
</linearGradient>
<linearGradient id="paint19_linear_994_61" x1="211.297" y1="112.663" x2="11.1038" y2="112.663" gradientUnits="userSpaceOnUse">
<stop stop-color="#E1F3FF" stop-opacity="0.5"/>
<stop offset="1" stop-color="#5564C6" stop-opacity="0.2"/>
</linearGradient>
<linearGradient id="paint20_linear_994_61" x1="226" y1="113.002" x2="0.00566101" y2="113.002" gradientUnits="userSpaceOnUse">
<stop stop-color="#E1F3FF" stop-opacity="0.5"/>
<stop offset="1" stop-color="#5564C6" stop-opacity="0.2"/>
</linearGradient>
<clipPath id="clip0_994_61">
<rect width="226" height="226" fill="white" transform="matrix(0 1 -1 0 226 0)"/>
</clipPath>
</defs>
</svg>
