<svg width="63" height="108" viewBox="0 0 63 108" fill="none" xmlns="http://www.w3.org/2000/svg">
<path d="M61.4534 38.236L29.6106 0L7.25768 31.528L1.53516 47.4596L4.73304 66.0745L29.6106 108L53.0379 71.9441L61.4534 38.236Z" fill="url(#paint0_linear_1192_257)"/>
<mask id="mask0_1192_257" style="mask-type:alpha" maskUnits="userSpaceOnUse" x="1" y="0" width="61" height="108">
<path d="M61.462 38.236L29.6146 0L7.25851 31.528L1.53516 47.4596L4.7335 66.0745L29.6146 108L53.0453 71.9441L61.462 38.236Z" fill="url(#paint1_linear_1192_257)"/>
</mask>
<g mask="url(#mask0_1192_257)">
<path d="M32.5066 52.6583L4.22656 29.0124L29.3083 -4.0249L36.3783 49.1366L32.5066 52.6583Z" fill="url(#paint2_linear_1192_257)"/>
<path d="M45.8088 55.5097L36.3822 49.137L29.4805 -1.00586L63.1472 38.2364H54.0572L51.7005 55.5097L45.8088 52.9941V55.5097Z" fill="url(#paint3_linear_1192_257)" style="mix-blend-mode:luminosity"/>
<path d="M16.0109 50.9812C11.8025 56.6271 3.31851 67.9526 3.04917 68.0868L0.1875 47.124L16.0109 50.9812Z" fill="url(#paint4_linear_1192_257)"/>
<path d="M3.55469 67.5839L16.0114 50.9814V52.6585L6.75303 70.7703L3.55469 67.5839Z" fill="url(#paint5_linear_1192_257)"/>
<path d="M16.0105 50.9814L2.03881 41.7578L0.355469 47.1243L16.0105 50.9814Z" fill="url(#paint6_linear_1192_257)"/>
<path d="M33.1811 25.9937L32.5078 52.6582L36.3795 49.1365L33.1811 25.9937Z" fill="url(#paint7_linear_1192_257)"/>
<path d="M16.0117 50.9814L32.5084 52.6585L42.6085 60.5405L36.3801 76.6398L30.1518 92.7392L16.0117 52.6585V50.9814Z" fill="url(#paint8_linear_1192_257)" style="mix-blend-mode:luminosity"/>
<path d="M30.1534 92.7393L29.6484 109.174L38.2335 95.2548L31.8368 101.124L30.1534 92.7393Z" fill="url(#paint9_linear_1192_257)"/>
<path d="M32.5078 52.6585L36.3795 49.1367L42.6078 60.5404L32.5078 52.6585Z" fill="url(#paint10_linear_1192_257)"/>
<path d="M27.2901 48.2979L16.0117 50.9811L32.5084 52.6581L27.2901 48.2979Z" fill="url(#paint11_linear_1192_257)"/>
<path d="M54.053 38.2363H62.133L53.043 74.4599L54.053 38.2363Z" fill="url(#paint12_linear_1192_257)" style="mix-blend-mode:luminosity"/>
<path d="M51.6964 55.5092L45.8047 52.9937L53.2114 72.2794L51.6964 55.5092Z" fill="url(#paint13_linear_1192_257)"/>
<path d="M53.8874 72.4474L42.609 60.5405L30.1523 92.7393L53.8874 72.4474Z" fill="url(#paint14_linear_1192_257)"/>
</g>
<path fill-rule="evenodd" clip-rule="evenodd" d="M33.7025 18.5417L25.4842 7.24624L34.5386 18.5166L34.5807 18.5803L41.5955 11.5396L34.8304 18.9587L43.1451 31.5589L34.361 19.4495L27.2651 25.9039L33.9317 19.2317L34.0887 19.0741L33.7025 18.5417Z" fill="white"/>
<circle cx="34.7115" cy="19.2857" r="10.2857" fill="url(#paint15_radial_1192_257)" style="mix-blend-mode:soft-light"/>
<defs>
<linearGradient id="paint0_linear_1192_257" x1="46.9835" y1="15.2785" x2="30.2279" y2="109.56" gradientUnits="userSpaceOnUse">
<stop stop-color="#5564C6"/>
<stop offset="1" stop-color="#4D59A8"/>
</linearGradient>
<linearGradient id="paint1_linear_1192_257" x1="46.99" y1="15.2785" x2="29.3507" y2="108.03" gradientUnits="userSpaceOnUse">
<stop stop-color="#AFB8F3"/>
<stop offset="1" stop-color="#5461B8"/>
</linearGradient>
<linearGradient id="paint2_linear_1192_257" x1="20.3866" y1="-3.8572" x2="20.3866" y2="52.6583" gradientUnits="userSpaceOnUse">
<stop stop-color="#7A85CE" stop-opacity="0.36"/>
<stop offset="1" stop-color="#5E6DCF" stop-opacity="0.97"/>
</linearGradient>
<linearGradient id="paint3_linear_1192_257" x1="29.1954" y1="0.000150324" x2="50.8348" y2="56.3645" gradientUnits="userSpaceOnUse">
<stop stop-color="#7987DF" stop-opacity="0.44"/>
<stop offset="1" stop-color="#6B79D4"/>
<stop offset="1" stop-color="#7888EE"/>
</linearGradient>
<linearGradient id="paint4_linear_1192_257" x1="10.4559" y1="50.9812" x2="4.77056" y2="66.9264" gradientUnits="userSpaceOnUse">
<stop stop-color="#434F9C"/>
<stop offset="1" stop-color="#5564C6" stop-opacity="0.27"/>
</linearGradient>
<linearGradient id="paint5_linear_1192_257" x1="18.0532" y1="45.6922" x2="9.48498" y2="71.083" gradientUnits="userSpaceOnUse">
<stop stop-color="#8692E0"/>
<stop offset="1" stop-color="#E3E3E3" stop-opacity="0"/>
</linearGradient>
<linearGradient id="paint6_linear_1192_257" x1="1.70214" y1="44.7764" x2="15.4781" y2="53.0395" gradientUnits="userSpaceOnUse">
<stop stop-color="#707DD2"/>
<stop offset="0.977584" stop-color="#656EAC" stop-opacity="0.2"/>
</linearGradient>
<linearGradient id="paint7_linear_1192_257" x1="34.4374" y1="28.4663" x2="34.4436" y2="52.6583" gradientUnits="userSpaceOnUse">
<stop offset="0.35935" stop-color="#5564C6"/>
<stop offset="1" stop-color="#AEB9FF" stop-opacity="0.55"/>
</linearGradient>
<linearGradient id="paint8_linear_1192_257" x1="33.3501" y1="48.4659" x2="29.2282" y2="89.1223" gradientUnits="userSpaceOnUse">
<stop offset="0.12087" stop-color="#8693E9"/>
<stop offset="1" stop-color="#6670AD"/>
</linearGradient>
<linearGradient id="paint9_linear_1192_257" x1="28.9751" y1="86.8697" x2="30.813" y2="108.001" gradientUnits="userSpaceOnUse">
<stop stop-color="#7384EA"/>
<stop offset="0.7796" stop-color="#4D5798" stop-opacity="0.78"/>
</linearGradient>
<linearGradient id="paint10_linear_1192_257" x1="37.5578" y1="49.1367" x2="37.5578" y2="60.5404" gradientUnits="userSpaceOnUse">
<stop stop-color="#5564C6"/>
<stop offset="1" stop-color="#8D98E6" stop-opacity="0.64"/>
</linearGradient>
<linearGradient id="paint11_linear_1192_257" x1="22.4084" y1="47.9624" x2="22.5755" y2="52.3227" gradientUnits="userSpaceOnUse">
<stop stop-color="#5564C6" stop-opacity="0"/>
<stop offset="1" stop-color="#97A5FB"/>
</linearGradient>
<linearGradient id="paint12_linear_1192_257" x1="52.538" y1="34.3792" x2="57.7187" y2="60.2128" gradientUnits="userSpaceOnUse">
<stop stop-color="#5564C6" stop-opacity="0.62"/>
<stop offset="0.546875" stop-color="#7E89CE"/>
<stop offset="1" stop-color="#7083FF"/>
</linearGradient>
<linearGradient id="paint13_linear_1192_257" x1="49.508" y1="52.9937" x2="53.3515" y2="75.3029" gradientUnits="userSpaceOnUse">
<stop stop-color="#6170D0"/>
<stop offset="1" stop-color="#5564C6" stop-opacity="0.68"/>
</linearGradient>
<linearGradient id="paint14_linear_1192_257" x1="45.3291" y1="59.6643" x2="33.2039" y2="92.9561" gradientUnits="userSpaceOnUse">
<stop stop-color="#7E8AD8" stop-opacity="0.77"/>
<stop offset="1" stop-color="#4654AF"/>
</linearGradient>
<radialGradient id="paint15_radial_1192_257" cx="0" cy="0" r="1" gradientUnits="userSpaceOnUse" gradientTransform="translate(34.7115 19.2857) rotate(90) scale(10.2857)">
<stop stop-color="white"/>
<stop offset="1" stop-color="white" stop-opacity="0"/>
</radialGradient>
</defs>
</svg>
