<svg width="62" height="108" viewBox="0 0 62 108" fill="none" xmlns="http://www.w3.org/2000/svg">
<path d="M62 35.6814L29.2513 0L2.22564 30.2655V41.7345L0 50.3363L6.67692 64.9911L26.0718 108L62 35.6814Z" fill="url(#paint0_linear_1192_301)"/>
<mask id="mask0_1192_301" style="mask-type:alpha" maskUnits="userSpaceOnUse" x="0" y="0" width="62" height="108">
<path d="M62 35.6814L29.2513 0L2.22564 30.2655V41.7345L0 50.3363L5.40513 62.1239L26.0718 108L62 35.6814Z" fill="#8C6FE6"/>
</mask>
<g mask="url(#mask0_1192_301)">
<path d="M26.0705 94.6189V112.778L17.168 91.4331L26.0705 94.6189Z" fill="url(#paint1_linear_1192_301)"/>
<path d="M26.0742 94.6197V112.779L58.187 50.3365L52.464 43.9648L26.0742 94.6197Z" fill="url(#paint2_linear_1192_301)"/>
<path d="M52.4601 43.9646L51.8242 36.6372L59.455 43.3275L56.5934 48.7434L52.4601 43.9646Z" fill="url(#paint3_linear_1192_301)"/>
<path d="M29.25 9.87621V-6.37158L53.0962 25.4868L51.8244 36.6373L29.25 9.87621Z" fill="url(#paint4_linear_1192_301)"/>
<path d="M47.375 18.4775L51.8263 36.6368L53.0981 24.5306L47.375 18.4775Z" fill="url(#paint5_linear_1192_301)"/>
<path d="M51.8242 36.6372L52.7781 24.8496L58.1832 30.2655L51.8242 36.6372Z" fill="url(#paint6_linear_1192_301)"/>
<path d="M51.8246 36.6365L29.2502 9.87549L8.26562 73.5923L11.1272 79.3268L16.2143 80.6011L51.8246 36.6365Z" fill="url(#paint7_linear_1192_301)" style="mix-blend-mode:luminosity"/>
<path d="M16.2162 80.6018L12.7188 79.646L15.8982 86.3369L16.2162 80.6018Z" fill="#846BD6"/>
<path d="M6.67847 34.0889L2.22718 30.2659L-0.316406 28.3543L29.2528 -1.91113V9.87648L6.67847 34.0889Z" fill="url(#paint8_linear_1192_301)" style="mix-blend-mode:luminosity"/>
<path d="M6.67857 34.089L2.22728 30.2661L1.27344 43.0093L6.67857 34.089Z" fill="#9F70EB"/>
<path d="M10.1732 67.8578L6.67578 34.0879L29.2501 9.87549L10.1732 67.8578Z" fill="url(#paint9_linear_1192_301)"/>
<path d="M9.21927 58.6191L5.08594 64.9908L7.94748 73.9112L9.21927 70.7253L10.1731 67.8581L9.21927 58.6191Z" fill="url(#paint10_linear_1192_301)"/>
<path d="M15.8984 86.9735L16.2164 80.6018L51.8266 36.6372L52.4625 43.9646L26.0728 94.6195L18.442 92.0708L15.8984 86.9735Z" fill="url(#paint11_linear_1192_301)" style="mix-blend-mode:luminosity"/>
<path fill-rule="evenodd" clip-rule="evenodd" d="M29.0346 10.0548L27.2029 -2.41195L29.6744 10.1363L37.1472 11.0881L29.7466 10.5061L31.8352 23.4218L29.1027 10.4554L29.0671 10.4526L20.9971 9.53515L28.942 10.043L29.0346 10.0548Z" fill="white"/>
<ellipse cx="29.7083" cy="10.2857" rx="10.3333" ry="10.2857" fill="url(#paint12_radial_1192_301)" style="mix-blend-mode:soft-light"/>
</g>
<defs>
<linearGradient id="paint0_linear_1192_301" x1="43.4554" y1="14.699" x2="26.506" y2="109.537" gradientUnits="userSpaceOnUse">
<stop stop-color="#8C6FE6"/>
<stop offset="1" stop-color="#7763B5"/>
</linearGradient>
<linearGradient id="paint1_linear_1192_301" x1="17.168" y1="92.3889" x2="23.23" y2="107.991" gradientUnits="userSpaceOnUse">
<stop stop-color="#765FC1" stop-opacity="0.02"/>
<stop offset="1" stop-color="#765FC1"/>
</linearGradient>
<linearGradient id="paint2_linear_1192_301" x1="47.0588" y1="43.6463" x2="23.1269" y2="115.299" gradientUnits="userSpaceOnUse">
<stop stop-color="#A58BF5"/>
<stop offset="1" stop-color="#8669E2"/>
</linearGradient>
<linearGradient id="paint3_linear_1192_301" x1="55.9576" y1="40.1416" x2="57.2342" y2="46.5123" gradientUnits="userSpaceOnUse">
<stop offset="0.0261079" stop-color="#8A6EE1"/>
<stop offset="1" stop-color="#7D65C9" stop-opacity="0"/>
</linearGradient>
<linearGradient id="paint4_linear_1192_301" x1="39.4244" y1="10.1948" x2="37.5093" y2="19.7508" gradientUnits="userSpaceOnUse">
<stop stop-color="#7C71D3"/>
<stop offset="1" stop-color="#876DDB" stop-opacity="0.82"/>
<stop offset="1" stop-color="#9E7FFF" stop-opacity="0.63"/>
</linearGradient>
<linearGradient id="paint5_linear_1192_301" x1="53.734" y1="23.8935" x2="46.7223" y2="32.4815" gradientUnits="userSpaceOnUse">
<stop stop-color="#8468DD"/>
<stop offset="1" stop-color="#8468DD" stop-opacity="0"/>
<stop offset="1" stop-color="#8468DD" stop-opacity="0.72"/>
</linearGradient>
<linearGradient id="paint6_linear_1192_301" x1="55.9576" y1="27.0797" x2="52.7666" y2="36.6334" gradientUnits="userSpaceOnUse">
<stop stop-color="#AA98E3"/>
<stop offset="1" stop-color="#BDAEED" stop-opacity="0"/>
</linearGradient>
<linearGradient id="paint7_linear_1192_301" x1="65.4964" y1="18.7958" x2="2.41946" y2="80.4753" gradientUnits="userSpaceOnUse">
<stop stop-color="#C3B5EF"/>
<stop offset="0.0001" stop-color="#D8CBFE"/>
<stop offset="0.975225" stop-color="#8C6FE6"/>
</linearGradient>
<linearGradient id="paint8_linear_1192_301" x1="16.5349" y1="10.8322" x2="14.46" y2="34.0881" gradientUnits="userSpaceOnUse">
<stop stop-color="#D8CFF6"/>
<stop offset="1" stop-color="#D6C9FF" stop-opacity="0"/>
</linearGradient>
<linearGradient id="paint9_linear_1192_301" x1="26.7066" y1="0.955134" x2="3.09502" y2="66.5535" gradientUnits="userSpaceOnUse">
<stop stop-color="#9C72E0"/>
<stop offset="1" stop-color="#9F70EB" stop-opacity="0.4"/>
</linearGradient>
<linearGradient id="paint10_linear_1192_301" x1="12.3988" y1="58.9377" x2="12.3988" y2="65.3094" gradientUnits="userSpaceOnUse">
<stop stop-color="#7862BE"/>
<stop offset="1" stop-color="#7862BE" stop-opacity="0"/>
</linearGradient>
<linearGradient id="paint11_linear_1192_301" x1="43.242" y1="35.0443" x2="33.0285" y2="86.6472" gradientUnits="userSpaceOnUse">
<stop stop-color="#AF9AF3"/>
<stop offset="1" stop-color="#8C70E6"/>
</linearGradient>
<radialGradient id="paint12_radial_1192_301" cx="0" cy="0" r="1" gradientUnits="userSpaceOnUse" gradientTransform="translate(29.7083 10.2857) rotate(90) scale(10.2857 10.3333)">
<stop stop-color="white"/>
<stop offset="1" stop-color="white" stop-opacity="0"/>
</radialGradient>
</defs>
</svg>
