<svg width="290" height="290" viewBox="0 0 290 290" fill="none" xmlns="http://www.w3.org/2000/svg">
<g clip-path="url(#clip0_907_266)">
<path d="M45.6992 250.766L53.3454 242.762C67.3664 249.316 82.9811 253.041 99.4553 253.184C146.837 253.614 187.557 224.461 204.102 182.936C190.493 229.708 147.123 263.713 96.0172 263.247C77.8777 263.086 60.7946 258.592 45.7171 250.766H45.6992Z" fill="url(#paint0_linear_907_266)" fill-opacity="0.5"/>
<path d="M76.4437 272.863L81.7441 263.158C96.9827 265.862 113.027 265.414 128.982 261.296C174.859 249.441 206.644 210.745 211.873 166.354C210.834 215.06 177.742 259.129 128.248 271.896C110.681 276.427 93.0074 276.516 76.4258 272.863H76.4437Z" fill="url(#paint1_linear_907_266)" fill-opacity="0.5"/>
<path d="M111.883 286.24L114.497 275.478C129.915 274.135 145.297 269.551 159.64 261.439C200.879 238.124 221.58 192.498 215.151 148.286C226.755 195.596 206.18 246.72 161.699 271.879C145.906 280.814 128.858 285.47 111.901 286.222L111.883 286.24Z" fill="url(#paint2_linear_907_266)" fill-opacity="0.5"/>
<path d="M149.558 290L149.289 278.934C163.829 273.651 177.51 265.253 189.257 253.685C223.065 220.486 231.23 171.063 213.574 130.021C237.032 172.729 230.389 227.434 193.931 263.247C180.984 275.961 165.727 284.879 149.54 290H149.558Z" fill="url(#paint3_linear_907_266)" fill-opacity="0.5"/>
<path d="M186.928 283.894L183.812 273.275C196.49 264.411 207.521 252.754 215.884 238.554C239.95 197.744 235.044 147.892 207.378 112.812C241.078 147.999 248.832 202.543 222.885 246.576C213.681 262.209 201.236 274.761 186.928 283.912V283.894Z" fill="url(#paint4_linear_907_266)" fill-opacity="0.5"/>
<path d="M221.454 268.297L215.688 258.842C225.644 246.988 233.273 232.878 237.696 216.994C250.374 171.35 232.753 124.452 196.922 97.7354C238.573 122.984 260.186 173.678 246.524 222.922C241.671 240.398 232.914 255.745 221.454 268.279V268.297Z" fill="url(#paint5_linear_907_266)" fill-opacity="0.5"/>
<path d="M250.764 244.32L242.76 236.674C249.314 222.653 253.039 207.038 253.182 190.564C253.612 143.182 224.459 102.462 182.934 85.9165C229.706 99.5256 263.711 142.896 263.245 194.002C263.084 212.141 258.59 229.224 250.764 244.302V244.32Z" fill="url(#paint6_linear_907_266)" fill-opacity="0.5"/>
<path d="M272.865 213.556L263.159 208.256C265.863 193.017 265.416 176.973 261.297 161.018C249.443 115.141 210.746 83.3561 166.355 78.1094C215.062 79.148 259.13 112.24 271.898 161.734C276.428 179.3 276.518 196.974 272.865 213.556Z" fill="url(#paint7_linear_907_266)" fill-opacity="0.5"/>
<path d="M286.239 178.136L275.477 175.522C274.134 160.104 269.55 144.722 261.438 130.379C238.123 89.1398 192.497 68.4396 148.285 74.8681C195.595 63.2646 246.719 83.8394 271.878 128.32C280.813 144.114 285.469 161.161 286.221 178.119L286.239 178.136Z" fill="url(#paint8_linear_907_266)" fill-opacity="0.5"/>
<path d="M289.999 140.443L278.932 140.712C273.65 126.171 265.251 112.49 253.684 100.744C220.484 66.9356 171.062 58.7702 130.02 76.4262C172.727 52.9684 227.432 59.6118 263.246 96.0699C275.96 109.017 284.877 124.273 289.999 140.461V140.443Z" fill="url(#paint9_linear_907_266)" fill-opacity="0.5"/>
<path d="M283.894 103.072L273.275 106.187C264.411 93.5093 252.754 82.4788 238.554 74.1163C197.744 50.0496 147.892 54.9561 112.812 82.622C147.999 48.9215 202.543 41.1679 246.576 67.1147C262.209 76.3188 274.761 88.764 283.912 103.072H283.894Z" fill="url(#paint10_linear_907_266)" fill-opacity="0.5"/>
<path d="M268.296 68.5472L258.841 74.3131C246.987 64.357 232.877 56.7287 216.993 52.3057C171.349 39.6277 124.451 57.248 97.7344 93.0794C122.983 51.4283 173.677 29.8148 222.921 43.4777C240.398 48.3304 255.744 57.0868 268.278 68.5472H268.296Z" fill="url(#paint11_linear_907_266)" fill-opacity="0.5"/>
<path d="M244.321 39.2519L236.675 47.2562C222.654 40.7023 207.039 36.9777 190.565 36.8344C143.184 36.4047 102.464 65.5569 85.918 107.083C99.5271 60.3102 142.897 26.3053 194.003 26.7708C212.143 26.932 229.226 31.4266 244.303 39.2519H244.321Z" fill="url(#paint12_linear_907_266)" fill-opacity="0.5"/>
<path d="M213.558 17.1549L208.257 26.8604C193.019 24.1564 176.974 24.6041 161.019 28.7406C115.142 40.5949 83.3577 79.2914 78.1289 123.682C79.1675 74.9758 112.259 30.9073 161.753 18.1398C179.32 13.6094 196.994 13.5198 213.576 17.1728L213.558 17.1549Z" fill="url(#paint13_linear_907_266)" fill-opacity="0.5"/>
<path d="M178.136 3.76025L175.522 14.5222C160.104 15.8652 144.722 20.4494 130.379 28.5611C89.1398 51.8757 68.4396 97.5022 74.8681 141.714C63.2646 94.4043 83.8394 43.2805 128.32 18.1215C144.114 9.186 161.161 4.53024 178.119 3.77816L178.136 3.76025Z" fill="url(#paint14_linear_907_266)" fill-opacity="0.5"/>
<path d="M140.443 0L140.712 11.0664C126.172 16.3489 112.491 24.7471 100.744 36.3149C66.9361 69.514 58.7706 118.937 76.4267 159.979C52.9689 117.271 59.6123 62.5662 96.0704 26.7527C109.017 14.0389 124.274 5.12133 140.461 0L140.443 0Z" fill="url(#paint15_linear_907_266)" fill-opacity="0.5"/>
<path d="M103.071 6.12435L106.186 16.7431C93.5083 25.6069 82.4778 37.2642 74.1153 51.4643C50.0486 92.2738 54.9551 142.126 82.621 177.206C48.9205 142.019 41.1669 87.4748 67.1138 43.442C76.3178 27.8094 88.7631 15.2568 103.071 6.10645V6.12435Z" fill="url(#paint16_linear_907_266)" fill-opacity="0.5"/>
<path d="M68.5472 21.7031L74.3131 31.1579C64.357 43.0122 56.7287 57.1227 52.3057 73.006C39.6277 118.65 57.248 165.548 93.0794 192.265C51.4283 167.016 29.8148 116.322 43.4777 67.0789C48.3304 49.6019 57.0868 34.2558 68.5472 21.721V21.7031Z" fill="url(#paint17_linear_907_266)" fill-opacity="0.5"/>
<path d="M39.2514 45.6982L47.2557 53.3444C40.7018 67.3654 36.9772 82.9801 36.8339 99.4543C36.4042 146.836 65.5564 187.556 107.082 204.101C60.3097 190.492 26.3048 147.122 26.7703 96.0162C26.9315 77.8767 31.4261 60.7936 39.2514 45.7161V45.6982Z" fill="url(#paint18_linear_907_266)" fill-opacity="0.5"/>
<path d="M17.1528 76.4442L26.8583 81.7446C24.1543 96.9832 24.602 113.028 28.7206 128.983C40.5748 174.86 79.2713 206.644 123.662 211.873C74.9558 210.834 30.8873 177.743 18.1198 128.248C13.5893 110.682 13.4998 93.0079 17.1528 76.4263V76.4442Z" fill="url(#paint19_linear_907_266)" fill-opacity="0.5"/>
<path d="M3.76172 111.881L14.5237 114.496C15.8667 129.913 20.4508 145.295 28.5626 159.639C51.8772 200.878 97.5036 221.578 141.715 215.15C94.4057 226.753 43.2819 206.178 18.1229 161.698C9.18747 145.904 4.53171 128.857 3.77963 111.899L3.76172 111.881Z" fill="url(#paint20_linear_907_266)" fill-opacity="0.5"/>
<path d="M0 149.557L11.0664 149.289C16.3489 163.829 24.7471 177.51 36.3149 189.256C69.514 223.064 118.937 231.23 159.979 213.574C117.271 237.032 62.5662 230.388 26.7527 193.93C14.0389 180.984 5.12133 165.727 0 149.539L0 149.557Z" fill="url(#paint21_linear_907_266)" fill-opacity="0.5"/>
<path d="M6.12338 186.929L16.7421 183.813C25.6059 196.491 37.2632 207.522 51.4633 215.884C92.2728 239.951 142.125 235.044 177.205 207.378C142.018 241.079 87.4738 248.832 43.4411 222.886C27.8085 213.681 15.2558 201.236 6.10547 186.929H6.12338Z" fill="url(#paint22_linear_907_266)" fill-opacity="0.5"/>
<path d="M21.7031 221.453L31.1579 215.687C43.0122 225.643 57.1227 233.272 73.006 237.695C118.65 250.373 165.548 232.752 192.265 196.921C167.016 238.572 116.322 260.185 67.0789 246.523C49.6019 241.67 34.2558 232.913 21.721 221.453H21.7031Z" fill="url(#paint23_linear_907_266)" fill-opacity="0.5"/>
</g>
<defs>
<linearGradient id="paint0_linear_907_266" x1="124.901" y1="182.936" x2="124.901" y2="263.252" gradientUnits="userSpaceOnUse">
<stop stop-color="#E1F3FF" stop-opacity="0.5"/>
<stop offset="1" stop-color="#5564C6" stop-opacity="0.2"/>
</linearGradient>
<linearGradient id="paint1_linear_907_266" x1="144.149" y1="166.354" x2="144.149" y2="275.462" gradientUnits="userSpaceOnUse">
<stop stop-color="#E1F3FF" stop-opacity="0.5"/>
<stop offset="1" stop-color="#5564C6" stop-opacity="0.2"/>
</linearGradient>
<linearGradient id="paint2_linear_907_266" x1="165.111" y1="148.286" x2="165.111" y2="286.24" gradientUnits="userSpaceOnUse">
<stop stop-color="#E1F3FF" stop-opacity="0.5"/>
<stop offset="1" stop-color="#5564C6" stop-opacity="0.2"/>
</linearGradient>
<linearGradient id="paint3_linear_907_266" x1="188.295" y1="130.021" x2="188.295" y2="290" gradientUnits="userSpaceOnUse">
<stop stop-color="#E1F3FF" stop-opacity="0.5"/>
<stop offset="1" stop-color="#5564C6" stop-opacity="0.2"/>
</linearGradient>
<linearGradient id="paint4_linear_907_266" x1="211.078" y1="112.812" x2="211.078" y2="283.912" gradientUnits="userSpaceOnUse">
<stop stop-color="#E1F3FF" stop-opacity="0.5"/>
<stop offset="1" stop-color="#5564C6" stop-opacity="0.2"/>
</linearGradient>
<linearGradient id="paint5_linear_907_266" x1="223.766" y1="97.7354" x2="223.766" y2="268.297" gradientUnits="userSpaceOnUse">
<stop stop-color="#E1F3FF" stop-opacity="0.5"/>
<stop offset="1" stop-color="#5564C6" stop-opacity="0.2"/>
</linearGradient>
<linearGradient id="paint6_linear_907_266" x1="223.092" y1="85.9165" x2="223.092" y2="244.32" gradientUnits="userSpaceOnUse">
<stop stop-color="#E1F3FF" stop-opacity="0.5"/>
<stop offset="1" stop-color="#5564C6" stop-opacity="0.2"/>
</linearGradient>
<linearGradient id="paint7_linear_907_266" x1="220.909" y1="78.1094" x2="220.909" y2="213.556" gradientUnits="userSpaceOnUse">
<stop stop-color="#E1F3FF" stop-opacity="0.5"/>
<stop offset="1" stop-color="#5564C6" stop-opacity="0.2"/>
</linearGradient>
<linearGradient id="paint8_linear_907_266" x1="217.262" y1="71.6797" x2="217.262" y2="178.136" gradientUnits="userSpaceOnUse">
<stop stop-color="#E1F3FF" stop-opacity="0.5"/>
<stop offset="1" stop-color="#5564C6" stop-opacity="0.2"/>
</linearGradient>
<linearGradient id="paint9_linear_907_266" x1="210.009" y1="62.6987" x2="210.009" y2="140.712" gradientUnits="userSpaceOnUse">
<stop stop-color="#E1F3FF" stop-opacity="0.5"/>
<stop offset="1" stop-color="#5564C6" stop-opacity="0.2"/>
</linearGradient>
<linearGradient id="paint10_linear_907_266" x1="198.362" y1="51.6572" x2="198.362" y2="106.187" gradientUnits="userSpaceOnUse">
<stop stop-color="#E1F3FF" stop-opacity="0.5"/>
<stop offset="1" stop-color="#5564C6" stop-opacity="0.2"/>
</linearGradient>
<linearGradient id="paint11_linear_907_266" x1="183.015" y1="39.3906" x2="183.015" y2="93.0794" gradientUnits="userSpaceOnUse">
<stop stop-color="#E1F3FF" stop-opacity="0.5"/>
<stop offset="1" stop-color="#5564C6" stop-opacity="0.2"/>
</linearGradient>
<linearGradient id="paint12_linear_907_266" x1="165.12" y1="26.7661" x2="165.12" y2="107.083" gradientUnits="userSpaceOnUse">
<stop stop-color="#E1F3FF" stop-opacity="0.5"/>
<stop offset="1" stop-color="#5564C6" stop-opacity="0.2"/>
</linearGradient>
<linearGradient id="paint13_linear_907_266" x1="145.852" y1="14.5747" x2="145.852" y2="123.682" gradientUnits="userSpaceOnUse">
<stop stop-color="#E1F3FF" stop-opacity="0.5"/>
<stop offset="1" stop-color="#5564C6" stop-opacity="0.2"/>
</linearGradient>
<linearGradient id="paint14_linear_907_266" x1="124.908" y1="3.76025" x2="124.908" y2="141.714" gradientUnits="userSpaceOnUse">
<stop stop-color="#E1F3FF" stop-opacity="0.5"/>
<stop offset="1" stop-color="#5564C6" stop-opacity="0.2"/>
</linearGradient>
<linearGradient id="paint15_linear_907_266" x1="101.706" y1="0" x2="101.706" y2="159.979" gradientUnits="userSpaceOnUse">
<stop stop-color="#E1F3FF" stop-opacity="0.5"/>
<stop offset="1" stop-color="#5564C6" stop-opacity="0.2"/>
</linearGradient>
<linearGradient id="paint16_linear_907_266" x1="78.9213" y1="6.10645" x2="78.9213" y2="177.206" gradientUnits="userSpaceOnUse">
<stop stop-color="#E1F3FF" stop-opacity="0.5"/>
<stop offset="1" stop-color="#5564C6" stop-opacity="0.2"/>
</linearGradient>
<linearGradient id="paint17_linear_907_266" x1="66.235" y1="21.7031" x2="66.235" y2="192.265" gradientUnits="userSpaceOnUse">
<stop stop-color="#E1F3FF" stop-opacity="0.5"/>
<stop offset="1" stop-color="#5564C6" stop-opacity="0.2"/>
</linearGradient>
<linearGradient id="paint18_linear_907_266" x1="66.9239" y1="45.6982" x2="66.9239" y2="204.101" gradientUnits="userSpaceOnUse">
<stop stop-color="#E1F3FF" stop-opacity="0.5"/>
<stop offset="1" stop-color="#5564C6" stop-opacity="0.2"/>
</linearGradient>
<linearGradient id="paint19_linear_907_266" x1="69.1084" y1="76.4263" x2="69.1084" y2="211.873" gradientUnits="userSpaceOnUse">
<stop stop-color="#E1F3FF" stop-opacity="0.5"/>
<stop offset="1" stop-color="#5564C6" stop-opacity="0.2"/>
</linearGradient>
<linearGradient id="paint20_linear_907_266" x1="72.7386" y1="111.881" x2="72.7386" y2="218.338" gradientUnits="userSpaceOnUse">
<stop stop-color="#E1F3FF" stop-opacity="0.5"/>
<stop offset="1" stop-color="#5564C6" stop-opacity="0.2"/>
</linearGradient>
<linearGradient id="paint21_linear_907_266" x1="79.9895" y1="149.289" x2="79.9895" y2="227.301" gradientUnits="userSpaceOnUse">
<stop stop-color="#E1F3FF" stop-opacity="0.5"/>
<stop offset="1" stop-color="#5564C6" stop-opacity="0.2"/>
</linearGradient>
<linearGradient id="paint22_linear_907_266" x1="91.655" y1="183.813" x2="91.655" y2="238.343" gradientUnits="userSpaceOnUse">
<stop stop-color="#E1F3FF" stop-opacity="0.5"/>
<stop offset="1" stop-color="#5564C6" stop-opacity="0.2"/>
</linearGradient>
<linearGradient id="paint23_linear_907_266" x1="106.984" y1="196.921" x2="106.984" y2="250.61" gradientUnits="userSpaceOnUse">
<stop stop-color="#E1F3FF" stop-opacity="0.5"/>
<stop offset="1" stop-color="#5564C6" stop-opacity="0.2"/>
</linearGradient>
<clipPath id="clip0_907_266">
<rect width="290" height="290" fill="white"/>
</clipPath>
</defs>
</svg>
